<svg xmlns="http://www.w3.org/2000/svg" viewBox="0 0 96.7 96.2"><circle cx="48.9" cy="47.3" r="37.4"/><g fill="#FFF"><path d="M30.1 66V43.3h-8.8V38l3.6-.3c1.2-.2 2.2-.6 3.1-1.2a8 8 0 002.3-2.2 8 8 0 001.3-3.4h5.7v35l-7.2.1c0-.1 0 0 0 0zM68.9 43a50.4 50.4 0 00-6.6 22.9h-7.6c.4-5.3 1.6-10.3 3.7-15.1 2.1-4.9 4.8-9.3 8.1-13.3H49.9V31h23.9v6.1a23.7 23.7 0 00-4.9 5.9z"/></g><g fill="none" stroke="#EC0000" stroke-width="8" stroke-miterlimit="10"><circle cx="48.9" cy="47.3" r="37.4"/><path d="M72.9 22L28.5 75.8"/></g></svg>