<?xml version="1.0" encoding="utf-8"?>
<!-- Generator: Adobe Illustrator 23.0.1, SVG Export Plug-In . SVG Version: 6.00 Build 0)  -->
<svg version="1.1" id="圖層_1" xmlns="http://www.w3.org/2000/svg" xmlns:xlink="http://www.w3.org/1999/xlink" x="0px" y="0px"
	 viewBox="0 0 360 137" style="enable-background:new 0 0 360 137;" xml:space="preserve">
<style type="text/css">
	.st0{fill:#595757;stroke:#595757;stroke-width:0.8132;stroke-linecap:round;stroke-linejoin:round;stroke-miterlimit:10;}
	.st1{fill:#595757;stroke:#595757;stroke-width:0.9064;stroke-linecap:round;stroke-linejoin:round;stroke-miterlimit:10;}
	.st2{fill:#595757;stroke:#595757;stroke-width:0.8611;stroke-linecap:round;stroke-linejoin:round;stroke-miterlimit:10;}
	.st3{fill:#595757;stroke:#595757;stroke-width:0.7714;stroke-linecap:round;stroke-linejoin:round;stroke-miterlimit:10;}
	.st4{fill:#595757;stroke:#595757;stroke-width:1.1007;stroke-linecap:round;stroke-linejoin:round;stroke-miterlimit:10;}
	.st5{fill:#595757;stroke:#595757;stroke-width:0.8072;stroke-linecap:round;stroke-linejoin:round;stroke-miterlimit:10;}
	.st6{fill:#595757;stroke:#595757;stroke-width:0.8241;stroke-linecap:round;stroke-linejoin:round;stroke-miterlimit:10;}
	.st7{fill:#595757;stroke:#595757;stroke-width:0.8333;stroke-linecap:round;stroke-linejoin:round;stroke-miterlimit:10;}
	.st8{fill:#595757;stroke:#595757;stroke-width:0.8122;stroke-linecap:round;stroke-linejoin:round;stroke-miterlimit:10;}
	.st9{fill:#595757;stroke:#595757;stroke-width:0.7714;stroke-miterlimit:10;}
	.st10{fill:#595757;stroke:#595757;stroke-width:0.8128;stroke-linecap:round;stroke-linejoin:round;stroke-miterlimit:10;}
	.st11{fill:#595757;stroke:#595757;stroke-width:0.89;stroke-linecap:round;stroke-linejoin:round;stroke-miterlimit:10;}
	.st12{fill:#595757;stroke:#595757;stroke-width:1.0679;stroke-linecap:round;stroke-linejoin:round;stroke-miterlimit:10;}
	.st13{fill:#595757;stroke:#595757;stroke-width:0.7363;stroke-linecap:round;stroke-linejoin:round;stroke-miterlimit:10;}
	.st14{fill:#595757;stroke:#595757;stroke-width:0.7609;stroke-linecap:round;stroke-linejoin:round;stroke-miterlimit:10;}
</style>
<g id="圖層_4">
</g>
<g id="圖層_3">
</g>
<g id="圖層_5">
</g>
<g>
	<g>
		<polygon class="st0" points="200.8,92.5 204,97.4 213.8,96.4 207,86.8 		"/>
		<polygon class="st1" points="190.2,65.4 215.6,62.5 212.9,67.6 188.4,70.1 		"/>
		<g>
			<polygon class="st2" points="77.1,10.1 64.5,15.1 62.9,19.6 86,14.1 			"/>
			<polygon class="st2" points="81.5,28.2 84.3,23.1 75.6,23.9 77.8,18.3 71.8,19.8 69.9,24.5 58.9,25.5 57,30.2 67.9,29.3 66,33.9 
				53.4,35 51.2,40.3 63.7,39.4 61,45.8 53.3,45.4 63.4,54.6 69.6,38.9 80.5,38.1 83.8,32.3 71.8,33.3 73.6,28.8 			"/>
		</g>
		<g>
			<polygon class="st3" points="133,78.4 123.1,88.6 121.9,93.9 142.3,79 145.1,76.4 			"/>
			<polygon class="st3" points="148.2,81.8 149.3,76 152.8,75.6 158.8,86.6 158.5,91.8 157.6,92.2 			"/>
			<polygon class="st4" points="127,71 162.6,66.4 159.4,72.4 125,76.5 			"/>
			<polygon class="st5" points="139.1,83.9 146,78.7 141.4,105.5 134.2,106.4 			"/>
		</g>
		<polygon class="st6" points="103.7,20.5 101.4,25.1 97.8,25.5 95.1,32.7 100.3,32.5 105.7,20.5 107.4,25.8 102.5,38.7 91.8,39.7 
			90.4,35.3 95.7,21.7 		"/>
		<path class="st6" d="M135.9,30.1l3.5-10.4l-4.3-5.2l-20.5,2.3l-9,25.8l1.7,5.3l25.2-2.7l2-6.9l-22.1,2.3l3.5-8.9L135.9,30.1z
			 M132.4,24.6l-5.3,0.4l1.6-4.6l5.2-0.5L132.4,24.6z M119.4,21.4l6-0.6l-1.5,4.5l-6,0.5L119.4,21.4z"/>
		<g>
			<polygon class="st7" points="81.2,70.8 72.1,80.2 72.4,84.7 90.6,70.7 			"/>
			<polygon class="st8" points="78.2,83 85.2,77.5 78.7,108.4 72.5,109.1 			"/>
			<path class="st9" d="M91.9,74l-8.3,34.5l6-0.5L94,90.2l4.7-1.6l3.8-16.5L91.9,74z M98.3,76.4l-0.6,2.7l-2.6,0.8l0.6-2.6
				L98.3,76.4z M93.9,85.5l0.6-2.6l2.7-0.8l-0.5,2.4L93.9,85.5z"/>
			<path class="st9" d="M115.6,69.8l-9.3,2.5l-3.5,15.3l1.8,1.3l4-0.8l-3.4,12.7l-4.7,1.2l8.9,5.7L119,73L115.6,69.8z M112.4,74.5
				l-0.7,2.8l-2.6,0.8l0.7-2.9L112.4,74.5z M107.7,83.5l0.6-2.2l2.7-0.8l-0.5,2.2L107.7,83.5z"/>
		</g>
		<path class="st10" d="M197.2,74l-2.9,0.1c0.2-0.2-5.9,6.3-6.1,6.3l-3.8,0.1c-0.3,0-0.4-0.3-0.3-0.5l7.2-8.3
			c0.1-0.1,0.1-0.1,0.2-0.1c1.5-0.1,14.1-1.1,17.4-1.3c0.3,0,0.5,0.3,0.3,0.5c0,0-18,17.2-18.1,17.2l-7,0.2c-0.3,0-0.4-0.7-0.2-0.9
			L197.2,74z"/>
		<g>
			<polygon class="st1" points="180.5,63 180,64.6 171.4,66 169.6,71.4 178.1,70.2 176.3,75.7 166,84.7 164.3,89.8 173.5,84.3 
				181.2,79.6 187.4,61.1 			"/>
			<polygon class="st1" points="168.2,101.4 174.3,100.5 180.4,82.9 171.9,87.9 			"/>
		</g>
		<polygon class="st8" points="202.9,80 211.8,79.4 191.4,98.3 183,98.9 		"/>
		<g>
			<polygon class="st11" points="44.5,72.7 36.8,72.5 29.2,80.5 29.4,84.6 			"/>
			<path class="st11" d="M59.2,104l-1.5-6.8c3.5-2.5,6.7-5.1,7.8-6.7l-8.3,0.3l-1.7,1.7L52,96.1l-7.3,7.4l-0.1,2.2
				c0,0,3.9-2.3,8.4-5.3l3.1,12.3l9.4-8.2L59.2,104z"/>
			<polygon class="st11" points="55.2,85.8 61.1,84 62.9,79.4 54.4,81.9 52.6,73.6 47.1,77.4 48.7,83.5 41.2,85.7 42.8,76.8 
				36.2,81.8 35.3,87.4 27.6,89.6 26.3,94.5 34.6,92 34,96 25.6,98.3 24.5,103.1 33.6,99 32.6,105.5 26.4,106.2 36.1,114.1 
				40.4,90.2 49.6,87.5 51.3,93.9 56.2,89.1 			"/>
			<polygon class="st11" points="62.3,72.8 55.9,73.3 56.5,78.1 			"/>
		</g>
		<polygon class="st12" points="264.9,58.9 235.1,63.3 233.8,69.9 263.2,65.6 257.8,84.4 229.6,87.7 228.3,94.2 256,90.5 
			255.5,92.4 262.8,91.6 270.9,63.1 		"/>
		<polygon class="st13" points="249.2,70.1 256.5,68.8 258.2,74.7 256,80.9 		"/>
		<polygon class="st13" points="236.6,71.9 230.2,81.5 235.9,80.6 243.8,70.4 		"/>
		<polygon class="st8" points="224.6,70 231.6,64.5 225.1,95.5 218.9,95.9 		"/>
		<circle class="st14" cx="149.4" cy="42.8" r="3.4"/>
		<polygon class="st6" points="157.1,14.5 150,34.7 154.2,34.9 164.2,18.9 161.6,14.2 		"/>
		<g>
			<polygon class="st1" points="199.5,60.5 198.3,64.3 204.8,63.6 206.5,58.6 			"/>
		</g>
		<g>
			<polygon class="st9" points="15.6,16.8 6.6,30 6.5,35.3 23.3,16.5 23.5,15.5 			"/>
			<polygon class="st9" points="31.3,14.9 37.6,14.2 45.3,25 46.2,33.4 45.1,33.5 			"/>
			<polygon class="st9" points="19.5,27.2 13.6,33.6 17.2,33.4 5.5,51.8 10.8,51.5 24.2,32.7 32,32.2 23.9,46.9 18.9,47.1 
				26.4,54.8 39.3,32.7 33.6,26.1 			"/>
		</g>
	</g>
</g>
</svg>
