<svg
  xmlns="http://www.w3.org/2000/svg"
  viewBox="0 0 360 137"
  xml:space="preserve"
>
  <path
    fill="#595757"
    stroke="#595757"
    stroke-width=".813"
    stroke-linecap="round"
    stroke-linejoin="round"
    stroke-miterlimit="10"
    d="m246.8 97.5 3.2 4.9 9.8-1-6.8-9.6z"
  />
  <path
    fill="#595757"
    stroke="#595757"
    stroke-width=".906"
    stroke-linecap="round"
    stroke-linejoin="round"
    stroke-miterlimit="10"
    d="m236.2 70.4 25.4-2.9-2.7 5.1-24.5 2.5z"
  />
  <g
    fill="#595757"
    stroke="#595757"
    stroke-width=".861"
    stroke-linecap="round"
    stroke-linejoin="round"
    stroke-miterlimit="10"
  >
    <path
      d="m123.1 15.1-12.6 5-1.6 4.5 23.1-5.5zM127.5 33.2l2.8-5.1-8.7.8 2.2-5.6-6 1.5-1.9 4.7-11 1-1.9 4.7 10.9-.9-1.9 4.6L99.4 40l-2.2 5.3 12.5-.9-2.7 6.4-7.7-.4 10.1 9.2 6.2-15.7 10.9-.8 3.3-5.8-12 1 1.8-4.5z"
    />
  </g>
  <g
    fill="#595757"
    stroke="#595757"
    stroke-linecap="round"
    stroke-linejoin="round"
    stroke-miterlimit="10"
  >
    <path
      stroke-width=".771"
      d="m179 83.4-9.9 10.2-1.2 5.3L188.3 84l2.8-2.6zM194.2 86.8l1.1-5.8 3.5-.4 6 11-.3 5.2-.9.4z"
    />
    <path stroke-width="1.101" d="m173 76 35.6-4.6-3.2 6-34.4 4.1z" />
    <path stroke-width=".807" d="m185.1 88.9 6.9-5.2-4.6 26.8-7.2.9z" />
  </g>
  <path
    fill="#595757"
    stroke="#595757"
    stroke-width=".824"
    stroke-linecap="round"
    stroke-linejoin="round"
    stroke-miterlimit="10"
    d="m149.7 25.5-2.3 4.6-3.6.4-2.7 7.2 5.2-.2 5.4-12 1.7 5.3-4.9 12.9-10.7 1-1.4-4.4 5.3-13.6zM181.9 35.1l3.5-10.4-4.3-5.2-20.5 2.3-9 25.8 1.7 5.3 25.2-2.7 2-6.9-22.1 2.3 3.5-8.9 20-1.6zm-3.5-5.5-5.3.4 1.6-4.6 5.2-.5-1.5 4.7zm-13-3.2 6-.6-1.5 4.5-6 .5 1.5-4.4z"
  />
  <g fill="#595757" stroke="#595757" stroke-miterlimit="10">
    <path
      stroke-width=".833"
      stroke-linecap="round"
      stroke-linejoin="round"
      d="m127.2 75.8-9.1 9.4.3 4.5 18.2-14z"
    />
    <path
      stroke-width=".812"
      stroke-linecap="round"
      stroke-linejoin="round"
      d="m124.2 88 7-5.5-6.5 30.9-6.2.7z"
    />
    <path
      stroke-width=".771"
      d="m137.9 79-8.3 34.5 6-.5 4.4-17.8 4.7-1.6 3.8-16.5-10.6 1.9zm6.4 2.4-.6 2.7-2.6.8.6-2.6 2.6-.9zm-4.4 9.1.6-2.6 2.7-.8-.5 2.4-2.8 1zM161.6 74.8l-9.3 2.5-3.5 15.3 1.8 1.3 4-.8-3.4 12.7-4.7 1.2 8.9 5.7L165 78l-3.4-3.2zm-3.2 4.7-.7 2.8-2.6.8.7-2.9 2.6-.7zm-4.7 9 .6-2.2 2.7-.8-.5 2.2-2.8.8z"
    />
  </g>
  <path
    fill="#595757"
    stroke="#595757"
    stroke-width=".813"
    stroke-linecap="round"
    stroke-linejoin="round"
    stroke-miterlimit="10"
    d="m243.2 79-2.9.1c.2-.2-5.9 6.3-6.1 6.3l-3.8.1c-.3 0-.4-.3-.3-.5l7.2-8.3c.1-.1.1-.1.2-.1 1.5-.1 14.1-1.1 17.4-1.3.3 0 .5.3.3.5 0 0-18 17.2-18.1 17.2l-7 .2c-.3 0-.4-.7-.2-.9L243.2 79z"
  />
  <g
    fill="#595757"
    stroke="#595757"
    stroke-width=".906"
    stroke-linecap="round"
    stroke-linejoin="round"
    stroke-miterlimit="10"
  >
    <path
      d="m226.5 68-.5 1.6-8.6 1.4-1.8 5.4 8.5-1.2-1.8 5.5-10.3 9-1.7 5.1 9.2-5.5 7.7-4.7 6.2-18.5zM214.2 106.4l6.1-.9 6.1-17.6-8.5 5z"
    />
  </g>
  <path
    fill="#595757"
    stroke="#595757"
    stroke-width=".812"
    stroke-linecap="round"
    stroke-linejoin="round"
    stroke-miterlimit="10"
    d="m248.9 85 8.9-.6-20.4 18.9-8.4.6z"
  />
  <g
    fill="#595757"
    stroke="#595757"
    stroke-width=".89"
    stroke-linecap="round"
    stroke-linejoin="round"
    stroke-miterlimit="10"
  >
    <path
      d="m90.5 77.7-7.7-.2-7.6 8 .2 4.1zM105.2 109l-1.5-6.8c3.5-2.5 6.7-5.1 7.8-6.7l-8.3.3-1.7 1.7-3.5 3.6-7.3 7.4-.1 2.2s3.9-2.3 8.4-5.3l3.1 12.3 9.4-8.2-6.3-.5z"
    />
    <path
      d="m101.2 90.8 5.9-1.8 1.8-4.6-8.5 2.5-1.8-8.3-5.5 3.8 1.6 6.1-7.5 2.2 1.6-8.9-6.6 5-.9 5.6-7.7 2.2-1.3 4.9 8.3-2.5-.6 4-8.4 2.3-1.1 4.8 9.1-4.1-1 6.5-6.2.7 9.7 7.9 4.3-23.9 9.2-2.7 1.7 6.4 4.9-4.8z"
    />
    <path d="m108.3 77.8-6.4.5.6 4.8z" />
  </g>
  <path
    fill="#595757"
    stroke="#595757"
    stroke-width="1.068"
    stroke-linecap="round"
    stroke-linejoin="round"
    stroke-miterlimit="10"
    d="m310.9 63.9-29.8 4.4-1.3 6.6 29.4-4.3-5.4 18.8-28.2 3.3-1.3 6.5 27.7-3.7-.5 1.9 7.3-.8 8.1-28.5z"
  />
  <path
    fill="#595757"
    stroke="#595757"
    stroke-width=".736"
    stroke-linecap="round"
    stroke-linejoin="round"
    stroke-miterlimit="10"
    d="m295.2 75.1 7.3-1.3 1.7 5.9-2.2 6.2zM282.6 76.9l-6.4 9.6 5.7-.9 7.9-10.2z"
  />
  <path
    fill="#595757"
    stroke="#595757"
    stroke-width=".812"
    stroke-linecap="round"
    stroke-linejoin="round"
    stroke-miterlimit="10"
    d="m270.6 75 7-5.5-6.5 31-6.2.4z"
  />
  <circle
    fill="#595757"
    stroke="#595757"
    stroke-width=".761"
    stroke-linecap="round"
    stroke-linejoin="round"
    stroke-miterlimit="10"
    cx="195.4"
    cy="47.8"
    r="3.4"
  />
  <path
    fill="#595757"
    stroke="#595757"
    stroke-width=".824"
    stroke-linecap="round"
    stroke-linejoin="round"
    stroke-miterlimit="10"
    d="M203.1 19.5 196 39.7l4.2.2 10-16-2.6-4.7z"
  />
  <path
    fill="#595757"
    stroke="#595757"
    stroke-width=".906"
    stroke-linecap="round"
    stroke-linejoin="round"
    stroke-miterlimit="10"
    d="m245.5 65.5-1.2 3.8 6.5-.7 1.7-5z"
  />
  <g id="title-letter-1" fill="#595757" stroke="#595757" stroke-width=".771" stroke-miterlimit="10">
    <path
      d="m61.6 21.8-9 13.2-.1 5.3 16.8-18.8.2-1zM77.3 19.9l6.3-.7L91.3 30l.9 8.4-1.1.1zM65.5 32.2l-5.9 6.4 3.6-.2-11.7 18.4 5.3-.3 13.4-18.8 7.8-.5-8.1 14.7-5 .2 7.5 7.7 12.9-22.1-5.7-6.6z"
    />
  </g>
</svg>
