<svg xmlns="http://www.w3.org/2000/svg" viewBox="0 0 330.2 294.8"><g fill="#FFE500"><path d="M35.8 74.2l8.7.2 5 2.9 3.3-2 3 2.3 6.9-3.1 9.7 8.3 9.9-10.2 10.7-.4 4.4 3.3 7.4-1.4 3.7 2.4 10.3-4.7 8.8 7.6 41-11.6 7.2 3.5 18.5-8.8 6.7 3.7h5.9l1.6-4.2 8.1-2 2.7 4.9 7.6-.8 8.8 8.1 6.9-6.1 4.3-1.2h38.4l41.3 224.5-145.7-28.9L35.3 118.8l-6.9-9.5-5.8-1.9 1.5-6 4.7-1.4-4.3-2.1 1.4-5.6 8.2-2.2-6.4-2.6-.1-4.7z"></path><path d="M58.4 25L36.9 12.9l-9.9.7-4.8.3-8.9 1.8-9.8 13.8V36l7.2 3.8L2.5 53l48.1 40.8 77.6 27.2 47.9 5.4 19.6-63.7-28.8-50.1-5.3.3-6.5 18.5-11.4-12.7-5-5.9-21.6 2.7-3.3 8.6-6.2-4.9-10.2 1.2-9.7-7.6L78 8.6l-14.9 10 6.7 5.2-5.9 1.1-5-.1"></path></g><path fill="#595757" stroke="#595757" stroke-width=".9" stroke-linecap="round" stroke-linejoin="round" stroke-miterlimit="10" d="M210.2 96.5l3.4 5.2 10.5-1.1-7.3-10.2z"></path><path fill="#595757" stroke="#595757" stroke-linecap="round" stroke-linejoin="round" stroke-miterlimit="10" d="M198.9 67.6l27.1-3.1-2.9 5.4-26.1 2.7z"></path><g fill="#595757" stroke="#595757" stroke-width=".9" stroke-linecap="round" stroke-linejoin="round" stroke-miterlimit="10" id="letter-2"><path d="M78.4 8.7L65 14l-1.7 4.8 24.6-5.9zM83.1 28l3-5.5-9.3.9 2.4-6-6.4 1.6-2 5L59 25.1l-2 5 11.6-1-2 4.9-13.4 1.2-2.4 5.7 13.3-1-2.8 6.8-8.2-.4 10.7 9.8 6.6-16.7 11.6-.9 3.6-6.2-12.8 1.1 1.9-4.8z"></path></g><g fill="#595757" stroke="#595757" stroke-linecap="round" stroke-linejoin="round" stroke-miterlimit="10" id="letter-7"><path stroke-width=".8" d="M138 81.5l-10.6 10.8-1.2 5.7 21.7-15.9 3-2.8zM154.2 85.1l1.2-6.2 3.7-.4 6.4 11.7-.3 5.5-1 .5z"></path><path stroke-width="1.2" d="M131.6 73.6l37.9-4.9-3.4 6.4-36.6 4.3z"></path><path stroke-width=".9" d="M144.5 87.3l7.3-5.5-4.9 28.5-7.6 1z"></path></g>
<g id="letter-3">
<path fill="#595757" stroke="#595757" stroke-width=".9" stroke-linecap="round" stroke-linejoin="round" stroke-miterlimit="10" d="M106.8 19.8l-2.5 4.9-3.8.4-2.9 7.7 5.5-.3 5.8-12.7 1.8 5.6-5.2 13.7-11.4 1.1-1.5-4.7L98.2 21zM141.1 30l3.7-11.1-4.6-5.5-21.8 2.5-9.6 27.5 1.8 5.6 26.9-2.9 2.1-7.4-23.6 2.5 3.7-9.5 21.4-1.7zm-3.7-5.9l-5.6.4 1.7-4.9 5.5-.5-1.6 5zm-13.9-3.4l6.4-.6-1.6 4.8-6.4.5 1.6-4.7z"></path>
    </g><g fill="#595757" stroke="#595757" stroke-miterlimit="10" id="letter-6"><path stroke-width=".9" stroke-linecap="round" stroke-linejoin="round" d="M82.8 73.4l-9.7 10 .3 4.8 19.4-15zM79.6 86.4l7.5-5.9-7 32.9-6.6.8z"></path><path stroke-width=".8" d="M94.2 76.8l-8.8 36.8 6.4-.5 4.7-19 5-1.7 4-17.6-11.3 2zm6.8 2.5l-.6 2.9-2.8.8.6-2.8 2.8-.9zM96.3 89l.6-2.8 2.9-.9-.5 2.7-3 1zM119.4 72.3l-9.9 2.7-3.7 16.3 1.9 1.4 4.3-.9-3.6 13.5-5 1.3 9.5 6.1 10.2-37-3.7-3.4zm-3.4 5l-.7 3-2.8.9.7-3.1 2.8-.8zm-5 9.6l.6-2.3 2.9-.9-.5 2.3-3 .9z"></path></g><path fill="#595757" stroke="#595757" stroke-width=".9" stroke-linecap="round" stroke-linejoin="round" stroke-miterlimit="10" d="M206.4 76.8l-3.1.1c.2-.2-6.3 6.7-6.5 6.7l-4 .1c-.3 0-.4-.3-.3-.5l7.7-8.8.2-.1 18.5-1.4c.3 0 .5.3.3.5l-19.3 18.3-7.5.2c-.3 0-.4-.7-.2-1l14.2-14.1z"></path><g fill="#595757" stroke="#595757" stroke-linecap="round" stroke-linejoin="round" stroke-miterlimit="10"><path d="M188.6 65l-.5 1.7-9.2 1.5L177 74l9-1.3-1.9 5.9-10.9 9.6-1.9 5.4 9.8-5.9 8.3-5L196 63zM175.5 106l6.5-1 6.5-18.8-9.1 5.4z"></path></g><path fill="#595757" stroke="#595757" stroke-width=".9" stroke-linecap="round" stroke-linejoin="round" stroke-miterlimit="10" d="M212.5 83.2l9.5-.7-21.8 20.2-8.9.6z"></path><g fill="#595757" stroke="#595757" stroke-width=".9" stroke-linecap="round" stroke-linejoin="round" stroke-miterlimit="10" id="letter-5"><path d="M43.7 75.4l-8.2-.2-8.1 8.5.2 4.4zM59.4 108.7l-1.6-7.2c3.7-2.7 7.1-5.4 8.3-7.1l-8.8.3-1.8 1.8-3.7 3.8-7.8 7.9-.1 2.3 9-5.6L56 118l10-8.7-6.6-.6z"></path><path d="M55.1 89.3l6.3-1.9 1.9-4.9-9.1 2.7-1.9-8.9-5.8 4.1 1.7 6.5-8 2.3 1.7-9.5-7.1 5.4-.9 5.9-8.2 2.4-1.4 5.2 8.8-2.7-.6 4.3-9 2.5-1.1 5.1 9.7-4.4-1.1 6.9-6.6.8 10.3 8.4L39.3 94l9.8-2.9 1.8 6.9 5.3-5.1z"></path><path d="M62.7 75.5l-6.9.5.7 5.1z"></path></g><path fill="#595757" stroke="#595757" stroke-width="1.1" stroke-linecap="round" stroke-linejoin="round" stroke-miterlimit="10" d="M278.5 60.7l-31.7 4.7-1.4 7 31.3-4.6-5.7 20-30.1 3.6-1.4 6.9 29.6-4-.6 2.1 7.8-.9 8.6-30.4z"></path><path fill="#595757" stroke="#595757" stroke-width=".8" stroke-linecap="round" stroke-linejoin="round" stroke-miterlimit="10" d="M261.8 72.6l7.8-1.4 1.8 6.3-2.3 6.6zM248.4 74.5l-6.8 10.3 6-1 8.5-10.9z"></path><path fill="#595757" stroke="#595757" stroke-width=".9" stroke-linecap="round" stroke-linejoin="round" stroke-miterlimit="10" d="M235.6 72.5l7.5-5.9-7 33.1-6.6.4z"></path><g id="letter-4">
<circle fill="#595757" stroke="#595757" stroke-width=".8" stroke-linecap="round" stroke-linejoin="round" stroke-miterlimit="10" cx="155.5" cy="43.5" r="3.6"></circle>
    <path fill="#595757" stroke="#595757" stroke-width=".9" stroke-linecap="round" stroke-linejoin="round" stroke-miterlimit="10" d="M163.7 13.4l-7.6 21.5 4.5.2L171.2 18l-2.7-5z"></path>
    </g><path fill="#595757" stroke="#595757" stroke-linecap="round" stroke-linejoin="round" stroke-miterlimit="10" d="M208.9 62.4l-1.3 4 6.9-.7 1.8-5.3z"></path><g fill="#595757" stroke="#595757" stroke-width=".8" stroke-miterlimit="10" id="letter-1"><path d="M12.9 15.8L3.3 29.9l-.1 5.6 17.9-20 .2-1.1zM29.6 13.8l6.7-.8 8.2 11.5 1 9-1.2.1zM17 26.9l-6.2 6.8 3.8-.2L2.1 53.1l5.7-.3 14.3-20 8.3-.6-8.7 15.7-5.3.2 8 8.2 13.7-23.5-6-7.1z"></path></g></svg>