<svg xmlns="http://www.w3.org/2000/svg" viewBox="0 0 360 137" xml:space="preserve"><path fill="#FFE500" d="m36.9 72.6 8.3.2 4.8 2.7 3.1-1.9 2.9 2.2 6.5-2.9 9.3 7.9 9.4-9.7 10.2-.4 4.2 3.1 7.1-1.3 3.5 2.3 9.8-4.5 8.4 7.2 39.1-11 6.8 3.3 17.7-8.4 6.3 3.6 2.2-.3 1.2-4.2 7.6-2.1 5.7 4.5 4-.3 11.3 6.3 5.5-4.3 2.4 1.9 31.1-7.8 95.1 78.4-61.8-.2-239.7.2-22.5-22-6.6-9.1-5.5-1.8 1.4-5.7 4.5-1.3-4.1-2 1.4-5.4 7.8-2.1-6.1-2.4-.1-4.5z"/><path fill="#FFE500" d="M58.4 25.7 37.9 14.2l-9.4.6-4.6.3-8.4 1.7L6.1 30v6.2l6.9 3.6-7.8 12.6 57 35.7 17.8 19 45 10.1 45.6 5.1 67.8-43.9-38.9-32.3-37.7-32.2-5 .3-6.2 17.6-10.9-12.1-4.7-5.6-20.6 2.5-3.2 8.2-5.9-4.6-9.7 1.1-9.2-7.2-9.3-4-14.2 9.5 6.4 5-5.6 1-4.8-.1"/></svg>