<?xml version="1.0" encoding="utf-8"?>
<!-- Generator: Adobe Illustrator 23.0.1, SVG Export Plug-In . SVG Version: 6.00 Build 0)  -->
<svg version="1.1" id="圖層_1" xmlns="http://www.w3.org/2000/svg" xmlns:xlink="http://www.w3.org/1999/xlink" x="0px" y="0px"
	 viewBox="0 0 360 137" style="enable-background:new 0 0 360 137;" xml:space="preserve">
<style type="text/css">
	.st0{fill:#FFE500;}
</style>
<polygon class="st0" points="36.9,72.6 45.2,72.8 50,75.5 53.1,73.6 56,75.8 62.5,72.9 71.8,80.8 81.2,71.1 91.4,70.7 95.6,73.8 
	102.7,72.5 106.2,74.8 116,70.3 124.4,77.5 163.5,66.5 170.3,69.8 188,61.4 194.3,65 196.5,64.7 197.7,60.5 205.3,58.4 211,62.9 
	215,62.6 226.3,68.9 231.8,64.6 234.2,66.5 265.3,58.7 360.4,137.1 298.6,136.9 58.9,137.1 36.4,115.1 29.8,106 24.3,104.2 
	25.7,98.5 30.2,97.2 26.1,95.2 27.5,89.8 35.3,87.7 29.2,85.3 29.1,80.8 "/>
<polyline class="st0" points="58.4,25.7 37.9,14.2 28.5,14.8 23.9,15.1 15.5,16.8 6.1,30 6.1,36.2 13,39.8 5.2,52.4 62.2,88.1 
	80,107.1 125,117.2 170.6,122.3 238.4,78.4 199.5,46.1 161.8,13.9 156.8,14.2 150.6,31.8 139.7,19.7 135,14.1 114.4,16.6 
	111.2,24.8 105.3,20.2 95.6,21.3 95.6,21.3 86.4,14.1 77.1,10.1 62.9,19.6 69.3,24.6 63.7,25.6 58.9,25.5 "/>
</svg>
