<?xml version="1.0" encoding="utf-8"?>
<!-- Generator: Adobe Illustrator 23.0.1, SVG Export Plug-In . SVG Version: 6.00 Build 0)  -->
<svg version="1.1" id="圖層_1" xmlns="http://www.w3.org/2000/svg" xmlns:xlink="http://www.w3.org/1999/xlink" x="0px" y="0px"
	 viewBox="0 0 137.5 137" enable-background="new 0 0 137.5 137" xml:space="preserve">
<g>
	<circle cx="71.8" cy="72.2" r="46.9"/>
	<g>
		<path fill="#FFFFFF" d="M54.2,89.9V67h-8.9v-5.4c1.2,0,2.4-0.1,3.6-0.3c1.2-0.2,2.2-0.6,3.1-1.2c0.9-0.6,1.7-1.3,2.3-2.2
			s1.1-2,1.3-3.4h5.7v35.3h-7.1V89.9z"/>
		<path fill="#FFFFFF" d="M93.4,66.7c-1.4,2.4-2.6,4.9-3.6,7.5c-1,2.7-1.7,5.4-2.2,8.1s-0.8,5.3-0.8,7.6h-7.7
			c0.4-5.3,1.6-10.4,3.7-15.2c2.1-4.9,4.8-9.4,8.2-13.4H74.2v-6.7h24.1v6.2C96.4,62.3,94.8,64.3,93.4,66.7z"/>
	</g>
</g>
</svg>
