<svg xmlns="http://www.w3.org/2000/svg" viewBox="0 0 61.8 77.4"><path fill="#828282" d="M80 545.5a7 7 0 012-2.2c.8-.6 1.7-1 2.7-1.3s2-.4 3.1-.4c1.6 0 2.9.2 4 .7s1.9 1.1 2.6 1.7c.7.7 1.1 1.4 1.4 2.2s.4 1.5.4 2.1c0 1.2-.3 2.3-.9 3.3a5 5 0 01-2.8 2v.1a6 6 0 013.5 2.1 6.5 6.5 0 011.2 4c0 1.3-.3 2.5-.8 3.5s-1.3 1.8-2.1 2.4a14 14 0 01-3 1.5c-1.1.3-2.3.5-3.5.5s-2.4-.1-3.5-.5a11 11 0 01-3.1-1.4c-.9-.6-1.6-1.5-2.2-2.4s-.8-2.2-.8-3.5c0-1.6.4-3 1.2-4s2-1.8 3.5-2.2v-.1a5 5 0 01-2.8-1.9c-.6-.9-.9-2-.9-3.3.1-1 .3-2 .8-2.9zm3.7 16c.2.5.6 1 1 1.4a4.2 4.2 0 003.1 1.2 4.2 4.2 0 003.1-1.2c.4-.4.7-.8.9-1.4a4.7 4.7 0 000-3.3c-.2-.5-.5-.9-.9-1.3s-.9-.6-1.4-.8-1.1-.3-1.7-.3a5 5 0 00-3.2 1c-.9.7-1.3 1.7-1.3 3l.4 1.7zm1.4-10c.8.6 1.7.8 2.7.8 1.1 0 2-.3 2.7-.8.7-.6 1.1-1.4 1.1-2.5l-.1-1.1c-.1-.4-.3-.8-.6-1.1-.3-.4-.7-.7-1.2-.9s-1.1-.4-1.9-.4l-1.5.2c-.5.2-.9.4-1.2.7-.4.3-.6.6-.8 1.1-.2.4-.3.9-.3 1.5-.1 1.1.3 1.9 1.1 2.5z"/><g fill="#828282"><path d="M95 599.4c.4-1.2 1-2.3 1.7-3.2.8-.9 1.7-1.6 2.9-2.2 1.2-.5 2.5-.8 4-.8 1.2 0 2.2.2 3.3.5 1 .4 2 .9 2.8 1.5.8.7 1.4 1.5 1.9 2.5s.7 2.1.7 3.3a7.8 7.8 0 01-2.2 5.7c-.7.7-1.4 1.3-2.3 1.9l-2.6 1.7-2.5 1.8c-.8.6-1.5 1.4-2.2 2.3h11.9v4.4H94c0-1.5.2-2.7.6-3.8s1-2 1.7-2.9 1.6-1.6 2.5-2.4l3.1-2.2 1.8-1.2 1.7-1.3 1.3-1.6c.3-.6.5-1.3.5-2.1 0-1.2-.4-2.2-1.1-2.9s-1.6-1-2.7-1c-.7 0-1.4.2-1.9.5s-.9.8-1.2 1.4l-.7 1.9c-.2.7-.2 1.4-.2 2h-4.9c0-1.3.2-2.6.5-3.8zM119.1 597.1a7 7 0 012-2.2c.8-.6 1.7-1 2.7-1.3s2-.4 3.1-.4c1.6 0 2.9.2 4 .7s1.9 1.1 2.6 1.7c.7.7 1.1 1.4 1.4 2.2a6.3 6.3 0 01-.5 5.4 5 5 0 01-2.8 2v.1c1.5.3 2.7 1 3.5 2.1s1.2 2.4 1.2 4c0 1.3-.3 2.5-.8 3.5s-1.3 1.8-2.1 2.4a14 14 0 01-3 1.5 13.4 13.4 0 01-7 .1 11 11 0 01-3.1-1.4c-.9-.6-1.6-1.5-2.2-2.4s-.8-2.2-.8-3.5c0-1.6.4-3 1.2-4s2-1.8 3.5-2.2v-.1c-1.2-.3-2.1-1-2.8-1.9s-.9-2-.9-3.3a7 7 0 01.8-3zm3.7 15.9c.2.5.6 1 1 1.4a4.2 4.2 0 003.1 1.2 4.2 4.2 0 003.1-1.2c.4-.4.7-.8.9-1.4a4.7 4.7 0 000-3.3c-.2-.5-.5-.9-.9-1.3s-.9-.6-1.4-.8-1.1-.3-1.7-.3a5 5 0 00-3.2 1c-.9.7-1.3 1.7-1.3 3 0 .6.2 1.2.4 1.7zm1.4-10c.8.6 1.7.8 2.7.8 1.1 0 2-.3 2.7-.8.7-.6 1.1-1.4 1.1-2.5l-.1-1.1c-.1-.4-.3-.8-.6-1.1-.3-.4-.7-.7-1.2-.9s-1.1-.4-1.9-.4l-1.5.2c-.5.2-.9.4-1.2.7-.4.3-.6.6-.8 1.1-.2.4-.3.9-.3 1.5-.1 1.1.3 1.9 1.1 2.5z"/></g><path fill="none" stroke="#828282" stroke-width="3" stroke-linecap="round" stroke-linejoin="round" stroke-miterlimit="10" d="M125 549l-48.4 53.8"/><path fill="none" stroke="#828282" stroke-width="2.9" stroke-linecap="round" stroke-linejoin="round" stroke-miterlimit="10" d="M58.9 13.1L7.2 60.7"/><text transform="translate(-.4 27)" fill="#828282" font-family="'Helvetica-Bold'" font-size="32.1">12</text><text transform="translate(24.2 72)" fill="#828282" font-family="'Helvetica-Bold'" font-size="32.1">18</text></svg>