<svg xmlns="http://www.w3.org/2000/svg" viewBox="0 0 61.8 77.4"><path fill="#828282" d="M80 545.5a7 7 0 012-2.2c.8-.6 1.7-1 2.7-1.3 1-.3 2-.4 3.1-.4 1.6 0 2.9.2 4 .7 1.1.5 1.9 1.1 2.6 1.7.7.7 1.1 1.4 1.4 2.2a6.3 6.3 0 01-.5 5.4 5 5 0 01-2.8 2v.1a6 6 0 013.5 2.1 6.5 6.5 0 011.2 4c0 1.3-.3 2.5-.8 3.5s-1.3 1.8-2.1 2.4a14 14 0 01-3 1.5c-1.1.3-2.3.5-3.5.5-1.2 0-2.4-.1-3.5-.5a11 11 0 01-3.1-1.4c-.9-.6-1.6-1.5-2.2-2.4s-.8-2.2-.8-3.5c0-1.6.4-3 1.2-4s2-1.8 3.5-2.2v-.1a5 5 0 01-2.8-1.9c-.6-.9-.9-2-.9-3.3.1-1 .3-2 .8-2.9zm3.7 16c.2.5.6 1 1 1.4a4.2 4.2 0 003.1 1.2 4.2 4.2 0 003.1-1.2c.4-.4.7-.8.9-1.4a4.7 4.7 0 000-3.3c-.2-.5-.5-.9-.9-1.3s-.9-.6-1.4-.8c-.5-.2-1.1-.3-1.7-.3a5 5 0 00-3.2 1c-.9.7-1.3 1.7-1.3 3l.4 1.7zm1.4-10c.8.6 1.7.8 2.7.8 1.1 0 2-.3 2.7-.8.7-.6 1.1-1.4 1.1-2.5l-.1-1.1c-.1-.4-.3-.8-.6-1.1-.3-.4-.7-.7-1.2-.9-.5-.2-1.1-.4-1.9-.4l-1.5.2c-.5.2-.9.4-1.2.7-.4.3-.6.6-.8 1.1-.2.4-.3.9-.3 1.5-.1 1.1.3 1.9 1.1 2.5z"/><g fill="#828282"><path d="M95 599.4c.4-1.2 1-2.3 1.7-3.2.8-.9 1.7-1.6 2.9-2.2 1.2-.5 2.5-.8 4-.8 1.2 0 2.2.2 3.3.5 1 .4 2 .9 2.8 1.5.8.7 1.4 1.5 1.9 2.5s.7 2.1.7 3.3a7.8 7.8 0 01-2.2 5.7c-.7.7-1.4 1.3-2.3 1.9l-2.6 1.7-2.5 1.8c-.8.6-1.5 1.4-2.2 2.3h11.9v4.4H94c0-1.5.2-2.7.6-3.8.4-1.1 1-2 1.7-2.9.7-.9 1.6-1.6 2.5-2.4l3.1-2.2 1.8-1.2 1.7-1.3 1.3-1.6c.3-.6.5-1.3.5-2.1a4 4 0 00-1.1-2.9c-.7-.7-1.6-1-2.7-1-.7 0-1.4.2-1.9.5s-.9.8-1.2 1.4l-.7 1.9c-.2.7-.2 1.4-.2 2h-4.9c0-1.3.2-2.6.5-3.8zM119.1 597.1a7 7 0 012-2.2c.8-.6 1.7-1 2.7-1.3 1-.3 2-.4 3.1-.4 1.6 0 2.9.2 4 .7s1.9 1.1 2.6 1.7c.7.7 1.1 1.4 1.4 2.2a6.3 6.3 0 01-.5 5.4 5 5 0 01-2.8 2v.1c1.5.3 2.7 1 3.5 2.1a6.5 6.5 0 011.2 4c0 1.3-.3 2.5-.8 3.5a7 7 0 01-2.1 2.4 14 14 0 01-3 1.5 13.4 13.4 0 01-7 .1 11 11 0 01-3.1-1.4c-.9-.6-1.6-1.5-2.2-2.4s-.8-2.2-.8-3.5c0-1.6.4-3 1.2-4s2-1.8 3.5-2.2v-.1c-1.2-.3-2.1-1-2.8-1.9s-.9-2-.9-3.3a7 7 0 01.8-3zm3.7 15.9c.2.5.6 1 1 1.4a4.2 4.2 0 003.1 1.2 4.2 4.2 0 003.1-1.2c.4-.4.7-.8.9-1.4a4.7 4.7 0 000-3.3c-.2-.5-.5-.9-.9-1.3s-.9-.6-1.4-.8c-.5-.2-1.1-.3-1.7-.3a5 5 0 00-3.2 1c-.9.7-1.3 1.7-1.3 3 0 .6.2 1.2.4 1.7zm1.4-10c.8.6 1.7.8 2.7.8 1.1 0 2-.3 2.7-.8.7-.6 1.1-1.4 1.1-2.5l-.1-1.1c-.1-.4-.3-.8-.6-1.1-.3-.4-.7-.7-1.2-.9-.5-.2-1.1-.4-1.9-.4l-1.5.2c-.5.2-.9.4-1.2.7-.4.3-.6.6-.8 1.1-.2.4-.3.9-.3 1.5-.1 1.1.3 1.9 1.1 2.5z"/></g><path fill="none" stroke="#828282" stroke-width="3" stroke-linecap="round" stroke-linejoin="round" stroke-miterlimit="10" d="M125 549l-48.4 53.8"/><path fill="#828282" d="M5.9 4.4A7.6 7.6 0 0110.4 1c1-.3 2-.4 3-.4A8.6 8.6 0 0119.7 3c.6.7 1.1 1.4 1.4 2.1a5.7 5.7 0 01-.5 5.2 5 5 0 01-2.7 2v.1c1.5.3 2.6 1 3.4 2.1a6.5 6.5 0 011.2 3.9 6.9 6.9 0 01-2.9 5.8c-.9.6-1.8 1.1-2.9 1.4a12.7 12.7 0 01-6.8.1c-1.1-.3-2.1-.8-3-1.4a6.1 6.1 0 01-2.1-2.4c-.5-1-.8-2.1-.8-3.4 0-1.6.4-2.9 1.2-3.9s1.9-1.7 3.4-2.1v-.1a4.1 4.1 0 01-2.7-1.9c-.6-.9-.9-2-.9-3.2.2-1.1.5-2 .9-2.9zm3.6 15.5c.2.5.5 1 .9 1.3.4.4.8.6 1.4.8.5.2 1.1.3 1.7.3.6 0 1.2-.1 1.7-.3l1.3-.8a3.8 3.8 0 001.2-3c0-.6-.1-1.1-.3-1.6-.2-.5-.5-.9-.9-1.2-.4-.4-.8-.6-1.3-.8-.5-.2-1-.3-1.6-.3-1.2 0-2.2.3-3.1 1-.8.7-1.3 1.6-1.3 2.9 0 .6.1 1.2.3 1.7zm1.3-9.7c.7.5 1.6.8 2.6.8s1.9-.3 2.6-.8c.7-.5 1-1.3 1-2.4l-.1-1.1-.5-1.1c-.3-.4-.6-.6-1.1-.9a5.9 5.9 0 00-3.3-.1l-1.2.6c-.4.3-.6.6-.8 1-.2.5-.3 1-.3 1.6a3 3 0 001.1 2.4z"/><g fill="#828282"><path d="M20.5 56.7c.4-1.2.9-2.3 1.7-3.1.7-.9 1.7-1.6 2.8-2.1 1.1-.5 2.4-.8 3.9-.8 1.1 0 2.2.2 3.2.5 1 .4 1.9.9 2.7 1.5.8.7 1.4 1.5 1.8 2.4.5 1 .7 2 .7 3.2a8 8 0 01-2.2 5.6 20 20 0 01-2.2 1.9l-2.5 1.7c-.8.5-1.7 1.1-2.4 1.8a11 11 0 00-2.1 2.2h11.6v4.3h-18c0-1.4.2-2.7.6-3.7.4-1 1-2 1.7-2.8a39 39 0 017.2-5.5l1.7-1.3 1.3-1.6c.3-.6.5-1.2.5-2 0-1.2-.3-2.1-1-2.8-.7-.7-1.6-1-2.6-1-.7 0-1.3.2-1.8.5s-.9.8-1.2 1.3c-.3.5-.5 1.2-.6 1.8l-.2 2H20c0-1.5.2-2.8.5-4zM43.9 54.5a7.6 7.6 0 014.5-3.4c1-.3 2-.4 3-.4a8.6 8.6 0 016.3 2.4c.6.7 1.1 1.4 1.4 2.1a5.7 5.7 0 01-.5 5.2 5 5 0 01-2.7 2v.1c1.5.3 2.6 1 3.4 2.1a6.5 6.5 0 011.2 3.9 6.9 6.9 0 01-2.9 5.8c-.9.6-1.8 1.1-2.9 1.4a12.7 12.7 0 01-6.8.1c-1.1-.3-2.1-.8-3-1.4a6.1 6.1 0 01-2.1-2.4c-.5-1-.8-2.1-.8-3.4a6 6 0 011.2-3.9c.8-1 1.9-1.7 3.4-2.1v-.1c-1.2-.3-2.1-.9-2.7-1.9s-.9-2-.9-3.2a9 9 0 01.9-2.9zM47.5 70c.2.5.5 1 .9 1.3.4.4.8.6 1.4.8.5.2 1.1.3 1.7.3.6 0 1.2-.1 1.7-.3l1.3-.8a3.8 3.8 0 001.2-3c0-.6-.1-1.1-.3-1.6-.2-.5-.5-.9-.9-1.2-.4-.4-.8-.6-1.3-.8-.5-.2-1-.3-1.6-.3-1.2 0-2.2.3-3.1 1-.8.7-1.3 1.6-1.3 2.9-.1.6.1 1.2.3 1.7zm1.3-9.7c.7.5 1.6.8 2.6.8s1.9-.3 2.6-.8c.7-.5 1-1.3 1-2.4l-.1-1.1-.5-1.1c-.3-.4-.6-.6-1.1-.9a5.9 5.9 0 00-3.3-.1l-1.2.6c-.4.3-.6.6-.8 1-.2.4-.3.9-.3 1.5 0 1.1.4 1.9 1.1 2.5z"/></g><path fill="none" stroke="#828282" stroke-width="2.9" stroke-linecap="round" stroke-linejoin="round" stroke-miterlimit="10" d="M49.7 7.8L2.6 60"/></svg>
