<?xml version="1.0" encoding="utf-8"?>
<!-- Generator: Adobe Illustrator 23.0.1, SVG Export Plug-In . SVG Version: 6.00 Build 0)  -->
<svg version="1.1" id="圖層_1" xmlns="http://www.w3.org/2000/svg" xmlns:xlink="http://www.w3.org/1999/xlink" x="0px" y="0px"
	 viewBox="0 0 360 137" enable-background="new 0 0 360 137" xml:space="preserve">
<g>
	<g>
		
			<polygon fill="#595757" stroke="#595757" stroke-width="0.8132" stroke-linecap="round" stroke-linejoin="round" stroke-miterlimit="10" points="
			246.8,97.5 250,102.4 259.8,101.4 253,91.8 		"/>
		
			<polygon fill="#595757" stroke="#595757" stroke-width="0.9064" stroke-linecap="round" stroke-linejoin="round" stroke-miterlimit="10" points="
			236.2,70.4 261.6,67.5 258.9,72.6 234.4,75.1 		"/>
		<g>
			
				<polygon fill="#595757" stroke="#595757" stroke-width="0.8611" stroke-linecap="round" stroke-linejoin="round" stroke-miterlimit="10" points="
				123.1,15.1 110.5,20.1 108.9,24.6 132,19.1 			"/>
			
				<polygon fill="#595757" stroke="#595757" stroke-width="0.8611" stroke-linecap="round" stroke-linejoin="round" stroke-miterlimit="10" points="
				127.5,33.2 130.3,28.1 121.6,28.9 123.8,23.3 117.8,24.8 115.9,29.5 104.9,30.5 103,35.2 113.9,34.3 112,38.9 99.4,40 97.2,45.3 
				109.7,44.4 107,50.8 99.3,50.4 109.4,59.6 115.6,43.9 126.5,43.1 129.8,37.3 117.8,38.3 119.6,33.8 			"/>
		</g>
		<g>
			
				<polygon fill="#595757" stroke="#595757" stroke-width="0.7714" stroke-linecap="round" stroke-linejoin="round" stroke-miterlimit="10" points="
				179,83.4 169.1,93.6 167.9,98.9 188.3,84 191.1,81.4 			"/>
			
				<polygon fill="#595757" stroke="#595757" stroke-width="0.7714" stroke-linecap="round" stroke-linejoin="round" stroke-miterlimit="10" points="
				194.2,86.8 195.3,81 198.8,80.6 204.8,91.6 204.5,96.8 203.6,97.2 			"/>
			
				<polygon fill="#595757" stroke="#595757" stroke-width="1.1007" stroke-linecap="round" stroke-linejoin="round" stroke-miterlimit="10" points="
				173,76 208.6,71.4 205.4,77.4 171,81.5 			"/>
			
				<polygon fill="#595757" stroke="#595757" stroke-width="0.8072" stroke-linecap="round" stroke-linejoin="round" stroke-miterlimit="10" points="
				185.1,88.9 192,83.7 187.4,110.5 180.2,111.4 			"/>
		</g>
		
			<polygon fill="#595757" stroke="#595757" stroke-width="0.8241" stroke-linecap="round" stroke-linejoin="round" stroke-miterlimit="10" points="
			149.7,25.5 147.4,30.1 143.8,30.5 141.1,37.7 146.3,37.5 151.7,25.5 153.4,30.8 148.5,43.7 137.8,44.7 136.4,40.3 141.7,26.7 		
			"/>
		
			<path fill="#595757" stroke="#595757" stroke-width="0.8241" stroke-linecap="round" stroke-linejoin="round" stroke-miterlimit="10" d="
			M181.9,35.1l3.5-10.4l-4.3-5.2l-20.5,2.3l-9,25.8l1.7,5.3l25.2-2.7l2-6.9l-22.1,2.3l3.5-8.9L181.9,35.1z M178.4,29.6l-5.3,0.4
			l1.6-4.6l5.2-0.5L178.4,29.6z M165.4,26.4l6-0.6l-1.5,4.5l-6,0.5L165.4,26.4z"/>
		<g>
			
				<polygon fill="#595757" stroke="#595757" stroke-width="0.8333" stroke-linecap="round" stroke-linejoin="round" stroke-miterlimit="10" points="
				127.2,75.8 118.1,85.2 118.4,89.7 136.6,75.7 			"/>
			
				<polygon fill="#595757" stroke="#595757" stroke-width="0.8122" stroke-linecap="round" stroke-linejoin="round" stroke-miterlimit="10" points="
				124.2,88 131.2,82.5 124.7,113.4 118.5,114.1 			"/>
			<path fill="#595757" stroke="#595757" stroke-width="0.7714" stroke-miterlimit="10" d="M137.9,79l-8.3,34.5l6-0.5l4.4-17.8
				l4.7-1.6l3.8-16.5L137.9,79z M144.3,81.4l-0.6,2.7l-2.6,0.8l0.6-2.6L144.3,81.4z M139.9,90.5l0.6-2.6l2.7-0.8l-0.5,2.4
				L139.9,90.5z"/>
			<path fill="#595757" stroke="#595757" stroke-width="0.7714" stroke-miterlimit="10" d="M161.6,74.8l-9.3,2.5l-3.5,15.3l1.8,1.3
				l4-0.8l-3.4,12.7l-4.7,1.2l8.9,5.7L165,78L161.6,74.8z M158.4,79.5l-0.7,2.8l-2.6,0.8l0.7-2.9L158.4,79.5z M153.7,88.5l0.6-2.2
				l2.7-0.8l-0.5,2.2L153.7,88.5z"/>
		</g>
		
			<path fill="#595757" stroke="#595757" stroke-width="0.8128" stroke-linecap="round" stroke-linejoin="round" stroke-miterlimit="10" d="
			M243.2,79l-2.9,0.1c0.2-0.2-5.9,6.3-6.1,6.3l-3.8,0.1c-0.3,0-0.4-0.3-0.3-0.5l7.2-8.3c0.1-0.1,0.1-0.1,0.2-0.1
			c1.5-0.1,14.1-1.1,17.4-1.3c0.3,0,0.5,0.3,0.3,0.5c0,0-18,17.2-18.1,17.2l-7,0.2c-0.3,0-0.4-0.7-0.2-0.9L243.2,79z"/>
		<g>
			
				<polygon fill="#595757" stroke="#595757" stroke-width="0.9064" stroke-linecap="round" stroke-linejoin="round" stroke-miterlimit="10" points="
				226.5,68 226,69.6 217.4,71 215.6,76.4 224.1,75.2 222.3,80.7 212,89.7 210.3,94.8 219.5,89.3 227.2,84.6 233.4,66.1 			"/>
			
				<polygon fill="#595757" stroke="#595757" stroke-width="0.9064" stroke-linecap="round" stroke-linejoin="round" stroke-miterlimit="10" points="
				214.2,106.4 220.3,105.5 226.4,87.9 217.9,92.9 			"/>
		</g>
		
			<polygon fill="#595757" stroke="#595757" stroke-width="0.8122" stroke-linecap="round" stroke-linejoin="round" stroke-miterlimit="10" points="
			248.9,85 257.8,84.4 237.4,103.3 229,103.9 		"/>
		<g>
			
				<polygon fill="#595757" stroke="#595757" stroke-width="0.89" stroke-linecap="round" stroke-linejoin="round" stroke-miterlimit="10" points="
				90.5,77.7 82.8,77.5 75.2,85.5 75.4,89.6 			"/>
			
				<path fill="#595757" stroke="#595757" stroke-width="0.89" stroke-linecap="round" stroke-linejoin="round" stroke-miterlimit="10" d="
				M105.2,109l-1.5-6.8c3.5-2.5,6.7-5.1,7.8-6.7l-8.3,0.3l-1.7,1.7l-3.5,3.6l-7.3,7.4l-0.1,2.2c0,0,3.9-2.3,8.4-5.3l3.1,12.3
				l9.4-8.2L105.2,109z"/>
			
				<polygon fill="#595757" stroke="#595757" stroke-width="0.89" stroke-linecap="round" stroke-linejoin="round" stroke-miterlimit="10" points="
				101.2,90.8 107.1,89 108.9,84.4 100.4,86.9 98.6,78.6 93.1,82.4 94.7,88.5 87.2,90.7 88.8,81.8 82.2,86.8 81.3,92.4 73.6,94.6 
				72.3,99.5 80.6,97 80,101 71.6,103.3 70.5,108.1 79.6,104 78.6,110.5 72.4,111.2 82.1,119.1 86.4,95.2 95.6,92.5 97.3,98.9 
				102.2,94.1 			"/>
			
				<polygon fill="#595757" stroke="#595757" stroke-width="0.89" stroke-linecap="round" stroke-linejoin="round" stroke-miterlimit="10" points="
				108.3,77.8 101.9,78.3 102.5,83.1 			"/>
		</g>
		
			<polygon fill="#595757" stroke="#595757" stroke-width="1.0679" stroke-linecap="round" stroke-linejoin="round" stroke-miterlimit="10" points="
			310.9,63.9 281.1,68.3 279.8,74.9 309.2,70.6 303.8,89.4 275.6,92.7 274.3,99.2 302,95.5 301.5,97.4 308.8,96.6 316.9,68.1 		"/>
		
			<polygon fill="#595757" stroke="#595757" stroke-width="0.7363" stroke-linecap="round" stroke-linejoin="round" stroke-miterlimit="10" points="
			295.2,75.1 302.5,73.8 304.2,79.7 302,85.9 		"/>
		
			<polygon fill="#595757" stroke="#595757" stroke-width="0.7363" stroke-linecap="round" stroke-linejoin="round" stroke-miterlimit="10" points="
			282.6,76.9 276.2,86.5 281.9,85.6 289.8,75.4 		"/>
		
			<polygon fill="#595757" stroke="#595757" stroke-width="0.8122" stroke-linecap="round" stroke-linejoin="round" stroke-miterlimit="10" points="
			270.6,75 277.6,69.5 271.1,100.5 264.9,100.9 		"/>
		
			<circle fill="#595757" stroke="#595757" stroke-width="0.7609" stroke-linecap="round" stroke-linejoin="round" stroke-miterlimit="10" cx="195.4" cy="47.8" r="3.4"/>
		
			<polygon fill="#595757" stroke="#595757" stroke-width="0.8241" stroke-linecap="round" stroke-linejoin="round" stroke-miterlimit="10" points="
			203.1,19.5 196,39.7 200.2,39.9 210.2,23.9 207.6,19.2 		"/>
		<g>
			
				<polygon fill="#595757" stroke="#595757" stroke-width="0.9064" stroke-linecap="round" stroke-linejoin="round" stroke-miterlimit="10" points="
				245.5,65.5 244.3,69.3 250.8,68.6 252.5,63.6 			"/>
		</g>
		<g>
			<polygon fill="#595757" stroke="#595757" stroke-width="0.7714" stroke-miterlimit="10" points="61.6,21.8 52.6,35 52.5,40.3 
				69.3,21.5 69.5,20.5 			"/>
			<polygon fill="#595757" stroke="#595757" stroke-width="0.7714" stroke-miterlimit="10" points="77.3,19.9 83.6,19.2 91.3,30 
				92.2,38.4 91.1,38.5 			"/>
			<polygon fill="#595757" stroke="#595757" stroke-width="0.7714" stroke-miterlimit="10" points="65.5,32.2 59.6,38.6 63.2,38.4 
				51.5,56.8 56.8,56.5 70.2,37.7 78,37.2 69.9,51.9 64.9,52.1 72.4,59.8 85.3,37.7 79.6,31.1 			"/>
		</g>
	</g>
</g>
</svg>
