<svg width="269" height="257" viewBox="0 0 269 257" fill="none" xmlns="http://www.w3.org/2000/svg">
<path d="M110.05 256.25L2.04998 156.25L116.95 34.25L225.35 132.25L110.05 256.25Z" fill="white" stroke="black" stroke-width="1.5" stroke-linecap="round" stroke-linejoin="round"/>
<path d="M225.05 132.25C225.043 132.435 224.972 132.611 224.85 132.75L109.65 256.75C109.52 256.878 109.35 256.958 109.168 256.977C108.986 256.995 108.803 256.95 108.65 256.85L0.64998 156.85C0.559522 156.778 0.48585 156.687 0.434053 156.583C0.382257 156.479 0.353571 156.366 0.349979 156.25C0.356862 156.065 0.427535 155.888 0.549979 155.75L115.45 33.75C115.592 33.6364 115.768 33.5745 115.95 33.5745C116.132 33.5745 116.308 33.6364 116.45 33.75L224.95 131.75C225.072 131.888 225.143 132.065 225.15 132.25H225.05ZM109.05 255.25L223.25 132.25L115.95 35.35L2.14998 156.25L109.05 255.25Z" fill="black"/>
<path d="M149.85 64.25C149.85 64.25 160.25 45.25 162.35 40.85C162.35 40.85 166.35 32.35 178.05 28.55C189.75 24.75 207.85 15.25 207.85 15.25C207.85 15.25 228.95 6.54997 231.85 1.24997C231.85 1.24997 266.05 19.35 267.85 42.25C267.85 42.25 250.25 66.25 243.75 75.95C238.05 84.45 235.35 87.95 235.35 87.95C235.35 87.95 224.05 103.15 214.75 103.65C207.65 104.05 203.25 104.35 203.25 97.05C203.25 97.05 195.55 103.05 192.35 102.35L176.95 87.85C176.95 87.85 166.05 100.85 155.75 94.55C145.45 88.25 159.35 73.85 159.35 73.85L149.85 64.25Z" fill="#FFED09"/>
<path d="M159.35 73.85L175.65 52.85Z" fill="#FFED09"/>
<path d="M182.45 51.85C182.45 51.85 173.85 55.85 167.65 47.85Z" fill="#FFED09"/>
<path d="M165.95 64.6499C165.95 64.6499 164.45 57.05 159.05 55.05Z" fill="#FFED09"/>
<path d="M154.45 93.45C154.45 93.45 165.15 96.35 168.45 87.25C168.45 87.25 169.55 75.25 157.55 76.25" fill="#FFED09"/>
<path d="M199.65 58.85C199.65 58.85 188.45 73.75 182.55 77.35C182.55 77.35 180.95 83.95 176.95 87.85" fill="#FFED09"/>
<path d="M187.45 97.55L196.45 92.1499C197.738 91.3859 198.838 90.3422 199.669 89.096C200.5 87.8498 201.04 86.4329 201.25 84.95C201.435 83.708 201.353 82.4408 201.008 81.2334C200.663 80.0261 200.063 78.9065 199.25 77.95C198.299 76.7824 197.007 75.9422 195.554 75.5476C194.101 75.1529 192.561 75.2237 191.15 75.75C190.667 75.9091 190.198 76.1099 189.75 76.35L181.75 80.75" fill="#FFED09"/>
<path d="M203.25 97.05C203.25 97.05 221.85 78.45 222.85 74.45C222.85 74.45 226.15 64.05 218.95 61.95C218.95 61.95 214.35 60.65 210.05 65.85L199.05 77.25" fill="#FFED09"/>
<path d="M216.65 100.95C216.65 100.95 231.95 84.95 233.65 78.85C233.65 78.85 237.05 70.65 230.75 68.25C230.75 68.25 226.45 66.85 223.35 72.45" fill="#FFED09"/>
<path d="M229.45 79.75C229.45 79.75 224.95 81.35 223.45 77.05Z" fill="#FFED09"/>
<path d="M220.15 73.35C220.15 73.35 214.55 76.65 211.05 72.25C207.55 67.85 212.55 63.45 212.55 63.45" fill="#FFED09"/>
<path d="M193.95 89.65C193.95 89.65 188.05 91.15 186.55 86.65C186.221 85.6632 186.159 84.607 186.369 83.5885C186.58 82.5699 187.056 81.6252 187.75 80.85L192.55 75.55" fill="#FFED09"/>
<path d="M196.15 63.75C196.15 63.75 202.85 61.6499 203.55 69.1499Z" fill="#FFED09"/>
<path d="M169.35 74.35C169.35 74.35 171.55 80.55 182.55 77.35Z" fill="#FFED09"/>
<path d="M166.85 82.35C166.85 82.35 160.45 84.25 159.85 76.35Z" fill="#FFED09"/>
<path d="M190.25 89.55C190.25 89.55 191.35 85.55 187.05 82.35Z" fill="#FFED09"/>
<path d="M215.65 74.25C215.65 74.25 215.65 68.7499 210.25 68.6499Z" fill="#FFED09"/>
<path d="M198.15 61.85C198.15 61.85 225.45 64.45 242.35 43.05Z" fill="#FFED09"/>
<path d="M149.45 64.25C149.45 64.25 159.85 45.25 161.95 40.85C161.95 40.85 165.95 32.35 177.65 28.55C189.35 24.75 207.55 15.25 207.55 15.25C207.55 15.25 228.55 6.54997 231.35 1.24997C231.35 1.24997 265.65 19.35 267.55 42.25C267.55 42.25 249.85 66.25 243.35 75.95C237.65 84.45 234.95 87.95 234.95 87.95C234.95 87.95 223.65 103.15 214.45 103.65C207.25 104.05 202.85 104.35 202.85 97.05C202.85 97.05 195.15 103.05 191.95 102.35L176.55 87.85C176.55 87.85 165.65 100.85 155.35 94.55C145.05 88.25 158.95 73.85 158.95 73.85L149.45 64.25Z" stroke="black" stroke-linecap="round" stroke-linejoin="round"/>
<path d="M158.95 73.85L175.25 52.85" stroke="black" stroke-linecap="round" stroke-linejoin="round"/>
<path d="M182.05 51.85C182.05 51.85 173.45 55.85 167.25 47.85" stroke="black" stroke-linecap="round" stroke-linejoin="round"/>
<path d="M165.55 64.6499C165.55 64.6499 164.15 57.05 158.75 55.05" stroke="black" stroke-linecap="round" stroke-linejoin="round"/>
<path d="M157.15 76.25C169.15 75.25 168.15 87.25 168.15 87.25C164.75 96.25 154.15 93.45 154.15 93.45C154.15 93.45 150.35 91.45 151.65 86.05C152.699 82.3713 154.581 78.9837 157.15 76.15V76.25Z" fill="white" stroke="black" stroke-linecap="round" stroke-linejoin="round"/>
<path d="M199.35 58.85C199.35 58.85 188.15 73.75 182.15 77.35C182.15 77.35 180.55 83.95 176.55 87.85" stroke="black" stroke-linecap="round" stroke-linejoin="round"/>
<path d="M187.15 97.55L196.05 92.1499C197.338 91.3859 198.438 90.3422 199.269 89.096C200.1 87.8498 200.64 86.4329 200.85 84.95C201.035 83.708 200.953 82.4408 200.608 81.2334C200.263 80.0261 199.663 78.9065 198.85 77.95C197.899 76.7824 196.607 75.9422 195.154 75.5476C193.701 75.1529 192.161 75.2237 190.75 75.75C190.267 75.9091 189.798 76.1099 189.35 76.35L181.35 80.75" stroke="black" stroke-linecap="round" stroke-linejoin="round"/>
<path d="M202.85 97.05C202.85 97.05 221.45 78.45 222.45 74.45C222.45 74.45 225.75 64.05 218.55 61.95C218.55 61.95 213.95 60.65 209.65 65.85L198.65 77.25" stroke="black" stroke-linecap="round" stroke-linejoin="round"/>
<path d="M216.15 100.95C216.15 100.95 231.55 84.95 233.15 78.85C233.15 78.85 236.65 70.65 230.35 68.25C230.35 68.25 226.05 66.85 223.05 72.45" stroke="black" stroke-linecap="round" stroke-linejoin="round"/>
<path d="M229.15 79.75C229.15 79.75 224.55 81.35 223.15 77.05" stroke="black" stroke-linecap="round" stroke-linejoin="round"/>
<path d="M219.75 73.35C219.75 73.35 214.25 76.65 210.65 72.25C207.05 67.85 212.15 63.45 212.15 63.45" stroke="black" stroke-linecap="round" stroke-linejoin="round"/>
<path d="M193.65 89.65C193.65 89.65 187.65 91.15 186.15 86.65C185.821 85.6632 185.759 84.607 185.969 83.5885C186.18 82.5699 186.656 81.6252 187.35 80.85L192.15 75.55" stroke="black" stroke-linecap="round" stroke-linejoin="round"/>
<path d="M195.65 63.75C195.65 63.75 202.45 61.6499 203.15 69.1499" stroke="black" stroke-linecap="round" stroke-linejoin="round"/>
<path d="M168.95 74.35C168.95 74.35 171.15 80.55 182.15 77.35" stroke="black" stroke-linecap="round" stroke-linejoin="round"/>
<path d="M166.45 82.35C166.45 82.35 160.05 84.25 159.45 76.35" stroke="black" stroke-linecap="round" stroke-linejoin="round"/>
<path d="M189.85 89.55C189.85 89.55 190.95 85.55 186.65 82.35" stroke="black" stroke-linecap="round" stroke-linejoin="round"/>
<path d="M215.25 74.25C215.25 74.25 215.25 68.7499 209.95 68.6499" stroke="black" stroke-linecap="round" stroke-linejoin="round"/>
<path d="M197.75 61.85C197.75 61.85 225.05 64.45 241.95 43.05" stroke="black" stroke-linecap="round" stroke-linejoin="round"/>
<path d="M132.65 231.55L25.45 131.55Z" fill="white"/>
<path d="M132.65 231.55L25.45 131.55" stroke="black" stroke-width="1.5" stroke-linecap="round" stroke-linejoin="round"/>
<path d="M156.95 204.75L50.25 105.75Z" fill="white"/>
<path d="M156.95 204.75L50.25 105.75" stroke="black" stroke-width="1.5" stroke-linecap="round" stroke-linejoin="round"/>
<path d="M199.35 159.85L91.95 61.85Z" fill="white"/>
<path d="M199.35 159.85L91.95 61.85" stroke="black" stroke-width="1.5" stroke-linecap="round" stroke-linejoin="round"/>
<path d="M151.05 133.95C151.05 120.529 140.17 109.65 126.75 109.65C113.329 109.65 102.45 120.529 102.45 133.95C102.45 147.37 113.329 158.25 126.75 158.25C140.17 158.25 151.05 147.37 151.05 133.95Z" fill="black"/>
<path d="M141.25 131.85L132.75 141.85L136.55 145.15L134.55 147.55C134.036 147.08 133.465 146.677 132.85 146.35C132.293 146.018 131.685 145.781 131.05 145.65C130.426 145.497 129.774 145.497 129.15 145.65C128.487 145.855 127.874 146.195 127.35 146.65L124.85 144.55L138.15 129.15L141.25 131.85Z" fill="white"/>
<path d="M116.65 128.25C118.172 127.712 119.644 127.043 121.05 126.25C122.466 125.518 123.806 124.647 125.05 123.65C126.23 122.778 127.304 121.771 128.25 120.65L131.55 123.55C129.409 125.661 126.945 127.417 124.25 128.75C121.534 130.095 118.637 131.038 115.65 131.55L122.95 137.75L120.35 140.75L109.85 131.55L112.15 128.95C113.677 128.947 115.194 128.711 116.65 128.25V128.25Z" fill="white"/>
<path d="M125.35 193.05C126.15 192.35 126.55 192.05 127.35 192.25C128.165 192.566 128.887 193.081 129.45 193.75C129.078 194.382 128.776 195.053 128.55 195.75C128.197 195.306 127.794 194.903 127.35 194.55C127.25 194.55 127.05 194.35 126.85 194.65L121.05 200.95L127.05 206.45L134.45 198.45L135.95 199.85L127.35 209.25L118.35 200.95L125.35 193.05ZM123.25 199.35L128.35 204.15L127.25 205.35L122.15 200.55L123.25 199.35ZM130.45 198.25L131.05 197.55L132.35 198.75L128.45 203.05L124.15 199.05L127.45 195.55L130.45 198.25ZM128.25 200.65L129.25 199.55L127.85 198.15L126.85 199.25L128.25 200.65Z" fill="black"/>
<path d="M110.05 187.95L119.05 196.25L118.05 197.45L116.05 195.55C115.934 195.692 115.864 195.867 115.85 196.05L114.85 195.55L117.15 197.55L116.15 198.75L112.85 195.85C112.798 195.921 112.762 196.002 112.744 196.089C112.727 196.175 112.729 196.264 112.75 196.35L110.75 194.95C110.861 194.64 110.994 194.34 111.15 194.05L107.95 191.15L108.95 190.05L111.05 192.05L110.35 191.05L110.95 190.85L108.95 188.85L110.05 187.95ZM118.45 185.95C118.05 185.75 117.95 185.75 117.35 186.35C117.189 185.739 116.918 185.163 116.55 184.65C117.75 183.65 118.35 183.65 119.55 184.65L120.95 185.95C122.45 187.35 122.35 187.95 121.35 189.05L120.55 190.05L119.35 189.05H118.45L121.15 191.45L118.15 194.75L111.35 188.35L114.35 185.15L117.35 187.85C117.14 187.469 116.973 187.067 116.85 186.65L118.65 186.45C118.752 187.142 118.954 187.816 119.25 188.45L119.85 187.75C120.15 187.45 120.05 187.35 119.65 186.95L118.45 185.95ZM114.15 194.95L114.45 194.15L112.45 192.35C112.242 192.502 112.003 192.604 111.75 192.65L114.15 194.95ZM117.85 192.35L113.95 188.75L113.65 189.05L117.55 192.65L117.85 192.35ZM124.55 191.05C123.549 191.009 122.553 191.215 121.65 191.65L120.95 189.95C121.938 189.548 122.985 189.311 124.05 189.25L124.55 191.05ZM118.85 191.15L114.95 187.55L114.65 187.85L118.65 191.45L118.85 191.15ZM114.45 185.15C114.45 184.12 114.654 183.101 115.05 182.15L116.85 182.75C116.505 183.686 116.27 184.659 116.15 185.65L114.45 185.15Z" fill="black"/>
<path d="M77.05 154.75C76.5901 152.773 76.2561 150.769 76.05 148.75H78.65C78.6347 150.558 78.7685 152.364 79.05 154.15L83.65 148.95L85.35 150.35L81.15 155.15C82.8934 154.987 84.652 155.122 86.35 155.55C86.2597 156.313 86.2262 157.082 86.25 157.85C83.7057 157.088 80.9942 157.088 78.45 157.85L82.45 161.45L81.15 163.05L71.95 154.95L73.25 153.35L76.55 156.15C76.998 155.958 77.4684 155.824 77.95 155.75L78.85 154.75H77.05Z" fill="black"/>
<path d="M67.25 137.65C67.95 136.95 68.55 136.65 69.15 136.75C69.9729 137.058 70.7223 137.535 71.35 138.15C70.9405 138.762 70.6363 139.438 70.45 140.15C70.0905 139.711 69.6886 139.309 69.25 138.95C69.05 138.75 68.95 138.75 68.75 138.95L63.15 145.25L69.35 150.65L76.45 142.55L77.95 143.85L69.45 153.35L60.45 145.35L67.25 137.65ZM65.25 143.85L70.45 148.45L69.45 149.75L64.15 145.15L65.25 143.85ZM72.45 142.65L72.95 141.85L74.45 143.15L70.65 147.45L66.25 143.65L69.55 140.05L72.45 142.65ZM70.25 144.95L71.25 143.75L69.65 142.45L68.65 143.55L70.25 144.95Z" fill="black"/>
<path d="M51.85 132.75L61.05 140.85L60.05 142.05L58.05 140.15C57.85 140.25 57.85 140.55 57.75 140.65L56.75 140.05L59.05 142.05L58.05 143.25L54.65 140.45C54.5555 140.604 54.4879 140.773 54.45 140.95L52.65 139.95L52.95 139.05L49.85 136.25L50.85 135.05L53.05 136.95L52.25 135.95L52.85 135.75L50.85 134.05L51.85 132.75ZM60.15 130.65C59.85 130.35 59.65 130.35 59.15 130.95C58.917 130.36 58.5781 129.818 58.15 129.35C59.35 128.35 60.05 128.35 61.15 129.35L62.65 130.65C64.15 131.95 64.15 132.65 63.15 133.75L62.35 134.75L61.15 133.75H60.35L63.05 136.15L60.05 139.55L53.15 133.35L56.15 130.05L59.15 132.65C58.9692 132.267 58.8349 131.864 58.75 131.45L60.55 131.35C60.7076 131.996 60.9081 132.631 61.15 133.25L61.85 132.45C62.15 132.15 62.05 132.05 61.55 131.75L60.15 130.65ZM56.15 139.65C56.1916 139.334 56.2935 139.028 56.45 138.75L54.45 137.05L53.75 137.35L56.15 139.65ZM59.75 136.95L55.75 133.45L55.45 133.75L59.45 137.25L59.75 136.95ZM66.35 135.55C65.3946 135.552 64.4471 135.721 63.55 136.05L62.75 134.45C63.7017 134.027 64.7141 133.757 65.75 133.65L66.35 135.55ZM60.85 135.75L56.85 132.25L56.55 132.55L60.55 136.05L60.85 135.75ZM56.25 129.85C56.2413 128.829 56.4105 127.813 56.75 126.85L58.65 127.45C58.2539 128.401 58.05 129.42 58.05 130.45L56.25 129.85Z" fill="black"/>
<path d="M49.65 166.35C47.8651 164.718 45.5843 163.733 43.1728 163.552C40.7613 163.37 38.3588 164.004 36.35 165.35L41.65 174.85L49.65 166.35Z" stroke="#E51A05" stroke-width="1.9" stroke-miterlimit="10"/>
<path d="M48.55 183.45C50.9082 181.83 52.5275 179.341 53.0524 176.529C53.5774 173.717 52.9651 170.811 51.35 168.45C50.8877 167.701 50.3145 167.027 49.65 166.45L41.65 174.75V174.95V174.75L34.95 181.65L41.55 174.65L36.35 165.45C34.1837 167.155 32.7438 169.617 32.3205 172.341C31.8971 175.066 32.5217 177.849 34.0684 180.131C35.6151 182.413 37.969 184.024 40.6561 184.64C43.3432 185.256 46.1638 184.831 48.55 183.45V183.45Z" stroke="#E51A05" stroke-width="1.9" stroke-miterlimit="10"/>
<path d="M60.65 210.55L107.65 158.95Z" fill="white"/>
<path d="M60.65 210.55L107.65 158.95" stroke="black" stroke-width="1.5" stroke-linecap="round" stroke-linejoin="round"/>
</svg>
