<svg xmlns="http://www.w3.org/2000/svg" xmlns:xlink="http://www.w3.org/1999/xlink" viewBox="0 0 312.3 301.2"><path fill="#FFF" stroke="#231815" stroke-linecap="round" stroke-linejoin="round" stroke-miterlimit="10" d="M7.1 125.8L156 3.8l71.8 108.9-117.6 90.1z"/><g opacity=".3"><defs><path id="a" d="M6 126.5L154.3 3.9l72.4 108.6-117.2 90.6z"/></defs><clipPath id="b"><use xlink:href="#a" overflow="visible"/></clipPath><g clip-path="url(#b)"><defs><path id="c" transform="matrix(1 -.00446 .00446 1 0 1.2)" d="M226.7-26h72v72h-72z"/></defs><clipPath id="d"><use xlink:href="#c" overflow="visible"/></clipPath><g clip-path="url(#d)" fill="none" stroke="#231815" stroke-width=".3" stroke-dasharray="2,2"><path d="M297.9 44.8l73.4-.3M297.9 40.8l73.4-.3M297.8 36.8l73.5-.3M297.8 32.8l73.5-.3M297.8 28.8l73.4-.3M297.8 24.8l73.4-.3M297.8 20.8l73.4-.3M297.7 16.8l73.5-.3M297.7 12.8l73.5-.3M297.7 8.8l73.4-.3M297.7 4.8l73.4-.3M297.7.8l73.4-.3"/></g><g clip-path="url(#d)" fill="none" stroke="#231815" stroke-width=".3" stroke-dasharray="2,2"><path d="M225.9 45.1l73.4-.3M225.9 41.1l73.4-.3M225.8 37.1l73.5-.3M225.8 33.1l73.5-.3M225.8 29.1l73.4-.3M225.8 25.1l73.4-.3M225.8 21.1l73.4-.3M225.7 17.1l73.5-.3M225.7 13.1l73.5-.3M225.7 9.1l73.4-.3M225.7 5.1l73.4-.3M225.7 1.1l73.4-.3M227.9 43.1l73.4-.3M227.9 39.1l73.4-.3M227.9 35.1l73.4-.3M227.8 31.1l73.5-.3M227.8 27.1l73.5-.3M227.8 23.1l73.5-.3M227.8 19.1l73.4-.3M227.8 15.1l73.4-.3M227.8 11.1l73.4-.3M227.7 7.1l73.5-.3M227.7 3.1l73.5-.3"/></g><g clip-path="url(#d)" fill="none" stroke="#231815" stroke-width=".3" stroke-dasharray="2,2"><path d="M153.9 45.5l73.4-.4M153.9 41.5l73.4-.4M153.8 37.5l73.5-.4M153.8 33.5l73.5-.4M153.8 29.5l73.4-.4M153.8 25.5l73.4-.4M153.8 21.5l73.4-.4M153.7 17.5l73.5-.4M153.7 13.5l73.5-.4M153.7 9.5l73.4-.4M153.7 5.5l73.4-.4M153.7 1.5l73.4-.4M155.9 43.5l73.4-.4M155.9 39.5l73.4-.4M155.9 35.5l73.4-.4M155.8 31.5l73.5-.4M155.8 27.5l73.5-.4M155.8 23.5l73.5-.4M155.8 19.5l73.4-.4M155.8 15.5l73.4-.4M155.8 11.5l73.4-.4M155.7 7.5l73.5-.4M155.7 3.5l73.5-.4"/></g></g><g clip-path="url(#b)"><defs><path id="e" transform="rotate(-.3 263 82) scale(1.00001)" d="M227 46h72v72h-72z"/></defs><clipPath id="f"><use xlink:href="#e" overflow="visible"/></clipPath><g clip-path="url(#f)" fill="none" stroke="#231815" stroke-width=".3" stroke-dasharray="2,2"><path d="M298.2 116.8l73.4-.3M298.2 112.8l73.4-.3M298.2 108.8l73.4-.3M298.1 104.8l73.5-.3M298.1 100.8l73.5-.3M298.1 96.8l73.4-.3M298.1 92.8l73.4-.3M298.1 88.8l73.4-.3M298 84.8l73.5-.3M298 80.8l73.5-.3M298 76.8l73.5-.3M298 72.8l73.4-.3M298 68.8l73.4-.3M298 64.8l73.4-.3M297.9 60.8l73.5-.3M297.9 56.8l73.5-.3M297.9 52.8l73.4-.3M297.9 48.8l73.4-.3"/></g><g clip-path="url(#f)" fill="none" stroke="#231815" stroke-width=".3" stroke-dasharray="2,2"><path d="M226.2 117.1l73.4-.3M226.2 113.1l73.4-.3M226.2 109.1l73.4-.3M226.1 105.1l73.5-.3M226.1 101.1l73.5-.3M226.1 97.1l73.4-.3M226.1 93.1l73.4-.3M226.1 89.1l73.4-.3M226 85.1l73.5-.3M226 81.1l73.5-.3M226 77.1l73.5-.3M226 73.1l73.4-.3M226 69.1l73.4-.3M226 65.1l73.4-.3M225.9 61.1l73.5-.3M225.9 57.1l73.5-.3M225.9 53.1l73.4-.3M225.9 49.1l73.4-.3M228.2 115.1l73.5-.3M228.2 111.1l73.4-.3M228.2 107.1l73.4-.3M228.2 103.1l73.4-.3M228.2 99.1l73.4-.3M228.1 95.1l73.5-.3M228.1 91.1l73.5-.3M228.1 87.1l73.4-.3M228.1 83.1l73.4-.3M228.1 79.1l73.4-.3M228 75.1l73.5-.3M228 71.1l73.5-.3M228 67.1l73.4-.3M228 63.1l73.4-.3M228 59.1l73.4-.3M228 55.1l73.4-.3M227.9 51.1l73.5-.3M227.9 47.1l73.5-.3"/></g><g clip-path="url(#f)" fill="none" stroke="#231815" stroke-width=".3" stroke-dasharray="2,2"><path d="M154.2 117.5l73.4-.4M154.2 113.5l73.4-.4M154.2 109.5l73.4-.4M154.1 105.5l73.5-.4M154.1 101.5l73.5-.4M154.1 97.5l73.4-.4M154.1 93.5l73.4-.4M154.1 89.5l73.4-.4M154 85.5l73.5-.4M154 81.5l73.5-.4M154 77.5l73.5-.4M154 73.5l73.4-.4M154 69.5l73.4-.4M154 65.5l73.4-.4M153.9 61.5l73.5-.4M153.9 57.5l73.5-.4M153.9 53.5l73.4-.4M153.9 49.5l73.4-.4M156.2 115.5l73.5-.4M156.2 111.5l73.4-.4M156.2 107.5l73.4-.4M156.2 103.5l73.4-.4M156.2 99.5l73.4-.4M156.1 95.5l73.5-.4M156.1 91.5l73.5-.4M156.1 87.5l73.4-.4M156.1 83.5l73.4-.4M156.1 79.5l73.4-.4M156 75.5l73.5-.4M156 71.5l73.5-.4M156 67.5l73.4-.4M156 63.5l73.4-.4M156 59.5l73.4-.4M156 55.5l73.4-.4M155.9 51.5l73.5-.4M155.9 47.5l73.5-.4"/></g></g><g clip-path="url(#b)"><defs><path id="g" transform="matrix(1 -.00446 .00446 1 -.7 1.2)" d="M227.4 118h72v72h-72z"/></defs><clipPath id="h"><use xlink:href="#g" overflow="visible"/></clipPath><g clip-path="url(#h)" fill="none" stroke="#231815" stroke-width=".3" stroke-dasharray="2,2"><path d="M298.5 188.8l73.5-.3M298.5 184.8l73.4-.3M298.5 180.8l73.4-.3M298.5 176.8l73.4-.3M298.4 172.8l73.5-.3M298.4 168.8l73.5-.3M298.4 164.8l73.4-.3M298.4 160.8l73.4-.3M298.4 156.8l73.4-.3M298.4 152.8l73.4-.3M298.3 148.8l73.5-.3M298.3 144.8l73.5-.3M298.3 140.8l73.4-.3M298.3 136.8l73.4-.3M298.3 132.8l73.4-.3M298.2 128.8l73.5-.3M298.2 124.8l73.5-.3M298.2 120.8l73.4-.3"/></g><g clip-path="url(#h)" fill="none" stroke="#231815" stroke-width=".3" stroke-dasharray="2,2"><path d="M226.5 189.1l73.5-.3M226.5 185.1l73.4-.3M226.5 181.1l73.4-.3M226.5 177.1l73.4-.3M226.4 173.1l73.5-.3M226.4 169.1l73.5-.3M226.4 165.1l73.4-.3M226.4 161.1l73.4-.3M226.4 157.1l73.4-.3M226.4 153.1l73.4-.3M226.3 149.1l73.5-.3M226.3 145.1l73.5-.3M226.3 141.1l73.4-.3M226.3 137.1l73.4-.3M226.3 133.1l73.4-.3M226.2 129.1l73.5-.3M226.2 125.1l73.5-.3M226.2 121.1l73.4-.3M228.5 187.1l73.5-.3M228.5 183.1l73.5-.3M228.5 179.1l73.4-.3M228.5 175.1l73.4-.3M228.5 171.1l73.4-.3M228.5 167.1l73.4-.3M228.4 163.1l73.5-.3M228.4 159.1l73.5-.3M228.4 155.1l73.4-.3M228.4 151.1l73.4-.3M228.4 147.1l73.4-.3M228.3 143.1l73.5-.3M228.3 139.1l73.5-.3M228.3 135.1l73.5-.3M228.3 131.1l73.4-.3M228.3 127.1l73.4-.3M228.3 123.1l73.4-.3M228.2 119.1l73.5-.3"/></g><g clip-path="url(#h)" fill="none" stroke="#231815" stroke-width=".3" stroke-dasharray="2,2"><path d="M154.5 189.5l73.5-.4M154.5 185.5l73.4-.4M154.5 181.5l73.4-.4M154.5 177.5l73.4-.4M154.4 173.5l73.5-.4M154.4 169.5l73.5-.4M154.4 165.5l73.4-.4M154.4 161.5l73.4-.4M154.4 157.5l73.4-.4M154.4 153.5l73.4-.4M154.3 149.5l73.5-.4M154.3 145.5l73.5-.4M154.3 141.5l73.4-.4M154.3 137.5l73.4-.4M154.3 133.5l73.4-.4M154.2 129.5l73.5-.4M154.2 125.5l73.5-.4M154.2 121.5l73.4-.4M156.5 187.5l73.5-.4M156.5 183.5l73.5-.4M156.5 179.5l73.4-.4M156.5 175.5l73.4-.4M156.5 171.5l73.4-.4M156.5 167.5l73.4-.4M156.4 163.5l73.5-.4M156.4 159.5l73.5-.4M156.4 155.5l73.4-.4M156.4 151.5l73.4-.4M156.4 147.5l73.4-.4M156.3 143.5l73.5-.4M156.3 139.5l73.5-.4M156.3 135.5l73.5-.4M156.3 131.5l73.4-.4M156.3 127.5l73.4-.4M156.3 123.5l73.4-.4M156.2 119.5l73.5-.4"/></g></g><g clip-path="url(#b)"><defs><path id="i" transform="matrix(1 -.00446 .00446 1 -1 1.2)" d="M227.7 190h72v72h-72z"/></defs><clipPath id="j"><use xlink:href="#i" overflow="visible"/></clipPath><g clip-path="url(#j)" fill="none" stroke="#231815" stroke-width=".3" stroke-dasharray="2,2"><path d="M298.8 260.8l73.5-.3M298.8 256.8l73.5-.3M298.8 252.8l73.4-.3M298.8 248.8l73.4-.3M298.8 244.8l73.4-.3M298.7 240.8l73.5-.3M298.7 236.8l73.5-.3M298.7 232.8l73.4-.3M298.7 228.8l73.4-.3M298.7 224.8l73.4-.3M298.7 220.8l73.4-.3M298.6 216.8l73.5-.3M298.6 212.8l73.5-.3M298.6 208.8l73.4-.3M298.6 204.8l73.4-.3M298.6 200.8l73.4-.3M298.5 196.8l73.5-.3M298.5 192.8l73.5-.3"/></g><g clip-path="url(#j)" fill="none" stroke="#231815" stroke-width=".3" stroke-dasharray="2,2"><path d="M226.8 261.1l73.5-.3M226.8 257.1l73.5-.3M226.8 253.1l73.4-.3M226.8 249.1l73.4-.3M226.8 245.1l73.4-.3M226.7 241.1l73.5-.3M226.7 237.1l73.5-.3M226.7 233.1l73.4-.3M226.7 229.1l73.4-.3M226.7 225.1l73.4-.3M226.7 221.1l73.4-.3M226.6 217.1l73.5-.3M226.6 213.1l73.5-.3M226.6 209.1l73.4-.3M226.6 205.1l73.4-.3M226.6 201.1l73.4-.3M226.5 197.1l73.5-.3M226.5 193.1l73.5-.3M228.9 259.1l73.4-.3M228.8 255.1l73.5-.3M228.8 251.1l73.5-.3M228.8 247.1l73.5-.3M228.8 243.1l73.4-.3M228.8 239.1l73.4-.3M228.8 235.1l73.4-.3M228.7 231.1l73.5-.3M228.7 227.1l73.5-.3M228.7 223.1l73.4-.3M228.7 219.1l73.4-.3M228.7 215.1l73.4-.3M228.6 211.1l73.5-.3M228.6 207.1l73.5-.3M228.6 203.1l73.5-.3M228.6 199.1l73.4-.3M228.6 195.1l73.4-.3M228.6 191.1l73.4-.3"/></g><g clip-path="url(#j)" fill="none" stroke="#231815" stroke-width=".3" stroke-dasharray="2,2"><path d="M154.8 261.5l73.5-.4M154.8 257.5l73.5-.4M154.8 253.5l73.4-.4M154.8 249.5l73.4-.4M154.8 245.5l73.4-.4M154.7 241.5l73.5-.4M154.7 237.5l73.5-.4M154.7 233.5l73.4-.4M154.7 229.5l73.4-.4M154.7 225.5l73.4-.4M154.7 221.5l73.4-.4M154.6 217.5l73.5-.4M154.6 213.5l73.5-.4M154.6 209.5l73.4-.4M154.6 205.5l73.4-.4M154.6 201.5l73.4-.4M154.5 197.5l73.5-.4M154.5 193.5l73.5-.4M156.9 259.5l73.4-.4M156.8 255.5l73.5-.4M156.8 251.5l73.5-.4M156.8 247.5l73.5-.4M156.8 243.5l73.4-.4M156.8 239.5l73.4-.4M156.8 235.5l73.4-.4M156.7 231.5l73.5-.4M156.7 227.5l73.5-.4M156.7 223.5l73.4-.4M156.7 219.5l73.4-.4M156.7 215.5l73.4-.4M156.6 211.5l73.5-.4M156.6 207.5l73.5-.4M156.6 203.5l73.5-.4M156.6 199.5l73.4-.4M156.6 195.5l73.4-.4M156.6 191.5l73.4-.4"/></g></g><g clip-path="url(#b)"><defs><path id="k" transform="matrix(1 -.00446 .00446 1 0 .8)" d="M154.7-25.7h72v72h-72z"/></defs><clipPath id="l"><use xlink:href="#k" overflow="visible"/></clipPath><g clip-path="url(#l)" fill="none" stroke="#231815" stroke-width=".3" stroke-dasharray="2,2"><path d="M225.9 45.1l73.4-.3M225.9 41.1l73.4-.3M225.8 37.1l73.5-.3M225.8 33.1l73.5-.3M225.8 29.1l73.4-.3M225.8 25.1l73.4-.3M225.8 21.1l73.4-.3M225.7 17.1l73.5-.3M225.7 13.1l73.5-.3M225.7 9.1l73.4-.3M225.7 5.1l73.4-.3M225.7 1.1l73.4-.3"/></g><g clip-path="url(#l)" fill="none" stroke="#231815" stroke-width=".3" stroke-dasharray="2,2"><path d="M153.9 45.5l73.4-.4M153.9 41.5l73.4-.4M153.8 37.5l73.5-.4M153.8 33.5l73.5-.4M153.8 29.5l73.4-.4M153.8 25.5l73.4-.4M153.8 21.5l73.4-.4M153.7 17.5l73.5-.4M153.7 13.5l73.5-.4M153.7 9.5l73.4-.4M153.7 5.5l73.4-.4M153.7 1.5l73.4-.4M155.9 43.5l73.4-.4M155.9 39.5l73.4-.4M155.9 35.5l73.4-.4M155.8 31.5l73.5-.4M155.8 27.5l73.5-.4M155.8 23.5l73.5-.4M155.8 19.5l73.4-.4M155.8 15.5l73.4-.4M155.8 11.5l73.4-.4M155.7 7.5l73.5-.4M155.7 3.5l73.5-.4"/></g><g clip-path="url(#l)" fill="none" stroke="#231815" stroke-width=".3" stroke-dasharray="2,2"><path d="M81.9 45.8l73.4-.3M81.9 41.8l73.4-.3M81.8 37.8l73.5-.3M81.8 33.8l73.5-.3M81.8 29.8l73.4-.3M81.8 25.8l73.4-.3M81.8 21.8l73.4-.3M81.7 17.8l73.5-.3M81.7 13.8l73.5-.3M81.7 9.8l73.4-.3M81.7 5.8l73.4-.3M81.7 1.8l73.4-.3M83.9 43.8l73.4-.3M83.9 39.8l73.4-.3M83.9 35.8l73.4-.3M83.8 31.8l73.5-.3M83.8 27.8l73.5-.3M83.8 23.8l73.5-.3M83.8 19.8l73.4-.3M83.8 15.8l73.4-.3M83.8 11.8l73.4-.3M83.7 7.8l73.5-.3M83.7 3.8l73.5-.3"/></g></g><g clip-path="url(#b)"><defs><path id="m" transform="matrix(1 -.00446 .00446 1 -.4 .9)" d="M155 46.3h72v72h-72z"/></defs><clipPath id="n"><use xlink:href="#m" overflow="visible"/></clipPath><g clip-path="url(#n)" fill="none" stroke="#231815" stroke-width=".3" stroke-dasharray="2,2"><path d="M226.2 117.1l73.4-.3M226.2 113.1l73.4-.3M226.2 109.1l73.4-.3M226.1 105.1l73.5-.3M226.1 101.1l73.5-.3M226.1 97.1l73.4-.3M226.1 93.1l73.4-.3M226.1 89.1l73.4-.3M226 85.1l73.5-.3M226 81.1l73.5-.3M226 77.1l73.5-.3M226 73.1l73.4-.3M226 69.1l73.4-.3M226 65.1l73.4-.3M225.9 61.1l73.5-.3M225.9 57.1l73.5-.3M225.9 53.1l73.4-.3M225.9 49.1l73.4-.3"/></g><g clip-path="url(#n)" fill="none" stroke="#231815" stroke-width=".3" stroke-dasharray="2,2"><path d="M154.2 117.5l73.4-.4M154.2 113.5l73.4-.4M154.2 109.5l73.4-.4M154.1 105.5l73.5-.4M154.1 101.5l73.5-.4M154.1 97.5l73.4-.4M154.1 93.5l73.4-.4M154.1 89.5l73.4-.4M154 85.5l73.5-.4M154 81.5l73.5-.4M154 77.5l73.5-.4M154 73.5l73.4-.4M154 69.5l73.4-.4M154 65.5l73.4-.4M153.9 61.5l73.5-.4M153.9 57.5l73.5-.4M153.9 53.5l73.4-.4M153.9 49.5l73.4-.4M156.2 115.5l73.5-.4M156.2 111.5l73.4-.4M156.2 107.5l73.4-.4M156.2 103.5l73.4-.4M156.2 99.5l73.4-.4M156.1 95.5l73.5-.4M156.1 91.5l73.5-.4M156.1 87.5l73.4-.4M156.1 83.5l73.4-.4M156.1 79.5l73.4-.4M156 75.5l73.5-.4M156 71.5l73.5-.4M156 67.5l73.4-.4M156 63.5l73.4-.4M156 59.5l73.4-.4M156 55.5l73.4-.4M155.9 51.5l73.5-.4M155.9 47.5l73.5-.4"/></g><g clip-path="url(#n)" fill="none" stroke="#231815" stroke-width=".3" stroke-dasharray="2,2"><path d="M82.2 117.8l73.4-.3M82.2 113.8l73.4-.3M82.2 109.8l73.4-.3M82.1 105.8l73.5-.3M82.1 101.8l73.5-.3M82.1 97.8l73.4-.3M82.1 93.8l73.4-.3M82.1 89.8l73.4-.3M82 85.8l73.5-.3M82 81.8l73.5-.3M82 77.8l73.5-.3M82 73.8l73.4-.3M82 69.8l73.4-.3M82 65.8l73.4-.3M81.9 61.8l73.5-.3M81.9 57.8l73.5-.3M81.9 53.8l73.4-.3M81.9 49.8l73.4-.3M84.2 115.8l73.5-.3M84.2 111.8l73.4-.3M84.2 107.8l73.4-.3M84.2 103.8l73.4-.3M84.2 99.8l73.4-.3M84.1 95.8l73.5-.3M84.1 91.8l73.5-.3M84.1 87.8l73.4-.3M84.1 83.8l73.4-.3M84.1 79.8l73.4-.3M84 75.8l73.5-.3M84 71.8l73.5-.3M84 67.8l73.4-.3M84 63.8l73.4-.3M84 59.8l73.4-.3M84 55.8l73.4-.3M83.9 51.8l73.5-.3M83.9 47.8l73.5-.3"/></g></g><g clip-path="url(#b)"><defs><path id="o" transform="matrix(1 -.00446 .00446 1 -.7 .9)" d="M155.4 118.3h72v72h-72z"/></defs><clipPath id="p"><use xlink:href="#o" overflow="visible"/></clipPath><g clip-path="url(#p)" fill="none" stroke="#231815" stroke-width=".3" stroke-dasharray="2,2"><path d="M226.5 189.1l73.5-.3M226.5 185.1l73.4-.3M226.5 181.1l73.4-.3M226.5 177.1l73.4-.3M226.4 173.1l73.5-.3M226.4 169.1l73.5-.3M226.4 165.1l73.4-.3M226.4 161.1l73.4-.3M226.4 157.1l73.4-.3M226.4 153.1l73.4-.3M226.3 149.1l73.5-.3M226.3 145.1l73.5-.3M226.3 141.1l73.4-.3M226.3 137.1l73.4-.3M226.3 133.1l73.4-.3M226.2 129.1l73.5-.3M226.2 125.1l73.5-.3M226.2 121.1l73.4-.3"/></g><g clip-path="url(#p)" fill="none" stroke="#231815" stroke-width=".3" stroke-dasharray="2,2"><path d="M154.5 189.5l73.5-.4M154.5 185.5l73.4-.4M154.5 181.5l73.4-.4M154.5 177.5l73.4-.4M154.4 173.5l73.5-.4M154.4 169.5l73.5-.4M154.4 165.5l73.4-.4M154.4 161.5l73.4-.4M154.4 157.5l73.4-.4M154.4 153.5l73.4-.4M154.3 149.5l73.5-.4M154.3 145.5l73.5-.4M154.3 141.5l73.4-.4M154.3 137.5l73.4-.4M154.3 133.5l73.4-.4M154.2 129.5l73.5-.4M154.2 125.5l73.5-.4M154.2 121.5l73.4-.4M156.5 187.5l73.5-.4M156.5 183.5l73.5-.4M156.5 179.5l73.4-.4M156.5 175.5l73.4-.4M156.5 171.5l73.4-.4M156.5 167.5l73.4-.4M156.4 163.5l73.5-.4M156.4 159.5l73.5-.4M156.4 155.5l73.4-.4M156.4 151.5l73.4-.4M156.4 147.5l73.4-.4M156.3 143.5l73.5-.4M156.3 139.5l73.5-.4M156.3 135.5l73.5-.4M156.3 131.5l73.4-.4M156.3 127.5l73.4-.4M156.3 123.5l73.4-.4M156.2 119.5l73.5-.4"/></g><g clip-path="url(#p)" fill="none" stroke="#231815" stroke-width=".3" stroke-dasharray="2,2"><path d="M82.5 189.8l73.5-.3M82.5 185.8l73.4-.3M82.5 181.8l73.4-.3M82.5 177.8l73.4-.3M82.4 173.8l73.5-.3M82.4 169.8l73.5-.3M82.4 165.8l73.4-.3M82.4 161.8l73.4-.3M82.4 157.8l73.4-.3M82.4 153.8l73.4-.3M82.3 149.8l73.5-.3M82.3 145.8l73.5-.3M82.3 141.8l73.4-.3M82.3 137.8l73.4-.3M82.3 133.8l73.4-.3M82.2 129.8l73.5-.3M82.2 125.8l73.5-.3M82.2 121.8l73.4-.3M84.5 187.8l73.5-.3M84.5 183.8l73.5-.3M84.5 179.8l73.4-.3M84.5 175.8l73.4-.3M84.5 171.8l73.4-.3M84.5 167.8l73.4-.3M84.4 163.8l73.5-.3M84.4 159.8l73.5-.3M84.4 155.8l73.4-.3M84.4 151.8l73.4-.3M84.4 147.8l73.4-.3M84.3 143.8l73.5-.3M84.3 139.8l73.5-.3M84.3 135.8l73.5-.3M84.3 131.8l73.4-.3M84.3 127.8l73.4-.3M84.3 123.8l73.4-.3M84.2 119.8l73.5-.3"/></g></g><g clip-path="url(#b)"><defs><path id="q" transform="matrix(1 -.00446 .00446 1 -1 .9)" d="M155.7 190.3h72v72h-72z"/></defs><clipPath id="r"><use xlink:href="#q" overflow="visible"/></clipPath><g clip-path="url(#r)" fill="none" stroke="#231815" stroke-width=".3" stroke-dasharray="2,2"><path d="M226.8 261.1l73.5-.3M226.8 257.1l73.5-.3M226.8 253.1l73.4-.3M226.8 249.1l73.4-.3M226.8 245.1l73.4-.3M226.7 241.1l73.5-.3M226.7 237.1l73.5-.3M226.7 233.1l73.4-.3M226.7 229.1l73.4-.3M226.7 225.1l73.4-.3M226.7 221.1l73.4-.3M226.6 217.1l73.5-.3M226.6 213.1l73.5-.3M226.6 209.1l73.4-.3M226.6 205.1l73.4-.3M226.6 201.1l73.4-.3M226.5 197.1l73.5-.3M226.5 193.1l73.5-.3"/></g><g clip-path="url(#r)" fill="none" stroke="#231815" stroke-width=".3" stroke-dasharray="2,2"><path d="M154.8 261.5l73.5-.4M154.8 257.5l73.5-.4M154.8 253.5l73.4-.4M154.8 249.5l73.4-.4M154.8 245.5l73.4-.4M154.7 241.5l73.5-.4M154.7 237.5l73.5-.4M154.7 233.5l73.4-.4M154.7 229.5l73.4-.4M154.7 225.5l73.4-.4M154.7 221.5l73.4-.4M154.6 217.5l73.5-.4M154.6 213.5l73.5-.4M154.6 209.5l73.4-.4M154.6 205.5l73.4-.4M154.6 201.5l73.4-.4M154.5 197.5l73.5-.4M154.5 193.5l73.5-.4M156.9 259.5l73.4-.4M156.8 255.5l73.5-.4M156.8 251.5l73.5-.4M156.8 247.5l73.5-.4M156.8 243.5l73.4-.4M156.8 239.5l73.4-.4M156.8 235.5l73.4-.4M156.7 231.5l73.5-.4M156.7 227.5l73.5-.4M156.7 223.5l73.4-.4M156.7 219.5l73.4-.4M156.7 215.5l73.4-.4M156.6 211.5l73.5-.4M156.6 207.5l73.5-.4M156.6 203.5l73.5-.4M156.6 199.5l73.4-.4M156.6 195.5l73.4-.4M156.6 191.5l73.4-.4"/></g><g clip-path="url(#r)" fill="none" stroke="#231815" stroke-width=".3" stroke-dasharray="2,2"><path d="M82.8 261.8l73.5-.3M82.8 257.8l73.5-.3M82.8 253.8l73.4-.3M82.8 249.8l73.4-.3M82.8 245.8l73.4-.3M82.7 241.8l73.5-.3M82.7 237.8l73.5-.3M82.7 233.8l73.4-.3M82.7 229.8l73.4-.3M82.7 225.8l73.4-.3M82.7 221.8l73.4-.3M82.6 217.8l73.5-.3M82.6 213.8l73.5-.3M82.6 209.8l73.4-.3M82.6 205.8l73.4-.3M82.6 201.8l73.4-.3M82.5 197.8l73.5-.3M82.5 193.8l73.5-.3M84.9 259.8l73.4-.3M84.8 255.8l73.5-.3M84.8 251.8l73.5-.3M84.8 247.8l73.5-.3M84.8 243.8l73.4-.3M84.8 239.8l73.4-.3M84.8 235.8l73.4-.3M84.7 231.8l73.5-.3M84.7 227.8l73.5-.3M84.7 223.8l73.4-.3M84.7 219.8l73.4-.3M84.7 215.8l73.4-.3M84.6 211.8l73.5-.3M84.6 207.8l73.5-.3M84.6 203.8l73.5-.3M84.6 199.8l73.4-.3M84.6 195.8l73.4-.3M84.6 191.8l73.4-.3"/></g></g><g clip-path="url(#b)"><defs><path id="s" transform="matrix(1 -.00446 .00446 1 0 .5)" d="M82.7-25.4h72v72h-72z"/></defs><clipPath id="t"><use xlink:href="#s" overflow="visible"/></clipPath><g clip-path="url(#t)" fill="none" stroke="#231815" stroke-width=".3" stroke-dasharray="2,2"><path d="M153.9 45.5l73.4-.4M153.9 41.5l73.4-.4M153.8 37.5l73.5-.4M153.8 33.5l73.5-.4M153.8 29.5l73.4-.4M153.8 25.5l73.4-.4M153.8 21.5l73.4-.4M153.7 17.5l73.5-.4M153.7 13.5l73.5-.4M153.7 9.5l73.4-.4M153.7 5.5l73.4-.4M153.7 1.5l73.4-.4"/></g><g clip-path="url(#t)" fill="none" stroke="#231815" stroke-width=".3" stroke-dasharray="2,2"><path d="M81.9 45.8l73.4-.3M81.9 41.8l73.4-.3M81.8 37.8l73.5-.3M81.8 33.8l73.5-.3M81.8 29.8l73.4-.3M81.8 25.8l73.4-.3M81.8 21.8l73.4-.3M81.7 17.8l73.5-.3M81.7 13.8l73.5-.3M81.7 9.8l73.4-.3M81.7 5.8l73.4-.3M81.7 1.8l73.4-.3M83.9 43.8l73.4-.3M83.9 39.8l73.4-.3M83.9 35.8l73.4-.3M83.8 31.8l73.5-.3M83.8 27.8l73.5-.3M83.8 23.8l73.5-.3M83.8 19.8l73.4-.3M83.8 15.8l73.4-.3M83.8 11.8l73.4-.3M83.7 7.8l73.5-.3M83.7 3.8l73.5-.3"/></g><g clip-path="url(#t)" fill="none" stroke="#231815" stroke-width=".3" stroke-dasharray="2,2"><path d="M9.9 46.1l73.4-.3M9.9 42.1l73.4-.3M9.8 38.1l73.5-.3M9.8 34.1l73.5-.3M9.8 30.1l73.4-.3M9.8 26.1l73.4-.3M9.8 22.1l73.4-.3M9.7 18.1l73.5-.3M9.7 14.1l73.5-.3M9.7 10.1l73.4-.3M9.7 6.1l73.4-.3M9.7 2.1l73.4-.3M11.9 44.1l73.4-.3M11.9 40.1l73.4-.3M11.9 36.1l73.4-.3M11.8 32.1l73.5-.3M11.8 28.1l73.5-.3M11.8 24.1l73.5-.3M11.8 20.1l73.4-.3M11.8 16.1l73.4-.3M11.8 12.1l73.4-.3M11.7 8.1l73.5-.3M11.7 4.1l73.5-.3M11.7.1l73.4-.3"/></g></g><g clip-path="url(#b)"><defs><path id="u" transform="matrix(1 -.00446 .00446 1 -.4 .5)" d="M83 46.6h72v72H83z"/></defs><clipPath id="v"><use xlink:href="#u" overflow="visible"/></clipPath><g clip-path="url(#v)" fill="none" stroke="#231815" stroke-width=".3" stroke-dasharray="2,2"><path d="M154.2 117.5l73.4-.4M154.2 113.5l73.4-.4M154.2 109.5l73.4-.4M154.1 105.5l73.5-.4M154.1 101.5l73.5-.4M154.1 97.5l73.4-.4M154.1 93.5l73.4-.4M154.1 89.5l73.4-.4M154 85.5l73.5-.4M154 81.5l73.5-.4M154 77.5l73.5-.4M154 73.5l73.4-.4M154 69.5l73.4-.4M154 65.5l73.4-.4M153.9 61.5l73.5-.4M153.9 57.5l73.5-.4M153.9 53.5l73.4-.4M153.9 49.5l73.4-.4"/></g><g clip-path="url(#v)" fill="none" stroke="#231815" stroke-width=".3" stroke-dasharray="2,2"><path d="M82.2 117.8l73.4-.3M82.2 113.8l73.4-.3M82.2 109.8l73.4-.3M82.1 105.8l73.5-.3M82.1 101.8l73.5-.3M82.1 97.8l73.4-.3M82.1 93.8l73.4-.3M82.1 89.8l73.4-.3M82 85.8l73.5-.3M82 81.8l73.5-.3M82 77.8l73.5-.3M82 73.8l73.4-.3M82 69.8l73.4-.3M82 65.8l73.4-.3M81.9 61.8l73.5-.3M81.9 57.8l73.5-.3M81.9 53.8l73.4-.3M81.9 49.8l73.4-.3M84.2 115.8l73.5-.3M84.2 111.8l73.4-.3M84.2 107.8l73.4-.3M84.2 103.8l73.4-.3M84.2 99.8l73.4-.3M84.1 95.8l73.5-.3M84.1 91.8l73.5-.3M84.1 87.8l73.4-.3M84.1 83.8l73.4-.3M84.1 79.8l73.4-.3M84 75.8l73.5-.3M84 71.8l73.5-.3M84 67.8l73.4-.3M84 63.8l73.4-.3M84 59.8l73.4-.3M84 55.8l73.4-.3M83.9 51.8l73.5-.3M83.9 47.8l73.5-.3"/></g><g clip-path="url(#v)" fill="none" stroke="#231815" stroke-width=".3" stroke-dasharray="2,2"><path d="M10.2 118.1l73.4-.3M10.2 114.1l73.4-.3M10.2 110.1l73.4-.3M10.1 106.1l73.5-.3M10.1 102.1l73.5-.3M10.1 98.1l73.4-.3M10.1 94.1l73.4-.3M10.1 90.1l73.4-.3M10 86.1l73.5-.3M10 82.1l73.5-.3M10 78.1l73.5-.3M10 74.1l73.4-.3M10 70.1l73.4-.3M10 66.1l73.4-.3M9.9 62.1l73.5-.3M9.9 58.1l73.5-.3M9.9 54.1l73.4-.3M9.9 50.1l73.4-.3M12.2 116.1l73.5-.3M12.2 112.1l73.4-.3M12.2 108.1l73.4-.3M12.2 104.1l73.4-.3M12.2 100.1l73.4-.3M12.1 96.1l73.5-.3M12.1 92.1l73.5-.3M12.1 88.1l73.4-.3M12.1 84.1l73.4-.3M12.1 80.1l73.4-.3M12 76.1l73.5-.3M12 72.1l73.5-.3M12 68.1l73.4-.3M12 64.1l73.4-.3M12 60.1l73.4-.3M12 56.1l73.4-.3M11.9 52.1l73.5-.3M11.9 48.1l73.5-.3"/></g></g><g clip-path="url(#b)"><defs><path id="w" transform="matrix(1 -.00446 .00446 1 -.7 .5)" d="M83.4 118.6h72v72h-72z"/></defs><clipPath id="x"><use xlink:href="#w" overflow="visible"/></clipPath><g clip-path="url(#x)" fill="none" stroke="#231815" stroke-width=".3" stroke-dasharray="2,2"><path d="M154.5 189.5l73.5-.4M154.5 185.5l73.4-.4M154.5 181.5l73.4-.4M154.5 177.5l73.4-.4M154.4 173.5l73.5-.4M154.4 169.5l73.5-.4M154.4 165.5l73.4-.4M154.4 161.5l73.4-.4M154.4 157.5l73.4-.4M154.4 153.5l73.4-.4M154.3 149.5l73.5-.4M154.3 145.5l73.5-.4M154.3 141.5l73.4-.4M154.3 137.5l73.4-.4M154.3 133.5l73.4-.4M154.2 129.5l73.5-.4M154.2 125.5l73.5-.4M154.2 121.5l73.4-.4"/></g><g clip-path="url(#x)" fill="none" stroke="#231815" stroke-width=".3" stroke-dasharray="2,2"><path d="M82.5 189.8l73.5-.3M82.5 185.8l73.4-.3M82.5 181.8l73.4-.3M82.5 177.8l73.4-.3M82.4 173.8l73.5-.3M82.4 169.8l73.5-.3M82.4 165.8l73.4-.3M82.4 161.8l73.4-.3M82.4 157.8l73.4-.3M82.4 153.8l73.4-.3M82.3 149.8l73.5-.3M82.3 145.8l73.5-.3M82.3 141.8l73.4-.3M82.3 137.8l73.4-.3M82.3 133.8l73.4-.3M82.2 129.8l73.5-.3M82.2 125.8l73.5-.3M82.2 121.8l73.4-.3M84.5 187.8l73.5-.3M84.5 183.8l73.5-.3M84.5 179.8l73.4-.3M84.5 175.8l73.4-.3M84.5 171.8l73.4-.3M84.5 167.8l73.4-.3M84.4 163.8l73.5-.3M84.4 159.8l73.5-.3M84.4 155.8l73.4-.3M84.4 151.8l73.4-.3M84.4 147.8l73.4-.3M84.3 143.8l73.5-.3M84.3 139.8l73.5-.3M84.3 135.8l73.5-.3M84.3 131.8l73.4-.3M84.3 127.8l73.4-.3M84.3 123.8l73.4-.3M84.2 119.8l73.5-.3"/></g><g clip-path="url(#x)" fill="none" stroke="#231815" stroke-width=".3" stroke-dasharray="2,2"><path d="M10.5 190.1l73.5-.3M10.5 186.1l73.4-.3M10.5 182.1l73.4-.3M10.5 178.1l73.4-.3M10.4 174.1l73.5-.3M10.4 170.1l73.5-.3M10.4 166.1l73.4-.3M10.4 162.1l73.4-.3M10.4 158.1l73.4-.3M10.4 154.1l73.4-.3M10.3 150.1l73.5-.3M10.3 146.1l73.5-.3M10.3 142.1l73.4-.3M10.3 138.1l73.4-.3M10.3 134.1l73.4-.3M10.2 130.1l73.5-.3M10.2 126.1l73.5-.3M10.2 122.1l73.4-.3M12.5 188.1l73.5-.3M12.5 184.1l73.5-.3M12.5 180.1l73.4-.3M12.5 176.1l73.4-.3M12.5 172.1l73.4-.3M12.5 168.1l73.4-.3M12.4 164.1l73.5-.3M12.4 160.1l73.5-.3M12.4 156.1l73.4-.3M12.4 152.1l73.4-.3M12.4 148.1l73.4-.3M12.3 144.1l73.5-.3M12.3 140.1l73.5-.3M12.3 136.1l73.5-.3M12.3 132.1l73.4-.3M12.3 128.1l73.4-.3M12.3 124.1l73.4-.3M12.2 120.1l73.5-.3"/></g></g><g clip-path="url(#b)"><defs><path id="y" transform="matrix(1 -.00446 .00446 1 -1 .5)" d="M83.7 190.6h72v72h-72z"/></defs><clipPath id="z"><use xlink:href="#y" overflow="visible"/></clipPath><g clip-path="url(#z)" fill="none" stroke="#231815" stroke-width=".3" stroke-dasharray="2,2"><path d="M154.8 261.5l73.5-.4M154.8 257.5l73.5-.4M154.8 253.5l73.4-.4M154.8 249.5l73.4-.4M154.8 245.5l73.4-.4M154.7 241.5l73.5-.4M154.7 237.5l73.5-.4M154.7 233.5l73.4-.4M154.7 229.5l73.4-.4M154.7 225.5l73.4-.4M154.7 221.5l73.4-.4M154.6 217.5l73.5-.4M154.6 213.5l73.5-.4M154.6 209.5l73.4-.4M154.6 205.5l73.4-.4M154.6 201.5l73.4-.4M154.5 197.5l73.5-.4M154.5 193.5l73.5-.4"/></g><g clip-path="url(#z)" fill="none" stroke="#231815" stroke-width=".3" stroke-dasharray="2,2"><path d="M82.8 261.8l73.5-.3M82.8 257.8l73.5-.3M82.8 253.8l73.4-.3M82.8 249.8l73.4-.3M82.8 245.8l73.4-.3M82.7 241.8l73.5-.3M82.7 237.8l73.5-.3M82.7 233.8l73.4-.3M82.7 229.8l73.4-.3M82.7 225.8l73.4-.3M82.7 221.8l73.4-.3M82.6 217.8l73.5-.3M82.6 213.8l73.5-.3M82.6 209.8l73.4-.3M82.6 205.8l73.4-.3M82.6 201.8l73.4-.3M82.5 197.8l73.5-.3M82.5 193.8l73.5-.3M84.9 259.8l73.4-.3M84.8 255.8l73.5-.3M84.8 251.8l73.5-.3M84.8 247.8l73.5-.3M84.8 243.8l73.4-.3M84.8 239.8l73.4-.3M84.8 235.8l73.4-.3M84.7 231.8l73.5-.3M84.7 227.8l73.5-.3M84.7 223.8l73.4-.3M84.7 219.8l73.4-.3M84.7 215.8l73.4-.3M84.6 211.8l73.5-.3M84.6 207.8l73.5-.3M84.6 203.8l73.5-.3M84.6 199.8l73.4-.3M84.6 195.8l73.4-.3M84.6 191.8l73.4-.3"/></g><g clip-path="url(#z)" fill="none" stroke="#231815" stroke-width=".3" stroke-dasharray="2,2"><path d="M10.8 262.1l73.5-.3M10.8 258.1l73.5-.3M10.8 254.1l73.4-.3M10.8 250.1l73.4-.3M10.8 246.1l73.4-.3M10.7 242.1l73.5-.3M10.7 238.1l73.5-.3M10.7 234.1l73.4-.3M10.7 230.1l73.4-.3M10.7 226.1l73.4-.3M10.7 222.1l73.4-.3M10.6 218.1l73.5-.3M10.6 214.1l73.5-.3M10.6 210.1l73.4-.3M10.6 206.1l73.4-.3M10.6 202.1l73.4-.3M10.5 198.1l73.5-.3M10.5 194.1l73.5-.3M12.9 260.1l73.4-.3M12.8 256.1l73.5-.3M12.8 252.1l73.5-.3M12.8 248.1l73.5-.3M12.8 244.1l73.4-.3M12.8 240.1l73.4-.3M12.8 236.1l73.4-.3M12.7 232.1l73.5-.3M12.7 228.1l73.5-.3M12.7 224.1l73.4-.3M12.7 220.1l73.4-.3M12.7 216.1l73.4-.3M12.6 212.1l73.5-.3M12.6 208.1l73.5-.3M12.6 204.1l73.5-.3M12.6 200.1l73.4-.3M12.6 196.1l73.4-.3M12.6 192.1l73.4-.3"/></g></g><g clip-path="url(#b)"><defs><path id="A" transform="matrix(1 -.00446 .00446 1 0 .2)" d="M10.7-25.1h72v72h-72z"/></defs><clipPath id="B"><use xlink:href="#A" overflow="visible"/></clipPath><g clip-path="url(#B)" fill="none" stroke="#231815" stroke-width=".3" stroke-dasharray="2,2"><path d="M81.9 45.8l73.4-.3M81.9 41.8l73.4-.3M81.8 37.8l73.5-.3M81.8 33.8l73.5-.3M81.8 29.8l73.4-.3M81.8 25.8l73.4-.3M81.8 21.8l73.4-.3M81.7 17.8l73.5-.3M81.7 13.8l73.5-.3M81.7 9.8l73.4-.3M81.7 5.8l73.4-.3M81.7 1.8l73.4-.3"/></g><g clip-path="url(#B)" fill="none" stroke="#231815" stroke-width=".3" stroke-dasharray="2,2"><path d="M9.9 46.1l73.4-.3M9.9 42.1l73.4-.3M9.8 38.1l73.5-.3M9.8 34.1l73.5-.3M9.8 30.1l73.4-.3M9.8 26.1l73.4-.3M9.8 22.1l73.4-.3M9.7 18.1l73.5-.3M9.7 14.1l73.5-.3M9.7 10.1l73.4-.3M9.7 6.1l73.4-.3M9.7 2.1l73.4-.3M11.9 44.1l73.4-.3M11.9 40.1l73.4-.3M11.9 36.1l73.4-.3M11.8 32.1l73.5-.3M11.8 28.1l73.5-.3M11.8 24.1l73.5-.3M11.8 20.1l73.4-.3M11.8 16.1l73.4-.3M11.8 12.1l73.4-.3M11.7 8.1l73.5-.3M11.7 4.1l73.5-.3M11.7.1l73.4-.3"/></g><g clip-path="url(#B)" fill="none" stroke="#231815" stroke-width=".3" stroke-dasharray="2,2"><path d="M-62.1 46.4l73.4-.3M-62.1 42.4l73.4-.3M-62.2 38.4l73.5-.3M-62.2 34.4l73.5-.3M-62.2 30.4l73.4-.3M-62.2 26.4l73.4-.3M-62.2 22.4l73.4-.3M-62.3 18.4l73.5-.3M-62.3 14.4l73.5-.3M-62.3 10.4l73.4-.3M-62.3 6.4l73.4-.3M-62.3 2.4l73.4-.3M-60.1 44.4l73.4-.3M-60.1 40.4l73.4-.3M-60.1 36.4l73.4-.3M-60.2 32.4l73.5-.3M-60.2 28.4l73.5-.3M-60.2 24.4l73.5-.3M-60.2 20.4l73.4-.3M-60.2 16.4l73.4-.3M-60.2 12.4l73.4-.3M-60.3 8.4l73.5-.3M-60.3 4.4l73.5-.3M-60.3.4L13.1.1"/></g></g><g clip-path="url(#b)"><defs><path id="C" transform="rotate(-.3 47 83) scale(1.00001)" d="M11 46.9h72v72H11z"/></defs><clipPath id="D"><use xlink:href="#C" overflow="visible"/></clipPath><g clip-path="url(#D)" fill="none" stroke="#231815" stroke-width=".3" stroke-dasharray="2,2"><path d="M82.2 117.8l73.4-.3M82.2 113.8l73.4-.3M82.2 109.8l73.4-.3M82.1 105.8l73.5-.3M82.1 101.8l73.5-.3M82.1 97.8l73.4-.3M82.1 93.8l73.4-.3M82.1 89.8l73.4-.3M82 85.8l73.5-.3M82 81.8l73.5-.3M82 77.8l73.5-.3M82 73.8l73.4-.3M82 69.8l73.4-.3M82 65.8l73.4-.3M81.9 61.8l73.5-.3M81.9 57.8l73.5-.3M81.9 53.8l73.4-.3M81.9 49.8l73.4-.3"/></g><g clip-path="url(#D)" fill="none" stroke="#231815" stroke-width=".3" stroke-dasharray="2,2"><path d="M10.2 118.1l73.4-.3M10.2 114.1l73.4-.3M10.2 110.1l73.4-.3M10.1 106.1l73.5-.3M10.1 102.1l73.5-.3M10.1 98.1l73.4-.3M10.1 94.1l73.4-.3M10.1 90.1l73.4-.3M10 86.1l73.5-.3M10 82.1l73.5-.3M10 78.1l73.5-.3M10 74.1l73.4-.3M10 70.1l73.4-.3M10 66.1l73.4-.3M9.9 62.1l73.5-.3M9.9 58.1l73.5-.3M9.9 54.1l73.4-.3M9.9 50.1l73.4-.3M12.2 116.1l73.5-.3M12.2 112.1l73.4-.3M12.2 108.1l73.4-.3M12.2 104.1l73.4-.3M12.2 100.1l73.4-.3M12.1 96.1l73.5-.3M12.1 92.1l73.5-.3M12.1 88.1l73.4-.3M12.1 84.1l73.4-.3M12.1 80.1l73.4-.3M12 76.1l73.5-.3M12 72.1l73.5-.3M12 68.1l73.4-.3M12 64.1l73.4-.3M12 60.1l73.4-.3M12 56.1l73.4-.3M11.9 52.1l73.5-.3M11.9 48.1l73.5-.3"/></g><g clip-path="url(#D)" fill="none" stroke="#231815" stroke-width=".3" stroke-dasharray="2,2"><path d="M-61.8 118.4l73.4-.3M-61.8 114.4l73.4-.3M-61.8 110.4l73.4-.3M-61.9 106.4l73.5-.3M-61.9 102.4l73.5-.3M-61.9 98.4l73.4-.3M-61.9 94.4l73.4-.3M-61.9 90.4l73.4-.3M-62 86.4l73.5-.3M-62 82.4l73.5-.3M-62 78.4l73.5-.3M-62 74.4l73.4-.3M-62 70.4l73.4-.3M-62 66.4l73.4-.3M-62.1 62.4l73.5-.3M-62.1 58.4l73.5-.3M-62.1 54.4l73.4-.3M-62.1 50.4l73.4-.3M-59.8 116.4l73.5-.3M-59.8 112.4l73.4-.3M-59.8 108.4l73.4-.3M-59.8 104.4l73.4-.3M-59.8 100.4l73.4-.3M-59.9 96.4l73.5-.3M-59.9 92.4l73.5-.3M-59.9 88.4l73.4-.3M-59.9 84.4l73.4-.3M-59.9 80.4l73.4-.3M-60 76.4l73.5-.3M-60 72.4l73.5-.3M-60 68.4l73.4-.3M-60 64.4l73.4-.3M-60 60.4l73.4-.3M-60 56.4l73.4-.3M-60.1 52.4l73.5-.3M-60.1 48.4l73.5-.3"/></g></g><g clip-path="url(#b)"><defs><path id="E" transform="matrix(1 -.00446 .00446 1 -.7 .2)" d="M11.4 118.9h72v72h-72z"/></defs><clipPath id="F"><use xlink:href="#E" overflow="visible"/></clipPath><g clip-path="url(#F)" fill="none" stroke="#231815" stroke-width=".3" stroke-dasharray="2,2"><path d="M82.5 189.8l73.5-.3M82.5 185.8l73.4-.3M82.5 181.8l73.4-.3M82.5 177.8l73.4-.3M82.4 173.8l73.5-.3M82.4 169.8l73.5-.3M82.4 165.8l73.4-.3M82.4 161.8l73.4-.3M82.4 157.8l73.4-.3M82.4 153.8l73.4-.3M82.3 149.8l73.5-.3M82.3 145.8l73.5-.3M82.3 141.8l73.4-.3M82.3 137.8l73.4-.3M82.3 133.8l73.4-.3M82.2 129.8l73.5-.3M82.2 125.8l73.5-.3M82.2 121.8l73.4-.3"/></g><g clip-path="url(#F)" fill="none" stroke="#231815" stroke-width=".3" stroke-dasharray="2,2"><path d="M10.5 190.1l73.5-.3M10.5 186.1l73.4-.3M10.5 182.1l73.4-.3M10.5 178.1l73.4-.3M10.4 174.1l73.5-.3M10.4 170.1l73.5-.3M10.4 166.1l73.4-.3M10.4 162.1l73.4-.3M10.4 158.1l73.4-.3M10.4 154.1l73.4-.3M10.3 150.1l73.5-.3M10.3 146.1l73.5-.3M10.3 142.1l73.4-.3M10.3 138.1l73.4-.3M10.3 134.1l73.4-.3M10.2 130.1l73.5-.3M10.2 126.1l73.5-.3M10.2 122.1l73.4-.3M12.5 188.1l73.5-.3M12.5 184.1l73.5-.3M12.5 180.1l73.4-.3M12.5 176.1l73.4-.3M12.5 172.1l73.4-.3M12.5 168.1l73.4-.3M12.4 164.1l73.5-.3M12.4 160.1l73.5-.3M12.4 156.1l73.4-.3M12.4 152.1l73.4-.3M12.4 148.1l73.4-.3M12.3 144.1l73.5-.3M12.3 140.1l73.5-.3M12.3 136.1l73.5-.3M12.3 132.1l73.4-.3M12.3 128.1l73.4-.3M12.3 124.1l73.4-.3M12.2 120.1l73.5-.3"/></g><g clip-path="url(#F)" fill="none" stroke="#231815" stroke-width=".3" stroke-dasharray="2,2"><path d="M-61.5 190.4l73.5-.3M-61.5 186.4l73.4-.3M-61.5 182.4l73.4-.3M-61.5 178.4l73.4-.3M-61.6 174.4l73.5-.3M-61.6 170.4l73.5-.3M-61.6 166.4l73.4-.3M-61.6 162.4l73.4-.3M-61.6 158.4l73.4-.3M-61.6 154.4l73.4-.3M-61.7 150.4l73.5-.3M-61.7 146.4l73.5-.3M-61.7 142.4l73.4-.3M-61.7 138.4l73.4-.3M-61.7 134.4l73.4-.3M-61.8 130.4l73.5-.3M-61.8 126.4l73.5-.3M-61.8 122.4l73.4-.3M-59.5 188.4l73.5-.3M-59.5 184.4l73.5-.3M-59.5 180.4l73.4-.3M-59.5 176.4l73.4-.3M-59.5 172.4l73.4-.3M-59.5 168.4l73.4-.3M-59.6 164.4l73.5-.3M-59.6 160.4l73.5-.3M-59.6 156.4l73.4-.3M-59.6 152.4l73.4-.3M-59.6 148.4l73.4-.3M-59.7 144.4l73.5-.3M-59.7 140.4l73.5-.3M-59.7 136.4l73.5-.3M-59.7 132.4l73.4-.3M-59.7 128.4l73.4-.3M-59.7 124.4l73.4-.3M-59.8 120.4l73.5-.3"/></g></g><g clip-path="url(#b)"><defs><path id="G" transform="matrix(1 -.00446 .00446 1 -1 .2)" d="M11.7 190.9h72v72h-72z"/></defs><clipPath id="H"><use xlink:href="#G" overflow="visible"/></clipPath><g clip-path="url(#H)" fill="none" stroke="#231815" stroke-width=".3" stroke-dasharray="2,2"><path d="M82.8 261.8l73.5-.3M82.8 257.8l73.5-.3M82.8 253.8l73.4-.3M82.8 249.8l73.4-.3M82.8 245.8l73.4-.3M82.7 241.8l73.5-.3M82.7 237.8l73.5-.3M82.7 233.8l73.4-.3M82.7 229.8l73.4-.3M82.7 225.8l73.4-.3M82.7 221.8l73.4-.3M82.6 217.8l73.5-.3M82.6 213.8l73.5-.3M82.6 209.8l73.4-.3M82.6 205.8l73.4-.3M82.6 201.8l73.4-.3M82.5 197.8l73.5-.3M82.5 193.8l73.5-.3"/></g><g clip-path="url(#H)" fill="none" stroke="#231815" stroke-width=".3" stroke-dasharray="2,2"><path d="M10.8 262.1l73.5-.3M10.8 258.1l73.5-.3M10.8 254.1l73.4-.3M10.8 250.1l73.4-.3M10.8 246.1l73.4-.3M10.7 242.1l73.5-.3M10.7 238.1l73.5-.3M10.7 234.1l73.4-.3M10.7 230.1l73.4-.3M10.7 226.1l73.4-.3M10.7 222.1l73.4-.3M10.6 218.1l73.5-.3M10.6 214.1l73.5-.3M10.6 210.1l73.4-.3M10.6 206.1l73.4-.3M10.6 202.1l73.4-.3M10.5 198.1l73.5-.3M10.5 194.1l73.5-.3M12.9 260.1l73.4-.3M12.8 256.1l73.5-.3M12.8 252.1l73.5-.3M12.8 248.1l73.5-.3M12.8 244.1l73.4-.3M12.8 240.1l73.4-.3M12.8 236.1l73.4-.3M12.7 232.1l73.5-.3M12.7 228.1l73.5-.3M12.7 224.1l73.4-.3M12.7 220.1l73.4-.3M12.7 216.1l73.4-.3M12.6 212.1l73.5-.3M12.6 208.1l73.5-.3M12.6 204.1l73.5-.3M12.6 200.1l73.4-.3M12.6 196.1l73.4-.3M12.6 192.1l73.4-.3"/></g><g clip-path="url(#H)" fill="none" stroke="#231815" stroke-width=".3" stroke-dasharray="2,2"><path d="M-61.2 262.4l73.5-.3M-61.2 258.4l73.5-.3M-61.2 254.4l73.4-.3M-61.2 250.4l73.4-.3M-61.2 246.4l73.4-.3M-61.3 242.4l73.5-.3M-61.3 238.4l73.5-.3M-61.3 234.4l73.4-.3M-61.3 230.4l73.4-.3M-61.3 226.4l73.4-.3M-61.3 222.4l73.4-.3M-61.4 218.4l73.5-.3M-61.4 214.4l73.5-.3M-61.4 210.4l73.4-.3M-61.4 206.4l73.4-.3M-61.4 202.4l73.4-.3M-61.5 198.4l73.5-.3M-61.5 194.4l73.5-.3M-59.1 260.4l73.4-.3M-59.2 256.4l73.5-.3M-59.2 252.4l73.5-.3M-59.2 248.4l73.5-.3M-59.2 244.4l73.4-.3M-59.2 240.4l73.4-.3M-59.2 236.4l73.4-.3M-59.3 232.4l73.5-.3M-59.3 228.4l73.5-.3M-59.3 224.4l73.4-.3M-59.3 220.4l73.4-.3M-59.3 216.4l73.4-.3M-59.4 212.4l73.5-.3M-59.4 208.4l73.5-.3M-59.4 204.4l73.5-.3M-59.4 200.4l73.4-.3M-59.4 196.4l73.4-.3M-59.4 192.4l73.4-.3"/></g></g><g clip-path="url(#b)"><defs><path id="I" transform="matrix(1 -.00446 .00446 1 0 -.1)" d="M-61.3-24.7h72v72h-72z"/></defs><clipPath id="J"><use xlink:href="#I" overflow="visible"/></clipPath><g clip-path="url(#J)" fill="none" stroke="#231815" stroke-width=".3" stroke-dasharray="2,2"><path d="M9.9 46.1l73.4-.3M9.9 42.1l73.4-.3M9.8 38.1l73.5-.3M9.8 34.1l73.5-.3M9.8 30.1l73.4-.3M9.8 26.1l73.4-.3M9.8 22.1l73.4-.3M9.7 18.1l73.5-.3M9.7 14.1l73.5-.3M9.7 10.1l73.4-.3M9.7 6.1l73.4-.3M9.7 2.1l73.4-.3"/></g><g clip-path="url(#J)" fill="none" stroke="#231815" stroke-width=".3" stroke-dasharray="2,2"><path d="M-62.1 46.4l73.4-.3M-62.1 42.4l73.4-.3M-62.2 38.4l73.5-.3M-62.2 34.4l73.5-.3M-62.2 30.4l73.4-.3M-62.2 26.4l73.4-.3M-62.2 22.4l73.4-.3M-62.3 18.4l73.5-.3M-62.3 14.4l73.5-.3M-62.3 10.4l73.4-.3M-62.3 6.4l73.4-.3M-62.3 2.4l73.4-.3M-60.1 44.4l73.4-.3M-60.1 40.4l73.4-.3M-60.1 36.4l73.4-.3M-60.2 32.4l73.5-.3M-60.2 28.4l73.5-.3M-60.2 24.4l73.5-.3M-60.2 20.4l73.4-.3M-60.2 16.4l73.4-.3M-60.2 12.4l73.4-.3M-60.3 8.4l73.5-.3M-60.3 4.4l73.5-.3M-60.3.4L13.1.1"/></g></g><g clip-path="url(#b)"><defs><path id="K" transform="matrix(1 -.00446 .00446 1 -.4 -.1)" d="M-61 47.3h72v72h-72z"/></defs><clipPath id="L"><use xlink:href="#K" overflow="visible"/></clipPath><g clip-path="url(#L)" fill="none" stroke="#231815" stroke-width=".3" stroke-dasharray="2,2"><path d="M10.2 118.1l73.4-.3M10.2 114.1l73.4-.3M10.2 110.1l73.4-.3M10.1 106.1l73.5-.3M10.1 102.1l73.5-.3M10.1 98.1l73.4-.3M10.1 94.1l73.4-.3M10.1 90.1l73.4-.3M10 86.1l73.5-.3M10 82.1l73.5-.3M10 78.1l73.5-.3M10 74.1l73.4-.3M10 70.1l73.4-.3M10 66.1l73.4-.3M9.9 62.1l73.5-.3M9.9 58.1l73.5-.3M9.9 54.1l73.4-.3M9.9 50.1l73.4-.3"/></g><g clip-path="url(#L)" fill="none" stroke="#231815" stroke-width=".3" stroke-dasharray="2,2"><path d="M-61.8 118.4l73.4-.3M-61.8 114.4l73.4-.3M-61.8 110.4l73.4-.3M-61.9 106.4l73.5-.3M-61.9 102.4l73.5-.3M-61.9 98.4l73.4-.3M-61.9 94.4l73.4-.3M-61.9 90.4l73.4-.3M-62 86.4l73.5-.3M-62 82.4l73.5-.3M-62 78.4l73.5-.3M-62 74.4l73.4-.3M-62 70.4l73.4-.3M-62 66.4l73.4-.3M-62.1 62.4l73.5-.3M-62.1 58.4l73.5-.3M-62.1 54.4l73.4-.3M-62.1 50.4l73.4-.3M-59.8 116.4l73.5-.3M-59.8 112.4l73.4-.3M-59.8 108.4l73.4-.3M-59.8 104.4l73.4-.3M-59.8 100.4l73.4-.3M-59.9 96.4l73.5-.3M-59.9 92.4l73.5-.3M-59.9 88.4l73.4-.3M-59.9 84.4l73.4-.3M-59.9 80.4l73.4-.3M-60 76.4l73.5-.3M-60 72.4l73.5-.3M-60 68.4l73.4-.3M-60 64.4l73.4-.3M-60 60.4l73.4-.3M-60 56.4l73.4-.3M-60.1 52.4l73.5-.3M-60.1 48.4l73.5-.3"/></g></g><g clip-path="url(#b)"><defs><path id="M" transform="matrix(1 -.00446 .00446 1 -.7 -.1)" d="M-60.6 119.3h72v72h-72z"/></defs><clipPath id="N"><use xlink:href="#M" overflow="visible"/></clipPath><g clip-path="url(#N)" fill="none" stroke="#231815" stroke-width=".3" stroke-dasharray="2,2"><path d="M10.5 190.1l73.5-.3M10.5 186.1l73.4-.3M10.5 182.1l73.4-.3M10.5 178.1l73.4-.3M10.4 174.1l73.5-.3M10.4 170.1l73.5-.3M10.4 166.1l73.4-.3M10.4 162.1l73.4-.3M10.4 158.1l73.4-.3M10.4 154.1l73.4-.3M10.3 150.1l73.5-.3M10.3 146.1l73.5-.3M10.3 142.1l73.4-.3M10.3 138.1l73.4-.3M10.3 134.1l73.4-.3M10.2 130.1l73.5-.3M10.2 126.1l73.5-.3M10.2 122.1l73.4-.3"/></g><g clip-path="url(#N)" fill="none" stroke="#231815" stroke-width=".3" stroke-dasharray="2,2"><path d="M-61.5 190.4l73.5-.3M-61.5 186.4l73.4-.3M-61.5 182.4l73.4-.3M-61.5 178.4l73.4-.3M-61.6 174.4l73.5-.3M-61.6 170.4l73.5-.3M-61.6 166.4l73.4-.3M-61.6 162.4l73.4-.3M-61.6 158.4l73.4-.3M-61.6 154.4l73.4-.3M-61.7 150.4l73.5-.3M-61.7 146.4l73.5-.3M-61.7 142.4l73.4-.3M-61.7 138.4l73.4-.3M-61.7 134.4l73.4-.3M-61.8 130.4l73.5-.3M-61.8 126.4l73.5-.3M-61.8 122.4l73.4-.3M-59.5 188.4l73.5-.3M-59.5 184.4l73.5-.3M-59.5 180.4l73.4-.3M-59.5 176.4l73.4-.3M-59.5 172.4l73.4-.3M-59.5 168.4l73.4-.3M-59.6 164.4l73.5-.3M-59.6 160.4l73.5-.3M-59.6 156.4l73.4-.3M-59.6 152.4l73.4-.3M-59.6 148.4l73.4-.3M-59.7 144.4l73.5-.3M-59.7 140.4l73.5-.3M-59.7 136.4l73.5-.3M-59.7 132.4l73.4-.3M-59.7 128.4l73.4-.3M-59.7 124.4l73.4-.3M-59.8 120.4l73.5-.3"/></g></g><g clip-path="url(#b)"><defs><path id="O" transform="matrix(1 -.00446 .00446 1 -1 -.1)" d="M-60.3 191.3h72v72h-72z"/></defs><clipPath id="P"><use xlink:href="#O" overflow="visible"/></clipPath><g clip-path="url(#P)" fill="none" stroke="#231815" stroke-width=".3" stroke-dasharray="2,2"><path d="M10.8 262.1l73.5-.3M10.8 258.1l73.5-.3M10.8 254.1l73.4-.3M10.8 250.1l73.4-.3M10.8 246.1l73.4-.3M10.7 242.1l73.5-.3M10.7 238.1l73.5-.3M10.7 234.1l73.4-.3M10.7 230.1l73.4-.3M10.7 226.1l73.4-.3M10.7 222.1l73.4-.3M10.6 218.1l73.5-.3M10.6 214.1l73.5-.3M10.6 210.1l73.4-.3M10.6 206.1l73.4-.3M10.6 202.1l73.4-.3M10.5 198.1l73.5-.3M10.5 194.1l73.5-.3"/></g><g clip-path="url(#P)" fill="none" stroke="#231815" stroke-width=".3" stroke-dasharray="2,2"><path d="M-61.2 262.4l73.5-.3M-61.2 258.4l73.5-.3M-61.2 254.4l73.4-.3M-61.2 250.4l73.4-.3M-61.2 246.4l73.4-.3M-61.3 242.4l73.5-.3M-61.3 238.4l73.5-.3M-61.3 234.4l73.4-.3M-61.3 230.4l73.4-.3M-61.3 226.4l73.4-.3M-61.3 222.4l73.4-.3M-61.4 218.4l73.5-.3M-61.4 214.4l73.5-.3M-61.4 210.4l73.4-.3M-61.4 206.4l73.4-.3M-61.4 202.4l73.4-.3M-61.5 198.4l73.5-.3M-61.5 194.4l73.5-.3M-59.1 260.4l73.4-.3M-59.2 256.4l73.5-.3M-59.2 252.4l73.5-.3M-59.2 248.4l73.5-.3M-59.2 244.4l73.4-.3M-59.2 240.4l73.4-.3M-59.2 236.4l73.4-.3M-59.3 232.4l73.5-.3M-59.3 228.4l73.5-.3M-59.3 224.4l73.4-.3M-59.3 220.4l73.4-.3M-59.3 216.4l73.4-.3M-59.4 212.4l73.5-.3M-59.4 208.4l73.5-.3M-59.4 204.4l73.5-.3M-59.4 200.4l73.4-.3M-59.4 196.4l73.4-.3M-59.4 192.4l73.4-.3"/></g></g></g><g fill="none" stroke="#231815" stroke-linecap="round" stroke-linejoin="round" stroke-miterlimit="10"><path d="M36.9 147.6L174.8 32.8M68.1 169.3L193.7 62.6M84.8 61.9l46 54"/></g><path fill="#FFF6D2" d="M264.9 201.2s-30.6-37.5-32.3-42.8c-1.1-3.5-8.8-13.5-13.9-20-3.2-4-7-7.4-11.3-10.2a108.4 108.4 0 00-27.3-13.5s-7.5.8-5 8.9c0 0-20.9-18.4-22.5-19.2 0 0-8.9-4.2-13.1 4.4 0 0-2.2 5.3 2.5 9.7 0 0 5.3 5.6 6.7 7.8 0 0 9.2 9.7 12.2 10.3 0 0 5.8 10.8 13.1 15.8 0 0 12 15 11.7 17.8 0 0-1.1 3.6-7.5-4.7l-10-11.7s-13.1-13.1-16.4-15l-11.2-10.1s-7.5-9.7-9.7-11.1c0 0-8.1-9.2-16.4-6.4l-4.1 3.6s-2.6 8.3 2.7 12l27.2 28.1s21.7 22 22 24.2c0 0 2.2 2.8 1.7 5.6 0 0-1.4 3.9-7.2.6l-13.7-11-22.8-16.4s-15.3-14.5-18.6-12.5c0 0-8.1-1.9-8.6 7.2 0 0 .6 5.8 8.6 14.7 0 0 18.1 21.1 26.4 26.4 0 0 19.7 17.2 23.6 18.1l11.1 13.6-6.4 1.1s-5.8-9.5-15.3-11.1c0 0-5.8-13.9-12.8-15 0 0-4.4-3.9-10.3 1.1 0 0 1.1 10 4.2 16.1l2.8 14.2s1.9 4.4 6.7 6.1c0 0 12.2 5.6 13.9 9.7 0 0 2.5 7.8 15.8 12.5 0 0 22.6 9.7 29.5 10.8 6.5 1 29.7 12.2 32 15.7.3.4.7.6 1.2.6 8.1-.1 61.1-3.1 68-58 0 .1-22-23.8-27.2-28zm-56.2-39.1l-20.3-26.2-.2-.3.2.3c1.1.8 5.5.5 5.5.5 1.4 5.9 9 10.1 9 10.1l8 13.4c.2 3.9-2.2 2.2-2.2 2.2z"/><defs><path id="Q" d="M265.6 201.5S235 164 233.3 158.7c-1.1-3.5-8.8-13.5-13.9-20-3.2-4-7-7.4-11.3-10.2a108.4 108.4 0 00-27.3-13.5s-7.5.8-5 8.9c0 0-20.9-18.4-22.5-19.2 0 0-8.9-4.2-13.1 4.4 0 0-2.2 5.3 2.5 9.7 0 0 5.3 5.6 6.7 7.8 0 0 9.2 9.7 12.2 10.3 0 0 5.8 10.8 13.1 15.8 0 0 12 15 11.7 17.8 0 0-1.1 3.6-7.5-4.7l-10-11.7s-13.1-13.1-16.4-15L141.3 129s-7.5-9.7-9.7-11.1c0 0-8.1-9.2-16.4-6.4l-4.1 3.6s-2.6 8.3 2.7 12l27.2 28.1s21.7 22 22 24.2c0 0 2.2 2.8 1.7 5.6 0 0-1.4 3.9-7.2.6l-13.7-11-22.8-16.4s-15.3-14.5-18.6-12.5c0 0-8.1-1.9-8.6 7.2 0 0 .6 5.8 8.6 14.7 0 0 18.1 21.1 26.4 26.4 0 0 19.7 17.2 23.6 18.1l11.1 13.6-6.4 1.1s-5.8-9.5-15.3-11.1c0 0-5.8-13.9-12.8-15 0 0-4.4-3.9-10.3 1.1 0 0 1.1 10 4.2 16.1l2.8 14.2s1.9 4.4 6.7 6.1c0 0 12.2 5.6 13.9 9.7 0 0 2.5 7.8 15.8 12.5 0 0 22.6 9.7 29.5 10.8 6.5 1 29.7 12.2 32 15.7.3.4.7.6 1.2.6 8.1-.1 61.1-3.1 68-58 0 .1-22-23.8-27.2-28zm-56.2-39.1l-20.3-26.2-.2-.3.2.3c1.1.8 5.5.5 5.5.5 1.4 5.9 9 10.1 9 10.1l8 13.4c.2 3.9-2.2 2.2-2.2 2.2z"/></defs><clipPath id="R"><use xlink:href="#Q" overflow="visible"/></clipPath><g clip-path="url(#R)"><defs><path id="S" d="M115.2 98.8h216.3v149.6H115.2z"/></defs><clipPath id="T"><use xlink:href="#S" overflow="visible"/></clipPath><g clip-path="url(#T)"><defs><path id="U" d="M115.2 98.8h216.3v149.6H115.2z"/></defs><clipPath id="V"><use xlink:href="#U" overflow="visible"/></clipPath><g clip-path="url(#V)" fill="none"><path d="M115.2 98.8h216.3v149.6H115.2z"/><g stroke="#FFCE20" stroke-width=".3" stroke-linecap="square"><path d="M331.4 247.6h-72M331.4 245.9h-72M331.4 244.2h-72M331.4 242.5h-72M331.4 240.8h-72M331.4 239.1h-72M331.4 237.4h-72M331.4 235.7h-72M331.4 234h-72M331.4 232.3h-72M331.4 230.6h-72M331.4 228.9h-72M331.4 227.2h-72M331.4 225.5h-72M331.4 223.8h-72M331.4 222.1h-72M331.4 220.4h-72M331.4 218.7h-72M331.4 217h-72M331.4 215.3h-72M331.4 213.6h-72M331.4 211.9h-72"/><g><path d="M259.4 247.6h-72M259.4 245.9h-72M259.4 244.2h-72M259.4 242.5h-72M259.4 240.8h-72M259.4 239.1h-72M259.4 237.4h-72M259.4 235.7h-72M259.4 234h-72M259.4 232.3h-72M259.4 230.6h-72M259.4 228.9h-72M259.4 227.2h-72M259.4 225.5h-72M259.4 223.8h-72M259.4 222.1h-72M259.4 220.4h-72M259.4 218.7h-72M259.4 217h-72M259.4 215.3h-72M259.4 213.6h-72M259.4 211.9h-72"/></g><g><path d="M187.4 247.6h-72M187.4 245.9h-72M187.4 244.2h-72M187.4 242.5h-72M187.4 240.8h-72M187.4 239.1h-72M187.4 237.4h-72M187.4 235.7h-72M187.4 234h-72M187.4 232.3h-72M187.4 230.6h-72M187.4 228.9h-72M187.4 227.2h-72M187.4 225.5h-72M187.4 223.8h-72M187.4 222.1h-72M187.4 220.4h-72M187.4 218.7h-72M187.4 217h-72M187.4 215.3h-72M187.4 213.6h-72M187.4 211.9h-72"/></g></g><g stroke="#FFCE20" stroke-width=".3" stroke-linecap="square"><path d="M331.4 210.1h-72M331.4 208.4h-72M331.4 206.7h-72M331.4 205h-72M331.4 203.3h-72M331.4 201.6h-72M331.4 199.9h-72M331.4 198.2h-72M331.4 196.5h-72M331.4 194.8h-72M331.4 193.1h-72M331.4 191.4h-72M331.4 189.7h-72M331.4 188.1h-72M331.4 186.4h-72M331.4 184.7h-72M331.4 183h-72M331.4 181.3h-72M331.4 179.6h-72M331.4 177.9h-72M331.4 176.2h-72M331.4 174.5h-72M331.4 172.8h-72M331.4 171.1h-72M331.4 169.4h-72M331.4 167.7h-72M331.4 166h-72M331.4 164.3h-72M331.4 162.6h-72M331.4 160.9h-72M331.4 159.2h-72M331.4 157.5h-72M331.4 155.8h-72M331.4 154.1h-72M331.4 152.4h-72M331.4 150.7h-72M331.4 149h-72M331.4 147.3h-72M331.4 145.6h-72M331.4 143.9h-72M331.4 142.2h-72M331.4 140.5h-72M331.4 138.8h-72M331.4 137.1h-72"/><g><path d="M259.4 210.1h-72M259.4 208.4h-72M259.4 206.7h-72M259.4 205h-72M259.4 203.3h-72M259.4 201.6h-72M259.4 199.9h-72M259.4 198.2h-72M259.4 196.5h-72M259.4 194.8h-72M259.4 193.1h-72M259.4 191.4h-72M259.4 189.7h-72M259.4 188.1h-72M259.4 186.4h-72M259.4 184.7h-72M259.4 183h-72M259.4 181.3h-72M259.4 179.6h-72M259.4 177.9h-72M259.4 176.2h-72M259.4 174.5h-72M259.4 172.8h-72M259.4 171.1h-72M259.4 169.4h-72M259.4 167.7h-72M259.4 166h-72M259.4 164.3h-72M259.4 162.6h-72M259.4 160.9h-72M259.4 159.2h-72M259.4 157.5h-72M259.4 155.8h-72M259.4 154.1h-72M259.4 152.4h-72M259.4 150.7h-72M259.4 149h-72M259.4 147.3h-72M259.4 145.6h-72M259.4 143.9h-72M259.4 142.2h-72M259.4 140.5h-72M259.4 138.8h-72M259.4 137.1h-72"/></g><g><path d="M187.4 210.1h-72M187.4 208.4h-72M187.4 206.7h-72M187.4 205h-72M187.4 203.3h-72M187.4 201.6h-72M187.4 199.9h-72M187.4 198.2h-72M187.4 196.5h-72M187.4 194.8h-72M187.4 193.1h-72M187.4 191.4h-72M187.4 189.7h-72M187.4 188.1h-72M187.4 186.4h-72M187.4 184.7h-72M187.4 183h-72M187.4 181.3h-72M187.4 179.6h-72M187.4 177.9h-72M187.4 176.2h-72M187.4 174.5h-72M187.4 172.8h-72M187.4 171.1h-72M187.4 169.4h-72M187.4 167.7h-72M187.4 166h-72M187.4 164.3h-72M187.4 162.6h-72M187.4 160.9h-72M187.4 159.2h-72M187.4 157.5h-72M187.4 155.8h-72M187.4 154.1h-72M187.4 152.4h-72M187.4 150.7h-72M187.4 149h-72M187.4 147.3h-72M187.4 145.6h-72M187.4 143.9h-72M187.4 142.2h-72M187.4 140.5h-72M187.4 138.8h-72M187.4 137.1h-72"/></g></g><g stroke="#FFCE20" stroke-width=".3" stroke-linecap="square"><path d="M331.4 135.3h-72M331.4 133.6h-72M331.4 131.9h-72M331.4 130.2h-72M331.4 128.5h-72M331.4 126.8h-72M331.4 125.1h-72M331.4 123.4h-72M331.4 121.7h-72M331.4 120h-72M331.4 118.3h-72M331.4 116.6h-72M331.4 114.9h-72M331.4 113.3h-72M331.4 111.6h-72M331.4 109.9h-72M331.4 108.2h-72M331.4 106.5h-72M331.4 104.8h-72M331.4 103.1h-72M331.4 101.4h-72M331.4 99.7h-72"/><g><path d="M259.4 135.3h-72M259.4 133.6h-72M259.4 131.9h-72M259.4 130.2h-72M259.4 128.5h-72M259.4 126.8h-72M259.4 125.1h-72M259.4 123.4h-72M259.4 121.7h-72M259.4 120h-72M259.4 118.3h-72M259.4 116.6h-72M259.4 114.9h-72M259.4 113.3h-72M259.4 111.6h-72M259.4 109.9h-72M259.4 108.2h-72M259.4 106.5h-72M259.4 104.8h-72M259.4 103.1h-72M259.4 101.4h-72M259.4 99.7h-72"/></g><g><path d="M187.4 135.3h-72M187.4 133.6h-72M187.4 131.9h-72M187.4 130.2h-72M187.4 128.5h-72M187.4 126.8h-72M187.4 125.1h-72M187.4 123.4h-72M187.4 121.7h-72M187.4 120h-72M187.4 118.3h-72M187.4 116.6h-72M187.4 114.9h-72M187.4 113.3h-72M187.4 111.6h-72M187.4 109.9h-72M187.4 108.2h-72M187.4 106.5h-72M187.4 104.8h-72M187.4 103.1h-72M187.4 101.4h-72M187.4 99.7h-72"/></g></g></g></g></g><g clip-path="url(#R)"><defs><path id="W" d="M115.2 248.4h216.3V398H115.2z"/></defs><clipPath id="X"><use xlink:href="#W" overflow="visible"/></clipPath><g clip-path="url(#X)"><defs><path id="Y" d="M115.2 248.4h216.3V398H115.2z"/></defs><clipPath id="Z"><use xlink:href="#Y" overflow="visible"/></clipPath><g clip-path="url(#Z)" fill="none"><path d="M115.2 248.4h216.3V398H115.2z"/><g stroke="#FFCE20" stroke-width=".3" stroke-linecap="square"><path d="M331.4 300.3h-72M331.4 298.6h-72M331.4 296.9h-72M331.4 295.2h-72M331.4 293.5h-72M331.4 291.8h-72M331.4 290.1h-72M331.4 288.4h-72M331.4 286.7h-72"/><g><path d="M259.4 300.3h-72M259.4 298.6h-72M259.4 296.9h-72M259.4 295.2h-72M259.4 293.5h-72M259.4 291.8h-72M259.4 290.1h-72M259.4 288.4h-72M259.4 286.7h-72"/></g><g><path d="M187.4 300.3h-72M187.4 298.6h-72M187.4 296.9h-72M187.4 295.2h-72M187.4 293.5h-72M187.4 291.8h-72M187.4 290.1h-72M187.4 288.4h-72M187.4 286.7h-72"/></g></g><g stroke="#FFCE20" stroke-width=".3" stroke-linecap="square"><path d="M331.4 284.9h-72M331.4 283.2h-72M331.4 281.5h-72M331.4 279.8h-72M331.4 278.1h-72M331.4 276.4h-72M331.4 274.7h-72M331.4 273h-72M331.4 271.3h-72M331.4 269.6h-72M331.4 267.9h-72M331.4 266.2h-72M331.4 264.5h-72M331.4 262.9h-72M331.4 261.2h-72M331.4 259.5h-72M331.4 257.8h-72M331.4 256.1h-72M331.4 254.4h-72M331.4 252.7h-72M331.4 251h-72M331.4 249.3h-72"/><g><path d="M259.4 284.9h-72M259.4 283.2h-72M259.4 281.5h-72M259.4 279.8h-72M259.4 278.1h-72M259.4 276.4h-72M259.4 274.7h-72M259.4 273h-72M259.4 271.3h-72M259.4 269.6h-72M259.4 267.9h-72M259.4 266.2h-72M259.4 264.5h-72M259.4 262.9h-72M259.4 261.2h-72M259.4 259.5h-72M259.4 257.8h-72M259.4 256.1h-72M259.4 254.4h-72M259.4 252.7h-72M259.4 251h-72M259.4 249.3h-72"/></g><g><path d="M187.4 284.9h-72M187.4 283.2h-72M187.4 281.5h-72M187.4 279.8h-72M187.4 278.1h-72M187.4 276.4h-72M187.4 274.7h-72M187.4 273h-72M187.4 271.3h-72M187.4 269.6h-72M187.4 267.9h-72M187.4 266.2h-72M187.4 264.5h-72M187.4 262.9h-72M187.4 261.2h-72M187.4 259.5h-72M187.4 257.8h-72M187.4 256.1h-72M187.4 254.4h-72M187.4 252.7h-72M187.4 251h-72M187.4 249.3h-72"/></g></g></g></g></g><g clip-path="url(#R)"><defs><path id="aa" d="M-101.1 98.8h216.3v149.6h-216.3z"/></defs><clipPath id="ab"><use xlink:href="#aa" overflow="visible"/></clipPath><g clip-path="url(#ab)"><defs><path id="ac" d="M-101.1 98.8h216.3v149.6h-216.3z"/></defs><clipPath id="ad"><use xlink:href="#ac" overflow="visible"/></clipPath><g clip-path="url(#ad)" fill="none"><path d="M-101.1 98.8h216.3v149.6h-216.3z"/><g stroke="#FFCE20" stroke-width=".3" stroke-linecap="square"><path d="M115.1 247.6h-72M115.1 245.9h-72M115.1 244.2h-72M115.1 242.5h-72M115.1 240.8h-72M115.1 239.1h-72M115.1 237.4h-72M115.1 235.7h-72M115.1 234h-72M115.1 232.3h-72M115.1 230.6h-72M115.1 228.9h-72M115.1 227.2h-72M115.1 225.5h-72M115.1 223.8h-72M115.1 222.1h-72M115.1 220.4h-72M115.1 218.7h-72M115.1 217h-72M115.1 215.3h-72M115.1 213.6h-72M115.1 211.9h-72"/><g><path d="M43.1 247.6h-72M43.1 245.9h-72M43.1 244.2h-72M43.1 242.5h-72M43.1 240.8h-72M43.1 239.1h-72M43.1 237.4h-72M43.1 235.7h-72M43.1 234h-72M43.1 232.3h-72M43.1 230.6h-72M43.1 228.9h-72M43.1 227.2h-72M43.1 225.5h-72M43.1 223.8h-72M43.1 222.1h-72M43.1 220.4h-72M43.1 218.7h-72M43.1 217h-72M43.1 215.3h-72M43.1 213.6h-72M43.1 211.9h-72"/></g></g><g stroke="#FFCE20" stroke-width=".3" stroke-linecap="square"><path d="M115.1 210.1h-72M115.1 208.4h-72M115.1 206.7h-72M115.1 205h-72M115.1 203.3h-72M115.1 201.6h-72M115.1 199.9h-72M115.1 198.2h-72M115.1 196.5h-72M115.1 194.8h-72M115.1 193.1h-72M115.1 191.4h-72M115.1 189.7h-72M115.1 188.1h-72M115.1 186.4h-72M115.1 184.7h-72M115.1 183h-72M115.1 181.3h-72M115.1 179.6h-72M115.1 177.9h-72M115.1 176.2h-72M115.1 174.5h-72M115.1 172.8h-72M115.1 171.1h-72M115.1 169.4h-72M115.1 167.7h-72M115.1 166h-72M115.1 164.3h-72M115.1 162.6h-72M115.1 160.9h-72M115.1 159.2h-72M115.1 157.5h-72M115.1 155.8h-72M115.1 154.1h-72M115.1 152.4h-72M115.1 150.7h-72M115.1 149h-72M115.1 147.3h-72M115.1 145.6h-72M115.1 143.9h-72M115.1 142.2h-72M115.1 140.5h-72M115.1 138.8h-72M115.1 137.1h-72"/><g><path d="M43.1 210.1h-72M43.1 208.4h-72M43.1 206.7h-72M43.1 205h-72M43.1 203.3h-72M43.1 201.6h-72M43.1 199.9h-72M43.1 198.2h-72M43.1 196.5h-72M43.1 194.8h-72M43.1 193.1h-72M43.1 191.4h-72M43.1 189.7h-72M43.1 188.1h-72M43.1 186.4h-72M43.1 184.7h-72M43.1 183h-72M43.1 181.3h-72M43.1 179.6h-72M43.1 177.9h-72M43.1 176.2h-72M43.1 174.5h-72M43.1 172.8h-72M43.1 171.1h-72M43.1 169.4h-72M43.1 167.7h-72M43.1 166h-72M43.1 164.3h-72M43.1 162.6h-72M43.1 160.9h-72M43.1 159.2h-72M43.1 157.5h-72M43.1 155.8h-72M43.1 154.1h-72M43.1 152.4h-72M43.1 150.7h-72M43.1 149h-72M43.1 147.3h-72M43.1 145.6h-72M43.1 143.9h-72M43.1 142.2h-72M43.1 140.5h-72M43.1 138.8h-72M43.1 137.1h-72"/></g></g><g stroke="#FFCE20" stroke-width=".3" stroke-linecap="square"><path d="M115.1 135.3h-72M115.1 133.6h-72M115.1 131.9h-72M115.1 130.2h-72M115.1 128.5h-72M115.1 126.8h-72M115.1 125.1h-72M115.1 123.4h-72M115.1 121.7h-72M115.1 120h-72M115.1 118.3h-72M115.1 116.6h-72M115.1 114.9h-72M115.1 113.3h-72M115.1 111.6h-72M115.1 109.9h-72M115.1 108.2h-72M115.1 106.5h-72M115.1 104.8h-72M115.1 103.1h-72M115.1 101.4h-72M115.1 99.7h-72"/><g><path d="M43.1 135.3h-72M43.1 133.6h-72M43.1 131.9h-72M43.1 130.2h-72M43.1 128.5h-72M43.1 126.8h-72M43.1 125.1h-72M43.1 123.4h-72M43.1 121.7h-72M43.1 120h-72M43.1 118.3h-72M43.1 116.6h-72M43.1 114.9h-72M43.1 113.3h-72M43.1 111.6h-72M43.1 109.9h-72M43.1 108.2h-72M43.1 106.5h-72M43.1 104.8h-72M43.1 103.1h-72M43.1 101.4h-72M43.1 99.7h-72"/></g></g></g></g></g><g clip-path="url(#R)"><defs><path id="ae" d="M-101.1 248.4h216.3V398h-216.3z"/></defs><clipPath id="af"><use xlink:href="#ae" overflow="visible"/></clipPath><g clip-path="url(#af)"><defs><path id="ag" d="M-101.1 248.4h216.3V398h-216.3z"/></defs><clipPath id="ah"><use xlink:href="#ag" overflow="visible"/></clipPath><g clip-path="url(#ah)" fill="none"><path d="M-101.1 248.4h216.3V398h-216.3z"/><g stroke="#FFCE20" stroke-width=".3" stroke-linecap="square"><path d="M115.1 300.3h-72M115.1 298.6h-72M115.1 296.9h-72M115.1 295.2h-72M115.1 293.5h-72M115.1 291.8h-72M115.1 290.1h-72M115.1 288.4h-72M115.1 286.7h-72"/><g><path d="M43.1 300.3h-72M43.1 298.6h-72M43.1 296.9h-72M43.1 295.2h-72M43.1 293.5h-72M43.1 291.8h-72M43.1 290.1h-72M43.1 288.4h-72M43.1 286.7h-72"/></g></g><g stroke="#FFCE20" stroke-width=".3" stroke-linecap="square"><path d="M115.1 284.9h-72M115.1 283.2h-72M115.1 281.5h-72M115.1 279.8h-72M115.1 278.1h-72M115.1 276.4h-72M115.1 274.7h-72M115.1 273h-72M115.1 271.3h-72M115.1 269.6h-72M115.1 267.9h-72M115.1 266.2h-72M115.1 264.5h-72M115.1 262.9h-72M115.1 261.2h-72M115.1 259.5h-72M115.1 257.8h-72M115.1 256.1h-72M115.1 254.4h-72M115.1 252.7h-72M115.1 251h-72M115.1 249.3h-72"/><g><path d="M43.1 284.9h-72M43.1 283.2h-72M43.1 281.5h-72M43.1 279.8h-72M43.1 278.1h-72M43.1 276.4h-72M43.1 274.7h-72M43.1 273h-72M43.1 271.3h-72M43.1 269.6h-72M43.1 267.9h-72M43.1 266.2h-72M43.1 264.5h-72M43.1 262.9h-72M43.1 261.2h-72M43.1 259.5h-72M43.1 257.8h-72M43.1 256.1h-72M43.1 254.4h-72M43.1 252.7h-72M43.1 251h-72M43.1 249.3h-72"/></g></g></g></g></g><g clip-path="url(#R)"><defs><path id="ai" d="M115.2 98.8h216.3v149.6H115.2z"/></defs><clipPath id="aj"><use xlink:href="#ai" overflow="visible"/></clipPath><g clip-path="url(#aj)"><defs><path id="ak" d="M115.2 98.8h216.3v149.6H115.2z"/></defs><clipPath id="al"><use xlink:href="#ak" overflow="visible"/></clipPath><g clip-path="url(#al)" fill="none"><path d="M115.2 98.8h216.3v149.6H115.2z"/><g stroke="#FFCE20" stroke-width=".3" stroke-linecap="square"><path d="M331.4 247.6h-72M331.4 245.9h-72M331.4 244.2h-72M331.4 242.5h-72M331.4 240.8h-72M331.4 239.1h-72M331.4 237.4h-72M331.4 235.7h-72M331.4 234h-72M331.4 232.3h-72M331.4 230.6h-72M331.4 228.9h-72M331.4 227.2h-72M331.4 225.5h-72M331.4 223.8h-72M331.4 222.1h-72M331.4 220.4h-72M331.4 218.7h-72M331.4 217h-72M331.4 215.3h-72M331.4 213.6h-72M331.4 211.9h-72"/><g><path d="M259.4 247.6h-72M259.4 245.9h-72M259.4 244.2h-72M259.4 242.5h-72M259.4 240.8h-72M259.4 239.1h-72M259.4 237.4h-72M259.4 235.7h-72M259.4 234h-72M259.4 232.3h-72M259.4 230.6h-72M259.4 228.9h-72M259.4 227.2h-72M259.4 225.5h-72M259.4 223.8h-72M259.4 222.1h-72M259.4 220.4h-72M259.4 218.7h-72M259.4 217h-72M259.4 215.3h-72M259.4 213.6h-72M259.4 211.9h-72"/></g><g><path d="M187.4 247.6h-72M187.4 245.9h-72M187.4 244.2h-72M187.4 242.5h-72M187.4 240.8h-72M187.4 239.1h-72M187.4 237.4h-72M187.4 235.7h-72M187.4 234h-72M187.4 232.3h-72M187.4 230.6h-72M187.4 228.9h-72M187.4 227.2h-72M187.4 225.5h-72M187.4 223.8h-72M187.4 222.1h-72M187.4 220.4h-72M187.4 218.7h-72M187.4 217h-72M187.4 215.3h-72M187.4 213.6h-72M187.4 211.9h-72"/></g></g><g stroke="#FFCE20" stroke-width=".3" stroke-linecap="square"><path d="M331.4 210.1h-72M331.4 208.4h-72M331.4 206.7h-72M331.4 205h-72M331.4 203.3h-72M331.4 201.6h-72M331.4 199.9h-72M331.4 198.2h-72M331.4 196.5h-72M331.4 194.8h-72M331.4 193.1h-72M331.4 191.4h-72M331.4 189.7h-72M331.4 188.1h-72M331.4 186.4h-72M331.4 184.7h-72M331.4 183h-72M331.4 181.3h-72M331.4 179.6h-72M331.4 177.9h-72M331.4 176.2h-72M331.4 174.5h-72M331.4 172.8h-72M331.4 171.1h-72M331.4 169.4h-72M331.4 167.7h-72M331.4 166h-72M331.4 164.3h-72M331.4 162.6h-72M331.4 160.9h-72M331.4 159.2h-72M331.4 157.5h-72M331.4 155.8h-72M331.4 154.1h-72M331.4 152.4h-72M331.4 150.7h-72M331.4 149h-72M331.4 147.3h-72M331.4 145.6h-72M331.4 143.9h-72M331.4 142.2h-72M331.4 140.5h-72M331.4 138.8h-72M331.4 137.1h-72"/><g><path d="M259.4 210.1h-72M259.4 208.4h-72M259.4 206.7h-72M259.4 205h-72M259.4 203.3h-72M259.4 201.6h-72M259.4 199.9h-72M259.4 198.2h-72M259.4 196.5h-72M259.4 194.8h-72M259.4 193.1h-72M259.4 191.4h-72M259.4 189.7h-72M259.4 188.1h-72M259.4 186.4h-72M259.4 184.7h-72M259.4 183h-72M259.4 181.3h-72M259.4 179.6h-72M259.4 177.9h-72M259.4 176.2h-72M259.4 174.5h-72M259.4 172.8h-72M259.4 171.1h-72M259.4 169.4h-72M259.4 167.7h-72M259.4 166h-72M259.4 164.3h-72M259.4 162.6h-72M259.4 160.9h-72M259.4 159.2h-72M259.4 157.5h-72M259.4 155.8h-72M259.4 154.1h-72M259.4 152.4h-72M259.4 150.7h-72M259.4 149h-72M259.4 147.3h-72M259.4 145.6h-72M259.4 143.9h-72M259.4 142.2h-72M259.4 140.5h-72M259.4 138.8h-72M259.4 137.1h-72"/></g><g><path d="M187.4 210.1h-72M187.4 208.4h-72M187.4 206.7h-72M187.4 205h-72M187.4 203.3h-72M187.4 201.6h-72M187.4 199.9h-72M187.4 198.2h-72M187.4 196.5h-72M187.4 194.8h-72M187.4 193.1h-72M187.4 191.4h-72M187.4 189.7h-72M187.4 188.1h-72M187.4 186.4h-72M187.4 184.7h-72M187.4 183h-72M187.4 181.3h-72M187.4 179.6h-72M187.4 177.9h-72M187.4 176.2h-72M187.4 174.5h-72M187.4 172.8h-72M187.4 171.1h-72M187.4 169.4h-72M187.4 167.7h-72M187.4 166h-72M187.4 164.3h-72M187.4 162.6h-72M187.4 160.9h-72M187.4 159.2h-72M187.4 157.5h-72M187.4 155.8h-72M187.4 154.1h-72M187.4 152.4h-72M187.4 150.7h-72M187.4 149h-72M187.4 147.3h-72M187.4 145.6h-72M187.4 143.9h-72M187.4 142.2h-72M187.4 140.5h-72M187.4 138.8h-72M187.4 137.1h-72"/></g></g><g stroke="#FFCE20" stroke-width=".3" stroke-linecap="square"><path d="M331.4 135.3h-72M331.4 133.6h-72M331.4 131.9h-72M331.4 130.2h-72M331.4 128.5h-72M331.4 126.8h-72M331.4 125.1h-72M331.4 123.4h-72M331.4 121.7h-72M331.4 120h-72M331.4 118.3h-72M331.4 116.6h-72M331.4 114.9h-72M331.4 113.3h-72M331.4 111.6h-72M331.4 109.9h-72M331.4 108.2h-72M331.4 106.5h-72M331.4 104.8h-72M331.4 103.1h-72M331.4 101.4h-72M331.4 99.7h-72"/><g><path d="M259.4 135.3h-72M259.4 133.6h-72M259.4 131.9h-72M259.4 130.2h-72M259.4 128.5h-72M259.4 126.8h-72M259.4 125.1h-72M259.4 123.4h-72M259.4 121.7h-72M259.4 120h-72M259.4 118.3h-72M259.4 116.6h-72M259.4 114.9h-72M259.4 113.3h-72M259.4 111.6h-72M259.4 109.9h-72M259.4 108.2h-72M259.4 106.5h-72M259.4 104.8h-72M259.4 103.1h-72M259.4 101.4h-72M259.4 99.7h-72"/></g><g><path d="M187.4 135.3h-72M187.4 133.6h-72M187.4 131.9h-72M187.4 130.2h-72M187.4 128.5h-72M187.4 126.8h-72M187.4 125.1h-72M187.4 123.4h-72M187.4 121.7h-72M187.4 120h-72M187.4 118.3h-72M187.4 116.6h-72M187.4 114.9h-72M187.4 113.3h-72M187.4 111.6h-72M187.4 109.9h-72M187.4 108.2h-72M187.4 106.5h-72M187.4 104.8h-72M187.4 103.1h-72M187.4 101.4h-72M187.4 99.7h-72"/></g></g></g></g></g><path fill="none" stroke="#231815" stroke-linecap="round" stroke-linejoin="round" stroke-miterlimit="10" d="M118.2 201.6s1.1 10 4.2 16.1l2.8 14.2s1.9 4.4 6.7 6.1c0 0 12.2 5.6 13.9 9.7 0 0 2.5 7.8 15.8 12.5 0 0 22.6 9.7 29.5 10.8 5.9.9 25.1 10.4 30 14.7 1.3 1.1 3 1.7 4.8 1.6 13.4-.8 60-7.2 66.4-58 0 0-22-23.9-27.2-28.1 0 0-30.6-37.5-32.3-42.8-1.1-3.4-8.4-13-13.5-19.5a49.5 49.5 0 00-12.5-11.2 110.8 110.8 0 00-26.6-13s-7.5.8-5 8.9c0 0-20.9-18.4-22.5-19.2 0 0-8.9-4.2-13.1 4.4 0 0-2.2 5.3 2.5 9.7 0 0 5.3 5.6 6.7 7.8 0 0 9.2 9.7 12.2 10.3 0 0 5.8 10.8 13.1 15.8 0 0 12 15 11.7 17.8 0 0-1.1 3.6-7.5-4.7l-10-11.7s-13.1-13.1-16.4-15l-11.2-10.1s-7.5-9.7-9.7-11.1c0 0-8.1-9.2-16.4-6.4l-1.9 1.3a6.8 6.8 0 00-3 5.6c-.1 2.9.5 6.6 3.5 8.6l27.2 28.1s21.7 22 22 24.2c0 0 2.2 2.8 1.7 5.6 0 0-1.4 3.9-7.2.6l-13.6-10.8-22.8-16.4s-13.6-12.2-18.6-12.5c0 0-8.1-1.9-8.6 7.2 0 0 .6 5.8 8.6 14.7 0 0 18.1 21.1 26.4 26.4 0 0 19.7 17.2 23.6 18.1l11.1 13.6-6.4 1.1s-.8-1.3-2.2-2.9a24 24 0 00-13.1-8.2s-5.1-12.2-11.5-14.7l-2.1-.9c-1.5-.8-5.1-2.1-9.5 1.7z"/><path fill="none" stroke="#231815" stroke-linecap="round" stroke-linejoin="round" stroke-miterlimit="10" d="M188.4 135.9l20.3 26.2s1.8 1.9 2.2-2.2l-8-13.4s-7-3.7-9-10.1c0 0-4.1.6-5.5-.5z"/><path fill="#FFF" stroke="#231815" stroke-linecap="round" stroke-linejoin="round" stroke-miterlimit="10" d="M101.8 145.4c3.1.6 4.8 4.5 5.4 6.8a4 4 0 01-.5 3.2c-2.7 4-7.6 3.4-7.6 3.4-3.2-.9-5.8-7.5-5.8-7.5s.6-7.4 8.5-5.9zM120.2 111.1c6.1 1 6 11.4 6 11.4-.8 4-6.4 5.5-6.4 5.5l-10.2-9.3s.7-9.2 10.6-7.6zM152.7 104.5c2.4.8 3.3 4.7 3.6 6.7.1.9-.1 1.9-.6 2.6-1.6 2.3-4.8 3.3-6.6 3.6-.8.2-1.7 0-2.4-.6l-7.5-5.7s1.2-10.6 13.5-6.6zM189.9 118.3c.5 4-3 4.9-3 4.9-4.9 1-12.1-4.6-12.1-4.6s1.8-3.8 5.3-3.8 9.8 3.5 9.8 3.5"/><path fill="none" stroke="#231815" stroke-linecap="round" stroke-linejoin="round" stroke-miterlimit="10" d="M199.2 134s-4.4 4.4-10.8 1.9a60.2 60.2 0 01-13.2-12.2M160.2 131.4s-.6 2.7.8 5.4"/><path fill="#FFF" stroke="#231815" stroke-linecap="round" stroke-linejoin="round" stroke-miterlimit="10" d="M122.4 217.7c.7.9 2.9-2.1 2.9-2.1 2.1-3.5-1.6-12.5-1.6-12.5-3-3-5.1.1-5.1.1s1.1 11.4 3.8 14.5z"/><path fill="none" stroke="#231815" stroke-linecap="round" stroke-linejoin="round" stroke-miterlimit="10" d="M140.6 213.9s2.6 5.5 3.4 10.2M159.7 232.8c-.9-3.9-4.3-7.6-4.3-7.6"/><g><path d="M60.1 112.3c.5.7.7 1.1.5 1.7s-.7 1-1.5 1.7l-1.6-1 1.1-.9c.1-.1.2-.2 0-.4l-4.7-5.6-5.3 4.5 5.9 7.1-1.3 1.1-7-8.3 8-6.7 5.9 6.8zm-5.1-2.5l-4.6 3.8-.9-1.1 4.6-3.8.9 1.1zm.2 6.2l.5.6-1.2 1-3.2-3.8 3.8-3.2 2.7 3.2-2.6 2.2zm-1.8-2.1l.8 1 1.3-1.1-.8-1-1.3 1.1zM66.1 99.9l-8 6.7-.9-1 1.8-1.5a.8.8 0 00-.4-.2l.6-.8-2 1.7-.9-1 2.8-2.4-.4-.2 1.4-1.5.7.4 2.8-2.4.9 1-1.9 1.6.9-.5.1.5 1.8-1.5.7 1.1zm.7 7.3c.3-.3.3-.4-.1-1 .4 0 1.1-.3 1.5-.5.7 1.2.6 1.7-.3 2.5l-1.3 1.1c-1.3 1.1-1.9 1-2.7 0l-.7-.8 1-.9.1-.7-2.4 2-2.4-2.9 6.1-5.1 2.4 2.9-2.6 2.2 1.1-.2-.1 1.5a6 6 0 00-1.7.3l.5.6c.2.3.3.2.7-.1l.9-.9zm-7-4.6l.6.3 1.7-1.5-.2-.6-2.1 1.8zm1.7 3.4l3.5-2.9-.2-.3-3.5 2.9.2.3zm.4 5.8c.1-.8.1-1.8-.2-2.5l1.5-.4c.2.9.4 1.8.3 2.7l-1.6.2zm.5-4.8l3.5-2.9-.2-.3-3.5 2.9.2.3zm5.6-3.1c.8.1 1.9.4 2.5.8l-.7 1.5a11 11 0 00-2.4-.9l.6-1.4z"/></g><g><path d="M120.6 53.1c1.5 0 3.9 0 5.1.2l-.4 2c-1.1-.3-3-.4-4.5-.5l3.6 4.7-1.5 1.2-3.3-4.3c-.2 1.5-.5 2.9-1.2 4.3l-1.9-.5c1.1-2 1.4-4.5 1.2-6.5l-3.6 2.8-1.1-1.4 8.3-6.4 1.1 1.4-2.9 2.3.1 1.2.7.9.3-1.4zM136.5 47.7c.5.7.7 1.2.4 1.7-.2.5-.8 1-1.5 1.6-.3-.3-1-.8-1.5-1l1.2-.9c.2-.1.2-.2.1-.4l-4.4-5.7-5.5 4.3 5.6 7.3-1.3 1L123 47l8.1-6.3 5.4 7zm-4.9-2.7l-4.7 3.6-.9-1.1 4.7-3.6.9 1.1zm-.1 6.2l.5.6-1.3 1-3-3.9 3.9-3 2.5 3.3-2.6 2zm-1.6-2.2l.8 1 1.4-1.1-.8-1-1.4 1.1zM143.1 35.6l-8.3 6.4-.8-1.1 1.9-1.4-.4-.3.7-.7-2.1 1.6-.8-1.1 2.9-2.3-.4-.3 1.2-1.3.6.4 2.9-2.2.8 1.1-1.9 1.5.9-.5.1.5 1.8-1.4.9 1.1zm.4 7.3c.3-.2.3-.4-.1-1 .4 0 1.1-.3 1.5-.5.7 1.2.5 1.7-.4 2.5l-1.4 1.1c-1.3 1-1.9.9-2.7-.1l-.7-.9 1.1-.8.1-.7-2.5 1.9-2.3-3 6.3-4.8 2.3 3-2.7 2.1 1.1-.1-.2 1.5-1.7.2.5.7c.2.3.3.2.7-.1l1.1-1zm-6.8-4.9l.6.4 1.8-1.4-.2-.6-2.2 1.6zm1.6 3.5l3.6-2.8-.2-.3-3.6 2.8.2.3zm.1 5.8a7 7 0 000-2.5l1.5-.4c.2.9.3 1.9.2 2.7l-1.7.2zm.7-4.7l3.6-2.8-.2-.3-3.6 2.8.2.3zm5.7-2.9c.8.2 1.9.5 2.4.9l-.8 1.5c-.5-.4-1.5-.8-2.4-1l.8-1.4z"/></g><g fill="none" stroke="#E51A05" stroke-width="2" stroke-miterlimit="10"><path d="M156.8 84.4c3.4-3.8 3.9-9.5 1-13.8l-9.7 5.4 8.7 8.4z"/><path d="M139 83.2a11.3 11.3 0 0017.8 1.2l-8.7-8.4-.2.1.2-.1-7.2-6.9 7.2 6.9 9.7-5.4a11.3 11.3 0 00-15.7-3 11.2 11.2 0 00-3.1 15.6z"/></g></svg>