<svg xmlns="http://www.w3.org/2000/svg" xmlns:xlink="http://www.w3.org/1999/xlink" viewBox="0 0 312.3 301.2"><path fill="#FFF" stroke="#231815" stroke-linecap="round" stroke-linejoin="round" stroke-miterlimit="10" d="M7.1 125.8 156 3.8l71.8 108.9-117.6 90.1z"/><g opacity=".3"><defs><path id="a" d="M6 126.5 154.3 3.9l72.4 108.6-117.2 90.6z"/></defs><clipPath id="b"><use xlink:href="#a" overflow="visible"/></clipPath><g clip-path="url(#b)"><defs><path id="c" transform="matrix(1 -.00446 .00446 1 0 1.2)" d="M226.7-26h72v72h-72z"/></defs><clipPath id="d"><use xlink:href="#c" overflow="visible"/></clipPath><g clip-path="url(#d)" fill="none" stroke="#231815" stroke-width=".3" stroke-dasharray="2,2"><path d="m297.9 44.8 73.4-.3m-73.4-3.7 73.4-.3m-73.5-3.7 73.5-.3m-73.5-3.7 73.5-.3m-73.5-3.7 73.4-.3m-73.4-3.7 73.4-.3m-73.4-3.7 73.4-.3m-73.5-3.7 73.5-.3m-73.5-3.7 73.5-.3m-73.5-3.7 73.4-.3m-73.4-3.7 73.4-.3M297.7.8l73.4-.3"/></g><g clip-path="url(#d)" fill="none" stroke="#231815" stroke-width=".3" stroke-dasharray="2,2"><path d="m225.9 45.1 73.4-.3m-73.4-3.7 73.4-.3m-73.5-3.7 73.5-.3m-73.5-3.7 73.5-.3m-73.5-3.7 73.4-.3m-73.4-3.7 73.4-.3m-73.4-3.7 73.4-.3m-73.5-3.7 73.5-.3m-73.5-3.7 73.5-.3m-73.5-3.7 73.4-.3m-73.4-3.7 73.4-.3m-73.4-3.7 73.4-.3m-71.2 42.3 73.4-.3m-73.4-3.7 73.4-.3m-73.4-3.7 73.4-.3m-73.5-3.7 73.5-.3m-73.5-3.7 73.5-.3m-73.5-3.7 73.5-.3m-73.5-3.7 73.4-.3m-73.4-3.7 73.4-.3m-73.4-3.7 73.4-.3m-73.5-3.7 73.5-.3m-73.5-3.7 73.5-.3"/></g><g clip-path="url(#d)" fill="none" stroke="#231815" stroke-width=".3" stroke-dasharray="2,2"><path d="m153.9 45.5 73.4-.4m-73.4-3.6 73.4-.4m-73.5-3.6 73.5-.4m-73.5-3.6 73.5-.4m-73.5-3.6 73.4-.4m-73.4-3.6 73.4-.4m-73.4-3.6 73.4-.4m-73.5-3.6 73.5-.4m-73.5-3.6 73.5-.4m-73.5-3.6 73.4-.4m-73.4-3.6 73.4-.4m-73.4-3.6 73.4-.4m-71.2 42.4 73.4-.4m-73.4-3.6 73.4-.4m-73.4-3.6 73.4-.4m-73.5-3.6 73.5-.4m-73.5-3.6 73.5-.4m-73.5-3.6 73.5-.4m-73.5-3.6 73.4-.4m-73.4-3.6 73.4-.4m-73.4-3.6 73.4-.4m-73.5-3.6 73.5-.4m-73.5-3.6 73.5-.4"/></g></g><g clip-path="url(#b)"><defs><path id="e" transform="rotate(-.3 263 82) scale(1.00001)" d="M227 46h72v72h-72z"/></defs><clipPath id="f"><use xlink:href="#e" overflow="visible"/></clipPath><g clip-path="url(#f)" fill="none" stroke="#231815" stroke-width=".3" stroke-dasharray="2,2"><path d="m298.2 116.8 73.4-.3m-73.4-3.7 73.4-.3m-73.4-3.7 73.4-.3m-73.5-3.7 73.5-.3m-73.5-3.7 73.5-.3m-73.5-3.7 73.4-.3m-73.4-3.7 73.4-.3m-73.4-3.7 73.4-.3M298 84.8l73.5-.3M298 80.8l73.5-.3M298 76.8l73.5-.3M298 72.8l73.4-.3M298 68.8l73.4-.3M298 64.8l73.4-.3m-73.5-3.7 73.5-.3m-73.5-3.7 73.5-.3m-73.5-3.7 73.4-.3m-73.4-3.7 73.4-.3"/></g><g clip-path="url(#f)" fill="none" stroke="#231815" stroke-width=".3" stroke-dasharray="2,2"><path d="m226.2 117.1 73.4-.3m-73.4-3.7 73.4-.3m-73.4-3.7 73.4-.3m-73.5-3.7 73.5-.3m-73.5-3.7 73.5-.3m-73.5-3.7 73.4-.3m-73.4-3.7 73.4-.3m-73.4-3.7 73.4-.3M226 85.1l73.5-.3M226 81.1l73.5-.3M226 77.1l73.5-.3M226 73.1l73.4-.3M226 69.1l73.4-.3M226 65.1l73.4-.3m-73.5-3.7 73.5-.3m-73.5-3.7 73.5-.3m-73.5-3.7 73.4-.3m-73.4-3.7 73.4-.3m-71.1 66.3 73.5-.3m-73.5-3.7 73.4-.3m-73.4-3.7 73.4-.3m-73.4-3.7 73.4-.3m-73.4-3.7 73.4-.3m-73.5-3.7 73.5-.3m-73.5-3.7 73.5-.3m-73.5-3.7 73.4-.3m-73.4-3.7 73.4-.3m-73.4-3.7 73.4-.3M228 75.1l73.5-.3M228 71.1l73.5-.3M228 67.1l73.4-.3M228 63.1l73.4-.3M228 59.1l73.4-.3M228 55.1l73.4-.3m-73.5-3.7 73.5-.3m-73.5-3.7 73.5-.3"/></g><g clip-path="url(#f)" fill="none" stroke="#231815" stroke-width=".3" stroke-dasharray="2,2"><path d="m154.2 117.5 73.4-.4m-73.4-3.6 73.4-.4m-73.4-3.6 73.4-.4m-73.5-3.6 73.5-.4m-73.5-3.6 73.5-.4m-73.5-3.6 73.4-.4m-73.4-3.6 73.4-.4m-73.4-3.6 73.4-.4M154 85.5l73.5-.4M154 81.5l73.5-.4M154 77.5l73.5-.4M154 73.5l73.4-.4M154 69.5l73.4-.4M154 65.5l73.4-.4m-73.5-3.6 73.5-.4m-73.5-3.6 73.5-.4m-73.5-3.6 73.4-.4m-73.4-3.6 73.4-.4m-71.1 66.4 73.5-.4m-73.5-3.6 73.4-.4m-73.4-3.6 73.4-.4m-73.4-3.6 73.4-.4m-73.4-3.6 73.4-.4m-73.5-3.6 73.5-.4m-73.5-3.6 73.5-.4m-73.5-3.6 73.4-.4m-73.4-3.6 73.4-.4m-73.4-3.6 73.4-.4M156 75.5l73.5-.4M156 71.5l73.5-.4M156 67.5l73.4-.4M156 63.5l73.4-.4M156 59.5l73.4-.4M156 55.5l73.4-.4m-73.5-3.6 73.5-.4m-73.5-3.6 73.5-.4"/></g></g><g clip-path="url(#b)"><defs><path id="g" transform="matrix(1 -.00446 .00446 1 -.7 1.2)" d="M227.4 118h72v72h-72z"/></defs><clipPath id="h"><use xlink:href="#g" overflow="visible"/></clipPath><g clip-path="url(#h)" fill="none" stroke="#231815" stroke-width=".3" stroke-dasharray="2,2"><path d="m298.5 188.8 73.5-.3m-73.5-3.7 73.4-.3m-73.4-3.7 73.4-.3m-73.4-3.7 73.4-.3m-73.5-3.7 73.5-.3m-73.5-3.7 73.5-.3m-73.5-3.7 73.4-.3m-73.4-3.7 73.4-.3m-73.4-3.7 73.4-.3m-73.4-3.7 73.4-.3m-73.5-3.7 73.5-.3m-73.5-3.7 73.5-.3m-73.5-3.7 73.4-.3m-73.4-3.7 73.4-.3m-73.4-3.7 73.4-.3m-73.5-3.7 73.5-.3m-73.5-3.7 73.5-.3m-73.5-3.7 73.4-.3"/></g><g clip-path="url(#h)" fill="none" stroke="#231815" stroke-width=".3" stroke-dasharray="2,2"><path d="m226.5 189.1 73.5-.3m-73.5-3.7 73.4-.3m-73.4-3.7 73.4-.3m-73.4-3.7 73.4-.3m-73.5-3.7 73.5-.3m-73.5-3.7 73.5-.3m-73.5-3.7 73.4-.3m-73.4-3.7 73.4-.3m-73.4-3.7 73.4-.3m-73.4-3.7 73.4-.3m-73.5-3.7 73.5-.3m-73.5-3.7 73.5-.3m-73.5-3.7 73.4-.3m-73.4-3.7 73.4-.3m-73.4-3.7 73.4-.3m-73.5-3.7 73.5-.3m-73.5-3.7 73.5-.3m-73.5-3.7 73.4-.3m-71.1 66.3 73.5-.3m-73.5-3.7 73.5-.3m-73.5-3.7 73.4-.3m-73.4-3.7 73.4-.3m-73.4-3.7 73.4-.3m-73.4-3.7 73.4-.3m-73.5-3.7 73.5-.3m-73.5-3.7 73.5-.3m-73.5-3.7 73.4-.3m-73.4-3.7 73.4-.3m-73.4-3.7 73.4-.3m-73.5-3.7 73.5-.3m-73.5-3.7 73.5-.3m-73.5-3.7 73.5-.3m-73.5-3.7 73.4-.3m-73.4-3.7 73.4-.3m-73.4-3.7 73.4-.3m-73.5-3.7 73.5-.3"/></g><g clip-path="url(#h)" fill="none" stroke="#231815" stroke-width=".3" stroke-dasharray="2,2"><path d="m154.5 189.5 73.5-.4m-73.5-3.6 73.4-.4m-73.4-3.6 73.4-.4m-73.4-3.6 73.4-.4m-73.5-3.6 73.5-.4m-73.5-3.6 73.5-.4m-73.5-3.6 73.4-.4m-73.4-3.6 73.4-.4m-73.4-3.6 73.4-.4m-73.4-3.6 73.4-.4m-73.5-3.6 73.5-.4m-73.5-3.6 73.5-.4m-73.5-3.6 73.4-.4m-73.4-3.6 73.4-.4m-73.4-3.6 73.4-.4m-73.5-3.6 73.5-.4m-73.5-3.6 73.5-.4m-73.5-3.6 73.4-.4m-71.1 66.4 73.5-.4m-73.5-3.6 73.5-.4m-73.5-3.6 73.4-.4m-73.4-3.6 73.4-.4m-73.4-3.6 73.4-.4m-73.4-3.6 73.4-.4m-73.5-3.6 73.5-.4m-73.5-3.6 73.5-.4m-73.5-3.6 73.4-.4m-73.4-3.6 73.4-.4m-73.4-3.6 73.4-.4m-73.5-3.6 73.5-.4m-73.5-3.6 73.5-.4m-73.5-3.6 73.5-.4m-73.5-3.6 73.4-.4m-73.4-3.6 73.4-.4m-73.4-3.6 73.4-.4m-73.5-3.6 73.5-.4"/></g></g><g clip-path="url(#b)"><defs><path id="i" transform="matrix(1 -.00446 .00446 1 -1 1.2)" d="M227.7 190h72v72h-72z"/></defs><clipPath id="j"><use xlink:href="#i" overflow="visible"/></clipPath><g clip-path="url(#j)" fill="none" stroke="#231815" stroke-width=".3" stroke-dasharray="2,2"><path d="m298.8 260.8 73.5-.3m-73.5-3.7 73.5-.3m-73.5-3.7 73.4-.3m-73.4-3.7 73.4-.3m-73.4-3.7 73.4-.3m-73.5-3.7 73.5-.3m-73.5-3.7 73.5-.3m-73.5-3.7 73.4-.3m-73.4-3.7 73.4-.3m-73.4-3.7 73.4-.3m-73.4-3.7 73.4-.3m-73.5-3.7 73.5-.3m-73.5-3.7 73.5-.3m-73.5-3.7 73.4-.3m-73.4-3.7 73.4-.3m-73.4-3.7 73.4-.3m-73.5-3.7 73.5-.3m-73.5-3.7 73.5-.3"/></g><g clip-path="url(#j)" fill="none" stroke="#231815" stroke-width=".3" stroke-dasharray="2,2"><path d="m226.8 261.1 73.5-.3m-73.5-3.7 73.5-.3m-73.5-3.7 73.4-.3m-73.4-3.7 73.4-.3m-73.4-3.7 73.4-.3m-73.5-3.7 73.5-.3m-73.5-3.7 73.5-.3m-73.5-3.7 73.4-.3m-73.4-3.7 73.4-.3m-73.4-3.7 73.4-.3m-73.4-3.7 73.4-.3m-73.5-3.7 73.5-.3m-73.5-3.7 73.5-.3m-73.5-3.7 73.4-.3m-73.4-3.7 73.4-.3m-73.4-3.7 73.4-.3m-73.5-3.7 73.5-.3m-73.5-3.7 73.5-.3m-71.1 66.3 73.4-.3m-73.5-3.7 73.5-.3m-73.5-3.7 73.5-.3m-73.5-3.7 73.5-.3m-73.5-3.7 73.4-.3m-73.4-3.7 73.4-.3m-73.4-3.7 73.4-.3m-73.5-3.7 73.5-.3m-73.5-3.7 73.5-.3m-73.5-3.7 73.4-.3m-73.4-3.7 73.4-.3m-73.4-3.7 73.4-.3m-73.5-3.7 73.5-.3m-73.5-3.7 73.5-.3m-73.5-3.7 73.5-.3m-73.5-3.7 73.4-.3m-73.4-3.7 73.4-.3m-73.4-3.7 73.4-.3"/></g><g clip-path="url(#j)" fill="none" stroke="#231815" stroke-width=".3" stroke-dasharray="2,2"><path d="m154.8 261.5 73.5-.4m-73.5-3.6 73.5-.4m-73.5-3.6 73.4-.4m-73.4-3.6 73.4-.4m-73.4-3.6 73.4-.4m-73.5-3.6 73.5-.4m-73.5-3.6 73.5-.4m-73.5-3.6 73.4-.4m-73.4-3.6 73.4-.4m-73.4-3.6 73.4-.4m-73.4-3.6 73.4-.4m-73.5-3.6 73.5-.4m-73.5-3.6 73.5-.4m-73.5-3.6 73.4-.4m-73.4-3.6 73.4-.4m-73.4-3.6 73.4-.4m-73.5-3.6 73.5-.4m-73.5-3.6 73.5-.4m-71.1 66.4 73.4-.4m-73.5-3.6 73.5-.4m-73.5-3.6 73.5-.4m-73.5-3.6 73.5-.4m-73.5-3.6 73.4-.4m-73.4-3.6 73.4-.4m-73.4-3.6 73.4-.4m-73.5-3.6 73.5-.4m-73.5-3.6 73.5-.4m-73.5-3.6 73.4-.4m-73.4-3.6 73.4-.4m-73.4-3.6 73.4-.4m-73.5-3.6 73.5-.4m-73.5-3.6 73.5-.4m-73.5-3.6 73.5-.4m-73.5-3.6 73.4-.4m-73.4-3.6 73.4-.4m-73.4-3.6 73.4-.4"/></g></g><g clip-path="url(#b)"><defs><path id="k" transform="matrix(1 -.00446 .00446 1 0 .8)" d="M154.7-25.7h72v72h-72z"/></defs><clipPath id="l"><use xlink:href="#k" overflow="visible"/></clipPath><g clip-path="url(#l)" fill="none" stroke="#231815" stroke-width=".3" stroke-dasharray="2,2"><path d="m225.9 45.1 73.4-.3m-73.4-3.7 73.4-.3m-73.5-3.7 73.5-.3m-73.5-3.7 73.5-.3m-73.5-3.7 73.4-.3m-73.4-3.7 73.4-.3m-73.4-3.7 73.4-.3m-73.5-3.7 73.5-.3m-73.5-3.7 73.5-.3m-73.5-3.7 73.4-.3m-73.4-3.7 73.4-.3m-73.4-3.7 73.4-.3"/></g><g clip-path="url(#l)" fill="none" stroke="#231815" stroke-width=".3" stroke-dasharray="2,2"><path d="m153.9 45.5 73.4-.4m-73.4-3.6 73.4-.4m-73.5-3.6 73.5-.4m-73.5-3.6 73.5-.4m-73.5-3.6 73.4-.4m-73.4-3.6 73.4-.4m-73.4-3.6 73.4-.4m-73.5-3.6 73.5-.4m-73.5-3.6 73.5-.4m-73.5-3.6 73.4-.4m-73.4-3.6 73.4-.4m-73.4-3.6 73.4-.4m-71.2 42.4 73.4-.4m-73.4-3.6 73.4-.4m-73.4-3.6 73.4-.4m-73.5-3.6 73.5-.4m-73.5-3.6 73.5-.4m-73.5-3.6 73.5-.4m-73.5-3.6 73.4-.4m-73.4-3.6 73.4-.4m-73.4-3.6 73.4-.4m-73.5-3.6 73.5-.4m-73.5-3.6 73.5-.4"/></g><g clip-path="url(#l)" fill="none" stroke="#231815" stroke-width=".3" stroke-dasharray="2,2"><path d="m81.9 45.8 73.4-.3m-73.4-3.7 73.4-.3m-73.5-3.7 73.5-.3m-73.5-3.7 73.5-.3m-73.5-3.7 73.4-.3m-73.4-3.7 73.4-.3m-73.4-3.7 73.4-.3m-73.5-3.7 73.5-.3m-73.5-3.7 73.5-.3M81.7 9.8l73.4-.3M81.7 5.8l73.4-.3M81.7 1.8l73.4-.3M83.9 43.8l73.4-.3m-73.4-3.7 73.4-.3m-73.4-3.7 73.4-.3m-73.5-3.7 73.5-.3m-73.5-3.7 73.5-.3m-73.5-3.7 73.5-.3m-73.5-3.7 73.4-.3m-73.4-3.7 73.4-.3m-73.4-3.7 73.4-.3M83.7 7.8l73.5-.3M83.7 3.8l73.5-.3"/></g></g><g clip-path="url(#b)"><defs><path id="m" transform="matrix(1 -.00446 .00446 1 -.4 .9)" d="M155 46.3h72v72h-72z"/></defs><clipPath id="n"><use xlink:href="#m" overflow="visible"/></clipPath><g clip-path="url(#n)" fill="none" stroke="#231815" stroke-width=".3" stroke-dasharray="2,2"><path d="m226.2 117.1 73.4-.3m-73.4-3.7 73.4-.3m-73.4-3.7 73.4-.3m-73.5-3.7 73.5-.3m-73.5-3.7 73.5-.3m-73.5-3.7 73.4-.3m-73.4-3.7 73.4-.3m-73.4-3.7 73.4-.3M226 85.1l73.5-.3M226 81.1l73.5-.3M226 77.1l73.5-.3M226 73.1l73.4-.3M226 69.1l73.4-.3M226 65.1l73.4-.3m-73.5-3.7 73.5-.3m-73.5-3.7 73.5-.3m-73.5-3.7 73.4-.3m-73.4-3.7 73.4-.3"/></g><g clip-path="url(#n)" fill="none" stroke="#231815" stroke-width=".3" stroke-dasharray="2,2"><path d="m154.2 117.5 73.4-.4m-73.4-3.6 73.4-.4m-73.4-3.6 73.4-.4m-73.5-3.6 73.5-.4m-73.5-3.6 73.5-.4m-73.5-3.6 73.4-.4m-73.4-3.6 73.4-.4m-73.4-3.6 73.4-.4M154 85.5l73.5-.4M154 81.5l73.5-.4M154 77.5l73.5-.4M154 73.5l73.4-.4M154 69.5l73.4-.4M154 65.5l73.4-.4m-73.5-3.6 73.5-.4m-73.5-3.6 73.5-.4m-73.5-3.6 73.4-.4m-73.4-3.6 73.4-.4m-71.1 66.4 73.5-.4m-73.5-3.6 73.4-.4m-73.4-3.6 73.4-.4m-73.4-3.6 73.4-.4m-73.4-3.6 73.4-.4m-73.5-3.6 73.5-.4m-73.5-3.6 73.5-.4m-73.5-3.6 73.4-.4m-73.4-3.6 73.4-.4m-73.4-3.6 73.4-.4M156 75.5l73.5-.4M156 71.5l73.5-.4M156 67.5l73.4-.4M156 63.5l73.4-.4M156 59.5l73.4-.4M156 55.5l73.4-.4m-73.5-3.6 73.5-.4m-73.5-3.6 73.5-.4"/></g><g clip-path="url(#n)" fill="none" stroke="#231815" stroke-width=".3" stroke-dasharray="2,2"><path d="m82.2 117.8 73.4-.3m-73.4-3.7 73.4-.3m-73.4-3.7 73.4-.3m-73.5-3.7 73.5-.3m-73.5-3.7 73.5-.3m-73.5-3.7 73.4-.3m-73.4-3.7 73.4-.3m-73.4-3.7 73.4-.3M82 85.8l73.5-.3M82 81.8l73.5-.3M82 77.8l73.5-.3M82 73.8l73.4-.3M82 69.8l73.4-.3M82 65.8l73.4-.3m-73.5-3.7 73.5-.3m-73.5-3.7 73.5-.3m-73.5-3.7 73.4-.3m-73.4-3.7 73.4-.3m-71.1 66.3 73.5-.3m-73.5-3.7 73.4-.3m-73.4-3.7 73.4-.3m-73.4-3.7 73.4-.3m-73.4-3.7 73.4-.3m-73.5-3.7 73.5-.3m-73.5-3.7 73.5-.3m-73.5-3.7 73.4-.3m-73.4-3.7 73.4-.3m-73.4-3.7 73.4-.3M84 75.8l73.5-.3M84 71.8l73.5-.3M84 67.8l73.4-.3M84 63.8l73.4-.3M84 59.8l73.4-.3M84 55.8l73.4-.3m-73.5-3.7 73.5-.3m-73.5-3.7 73.5-.3"/></g></g><g clip-path="url(#b)"><defs><path id="o" transform="matrix(1 -.00446 .00446 1 -.7 .9)" d="M155.4 118.3h72v72h-72z"/></defs><clipPath id="p"><use xlink:href="#o" overflow="visible"/></clipPath><g clip-path="url(#p)" fill="none" stroke="#231815" stroke-width=".3" stroke-dasharray="2,2"><path d="m226.5 189.1 73.5-.3m-73.5-3.7 73.4-.3m-73.4-3.7 73.4-.3m-73.4-3.7 73.4-.3m-73.5-3.7 73.5-.3m-73.5-3.7 73.5-.3m-73.5-3.7 73.4-.3m-73.4-3.7 73.4-.3m-73.4-3.7 73.4-.3m-73.4-3.7 73.4-.3m-73.5-3.7 73.5-.3m-73.5-3.7 73.5-.3m-73.5-3.7 73.4-.3m-73.4-3.7 73.4-.3m-73.4-3.7 73.4-.3m-73.5-3.7 73.5-.3m-73.5-3.7 73.5-.3m-73.5-3.7 73.4-.3"/></g><g clip-path="url(#p)" fill="none" stroke="#231815" stroke-width=".3" stroke-dasharray="2,2"><path d="m154.5 189.5 73.5-.4m-73.5-3.6 73.4-.4m-73.4-3.6 73.4-.4m-73.4-3.6 73.4-.4m-73.5-3.6 73.5-.4m-73.5-3.6 73.5-.4m-73.5-3.6 73.4-.4m-73.4-3.6 73.4-.4m-73.4-3.6 73.4-.4m-73.4-3.6 73.4-.4m-73.5-3.6 73.5-.4m-73.5-3.6 73.5-.4m-73.5-3.6 73.4-.4m-73.4-3.6 73.4-.4m-73.4-3.6 73.4-.4m-73.5-3.6 73.5-.4m-73.5-3.6 73.5-.4m-73.5-3.6 73.4-.4m-71.1 66.4 73.5-.4m-73.5-3.6 73.5-.4m-73.5-3.6 73.4-.4m-73.4-3.6 73.4-.4m-73.4-3.6 73.4-.4m-73.4-3.6 73.4-.4m-73.5-3.6 73.5-.4m-73.5-3.6 73.5-.4m-73.5-3.6 73.4-.4m-73.4-3.6 73.4-.4m-73.4-3.6 73.4-.4m-73.5-3.6 73.5-.4m-73.5-3.6 73.5-.4m-73.5-3.6 73.5-.4m-73.5-3.6 73.4-.4m-73.4-3.6 73.4-.4m-73.4-3.6 73.4-.4m-73.5-3.6 73.5-.4"/></g><g clip-path="url(#p)" fill="none" stroke="#231815" stroke-width=".3" stroke-dasharray="2,2"><path d="m82.5 189.8 73.5-.3m-73.5-3.7 73.4-.3m-73.4-3.7 73.4-.3m-73.4-3.7 73.4-.3m-73.5-3.7 73.5-.3m-73.5-3.7 73.5-.3m-73.5-3.7 73.4-.3m-73.4-3.7 73.4-.3m-73.4-3.7 73.4-.3m-73.4-3.7 73.4-.3m-73.5-3.7 73.5-.3m-73.5-3.7 73.5-.3m-73.5-3.7 73.4-.3m-73.4-3.7 73.4-.3m-73.4-3.7 73.4-.3m-73.5-3.7 73.5-.3m-73.5-3.7 73.5-.3m-73.5-3.7 73.4-.3m-71.1 66.3 73.5-.3m-73.5-3.7 73.5-.3m-73.5-3.7 73.4-.3m-73.4-3.7 73.4-.3m-73.4-3.7 73.4-.3m-73.4-3.7 73.4-.3m-73.5-3.7 73.5-.3m-73.5-3.7 73.5-.3m-73.5-3.7 73.4-.3m-73.4-3.7 73.4-.3m-73.4-3.7 73.4-.3m-73.5-3.7 73.5-.3m-73.5-3.7 73.5-.3m-73.5-3.7 73.5-.3m-73.5-3.7 73.4-.3m-73.4-3.7 73.4-.3m-73.4-3.7 73.4-.3m-73.5-3.7 73.5-.3"/></g></g><g clip-path="url(#b)"><defs><path id="q" transform="matrix(1 -.00446 .00446 1 -1 .9)" d="M155.7 190.3h72v72h-72z"/></defs><clipPath id="r"><use xlink:href="#q" overflow="visible"/></clipPath><g clip-path="url(#r)" fill="none" stroke="#231815" stroke-width=".3" stroke-dasharray="2,2"><path d="m226.8 261.1 73.5-.3m-73.5-3.7 73.5-.3m-73.5-3.7 73.4-.3m-73.4-3.7 73.4-.3m-73.4-3.7 73.4-.3m-73.5-3.7 73.5-.3m-73.5-3.7 73.5-.3m-73.5-3.7 73.4-.3m-73.4-3.7 73.4-.3m-73.4-3.7 73.4-.3m-73.4-3.7 73.4-.3m-73.5-3.7 73.5-.3m-73.5-3.7 73.5-.3m-73.5-3.7 73.4-.3m-73.4-3.7 73.4-.3m-73.4-3.7 73.4-.3m-73.5-3.7 73.5-.3m-73.5-3.7 73.5-.3"/></g><g clip-path="url(#r)" fill="none" stroke="#231815" stroke-width=".3" stroke-dasharray="2,2"><path d="m154.8 261.5 73.5-.4m-73.5-3.6 73.5-.4m-73.5-3.6 73.4-.4m-73.4-3.6 73.4-.4m-73.4-3.6 73.4-.4m-73.5-3.6 73.5-.4m-73.5-3.6 73.5-.4m-73.5-3.6 73.4-.4m-73.4-3.6 73.4-.4m-73.4-3.6 73.4-.4m-73.4-3.6 73.4-.4m-73.5-3.6 73.5-.4m-73.5-3.6 73.5-.4m-73.5-3.6 73.4-.4m-73.4-3.6 73.4-.4m-73.4-3.6 73.4-.4m-73.5-3.6 73.5-.4m-73.5-3.6 73.5-.4m-71.1 66.4 73.4-.4m-73.5-3.6 73.5-.4m-73.5-3.6 73.5-.4m-73.5-3.6 73.5-.4m-73.5-3.6 73.4-.4m-73.4-3.6 73.4-.4m-73.4-3.6 73.4-.4m-73.5-3.6 73.5-.4m-73.5-3.6 73.5-.4m-73.5-3.6 73.4-.4m-73.4-3.6 73.4-.4m-73.4-3.6 73.4-.4m-73.5-3.6 73.5-.4m-73.5-3.6 73.5-.4m-73.5-3.6 73.5-.4m-73.5-3.6 73.4-.4m-73.4-3.6 73.4-.4m-73.4-3.6 73.4-.4"/></g><g clip-path="url(#r)" fill="none" stroke="#231815" stroke-width=".3" stroke-dasharray="2,2"><path d="m82.8 261.8 73.5-.3m-73.5-3.7 73.5-.3m-73.5-3.7 73.4-.3m-73.4-3.7 73.4-.3m-73.4-3.7 73.4-.3m-73.5-3.7 73.5-.3m-73.5-3.7 73.5-.3m-73.5-3.7 73.4-.3m-73.4-3.7 73.4-.3m-73.4-3.7 73.4-.3m-73.4-3.7 73.4-.3m-73.5-3.7 73.5-.3m-73.5-3.7 73.5-.3m-73.5-3.7 73.4-.3m-73.4-3.7 73.4-.3m-73.4-3.7 73.4-.3m-73.5-3.7 73.5-.3m-73.5-3.7 73.5-.3m-71.1 66.3 73.4-.3m-73.5-3.7 73.5-.3m-73.5-3.7 73.5-.3m-73.5-3.7 73.5-.3m-73.5-3.7 73.4-.3m-73.4-3.7 73.4-.3m-73.4-3.7 73.4-.3m-73.5-3.7 73.5-.3m-73.5-3.7 73.5-.3m-73.5-3.7 73.4-.3m-73.4-3.7 73.4-.3m-73.4-3.7 73.4-.3m-73.5-3.7 73.5-.3m-73.5-3.7 73.5-.3m-73.5-3.7 73.5-.3m-73.5-3.7 73.4-.3m-73.4-3.7 73.4-.3m-73.4-3.7 73.4-.3"/></g></g><g clip-path="url(#b)"><defs><path id="s" transform="matrix(1 -.00446 .00446 1 0 .5)" d="M82.7-25.4h72v72h-72z"/></defs><clipPath id="t"><use xlink:href="#s" overflow="visible"/></clipPath><g clip-path="url(#t)" fill="none" stroke="#231815" stroke-width=".3" stroke-dasharray="2,2"><path d="m153.9 45.5 73.4-.4m-73.4-3.6 73.4-.4m-73.5-3.6 73.5-.4m-73.5-3.6 73.5-.4m-73.5-3.6 73.4-.4m-73.4-3.6 73.4-.4m-73.4-3.6 73.4-.4m-73.5-3.6 73.5-.4m-73.5-3.6 73.5-.4m-73.5-3.6 73.4-.4m-73.4-3.6 73.4-.4m-73.4-3.6 73.4-.4"/></g><g clip-path="url(#t)" fill="none" stroke="#231815" stroke-width=".3" stroke-dasharray="2,2"><path d="m81.9 45.8 73.4-.3m-73.4-3.7 73.4-.3m-73.5-3.7 73.5-.3m-73.5-3.7 73.5-.3m-73.5-3.7 73.4-.3m-73.4-3.7 73.4-.3m-73.4-3.7 73.4-.3m-73.5-3.7 73.5-.3m-73.5-3.7 73.5-.3M81.7 9.8l73.4-.3M81.7 5.8l73.4-.3M81.7 1.8l73.4-.3M83.9 43.8l73.4-.3m-73.4-3.7 73.4-.3m-73.4-3.7 73.4-.3m-73.5-3.7 73.5-.3m-73.5-3.7 73.5-.3m-73.5-3.7 73.5-.3m-73.5-3.7 73.4-.3m-73.4-3.7 73.4-.3m-73.4-3.7 73.4-.3M83.7 7.8l73.5-.3M83.7 3.8l73.5-.3"/></g><g clip-path="url(#t)" fill="none" stroke="#231815" stroke-width=".3" stroke-dasharray="2,2"><path d="m9.9 46.1 73.4-.3M9.9 42.1l73.4-.3M9.8 38.1l73.5-.3M9.8 34.1l73.5-.3M9.8 30.1l73.4-.3M9.8 26.1l73.4-.3M9.8 22.1l73.4-.3M9.7 18.1l73.5-.3M9.7 14.1l73.5-.3M9.7 10.1l73.4-.3M9.7 6.1l73.4-.3M9.7 2.1l73.4-.3M11.9 44.1l73.4-.3m-73.4-3.7 73.4-.3m-73.4-3.7 73.4-.3m-73.5-3.7 73.5-.3m-73.5-3.7 73.5-.3m-73.5-3.7 73.5-.3m-73.5-3.7 73.4-.3m-73.4-3.7 73.4-.3m-73.4-3.7 73.4-.3M11.7 8.1l73.5-.3M11.7 4.1l73.5-.3M11.7.1l73.4-.3"/></g></g><g clip-path="url(#b)"><defs><path id="u" transform="matrix(1 -.00446 .00446 1 -.4 .5)" d="M83 46.6h72v72H83z"/></defs><clipPath id="v"><use xlink:href="#u" overflow="visible"/></clipPath><g clip-path="url(#v)" fill="none" stroke="#231815" stroke-width=".3" stroke-dasharray="2,2"><path d="m154.2 117.5 73.4-.4m-73.4-3.6 73.4-.4m-73.4-3.6 73.4-.4m-73.5-3.6 73.5-.4m-73.5-3.6 73.5-.4m-73.5-3.6 73.4-.4m-73.4-3.6 73.4-.4m-73.4-3.6 73.4-.4M154 85.5l73.5-.4M154 81.5l73.5-.4M154 77.5l73.5-.4M154 73.5l73.4-.4M154 69.5l73.4-.4M154 65.5l73.4-.4m-73.5-3.6 73.5-.4m-73.5-3.6 73.5-.4m-73.5-3.6 73.4-.4m-73.4-3.6 73.4-.4"/></g><g clip-path="url(#v)" fill="none" stroke="#231815" stroke-width=".3" stroke-dasharray="2,2"><path d="m82.2 117.8 73.4-.3m-73.4-3.7 73.4-.3m-73.4-3.7 73.4-.3m-73.5-3.7 73.5-.3m-73.5-3.7 73.5-.3m-73.5-3.7 73.4-.3m-73.4-3.7 73.4-.3m-73.4-3.7 73.4-.3M82 85.8l73.5-.3M82 81.8l73.5-.3M82 77.8l73.5-.3M82 73.8l73.4-.3M82 69.8l73.4-.3M82 65.8l73.4-.3m-73.5-3.7 73.5-.3m-73.5-3.7 73.5-.3m-73.5-3.7 73.4-.3m-73.4-3.7 73.4-.3m-71.1 66.3 73.5-.3m-73.5-3.7 73.4-.3m-73.4-3.7 73.4-.3m-73.4-3.7 73.4-.3m-73.4-3.7 73.4-.3m-73.5-3.7 73.5-.3m-73.5-3.7 73.5-.3m-73.5-3.7 73.4-.3m-73.4-3.7 73.4-.3m-73.4-3.7 73.4-.3M84 75.8l73.5-.3M84 71.8l73.5-.3M84 67.8l73.4-.3M84 63.8l73.4-.3M84 59.8l73.4-.3M84 55.8l73.4-.3m-73.5-3.7 73.5-.3m-73.5-3.7 73.5-.3"/></g><g clip-path="url(#v)" fill="none" stroke="#231815" stroke-width=".3" stroke-dasharray="2,2"><path d="m10.2 118.1 73.4-.3m-73.4-3.7 73.4-.3m-73.4-3.7 73.4-.3m-73.5-3.7 73.5-.3m-73.5-3.7 73.5-.3m-73.5-3.7 73.4-.3m-73.4-3.7 73.4-.3m-73.4-3.7 73.4-.3M10 86.1l73.5-.3M10 82.1l73.5-.3M10 78.1l73.5-.3M10 74.1l73.4-.3M10 70.1l73.4-.3M10 66.1l73.4-.3M9.9 62.1l73.5-.3M9.9 58.1l73.5-.3M9.9 54.1l73.4-.3M9.9 50.1l73.4-.3m-71.1 66.3 73.5-.3m-73.5-3.7 73.4-.3m-73.4-3.7 73.4-.3m-73.4-3.7 73.4-.3m-73.4-3.7 73.4-.3m-73.5-3.7 73.5-.3m-73.5-3.7 73.5-.3m-73.5-3.7 73.4-.3m-73.4-3.7 73.4-.3m-73.4-3.7 73.4-.3M12 76.1l73.5-.3M12 72.1l73.5-.3M12 68.1l73.4-.3M12 64.1l73.4-.3M12 60.1l73.4-.3M12 56.1l73.4-.3m-73.5-3.7 73.5-.3m-73.5-3.7 73.5-.3"/></g></g><g clip-path="url(#b)"><defs><path id="w" transform="matrix(1 -.00446 .00446 1 -.7 .5)" d="M83.4 118.6h72v72h-72z"/></defs><clipPath id="x"><use xlink:href="#w" overflow="visible"/></clipPath><g clip-path="url(#x)" fill="none" stroke="#231815" stroke-width=".3" stroke-dasharray="2,2"><path d="m154.5 189.5 73.5-.4m-73.5-3.6 73.4-.4m-73.4-3.6 73.4-.4m-73.4-3.6 73.4-.4m-73.5-3.6 73.5-.4m-73.5-3.6 73.5-.4m-73.5-3.6 73.4-.4m-73.4-3.6 73.4-.4m-73.4-3.6 73.4-.4m-73.4-3.6 73.4-.4m-73.5-3.6 73.5-.4m-73.5-3.6 73.5-.4m-73.5-3.6 73.4-.4m-73.4-3.6 73.4-.4m-73.4-3.6 73.4-.4m-73.5-3.6 73.5-.4m-73.5-3.6 73.5-.4m-73.5-3.6 73.4-.4"/></g><g clip-path="url(#x)" fill="none" stroke="#231815" stroke-width=".3" stroke-dasharray="2,2"><path d="m82.5 189.8 73.5-.3m-73.5-3.7 73.4-.3m-73.4-3.7 73.4-.3m-73.4-3.7 73.4-.3m-73.5-3.7 73.5-.3m-73.5-3.7 73.5-.3m-73.5-3.7 73.4-.3m-73.4-3.7 73.4-.3m-73.4-3.7 73.4-.3m-73.4-3.7 73.4-.3m-73.5-3.7 73.5-.3m-73.5-3.7 73.5-.3m-73.5-3.7 73.4-.3m-73.4-3.7 73.4-.3m-73.4-3.7 73.4-.3m-73.5-3.7 73.5-.3m-73.5-3.7 73.5-.3m-73.5-3.7 73.4-.3m-71.1 66.3 73.5-.3m-73.5-3.7 73.5-.3m-73.5-3.7 73.4-.3m-73.4-3.7 73.4-.3m-73.4-3.7 73.4-.3m-73.4-3.7 73.4-.3m-73.5-3.7 73.5-.3m-73.5-3.7 73.5-.3m-73.5-3.7 73.4-.3m-73.4-3.7 73.4-.3m-73.4-3.7 73.4-.3m-73.5-3.7 73.5-.3m-73.5-3.7 73.5-.3m-73.5-3.7 73.5-.3m-73.5-3.7 73.4-.3m-73.4-3.7 73.4-.3m-73.4-3.7 73.4-.3m-73.5-3.7 73.5-.3"/></g><g clip-path="url(#x)" fill="none" stroke="#231815" stroke-width=".3" stroke-dasharray="2,2"><path d="m10.5 190.1 73.5-.3m-73.5-3.7 73.4-.3m-73.4-3.7 73.4-.3m-73.4-3.7 73.4-.3m-73.5-3.7 73.5-.3m-73.5-3.7 73.5-.3m-73.5-3.7 73.4-.3m-73.4-3.7 73.4-.3m-73.4-3.7 73.4-.3m-73.4-3.7 73.4-.3m-73.5-3.7 73.5-.3m-73.5-3.7 73.5-.3m-73.5-3.7 73.4-.3m-73.4-3.7 73.4-.3m-73.4-3.7 73.4-.3m-73.5-3.7 73.5-.3m-73.5-3.7 73.5-.3m-73.5-3.7 73.4-.3m-71.1 66.3 73.5-.3m-73.5-3.7 73.5-.3m-73.5-3.7 73.4-.3m-73.4-3.7 73.4-.3m-73.4-3.7 73.4-.3m-73.4-3.7 73.4-.3m-73.5-3.7 73.5-.3m-73.5-3.7 73.5-.3m-73.5-3.7 73.4-.3m-73.4-3.7 73.4-.3m-73.4-3.7 73.4-.3m-73.5-3.7 73.5-.3m-73.5-3.7 73.5-.3m-73.5-3.7 73.5-.3m-73.5-3.7 73.4-.3m-73.4-3.7 73.4-.3m-73.4-3.7 73.4-.3m-73.5-3.7 73.5-.3"/></g></g><g clip-path="url(#b)"><defs><path id="y" transform="matrix(1 -.00446 .00446 1 -1 .5)" d="M83.7 190.6h72v72h-72z"/></defs><clipPath id="z"><use xlink:href="#y" overflow="visible"/></clipPath><g clip-path="url(#z)" fill="none" stroke="#231815" stroke-width=".3" stroke-dasharray="2,2"><path d="m154.8 261.5 73.5-.4m-73.5-3.6 73.5-.4m-73.5-3.6 73.4-.4m-73.4-3.6 73.4-.4m-73.4-3.6 73.4-.4m-73.5-3.6 73.5-.4m-73.5-3.6 73.5-.4m-73.5-3.6 73.4-.4m-73.4-3.6 73.4-.4m-73.4-3.6 73.4-.4m-73.4-3.6 73.4-.4m-73.5-3.6 73.5-.4m-73.5-3.6 73.5-.4m-73.5-3.6 73.4-.4m-73.4-3.6 73.4-.4m-73.4-3.6 73.4-.4m-73.5-3.6 73.5-.4m-73.5-3.6 73.5-.4"/></g><g clip-path="url(#z)" fill="none" stroke="#231815" stroke-width=".3" stroke-dasharray="2,2"><path d="m82.8 261.8 73.5-.3m-73.5-3.7 73.5-.3m-73.5-3.7 73.4-.3m-73.4-3.7 73.4-.3m-73.4-3.7 73.4-.3m-73.5-3.7 73.5-.3m-73.5-3.7 73.5-.3m-73.5-3.7 73.4-.3m-73.4-3.7 73.4-.3m-73.4-3.7 73.4-.3m-73.4-3.7 73.4-.3m-73.5-3.7 73.5-.3m-73.5-3.7 73.5-.3m-73.5-3.7 73.4-.3m-73.4-3.7 73.4-.3m-73.4-3.7 73.4-.3m-73.5-3.7 73.5-.3m-73.5-3.7 73.5-.3m-71.1 66.3 73.4-.3m-73.5-3.7 73.5-.3m-73.5-3.7 73.5-.3m-73.5-3.7 73.5-.3m-73.5-3.7 73.4-.3m-73.4-3.7 73.4-.3m-73.4-3.7 73.4-.3m-73.5-3.7 73.5-.3m-73.5-3.7 73.5-.3m-73.5-3.7 73.4-.3m-73.4-3.7 73.4-.3m-73.4-3.7 73.4-.3m-73.5-3.7 73.5-.3m-73.5-3.7 73.5-.3m-73.5-3.7 73.5-.3m-73.5-3.7 73.4-.3m-73.4-3.7 73.4-.3m-73.4-3.7 73.4-.3"/></g><g clip-path="url(#z)" fill="none" stroke="#231815" stroke-width=".3" stroke-dasharray="2,2"><path d="m10.8 262.1 73.5-.3m-73.5-3.7 73.5-.3m-73.5-3.7 73.4-.3m-73.4-3.7 73.4-.3m-73.4-3.7 73.4-.3m-73.5-3.7 73.5-.3m-73.5-3.7 73.5-.3m-73.5-3.7 73.4-.3m-73.4-3.7 73.4-.3m-73.4-3.7 73.4-.3m-73.4-3.7 73.4-.3m-73.5-3.7 73.5-.3m-73.5-3.7 73.5-.3m-73.5-3.7 73.4-.3m-73.4-3.7 73.4-.3m-73.4-3.7 73.4-.3m-73.5-3.7 73.5-.3m-73.5-3.7 73.5-.3m-71.1 66.3 73.4-.3m-73.5-3.7 73.5-.3m-73.5-3.7 73.5-.3m-73.5-3.7 73.5-.3m-73.5-3.7 73.4-.3m-73.4-3.7 73.4-.3m-73.4-3.7 73.4-.3m-73.5-3.7 73.5-.3m-73.5-3.7 73.5-.3m-73.5-3.7 73.4-.3m-73.4-3.7 73.4-.3m-73.4-3.7 73.4-.3m-73.5-3.7 73.5-.3m-73.5-3.7 73.5-.3m-73.5-3.7 73.5-.3m-73.5-3.7 73.4-.3m-73.4-3.7 73.4-.3m-73.4-3.7 73.4-.3"/></g></g><g clip-path="url(#b)"><defs><path id="A" transform="matrix(1 -.00446 .00446 1 0 .2)" d="M10.7-25.1h72v72h-72z"/></defs><clipPath id="B"><use xlink:href="#A" overflow="visible"/></clipPath><g clip-path="url(#B)" fill="none" stroke="#231815" stroke-width=".3" stroke-dasharray="2,2"><path d="m81.9 45.8 73.4-.3m-73.4-3.7 73.4-.3m-73.5-3.7 73.5-.3m-73.5-3.7 73.5-.3m-73.5-3.7 73.4-.3m-73.4-3.7 73.4-.3m-73.4-3.7 73.4-.3m-73.5-3.7 73.5-.3m-73.5-3.7 73.5-.3M81.7 9.8l73.4-.3M81.7 5.8l73.4-.3M81.7 1.8l73.4-.3"/></g><g clip-path="url(#B)" fill="none" stroke="#231815" stroke-width=".3" stroke-dasharray="2,2"><path d="m9.9 46.1 73.4-.3M9.9 42.1l73.4-.3M9.8 38.1l73.5-.3M9.8 34.1l73.5-.3M9.8 30.1l73.4-.3M9.8 26.1l73.4-.3M9.8 22.1l73.4-.3M9.7 18.1l73.5-.3M9.7 14.1l73.5-.3M9.7 10.1l73.4-.3M9.7 6.1l73.4-.3M9.7 2.1l73.4-.3M11.9 44.1l73.4-.3m-73.4-3.7 73.4-.3m-73.4-3.7 73.4-.3m-73.5-3.7 73.5-.3m-73.5-3.7 73.5-.3m-73.5-3.7 73.5-.3m-73.5-3.7 73.4-.3m-73.4-3.7 73.4-.3m-73.4-3.7 73.4-.3M11.7 8.1l73.5-.3M11.7 4.1l73.5-.3M11.7.1l73.4-.3"/></g><g clip-path="url(#B)" fill="none" stroke="#231815" stroke-width=".3" stroke-dasharray="2,2"><path d="m-62.1 46.4 73.4-.3m-73.4-3.7 73.4-.3m-73.5-3.7 73.5-.3m-73.5-3.7 73.5-.3m-73.5-3.7 73.4-.3m-73.4-3.7 73.4-.3m-73.4-3.7 73.4-.3m-73.5-3.7 73.5-.3m-73.5-3.7 73.5-.3m-73.5-3.7 73.4-.3m-73.4-3.7 73.4-.3m-73.4-3.7 73.4-.3m-71.2 42.3 73.4-.3m-73.4-3.7 73.4-.3m-73.4-3.7 73.4-.3m-73.5-3.7 73.5-.3m-73.5-3.7 73.5-.3m-73.5-3.7 73.5-.3m-73.5-3.7 73.4-.3m-73.4-3.7 73.4-.3m-73.4-3.7 73.4-.3m-73.5-3.7 73.5-.3m-73.5-3.7 73.5-.3M-60.3.4 13.1.1"/></g></g><g clip-path="url(#b)"><defs><path id="C" transform="rotate(-.3 47 83) scale(1.00001)" d="M11 46.9h72v72H11z"/></defs><clipPath id="D"><use xlink:href="#C" overflow="visible"/></clipPath><g clip-path="url(#D)" fill="none" stroke="#231815" stroke-width=".3" stroke-dasharray="2,2"><path d="m82.2 117.8 73.4-.3m-73.4-3.7 73.4-.3m-73.4-3.7 73.4-.3m-73.5-3.7 73.5-.3m-73.5-3.7 73.5-.3m-73.5-3.7 73.4-.3m-73.4-3.7 73.4-.3m-73.4-3.7 73.4-.3M82 85.8l73.5-.3M82 81.8l73.5-.3M82 77.8l73.5-.3M82 73.8l73.4-.3M82 69.8l73.4-.3M82 65.8l73.4-.3m-73.5-3.7 73.5-.3m-73.5-3.7 73.5-.3m-73.5-3.7 73.4-.3m-73.4-3.7 73.4-.3"/></g><g clip-path="url(#D)" fill="none" stroke="#231815" stroke-width=".3" stroke-dasharray="2,2"><path d="m10.2 118.1 73.4-.3m-73.4-3.7 73.4-.3m-73.4-3.7 73.4-.3m-73.5-3.7 73.5-.3m-73.5-3.7 73.5-.3m-73.5-3.7 73.4-.3m-73.4-3.7 73.4-.3m-73.4-3.7 73.4-.3M10 86.1l73.5-.3M10 82.1l73.5-.3M10 78.1l73.5-.3M10 74.1l73.4-.3M10 70.1l73.4-.3M10 66.1l73.4-.3M9.9 62.1l73.5-.3M9.9 58.1l73.5-.3M9.9 54.1l73.4-.3M9.9 50.1l73.4-.3m-71.1 66.3 73.5-.3m-73.5-3.7 73.4-.3m-73.4-3.7 73.4-.3m-73.4-3.7 73.4-.3m-73.4-3.7 73.4-.3m-73.5-3.7 73.5-.3m-73.5-3.7 73.5-.3m-73.5-3.7 73.4-.3m-73.4-3.7 73.4-.3m-73.4-3.7 73.4-.3M12 76.1l73.5-.3M12 72.1l73.5-.3M12 68.1l73.4-.3M12 64.1l73.4-.3M12 60.1l73.4-.3M12 56.1l73.4-.3m-73.5-3.7 73.5-.3m-73.5-3.7 73.5-.3"/></g><g clip-path="url(#D)" fill="none" stroke="#231815" stroke-width=".3" stroke-dasharray="2,2"><path d="m-61.8 118.4 73.4-.3m-73.4-3.7 73.4-.3m-73.4-3.7 73.4-.3m-73.5-3.7 73.5-.3m-73.5-3.7 73.5-.3m-73.5-3.7 73.4-.3m-73.4-3.7 73.4-.3m-73.4-3.7 73.4-.3M-62 86.4l73.5-.3M-62 82.4l73.5-.3M-62 78.4l73.5-.3M-62 74.4l73.4-.3M-62 70.4l73.4-.3M-62 66.4l73.4-.3m-73.5-3.7 73.5-.3m-73.5-3.7 73.5-.3m-73.5-3.7 73.4-.3m-73.4-3.7 73.4-.3m-71.1 66.3 73.5-.3m-73.5-3.7 73.4-.3m-73.4-3.7 73.4-.3m-73.4-3.7 73.4-.3m-73.4-3.7 73.4-.3m-73.5-3.7 73.5-.3m-73.5-3.7 73.5-.3m-73.5-3.7 73.4-.3m-73.4-3.7 73.4-.3m-73.4-3.7 73.4-.3M-60 76.4l73.5-.3M-60 72.4l73.5-.3M-60 68.4l73.4-.3M-60 64.4l73.4-.3M-60 60.4l73.4-.3M-60 56.4l73.4-.3m-73.5-3.7 73.5-.3m-73.5-3.7 73.5-.3"/></g></g><g clip-path="url(#b)"><defs><path id="E" transform="matrix(1 -.00446 .00446 1 -.7 .2)" d="M11.4 118.9h72v72h-72z"/></defs><clipPath id="F"><use xlink:href="#E" overflow="visible"/></clipPath><g clip-path="url(#F)" fill="none" stroke="#231815" stroke-width=".3" stroke-dasharray="2,2"><path d="m82.5 189.8 73.5-.3m-73.5-3.7 73.4-.3m-73.4-3.7 73.4-.3m-73.4-3.7 73.4-.3m-73.5-3.7 73.5-.3m-73.5-3.7 73.5-.3m-73.5-3.7 73.4-.3m-73.4-3.7 73.4-.3m-73.4-3.7 73.4-.3m-73.4-3.7 73.4-.3m-73.5-3.7 73.5-.3m-73.5-3.7 73.5-.3m-73.5-3.7 73.4-.3m-73.4-3.7 73.4-.3m-73.4-3.7 73.4-.3m-73.5-3.7 73.5-.3m-73.5-3.7 73.5-.3m-73.5-3.7 73.4-.3"/></g><g clip-path="url(#F)" fill="none" stroke="#231815" stroke-width=".3" stroke-dasharray="2,2"><path d="m10.5 190.1 73.5-.3m-73.5-3.7 73.4-.3m-73.4-3.7 73.4-.3m-73.4-3.7 73.4-.3m-73.5-3.7 73.5-.3m-73.5-3.7 73.5-.3m-73.5-3.7 73.4-.3m-73.4-3.7 73.4-.3m-73.4-3.7 73.4-.3m-73.4-3.7 73.4-.3m-73.5-3.7 73.5-.3m-73.5-3.7 73.5-.3m-73.5-3.7 73.4-.3m-73.4-3.7 73.4-.3m-73.4-3.7 73.4-.3m-73.5-3.7 73.5-.3m-73.5-3.7 73.5-.3m-73.5-3.7 73.4-.3m-71.1 66.3 73.5-.3m-73.5-3.7 73.5-.3m-73.5-3.7 73.4-.3m-73.4-3.7 73.4-.3m-73.4-3.7 73.4-.3m-73.4-3.7 73.4-.3m-73.5-3.7 73.5-.3m-73.5-3.7 73.5-.3m-73.5-3.7 73.4-.3m-73.4-3.7 73.4-.3m-73.4-3.7 73.4-.3m-73.5-3.7 73.5-.3m-73.5-3.7 73.5-.3m-73.5-3.7 73.5-.3m-73.5-3.7 73.4-.3m-73.4-3.7 73.4-.3m-73.4-3.7 73.4-.3m-73.5-3.7 73.5-.3"/></g><g clip-path="url(#F)" fill="none" stroke="#231815" stroke-width=".3" stroke-dasharray="2,2"><path d="m-61.5 190.4 73.5-.3m-73.5-3.7 73.4-.3m-73.4-3.7 73.4-.3m-73.4-3.7 73.4-.3m-73.5-3.7 73.5-.3m-73.5-3.7 73.5-.3m-73.5-3.7 73.4-.3m-73.4-3.7 73.4-.3m-73.4-3.7 73.4-.3m-73.4-3.7 73.4-.3m-73.5-3.7 73.5-.3m-73.5-3.7 73.5-.3m-73.5-3.7 73.4-.3m-73.4-3.7 73.4-.3m-73.4-3.7 73.4-.3m-73.5-3.7 73.5-.3m-73.5-3.7 73.5-.3m-73.5-3.7 73.4-.3m-71.1 66.3 73.5-.3m-73.5-3.7 73.5-.3m-73.5-3.7 73.4-.3m-73.4-3.7 73.4-.3m-73.4-3.7 73.4-.3m-73.4-3.7 73.4-.3m-73.5-3.7 73.5-.3m-73.5-3.7 73.5-.3m-73.5-3.7 73.4-.3m-73.4-3.7 73.4-.3m-73.4-3.7 73.4-.3m-73.5-3.7 73.5-.3m-73.5-3.7 73.5-.3m-73.5-3.7 73.5-.3m-73.5-3.7 73.4-.3m-73.4-3.7 73.4-.3m-73.4-3.7 73.4-.3m-73.5-3.7 73.5-.3"/></g></g><g clip-path="url(#b)"><defs><path id="G" transform="matrix(1 -.00446 .00446 1 -1 .2)" d="M11.7 190.9h72v72h-72z"/></defs><clipPath id="H"><use xlink:href="#G" overflow="visible"/></clipPath><g clip-path="url(#H)" fill="none" stroke="#231815" stroke-width=".3" stroke-dasharray="2,2"><path d="m82.8 261.8 73.5-.3m-73.5-3.7 73.5-.3m-73.5-3.7 73.4-.3m-73.4-3.7 73.4-.3m-73.4-3.7 73.4-.3m-73.5-3.7 73.5-.3m-73.5-3.7 73.5-.3m-73.5-3.7 73.4-.3m-73.4-3.7 73.4-.3m-73.4-3.7 73.4-.3m-73.4-3.7 73.4-.3m-73.5-3.7 73.5-.3m-73.5-3.7 73.5-.3m-73.5-3.7 73.4-.3m-73.4-3.7 73.4-.3m-73.4-3.7 73.4-.3m-73.5-3.7 73.5-.3m-73.5-3.7 73.5-.3"/></g><g clip-path="url(#H)" fill="none" stroke="#231815" stroke-width=".3" stroke-dasharray="2,2"><path d="m10.8 262.1 73.5-.3m-73.5-3.7 73.5-.3m-73.5-3.7 73.4-.3m-73.4-3.7 73.4-.3m-73.4-3.7 73.4-.3m-73.5-3.7 73.5-.3m-73.5-3.7 73.5-.3m-73.5-3.7 73.4-.3m-73.4-3.7 73.4-.3m-73.4-3.7 73.4-.3m-73.4-3.7 73.4-.3m-73.5-3.7 73.5-.3m-73.5-3.7 73.5-.3m-73.5-3.7 73.4-.3m-73.4-3.7 73.4-.3m-73.4-3.7 73.4-.3m-73.5-3.7 73.5-.3m-73.5-3.7 73.5-.3m-71.1 66.3 73.4-.3m-73.5-3.7 73.5-.3m-73.5-3.7 73.5-.3m-73.5-3.7 73.5-.3m-73.5-3.7 73.4-.3m-73.4-3.7 73.4-.3m-73.4-3.7 73.4-.3m-73.5-3.7 73.5-.3m-73.5-3.7 73.5-.3m-73.5-3.7 73.4-.3m-73.4-3.7 73.4-.3m-73.4-3.7 73.4-.3m-73.5-3.7 73.5-.3m-73.5-3.7 73.5-.3m-73.5-3.7 73.5-.3m-73.5-3.7 73.4-.3m-73.4-3.7 73.4-.3m-73.4-3.7 73.4-.3"/></g><g clip-path="url(#H)" fill="none" stroke="#231815" stroke-width=".3" stroke-dasharray="2,2"><path d="m-61.2 262.4 73.5-.3m-73.5-3.7 73.5-.3m-73.5-3.7 73.4-.3m-73.4-3.7 73.4-.3m-73.4-3.7 73.4-.3m-73.5-3.7 73.5-.3m-73.5-3.7 73.5-.3m-73.5-3.7 73.4-.3m-73.4-3.7 73.4-.3m-73.4-3.7 73.4-.3m-73.4-3.7 73.4-.3m-73.5-3.7 73.5-.3m-73.5-3.7 73.5-.3m-73.5-3.7 73.4-.3m-73.4-3.7 73.4-.3m-73.4-3.7 73.4-.3m-73.5-3.7 73.5-.3m-73.5-3.7 73.5-.3m-71.1 66.3 73.4-.3m-73.5-3.7 73.5-.3m-73.5-3.7 73.5-.3m-73.5-3.7 73.5-.3m-73.5-3.7 73.4-.3m-73.4-3.7 73.4-.3m-73.4-3.7 73.4-.3m-73.5-3.7 73.5-.3m-73.5-3.7 73.5-.3m-73.5-3.7 73.4-.3m-73.4-3.7 73.4-.3m-73.4-3.7 73.4-.3m-73.5-3.7 73.5-.3m-73.5-3.7 73.5-.3m-73.5-3.7 73.5-.3m-73.5-3.7 73.4-.3m-73.4-3.7 73.4-.3m-73.4-3.7 73.4-.3"/></g></g><g clip-path="url(#b)"><defs><path id="I" transform="matrix(1 -.00446 .00446 1 0 -.1)" d="M-61.3-24.7h72v72h-72z"/></defs><clipPath id="J"><use xlink:href="#I" overflow="visible"/></clipPath><g clip-path="url(#J)" fill="none" stroke="#231815" stroke-width=".3" stroke-dasharray="2,2"><path d="m9.9 46.1 73.4-.3M9.9 42.1l73.4-.3M9.8 38.1l73.5-.3M9.8 34.1l73.5-.3M9.8 30.1l73.4-.3M9.8 26.1l73.4-.3M9.8 22.1l73.4-.3M9.7 18.1l73.5-.3M9.7 14.1l73.5-.3M9.7 10.1l73.4-.3M9.7 6.1l73.4-.3M9.7 2.1l73.4-.3"/></g><g clip-path="url(#J)" fill="none" stroke="#231815" stroke-width=".3" stroke-dasharray="2,2"><path d="m-62.1 46.4 73.4-.3m-73.4-3.7 73.4-.3m-73.5-3.7 73.5-.3m-73.5-3.7 73.5-.3m-73.5-3.7 73.4-.3m-73.4-3.7 73.4-.3m-73.4-3.7 73.4-.3m-73.5-3.7 73.5-.3m-73.5-3.7 73.5-.3m-73.5-3.7 73.4-.3m-73.4-3.7 73.4-.3m-73.4-3.7 73.4-.3m-71.2 42.3 73.4-.3m-73.4-3.7 73.4-.3m-73.4-3.7 73.4-.3m-73.5-3.7 73.5-.3m-73.5-3.7 73.5-.3m-73.5-3.7 73.5-.3m-73.5-3.7 73.4-.3m-73.4-3.7 73.4-.3m-73.4-3.7 73.4-.3m-73.5-3.7 73.5-.3m-73.5-3.7 73.5-.3M-60.3.4 13.1.1"/></g></g><g clip-path="url(#b)"><defs><path id="K" transform="matrix(1 -.00446 .00446 1 -.4 -.1)" d="M-61 47.3h72v72h-72z"/></defs><clipPath id="L"><use xlink:href="#K" overflow="visible"/></clipPath><g clip-path="url(#L)" fill="none" stroke="#231815" stroke-width=".3" stroke-dasharray="2,2"><path d="m10.2 118.1 73.4-.3m-73.4-3.7 73.4-.3m-73.4-3.7 73.4-.3m-73.5-3.7 73.5-.3m-73.5-3.7 73.5-.3m-73.5-3.7 73.4-.3m-73.4-3.7 73.4-.3m-73.4-3.7 73.4-.3M10 86.1l73.5-.3M10 82.1l73.5-.3M10 78.1l73.5-.3M10 74.1l73.4-.3M10 70.1l73.4-.3M10 66.1l73.4-.3M9.9 62.1l73.5-.3M9.9 58.1l73.5-.3M9.9 54.1l73.4-.3M9.9 50.1l73.4-.3"/></g><g clip-path="url(#L)" fill="none" stroke="#231815" stroke-width=".3" stroke-dasharray="2,2"><path d="m-61.8 118.4 73.4-.3m-73.4-3.7 73.4-.3m-73.4-3.7 73.4-.3m-73.5-3.7 73.5-.3m-73.5-3.7 73.5-.3m-73.5-3.7 73.4-.3m-73.4-3.7 73.4-.3m-73.4-3.7 73.4-.3M-62 86.4l73.5-.3M-62 82.4l73.5-.3M-62 78.4l73.5-.3M-62 74.4l73.4-.3M-62 70.4l73.4-.3M-62 66.4l73.4-.3m-73.5-3.7 73.5-.3m-73.5-3.7 73.5-.3m-73.5-3.7 73.4-.3m-73.4-3.7 73.4-.3m-71.1 66.3 73.5-.3m-73.5-3.7 73.4-.3m-73.4-3.7 73.4-.3m-73.4-3.7 73.4-.3m-73.4-3.7 73.4-.3m-73.5-3.7 73.5-.3m-73.5-3.7 73.5-.3m-73.5-3.7 73.4-.3m-73.4-3.7 73.4-.3m-73.4-3.7 73.4-.3M-60 76.4l73.5-.3M-60 72.4l73.5-.3M-60 68.4l73.4-.3M-60 64.4l73.4-.3M-60 60.4l73.4-.3M-60 56.4l73.4-.3m-73.5-3.7 73.5-.3m-73.5-3.7 73.5-.3"/></g></g><g clip-path="url(#b)"><defs><path id="M" transform="matrix(1 -.00446 .00446 1 -.7 -.1)" d="M-60.6 119.3h72v72h-72z"/></defs><clipPath id="N"><use xlink:href="#M" overflow="visible"/></clipPath><g clip-path="url(#N)" fill="none" stroke="#231815" stroke-width=".3" stroke-dasharray="2,2"><path d="m10.5 190.1 73.5-.3m-73.5-3.7 73.4-.3m-73.4-3.7 73.4-.3m-73.4-3.7 73.4-.3m-73.5-3.7 73.5-.3m-73.5-3.7 73.5-.3m-73.5-3.7 73.4-.3m-73.4-3.7 73.4-.3m-73.4-3.7 73.4-.3m-73.4-3.7 73.4-.3m-73.5-3.7 73.5-.3m-73.5-3.7 73.5-.3m-73.5-3.7 73.4-.3m-73.4-3.7 73.4-.3m-73.4-3.7 73.4-.3m-73.5-3.7 73.5-.3m-73.5-3.7 73.5-.3m-73.5-3.7 73.4-.3"/></g><g clip-path="url(#N)" fill="none" stroke="#231815" stroke-width=".3" stroke-dasharray="2,2"><path d="m-61.5 190.4 73.5-.3m-73.5-3.7 73.4-.3m-73.4-3.7 73.4-.3m-73.4-3.7 73.4-.3m-73.5-3.7 73.5-.3m-73.5-3.7 73.5-.3m-73.5-3.7 73.4-.3m-73.4-3.7 73.4-.3m-73.4-3.7 73.4-.3m-73.4-3.7 73.4-.3m-73.5-3.7 73.5-.3m-73.5-3.7 73.5-.3m-73.5-3.7 73.4-.3m-73.4-3.7 73.4-.3m-73.4-3.7 73.4-.3m-73.5-3.7 73.5-.3m-73.5-3.7 73.5-.3m-73.5-3.7 73.4-.3m-71.1 66.3 73.5-.3m-73.5-3.7 73.5-.3m-73.5-3.7 73.4-.3m-73.4-3.7 73.4-.3m-73.4-3.7 73.4-.3m-73.4-3.7 73.4-.3m-73.5-3.7 73.5-.3m-73.5-3.7 73.5-.3m-73.5-3.7 73.4-.3m-73.4-3.7 73.4-.3m-73.4-3.7 73.4-.3m-73.5-3.7 73.5-.3m-73.5-3.7 73.5-.3m-73.5-3.7 73.5-.3m-73.5-3.7 73.4-.3m-73.4-3.7 73.4-.3m-73.4-3.7 73.4-.3m-73.5-3.7 73.5-.3"/></g></g><g clip-path="url(#b)"><defs><path id="O" transform="matrix(1 -.00446 .00446 1 -1 -.1)" d="M-60.3 191.3h72v72h-72z"/></defs><clipPath id="P"><use xlink:href="#O" overflow="visible"/></clipPath><g clip-path="url(#P)" fill="none" stroke="#231815" stroke-width=".3" stroke-dasharray="2,2"><path d="m10.8 262.1 73.5-.3m-73.5-3.7 73.5-.3m-73.5-3.7 73.4-.3m-73.4-3.7 73.4-.3m-73.4-3.7 73.4-.3m-73.5-3.7 73.5-.3m-73.5-3.7 73.5-.3m-73.5-3.7 73.4-.3m-73.4-3.7 73.4-.3m-73.4-3.7 73.4-.3m-73.4-3.7 73.4-.3m-73.5-3.7 73.5-.3m-73.5-3.7 73.5-.3m-73.5-3.7 73.4-.3m-73.4-3.7 73.4-.3m-73.4-3.7 73.4-.3m-73.5-3.7 73.5-.3m-73.5-3.7 73.5-.3"/></g><g clip-path="url(#P)" fill="none" stroke="#231815" stroke-width=".3" stroke-dasharray="2,2"><path d="m-61.2 262.4 73.5-.3m-73.5-3.7 73.5-.3m-73.5-3.7 73.4-.3m-73.4-3.7 73.4-.3m-73.4-3.7 73.4-.3m-73.5-3.7 73.5-.3m-73.5-3.7 73.5-.3m-73.5-3.7 73.4-.3m-73.4-3.7 73.4-.3m-73.4-3.7 73.4-.3m-73.4-3.7 73.4-.3m-73.5-3.7 73.5-.3m-73.5-3.7 73.5-.3m-73.5-3.7 73.4-.3m-73.4-3.7 73.4-.3m-73.4-3.7 73.4-.3m-73.5-3.7 73.5-.3m-73.5-3.7 73.5-.3m-71.1 66.3 73.4-.3m-73.5-3.7 73.5-.3m-73.5-3.7 73.5-.3m-73.5-3.7 73.5-.3m-73.5-3.7 73.4-.3m-73.4-3.7 73.4-.3m-73.4-3.7 73.4-.3m-73.5-3.7 73.5-.3m-73.5-3.7 73.5-.3m-73.5-3.7 73.4-.3m-73.4-3.7 73.4-.3m-73.4-3.7 73.4-.3m-73.5-3.7 73.5-.3m-73.5-3.7 73.5-.3m-73.5-3.7 73.5-.3m-73.5-3.7 73.4-.3m-73.4-3.7 73.4-.3m-73.4-3.7 73.4-.3"/></g></g></g><path d="M36.9 147.6 174.8 32.8M68.1 169.3 193.7 62.6m-108.9-.7 46 54" fill="none" stroke="#231815" stroke-linecap="round" stroke-linejoin="round" stroke-miterlimit="10"/><path fill="#FFF6D2" d="M264.9 201.2s-30.6-37.5-32.3-42.8c-1.1-3.5-8.8-13.5-13.9-20-3.2-4-7-7.4-11.3-10.2a108.4 108.4 0 0 0-27.3-13.5s-7.5.8-5 8.9c0 0-20.9-18.4-22.5-19.2 0 0-8.9-4.2-13.1 4.4 0 0-2.2 5.3 2.5 9.7 0 0 5.3 5.6 6.7 7.8 0 0 9.2 9.7 12.2 10.3 0 0 5.8 10.8 13.1 15.8 0 0 12 15 11.7 17.8 0 0-1.1 3.6-7.5-4.7l-10-11.7s-13.1-13.1-16.4-15l-11.2-10.1s-7.5-9.7-9.7-11.1c0 0-8.1-9.2-16.4-6.4l-4.1 3.6s-2.6 8.3 2.7 12l27.2 28.1s21.7 22 22 24.2c0 0 2.2 2.8 1.7 5.6 0 0-1.4 3.9-7.2.6l-13.7-11-22.8-16.4s-15.3-14.5-18.6-12.5c0 0-8.1-1.9-8.6 7.2 0 0 .6 5.8 8.6 14.7 0 0 18.1 21.1 26.4 26.4 0 0 19.7 17.2 23.6 18.1l11.1 13.6-6.4 1.1s-5.8-9.5-15.3-11.1c0 0-5.8-13.9-12.8-15 0 0-4.4-3.9-10.3 1.1 0 0 1.1 10 4.2 16.1l2.8 14.2s1.9 4.4 6.7 6.1c0 0 12.2 5.6 13.9 9.7 0 0 2.5 7.8 15.8 12.5 0 0 22.6 9.7 29.5 10.8 6.5 1 29.7 12.2 32 15.7.3.4.7.6 1.2.6 8.1-.1 61.1-3.1 68-58 0 .1-22-23.8-27.2-28zm-56.2-39.1-20.3-26.2-.2-.3.2.3c1.1.8 5.5.5 5.5.5 1.4 5.9 9 10.1 9 10.1l8 13.4c.2 3.9-2.2 2.2-2.2 2.2z"/><defs><path id="Q" d="M265.6 201.5S235 164 233.3 158.7c-1.1-3.5-8.8-13.5-13.9-20-3.2-4-7-7.4-11.3-10.2a108.4 108.4 0 0 0-27.3-13.5s-7.5.8-5 8.9c0 0-20.9-18.4-22.5-19.2 0 0-8.9-4.2-13.1 4.4 0 0-2.2 5.3 2.5 9.7 0 0 5.3 5.6 6.7 7.8 0 0 9.2 9.7 12.2 10.3 0 0 5.8 10.8 13.1 15.8 0 0 12 15 11.7 17.8 0 0-1.1 3.6-7.5-4.7l-10-11.7s-13.1-13.1-16.4-15L141.3 129s-7.5-9.7-9.7-11.1c0 0-8.1-9.2-16.4-6.4l-4.1 3.6s-2.6 8.3 2.7 12l27.2 28.1s21.7 22 22 24.2c0 0 2.2 2.8 1.7 5.6 0 0-1.4 3.9-7.2.6l-13.7-11-22.8-16.4s-15.3-14.5-18.6-12.5c0 0-8.1-1.9-8.6 7.2 0 0 .6 5.8 8.6 14.7 0 0 18.1 21.1 26.4 26.4 0 0 19.7 17.2 23.6 18.1l11.1 13.6-6.4 1.1s-5.8-9.5-15.3-11.1c0 0-5.8-13.9-12.8-15 0 0-4.4-3.9-10.3 1.1 0 0 1.1 10 4.2 16.1l2.8 14.2s1.9 4.4 6.7 6.1c0 0 12.2 5.6 13.9 9.7 0 0 2.5 7.8 15.8 12.5 0 0 22.6 9.7 29.5 10.8 6.5 1 29.7 12.2 32 15.7.3.4.7.6 1.2.6 8.1-.1 61.1-3.1 68-58 0 .1-22-23.8-27.2-28zm-56.2-39.1-20.3-26.2-.2-.3.2.3c1.1.8 5.5.5 5.5.5 1.4 5.9 9 10.1 9 10.1l8 13.4c.2 3.9-2.2 2.2-2.2 2.2z"/></defs><clipPath id="R"><use xlink:href="#Q" overflow="visible"/></clipPath><g clip-path="url(#R)"><defs><path id="S" d="M115.2 98.8h216.3v149.6H115.2z"/></defs><clipPath id="T"><use xlink:href="#S" overflow="visible"/></clipPath><g clip-path="url(#T)"><defs><path id="U" d="M115.2 98.8h216.3v149.6H115.2z"/></defs><clipPath id="V"><use xlink:href="#U" overflow="visible"/></clipPath><g clip-path="url(#V)" fill="none"><path d="M115.2 98.8h216.3v149.6H115.2z"/><g stroke="#FFCE20" stroke-width=".3" stroke-linecap="square"><path d="M331.4 247.6h-72m72-1.7h-72m72-1.7h-72m72-1.7h-72m72-1.7h-72m72-1.7h-72m72-1.7h-72m72-1.7h-72m72-1.7h-72m72-1.7h-72m72-1.7h-72m72-1.7h-72m72-1.7h-72m72-1.7h-72m72-1.7h-72m72-1.7h-72m72-1.7h-72m72-1.7h-72m72-1.7h-72m72-1.7h-72m72-1.7h-72m72-1.7h-72M259.4 247.6h-72m72-1.7h-72m72-1.7h-72m72-1.7h-72m72-1.7h-72m72-1.7h-72m72-1.7h-72m72-1.7h-72m72-1.7h-72m72-1.7h-72m72-1.7h-72m72-1.7h-72m72-1.7h-72m72-1.7h-72m72-1.7h-72m72-1.7h-72m72-1.7h-72m72-1.7h-72m72-1.7h-72m72-1.7h-72m72-1.7h-72m72-1.7h-72M187.4 247.6h-72m72-1.7h-72m72-1.7h-72m72-1.7h-72m72-1.7h-72m72-1.7h-72m72-1.7h-72m72-1.7h-72m72-1.7h-72m72-1.7h-72m72-1.7h-72m72-1.7h-72m72-1.7h-72m72-1.7h-72m72-1.7h-72m72-1.7h-72m72-1.7h-72m72-1.7h-72m72-1.7h-72m72-1.7h-72m72-1.7h-72m72-1.7h-72"/></g><g stroke="#FFCE20" stroke-width=".3" stroke-linecap="square"><path d="M331.4 210.1h-72m72-1.7h-72m72-1.7h-72m72-1.7h-72m72-1.7h-72m72-1.7h-72m72-1.7h-72m72-1.7h-72m72-1.7h-72m72-1.7h-72m72-1.7h-72m72-1.7h-72m72-1.7h-72m72-1.6h-72m72-1.7h-72m72-1.7h-72m72-1.7h-72m72-1.7h-72m72-1.7h-72m72-1.7h-72m72-1.7h-72m72-1.7h-72m72-1.7h-72m72-1.7h-72m72-1.7h-72m72-1.7h-72m72-1.7h-72m72-1.7h-72m72-1.7h-72m72-1.7h-72m72-1.7h-72m72-1.7h-72m72-1.7h-72m72-1.7h-72m72-1.7h-72m72-1.7h-72m72-1.7h-72m72-1.7h-72m72-1.7h-72m72-1.7h-72m72-1.7h-72m72-1.7h-72m72-1.7h-72m72-1.7h-72M259.4 210.1h-72m72-1.7h-72m72-1.7h-72m72-1.7h-72m72-1.7h-72m72-1.7h-72m72-1.7h-72m72-1.7h-72m72-1.7h-72m72-1.7h-72m72-1.7h-72m72-1.7h-72m72-1.7h-72m72-1.6h-72m72-1.7h-72m72-1.7h-72m72-1.7h-72m72-1.7h-72m72-1.7h-72m72-1.7h-72m72-1.7h-72m72-1.7h-72m72-1.7h-72m72-1.7h-72m72-1.7h-72m72-1.7h-72m72-1.7h-72m72-1.7h-72m72-1.7h-72m72-1.7h-72m72-1.7h-72m72-1.7h-72m72-1.7h-72m72-1.7h-72m72-1.7h-72m72-1.7h-72m72-1.7h-72m72-1.7h-72m72-1.7h-72m72-1.7h-72m72-1.7h-72m72-1.7h-72m72-1.7h-72m72-1.7h-72M187.4 210.1h-72m72-1.7h-72m72-1.7h-72m72-1.7h-72m72-1.7h-72m72-1.7h-72m72-1.7h-72m72-1.7h-72m72-1.7h-72m72-1.7h-72m72-1.7h-72m72-1.7h-72m72-1.7h-72m72-1.6h-72m72-1.7h-72m72-1.7h-72m72-1.7h-72m72-1.7h-72m72-1.7h-72m72-1.7h-72m72-1.7h-72m72-1.7h-72m72-1.7h-72m72-1.7h-72m72-1.7h-72m72-1.7h-72m72-1.7h-72m72-1.7h-72m72-1.7h-72m72-1.7h-72m72-1.7h-72m72-1.7h-72m72-1.7h-72m72-1.7h-72m72-1.7h-72m72-1.7h-72m72-1.7h-72m72-1.7h-72m72-1.7h-72m72-1.7h-72m72-1.7h-72m72-1.7h-72m72-1.7h-72m72-1.7h-72"/></g><g stroke="#FFCE20" stroke-width=".3" stroke-linecap="square"><path d="M331.4 135.3h-72m72-1.7h-72m72-1.7h-72m72-1.7h-72m72-1.7h-72m72-1.7h-72m72-1.7h-72m72-1.7h-72m72-1.7h-72m72-1.7h-72m72-1.7h-72m72-1.7h-72m72-1.7h-72m72-1.6h-72m72-1.7h-72m72-1.7h-72m72-1.7h-72m72-1.7h-72m72-1.7h-72m72-1.7h-72m72-1.7h-72m72-1.7h-72M259.4 135.3h-72m72-1.7h-72m72-1.7h-72m72-1.7h-72m72-1.7h-72m72-1.7h-72m72-1.7h-72m72-1.7h-72m72-1.7h-72m72-1.7h-72m72-1.7h-72m72-1.7h-72m72-1.7h-72m72-1.6h-72m72-1.7h-72m72-1.7h-72m72-1.7h-72m72-1.7h-72m72-1.7h-72m72-1.7h-72m72-1.7h-72m72-1.7h-72M187.4 135.3h-72m72-1.7h-72m72-1.7h-72m72-1.7h-72m72-1.7h-72m72-1.7h-72m72-1.7h-72m72-1.7h-72m72-1.7h-72m72-1.7h-72m72-1.7h-72m72-1.7h-72m72-1.7h-72m72-1.6h-72m72-1.7h-72m72-1.7h-72m72-1.7h-72m72-1.7h-72m72-1.7h-72m72-1.7h-72m72-1.7h-72m72-1.7h-72"/></g></g></g></g><g clip-path="url(#R)"><defs><path id="W" d="M115.2 248.4h216.3V398H115.2z"/></defs><clipPath id="X"><use xlink:href="#W" overflow="visible"/></clipPath><g clip-path="url(#X)"><defs><path id="Y" d="M115.2 248.4h216.3V398H115.2z"/></defs><clipPath id="Z"><use xlink:href="#Y" overflow="visible"/></clipPath><g clip-path="url(#Z)" fill="none"><path d="M115.2 248.4h216.3V398H115.2z"/><g stroke="#FFCE20" stroke-width=".3" stroke-linecap="square"><path d="M331.4 300.3h-72m72-1.7h-72m72-1.7h-72m72-1.7h-72m72-1.7h-72m72-1.7h-72m72-1.7h-72m72-1.7h-72m72-1.7h-72M259.4 300.3h-72m72-1.7h-72m72-1.7h-72m72-1.7h-72m72-1.7h-72m72-1.7h-72m72-1.7h-72m72-1.7h-72m72-1.7h-72M187.4 300.3h-72m72-1.7h-72m72-1.7h-72m72-1.7h-72m72-1.7h-72m72-1.7h-72m72-1.7h-72m72-1.7h-72m72-1.7h-72"/></g><g stroke="#FFCE20" stroke-width=".3" stroke-linecap="square"><path d="M331.4 284.9h-72m72-1.7h-72m72-1.7h-72m72-1.7h-72m72-1.7h-72m72-1.7h-72m72-1.7h-72m72-1.7h-72m72-1.7h-72m72-1.7h-72m72-1.7h-72m72-1.7h-72m72-1.7h-72m72-1.6h-72m72-1.7h-72m72-1.7h-72m72-1.7h-72m72-1.7h-72m72-1.7h-72m72-1.7h-72m72-1.7h-72m72-1.7h-72M259.4 284.9h-72m72-1.7h-72m72-1.7h-72m72-1.7h-72m72-1.7h-72m72-1.7h-72m72-1.7h-72m72-1.7h-72m72-1.7h-72m72-1.7h-72m72-1.7h-72m72-1.7h-72m72-1.7h-72m72-1.6h-72m72-1.7h-72m72-1.7h-72m72-1.7h-72m72-1.7h-72m72-1.7h-72m72-1.7h-72m72-1.7h-72m72-1.7h-72M187.4 284.9h-72m72-1.7h-72m72-1.7h-72m72-1.7h-72m72-1.7h-72m72-1.7h-72m72-1.7h-72m72-1.7h-72m72-1.7h-72m72-1.7h-72m72-1.7h-72m72-1.7h-72m72-1.7h-72m72-1.6h-72m72-1.7h-72m72-1.7h-72m72-1.7h-72m72-1.7h-72m72-1.7h-72m72-1.7h-72m72-1.7h-72m72-1.7h-72"/></g></g></g></g><g clip-path="url(#R)"><defs><path id="aa" d="M-101.1 98.8h216.3v149.6h-216.3z"/></defs><clipPath id="ab"><use xlink:href="#aa" overflow="visible"/></clipPath><g clip-path="url(#ab)"><defs><path id="ac" d="M-101.1 98.8h216.3v149.6h-216.3z"/></defs><clipPath id="ad"><use xlink:href="#ac" overflow="visible"/></clipPath><g clip-path="url(#ad)" fill="none"><path d="M-101.1 98.8h216.3v149.6h-216.3z"/><g stroke="#FFCE20" stroke-width=".3" stroke-linecap="square"><path d="M115.1 247.6h-72m72-1.7h-72m72-1.7h-72m72-1.7h-72m72-1.7h-72m72-1.7h-72m72-1.7h-72m72-1.7h-72m72-1.7h-72m72-1.7h-72m72-1.7h-72m72-1.7h-72m72-1.7h-72m72-1.7h-72m72-1.7h-72m72-1.7h-72m72-1.7h-72m72-1.7h-72m72-1.7h-72m72-1.7h-72m72-1.7h-72m72-1.7h-72M43.1 247.6h-72m72-1.7h-72m72-1.7h-72m72-1.7h-72m72-1.7h-72m72-1.7h-72m72-1.7h-72m72-1.7h-72m72-1.7h-72m72-1.7h-72m72-1.7h-72m72-1.7h-72m72-1.7h-72m72-1.7h-72m72-1.7h-72m72-1.7h-72m72-1.7h-72m72-1.7h-72m72-1.7h-72m72-1.7h-72m72-1.7h-72m72-1.7h-72"/></g><g stroke="#FFCE20" stroke-width=".3" stroke-linecap="square"><path d="M115.1 210.1h-72m72-1.7h-72m72-1.7h-72m72-1.7h-72m72-1.7h-72m72-1.7h-72m72-1.7h-72m72-1.7h-72m72-1.7h-72m72-1.7h-72m72-1.7h-72m72-1.7h-72m72-1.7h-72m72-1.6h-72m72-1.7h-72m72-1.7h-72m72-1.7h-72m72-1.7h-72m72-1.7h-72m72-1.7h-72m72-1.7h-72m72-1.7h-72m72-1.7h-72m72-1.7h-72m72-1.7h-72m72-1.7h-72m72-1.7h-72m72-1.7h-72m72-1.7h-72m72-1.7h-72m72-1.7h-72m72-1.7h-72m72-1.7h-72m72-1.7h-72m72-1.7h-72m72-1.7h-72m72-1.7h-72m72-1.7h-72m72-1.7h-72m72-1.7h-72m72-1.7h-72m72-1.7h-72m72-1.7h-72m72-1.7h-72M43.1 210.1h-72m72-1.7h-72m72-1.7h-72m72-1.7h-72m72-1.7h-72m72-1.7h-72m72-1.7h-72m72-1.7h-72m72-1.7h-72m72-1.7h-72m72-1.7h-72m72-1.7h-72m72-1.7h-72m72-1.6h-72m72-1.7h-72m72-1.7h-72m72-1.7h-72m72-1.7h-72m72-1.7h-72m72-1.7h-72m72-1.7h-72m72-1.7h-72m72-1.7h-72m72-1.7h-72m72-1.7h-72m72-1.7h-72m72-1.7h-72m72-1.7h-72m72-1.7h-72m72-1.7h-72m72-1.7h-72m72-1.7h-72m72-1.7h-72m72-1.7h-72m72-1.7h-72m72-1.7h-72m72-1.7h-72m72-1.7h-72m72-1.7h-72m72-1.7h-72m72-1.7h-72m72-1.7h-72m72-1.7h-72m72-1.7h-72"/></g><g stroke="#FFCE20" stroke-width=".3" stroke-linecap="square"><path d="M115.1 135.3h-72m72-1.7h-72m72-1.7h-72m72-1.7h-72m72-1.7h-72m72-1.7h-72m72-1.7h-72m72-1.7h-72m72-1.7h-72m72-1.7h-72m72-1.7h-72m72-1.7h-72m72-1.7h-72m72-1.6h-72m72-1.7h-72m72-1.7h-72m72-1.7h-72m72-1.7h-72m72-1.7h-72m72-1.7h-72m72-1.7h-72m72-1.7h-72M43.1 135.3h-72m72-1.7h-72m72-1.7h-72m72-1.7h-72m72-1.7h-72m72-1.7h-72m72-1.7h-72m72-1.7h-72m72-1.7h-72m72-1.7h-72m72-1.7h-72m72-1.7h-72m72-1.7h-72m72-1.6h-72m72-1.7h-72m72-1.7h-72m72-1.7h-72m72-1.7h-72m72-1.7h-72m72-1.7h-72m72-1.7h-72m72-1.7h-72"/></g></g></g></g><g clip-path="url(#R)"><defs><path id="ae" d="M-101.1 248.4h216.3V398h-216.3z"/></defs><clipPath id="af"><use xlink:href="#ae" overflow="visible"/></clipPath><g clip-path="url(#af)"><defs><path id="ag" d="M-101.1 248.4h216.3V398h-216.3z"/></defs><clipPath id="ah"><use xlink:href="#ag" overflow="visible"/></clipPath><g clip-path="url(#ah)" fill="none"><path d="M-101.1 248.4h216.3V398h-216.3z"/><g stroke="#FFCE20" stroke-width=".3" stroke-linecap="square"><path d="M115.1 300.3h-72m72-1.7h-72m72-1.7h-72m72-1.7h-72m72-1.7h-72m72-1.7h-72m72-1.7h-72m72-1.7h-72m72-1.7h-72M43.1 300.3h-72m72-1.7h-72m72-1.7h-72m72-1.7h-72m72-1.7h-72m72-1.7h-72m72-1.7h-72m72-1.7h-72m72-1.7h-72"/></g><g stroke="#FFCE20" stroke-width=".3" stroke-linecap="square"><path d="M115.1 284.9h-72m72-1.7h-72m72-1.7h-72m72-1.7h-72m72-1.7h-72m72-1.7h-72m72-1.7h-72m72-1.7h-72m72-1.7h-72m72-1.7h-72m72-1.7h-72m72-1.7h-72m72-1.7h-72m72-1.6h-72m72-1.7h-72m72-1.7h-72m72-1.7h-72m72-1.7h-72m72-1.7h-72m72-1.7h-72m72-1.7h-72m72-1.7h-72M43.1 284.9h-72m72-1.7h-72m72-1.7h-72m72-1.7h-72m72-1.7h-72m72-1.7h-72m72-1.7h-72m72-1.7h-72m72-1.7h-72m72-1.7h-72m72-1.7h-72m72-1.7h-72m72-1.7h-72m72-1.6h-72m72-1.7h-72m72-1.7h-72m72-1.7h-72m72-1.7h-72m72-1.7h-72m72-1.7h-72m72-1.7h-72m72-1.7h-72"/></g></g></g></g><g clip-path="url(#R)"><defs><path id="ai" d="M115.2 98.8h216.3v149.6H115.2z"/></defs><clipPath id="aj"><use xlink:href="#ai" overflow="visible"/></clipPath><g clip-path="url(#aj)"><defs><path id="ak" d="M115.2 98.8h216.3v149.6H115.2z"/></defs><clipPath id="al"><use xlink:href="#ak" overflow="visible"/></clipPath><g clip-path="url(#al)" fill="none"><path d="M115.2 98.8h216.3v149.6H115.2z"/><g stroke="#FFCE20" stroke-width=".3" stroke-linecap="square"><path d="M331.4 247.6h-72m72-1.7h-72m72-1.7h-72m72-1.7h-72m72-1.7h-72m72-1.7h-72m72-1.7h-72m72-1.7h-72m72-1.7h-72m72-1.7h-72m72-1.7h-72m72-1.7h-72m72-1.7h-72m72-1.7h-72m72-1.7h-72m72-1.7h-72m72-1.7h-72m72-1.7h-72m72-1.7h-72m72-1.7h-72m72-1.7h-72m72-1.7h-72M259.4 247.6h-72m72-1.7h-72m72-1.7h-72m72-1.7h-72m72-1.7h-72m72-1.7h-72m72-1.7h-72m72-1.7h-72m72-1.7h-72m72-1.7h-72m72-1.7h-72m72-1.7h-72m72-1.7h-72m72-1.7h-72m72-1.7h-72m72-1.7h-72m72-1.7h-72m72-1.7h-72m72-1.7h-72m72-1.7h-72m72-1.7h-72m72-1.7h-72M187.4 247.6h-72m72-1.7h-72m72-1.7h-72m72-1.7h-72m72-1.7h-72m72-1.7h-72m72-1.7h-72m72-1.7h-72m72-1.7h-72m72-1.7h-72m72-1.7h-72m72-1.7h-72m72-1.7h-72m72-1.7h-72m72-1.7h-72m72-1.7h-72m72-1.7h-72m72-1.7h-72m72-1.7h-72m72-1.7h-72m72-1.7h-72m72-1.7h-72"/></g><g stroke="#FFCE20" stroke-width=".3" stroke-linecap="square"><path d="M331.4 210.1h-72m72-1.7h-72m72-1.7h-72m72-1.7h-72m72-1.7h-72m72-1.7h-72m72-1.7h-72m72-1.7h-72m72-1.7h-72m72-1.7h-72m72-1.7h-72m72-1.7h-72m72-1.7h-72m72-1.6h-72m72-1.7h-72m72-1.7h-72m72-1.7h-72m72-1.7h-72m72-1.7h-72m72-1.7h-72m72-1.7h-72m72-1.7h-72m72-1.7h-72m72-1.7h-72m72-1.7h-72m72-1.7h-72m72-1.7h-72m72-1.7h-72m72-1.7h-72m72-1.7h-72m72-1.7h-72m72-1.7h-72m72-1.7h-72m72-1.7h-72m72-1.7h-72m72-1.7h-72m72-1.7h-72m72-1.7h-72m72-1.7h-72m72-1.7h-72m72-1.7h-72m72-1.7h-72m72-1.7h-72m72-1.7h-72M259.4 210.1h-72m72-1.7h-72m72-1.7h-72m72-1.7h-72m72-1.7h-72m72-1.7h-72m72-1.7h-72m72-1.7h-72m72-1.7h-72m72-1.7h-72m72-1.7h-72m72-1.7h-72m72-1.7h-72m72-1.6h-72m72-1.7h-72m72-1.7h-72m72-1.7h-72m72-1.7h-72m72-1.7h-72m72-1.7h-72m72-1.7h-72m72-1.7h-72m72-1.7h-72m72-1.7h-72m72-1.7h-72m72-1.7h-72m72-1.7h-72m72-1.7h-72m72-1.7h-72m72-1.7h-72m72-1.7h-72m72-1.7h-72m72-1.7h-72m72-1.7h-72m72-1.7h-72m72-1.7h-72m72-1.7h-72m72-1.7h-72m72-1.7h-72m72-1.7h-72m72-1.7h-72m72-1.7h-72m72-1.7h-72m72-1.7h-72M187.4 210.1h-72m72-1.7h-72m72-1.7h-72m72-1.7h-72m72-1.7h-72m72-1.7h-72m72-1.7h-72m72-1.7h-72m72-1.7h-72m72-1.7h-72m72-1.7h-72m72-1.7h-72m72-1.7h-72m72-1.6h-72m72-1.7h-72m72-1.7h-72m72-1.7h-72m72-1.7h-72m72-1.7h-72m72-1.7h-72m72-1.7h-72m72-1.7h-72m72-1.7h-72m72-1.7h-72m72-1.7h-72m72-1.7h-72m72-1.7h-72m72-1.7h-72m72-1.7h-72m72-1.7h-72m72-1.7h-72m72-1.7h-72m72-1.7h-72m72-1.7h-72m72-1.7h-72m72-1.7h-72m72-1.7h-72m72-1.7h-72m72-1.7h-72m72-1.7h-72m72-1.7h-72m72-1.7h-72m72-1.7h-72m72-1.7h-72"/></g><g stroke="#FFCE20" stroke-width=".3" stroke-linecap="square"><path d="M331.4 135.3h-72m72-1.7h-72m72-1.7h-72m72-1.7h-72m72-1.7h-72m72-1.7h-72m72-1.7h-72m72-1.7h-72m72-1.7h-72m72-1.7h-72m72-1.7h-72m72-1.7h-72m72-1.7h-72m72-1.6h-72m72-1.7h-72m72-1.7h-72m72-1.7h-72m72-1.7h-72m72-1.7h-72m72-1.7h-72m72-1.7h-72m72-1.7h-72M259.4 135.3h-72m72-1.7h-72m72-1.7h-72m72-1.7h-72m72-1.7h-72m72-1.7h-72m72-1.7h-72m72-1.7h-72m72-1.7h-72m72-1.7h-72m72-1.7h-72m72-1.7h-72m72-1.7h-72m72-1.6h-72m72-1.7h-72m72-1.7h-72m72-1.7h-72m72-1.7h-72m72-1.7h-72m72-1.7h-72m72-1.7h-72m72-1.7h-72M187.4 135.3h-72m72-1.7h-72m72-1.7h-72m72-1.7h-72m72-1.7h-72m72-1.7h-72m72-1.7h-72m72-1.7h-72m72-1.7h-72m72-1.7h-72m72-1.7h-72m72-1.7h-72m72-1.7h-72m72-1.6h-72m72-1.7h-72m72-1.7h-72m72-1.7h-72m72-1.7h-72m72-1.7h-72m72-1.7h-72m72-1.7h-72m72-1.7h-72"/></g></g></g></g><path fill="none" stroke="#231815" stroke-linecap="round" stroke-linejoin="round" stroke-miterlimit="10" d="M118.2 201.6s1.1 10 4.2 16.1l2.8 14.2s1.9 4.4 6.7 6.1c0 0 12.2 5.6 13.9 9.7 0 0 2.5 7.8 15.8 12.5 0 0 22.6 9.7 29.5 10.8 5.9.9 25.1 10.4 30 14.7 1.3 1.1 3 1.7 4.8 1.6 13.4-.8 60-7.2 66.4-58 0 0-22-23.9-27.2-28.1 0 0-30.6-37.5-32.3-42.8-1.1-3.4-8.4-13-13.5-19.5a49.5 49.5 0 0 0-12.5-11.2 110.8 110.8 0 0 0-26.6-13s-7.5.8-5 8.9c0 0-20.9-18.4-22.5-19.2 0 0-8.9-4.2-13.1 4.4 0 0-2.2 5.3 2.5 9.7 0 0 5.3 5.6 6.7 7.8 0 0 9.2 9.7 12.2 10.3 0 0 5.8 10.8 13.1 15.8 0 0 12 15 11.7 17.8 0 0-1.1 3.6-7.5-4.7l-10-11.7s-13.1-13.1-16.4-15l-11.2-10.1s-7.5-9.7-9.7-11.1c0 0-8.1-9.2-16.4-6.4l-1.9 1.3a6.8 6.8 0 0 0-3 5.6c-.1 2.9.5 6.6 3.5 8.6l27.2 28.1s21.7 22 22 24.2c0 0 2.2 2.8 1.7 5.6 0 0-1.4 3.9-7.2.6l-13.6-10.8-22.8-16.4s-13.6-12.2-18.6-12.5c0 0-8.1-1.9-8.6 7.2 0 0 .6 5.8 8.6 14.7 0 0 18.1 21.1 26.4 26.4 0 0 19.7 17.2 23.6 18.1l11.1 13.6-6.4 1.1s-.8-1.3-2.2-2.9a24 24 0 0 0-13.1-8.2s-5.1-12.2-11.5-14.7l-2.1-.9c-1.5-.8-5.1-2.1-9.5 1.7z"/><path fill="none" stroke="#231815" stroke-linecap="round" stroke-linejoin="round" stroke-miterlimit="10" d="m188.4 135.9 20.3 26.2s1.8 1.9 2.2-2.2l-8-13.4s-7-3.7-9-10.1c0 0-4.1.6-5.5-.5z"/><path fill="#FFF" stroke="#231815" stroke-linecap="round" stroke-linejoin="round" stroke-miterlimit="10" d="M101.8 145.4c3.1.6 4.8 4.5 5.4 6.8a4 4 0 0 1-.5 3.2c-2.7 4-7.6 3.4-7.6 3.4-3.2-.9-5.8-7.5-5.8-7.5s.6-7.4 8.5-5.9zm18.4-34.3c6.1 1 6 11.4 6 11.4-.8 4-6.4 5.5-6.4 5.5l-10.2-9.3s.7-9.2 10.6-7.6zm32.5-6.6c2.4.8 3.3 4.7 3.6 6.7.1.9-.1 1.9-.6 2.6-1.6 2.3-4.8 3.3-6.6 3.6-.8.2-1.7 0-2.4-.6l-7.5-5.7s1.2-10.6 13.5-6.6zm37.2 13.8c.5 4-3 4.9-3 4.9-4.9 1-12.1-4.6-12.1-4.6s1.8-3.8 5.3-3.8 9.8 3.5 9.8 3.5"/><path fill="none" stroke="#231815" stroke-linecap="round" stroke-linejoin="round" stroke-miterlimit="10" d="M199.2 134s-4.4 4.4-10.8 1.9a60.2 60.2 0 0 1-13.2-12.2m-15 7.7s-.6 2.7.8 5.4"/><path fill="#FFF" stroke="#231815" stroke-linecap="round" stroke-linejoin="round" stroke-miterlimit="10" d="M122.4 217.7c.7.9 2.9-2.1 2.9-2.1 2.1-3.5-1.6-12.5-1.6-12.5-3-3-5.1.1-5.1.1s1.1 11.4 3.8 14.5z"/><path fill="none" stroke="#231815" stroke-linecap="round" stroke-linejoin="round" stroke-miterlimit="10" d="M140.6 213.9s2.6 5.5 3.4 10.2m15.7 8.7c-.9-3.9-4.3-7.6-4.3-7.6"/><path d="M60.1 112.3c.5.7.7 1.1.5 1.7s-.7 1-1.5 1.7l-1.6-1 1.1-.9c.1-.1.2-.2 0-.4l-4.7-5.6-5.3 4.5 5.9 7.1-1.3 1.1-7-8.3 8-6.7 5.9 6.8zm-5.1-2.5-4.6 3.8-.9-1.1 4.6-3.8.9 1.1zm.2 6.2.5.6-1.2 1-3.2-3.8 3.8-3.2 2.7 3.2-2.6 2.2zm-1.8-2.1.8 1 1.3-1.1-.8-1-1.3 1.1zm12.7-14-8 6.7-.9-1 1.8-1.5a.8.8 0 0 0-.4-.2l.6-.8-2 1.7-.9-1 2.8-2.4-.4-.2 1.4-1.5.7.4 2.8-2.4.9 1-1.9 1.6.9-.5.1.5 1.8-1.5.7 1.1zm.7 7.3c.3-.3.3-.4-.1-1 .4 0 1.1-.3 1.5-.5.7 1.2.6 1.7-.3 2.5l-1.3 1.1c-1.3 1.1-1.9 1-2.7 0l-.7-.8 1-.9.1-.7-2.4 2-2.4-2.9 6.1-5.1 2.4 2.9-2.6 2.2 1.1-.2-.1 1.5a6 6 0 0 0-1.7.3l.5.6c.2.3.3.2.7-.1l.9-.9zm-7-4.6.6.3 1.7-1.5-.2-.6-2.1 1.8zm1.7 3.4 3.5-2.9-.2-.3-3.5 2.9.2.3zm.4 5.8c.1-.8.1-1.8-.2-2.5l1.5-.4c.2.9.4 1.8.3 2.7l-1.6.2zm.5-4.8 3.5-2.9-.2-.3-3.5 2.9.2.3zm5.6-3.1c.8.1 1.9.4 2.5.8l-.7 1.5a11 11 0 0 0-2.4-.9l.6-1.4zM120.6 53.1c1.5 0 3.9 0 5.1.2l-.4 2c-1.1-.3-3-.4-4.5-.5l3.6 4.7-1.5 1.2-3.3-4.3c-.2 1.5-.5 2.9-1.2 4.3l-1.9-.5c1.1-2 1.4-4.5 1.2-6.5l-3.6 2.8-1.1-1.4 8.3-6.4 1.1 1.4-2.9 2.3.1 1.2.7.9.3-1.4zm15.9-5.4c.5.7.7 1.2.4 1.7-.2.5-.8 1-1.5 1.6-.3-.3-1-.8-1.5-1l1.2-.9c.2-.1.2-.2.1-.4l-4.4-5.7-5.5 4.3 5.6 7.3-1.3 1L123 47l8.1-6.3 5.4 7zm-4.9-2.7-4.7 3.6-.9-1.1 4.7-3.6.9 1.1zm-.1 6.2.5.6-1.3 1-3-3.9 3.9-3 2.5 3.3-2.6 2zm-1.6-2.2.8 1 1.4-1.1-.8-1-1.4 1.1zm13.2-13.4-8.3 6.4-.8-1.1 1.9-1.4-.4-.3.7-.7-2.1 1.6-.8-1.1 2.9-2.3-.4-.3 1.2-1.3.6.4 2.9-2.2.8 1.1-1.9 1.5.9-.5.1.5 1.8-1.4.9 1.1zm.4 7.3c.3-.2.3-.4-.1-1 .4 0 1.1-.3 1.5-.5.7 1.2.5 1.7-.4 2.5l-1.4 1.1c-1.3 1-1.9.9-2.7-.1l-.7-.9 1.1-.8.1-.7-2.5 1.9-2.3-3 6.3-4.8 2.3 3-2.7 2.1 1.1-.1-.2 1.5-1.7.2.5.7c.2.3.3.2.7-.1l1.1-1zm-6.8-4.9.6.4 1.8-1.4-.2-.6-2.2 1.6zm1.6 3.5 3.6-2.8-.2-.3-3.6 2.8.2.3zm.1 5.8a7 7 0 0 0 0-2.5l1.5-.4c.2.9.3 1.9.2 2.7l-1.7.2zm.7-4.7 3.6-2.8-.2-.3-3.6 2.8.2.3zm5.7-2.9c.8.2 1.9.5 2.4.9l-.8 1.5c-.5-.4-1.5-.8-2.4-1l.8-1.4z"/><g fill="none" stroke="#E51A05" stroke-width="2" stroke-miterlimit="10"><path d="M156.8 84.4c3.4-3.8 3.9-9.5 1-13.8l-9.7 5.4 8.7 8.4z"/><path d="M139 83.2a11.3 11.3 0 0 0 17.8 1.2l-8.7-8.4-.2.1.2-.1-7.2-6.9 7.2 6.9 9.7-5.4a11.3 11.3 0 0 0-15.7-3 11.2 11.2 0 0 0-3.1 15.6z"/></g></svg>