<svg xmlns="http://www.w3.org/2000/svg" viewBox="0 0 256.3 267.8"><g data-name="Group 10" transform="translate(-11.2 -11.6)"><path data-name="Path 1" d="M12 121.4l100-108 122 114.9-98 108.4z" fill="#fff" stroke="#000" stroke-linecap="round" stroke-linejoin="round" stroke-width="1.5"/><g data-name="Group 1"><path data-name="Path 2" d="M136 236.4a.8.8 0 01-.5-.2L11.5 121a.8.8 0 01-.1-1l100-108a.8.8 0 01.6-.3.8.8 0 01.5.2l122 114.9a.8.8 0 010 1l-98 108.5a.8.8 0 01-.5.2zm-123-116l123 114.2 96.9-107.3L112 13.5z"/></g><g data-name="Group 4"><g data-name="Group 2" fill="#ffed09"><path data-name="Path 3" d="M204 161.2s19 10.4 23.4 12.5c0 0 8.5 4 12.3 15.7s13.3 29.8 13.3 29.8 8.7 21.1 14 24c0 0-18.1 34.2-41 36 0 0-24-17.6-33.7-24.1-8.5-5.7-12-8.4-12-8.4s-15.2-11.3-15.7-20.6c-.4-7.1-.7-11.5 6.6-11.5 0 0-6-7.7-5.3-10.9l14.5-15.4s-13-10.9-6.7-21.2 20.7 3.6 20.7 3.6z"/><path data-name="Line 1" d="M194.4 170.7l21 16.3"/><path data-name="Path 4" d="M216.4 193.8s-4-8.6 4-14.8"/><path data-name="Path 5" d="M203.6 177.3s7.6-1.5 9.6-6.9"/><path data-name="Path 6" d="M174.8 165.8s-2.9 10.7 6.2 14c0 0 12 1.1 11-10.9"/><path data-name="Path 7" d="M209.4 211s-14.9-11.2-18.5-17.1c0 0-6.6-1.6-10.5-5.6"/><path data-name="Path 8" d="M170.7 198.8l5.4 9a10 10 0 007.2 4.8 8.8 8.8 0 007-2 7.2 7.2 0 002.2-8.1 8.8 8.8 0 00-.6-1.4l-4.4-8"/><path data-name="Path 9" d="M171.2 214.6s18.6 18.6 22.6 19.6c0 0 10.4 3.3 12.5-3.9 0 0 1.3-4.6-3.9-8.9l-11.4-11"/><path data-name="Path 10" d="M167.3 228s16 15.3 22.1 17c0 0 8.2 3.4 10.6-2.9 0 0 1.4-4.3-4.2-7.4"/><path data-name="Path 11" d="M188.5 240.8s-1.6-4.5 2.7-6"/><path data-name="Path 12" d="M194.9 231.5s-3.3-5.6 1.1-9.1 8.8 1.5 8.8 1.5"/><path data-name="Path 13" d="M178.6 205.3s-1.5-5.9 3-7.4a5.9 5.9 0 015.8 1.2l5.3 4.8"/><path data-name="Path 14" d="M204.5 207.5s2.1 6.7-5.4 7.4"/><path data-name="Path 15" d="M193.9 180.7s-6.2 2.2-3 13.2"/><path data-name="Path 16" d="M185.9 178.2s-1.9-6.4 6-7"/><path data-name="Path 17" d="M178.7 201.6s4 1.1 7.2-3.2"/><path data-name="Path 18" d="M194 227s5.5 0 5.6-5.4"/><path data-name="Path 19" d="M206.4 209.5s-2.6 27.3 18.8 44.2"/></g><g data-name="Group 3" stroke="#000" stroke-linecap="round" stroke-linejoin="round"><path data-name="Path 20" d="M204 160.8s19 10.4 23.4 12.5c0 0 8.5 4 12.3 15.7s13.3 29.9 13.3 29.9 8.7 21 14 23.8c0 0-18.1 34.3-41 36.2 0 0-24-17.7-33.7-24.2-8.5-5.7-12-8.4-12-8.4s-15.2-11.3-15.7-20.5c-.4-7.2-.7-11.6 6.6-11.6 0 0-6-7.7-5.3-10.9l14.5-15.4s-13-10.9-6.7-21.2 20.7 3.6 20.7 3.6z" fill="none"/><path data-name="Line 2" fill="none" d="M194.4 170.3l21 16.3"/><path data-name="Path 21" d="M216.4 193.4s-4-8.6 4-14.8" fill="none"/><path data-name="Path 22" d="M203.6 176.9s7.6-1.4 9.6-6.8" fill="none"/><path data-name="Path 23" d="M192 168.5c1 12-11 11-11 11-9-3.4-6.2-14-6.2-14s2-3.8 7.4-2.5a24.9 24.9 0 019.9 5.5z" fill="#fff"/><path data-name="Path 24" d="M209.4 210.7s-14.9-11.2-18.5-17.2c0 0-6.6-1.6-10.5-5.6" fill="none"/><path data-name="Path 25" d="M170.7 198.5l5.4 8.9a10 10 0 007.2 4.8 8.8 8.8 0 007-2 7.2 7.2 0 002.2-8.1 8.8 8.8 0 00-.6-1.4l-4.4-8" fill="none"/><path data-name="Path 26" d="M171.2 214.2s18.6 18.6 22.6 19.6c0 0 10.4 3.3 12.5-3.9 0 0 1.3-4.6-3.9-8.9L191 210" fill="none"/><path data-name="Path 27" d="M167.3 227.5s16 15.4 22.1 17c0 0 8.2 3.5 10.6-2.8 0 0 1.4-4.3-4.2-7.3" fill="none"/><path data-name="Path 28" d="M188.5 240.5s-1.6-4.6 2.7-6" fill="none"/><path data-name="Path 29" d="M194.9 231.1s-3.3-5.5 1.1-9.1 8.8 1.5 8.8 1.5" fill="none"/><path data-name="Path 30" d="M178.6 205s-1.5-6 3-7.5a5.9 5.9 0 015.8 1.2l5.3 4.8" fill="none"/><path data-name="Path 31" d="M204.5 207s2.1 6.8-5.4 7.5" fill="none"/><path data-name="Path 32" d="M193.9 180.3s-6.2 2.2-3 13.2" fill="none"/><path data-name="Path 33" d="M185.9 177.8s-1.9-6.4 6-7" fill="none"/><path data-name="Path 34" d="M178.7 201.2s4 1.1 7.2-3.2" fill="none"/><path data-name="Path 35" d="M194 226.6s5.5 0 5.6-5.3" fill="none"/><path data-name="Path 36" d="M206.4 209.1s-2.6 27.3 18.8 44.2" fill="none"/></g></g><path data-name="Line 3" fill="#fff" stroke="#000" stroke-linecap="round" stroke-linejoin="round" stroke-width="1.5" d="M36.7 144l100-107.2"/><path data-name="Line 4" fill="#fff" stroke="#000" stroke-linecap="round" stroke-linejoin="round" stroke-width="1.5" d="M63.5 168.3l99-106.7"/><path data-name="Line 5" fill="#fff" stroke="#000" stroke-linecap="round" stroke-linejoin="round" stroke-width="1.5" d="M108.4 210.7l98-107.4"/><circle data-name="Ellipse 1" cx="24.3" cy="24.3" r="24.3" transform="translate(110 113.8)"/><g data-name="Group 5" fill="#fff"><path data-name="Path 37" d="M136.4 152.6l-10-8.5-3.3 3.8-2.4-2a8.3 8.3 0 001.2-1.7 5.8 5.8 0 00.7-1.8 4 4 0 000-1.9 5 5 0 00-1-1.8l2.1-2.5 15.4 13.3z"/><path data-name="Path 38" d="M140 128a27.9 27.9 0 002 4.4 24 24 0 002.6 4 18.8 18.8 0 003 3.2l-2.9 3.3a28.2 28.2 0 01-5.2-7.3 31.3 31.3 0 01-2.8-8.6l-6.2 7.3-3-2.6 9.2-10.5 2.6 2.3a15 15 0 00.7 4.5z"/></g><g data-name="Group 7"><g data-name="Group 6"><path data-name="Path 39" d="M75.2 136.7c.7.8 1 1.2.8 2a5.2 5.2 0 01-1.5 2.1 10.1 10.1 0 00-2-.9 7.5 7.5 0 001.2-1.2c0-.1.2-.3-.1-.5l-6.3-5.8-5.5 6 8 7.4-1.4 1.5-9.4-8.6 8.3-9zm-6.3-2.1l-4.8 5.1-1.2-1.1 4.8-5.1zm1.1 7.2l.7.6-1.2 1.3-4.3-3.9 4-4.3 3.5 3.3zm-2.4-2.2l1.1 1 1.4-1.4-1.1-1z"/><path data-name="Path 40" d="M80.3 121.4l-8.3 9-1.2-1 1.9-2a.9.9 0 00-.5-.2l.5-1-2 2.3-1.2-1 2.9-3.3a.6.6 0 00-.5-.1l1.4-2a6.6 6.6 0 01.9.4l2.9-3.2 1.1 1-2 2.1 1-.7.2.6 2-2zm2 8.4c.2-.4.2-.5-.4-1.1a5.2 5.2 0 001.7-.8c1 1.2 1 1.8 0 3l-1.3 1.4c-1.4 1.5-2 1.4-3.1.4l-1-.8 1-1.2v-.9l-2.4 2.7-3.3-3 6.4-6.8 3.2 3-2.7 3a6 6 0 011.2-.5l.2 1.8a7.2 7.2 0 00-2 .6l.7.6c.3.3.4.2.8-.2zm-9-4.3l.8.3 1.8-2a1.7 1.7 0 01-.3-.7zm2.6 3.7l3.6-3.9-.3-.3-3.6 3.9zm1.3 6.7a6.1 6.1 0 00-.6-2.9l1.7-.7a9.7 9.7 0 01.7 3.1zm-.1-5.7l3.6-3.9-.3-.3-3.6 4zm6-4.4a7.8 7.8 0 013 .6l-.6 1.8a12.9 12.9 0 00-2.9-.7z"/></g></g><g data-name="Group 8"><path data-name="Path 41" d="M113.5 88.4a48 48 0 016-1V90a32.9 32.9 0 00-5.4.4l5.2 4.6-1.4 1.7-4.8-4.2a15.4 15.4 0 01-.4 5.2 15.5 15.5 0 00-2.3-.1 13.6 13.6 0 000-7.8l-3.6 4-1.6-1.3 8.1-9.2 1.6 1.3-2.8 3.3a5.8 5.8 0 01.4 1.4l1 .9z"/><path data-name="Path 42" d="M130.6 78.6c.7.7 1 1.3.9 1.9a6.3 6.3 0 01-1.4 2.2 6.6 6.6 0 00-2-.9 8.6 8.6 0 001.2-1.2c.2-.2.2-.3 0-.5l-6.3-5.6-5.4 6.2 8.1 7.1-1.3 1.5-9.5-8.5 8-9zm-6.2-2l-4.6 5.2-1.3-1 4.6-5.3zm1.2 7.2l.8.5-1.3 1.5-4.3-3.8 3.8-4.4 3.6 3.3zm-2.3-2.2l1.2 1 1.3-1.6-1.1-1z"/><path data-name="Path 43" d="M135.5 63.2l-8.1 9.2-1.2-1 1.9-2c-.1-.2-.4-.2-.5-.3l.6-1-2 2.3-1.2-1 2.8-3.4a1.6 1.6 0 00-.5-.2l1-1.8.9.3 2.8-3.1 1.2 1-1.9 2.2 1-.8.2.6 1.7-2zm2.1 8.3c.3-.3.3-.5-.3-1a5.2 5.2 0 001.6-1c1 1.2 1 1.9 0 3l-1.3 1.5c-1.3 1.5-2 1.5-3.1.5l-1-.8 1-1.2v-.8l-2.4 2.7-3.4-3 6.2-6.9 3.3 3-2.6 3a5.3 5.3 0 011.2-.4l.1 1.8a15 15 0 00-1.9.6l.8.7c.3.3.4.2.7-.3zm-9-4a2.5 2.5 0 01.9.3l1.7-2-.3-.7zm2.7 3.6l3.5-4-.3-.3-3.5 4zm1.4 6.6a8.2 8.2 0 00-.5-2.8l1.6-.8a9.9 9.9 0 01.8 3zm-.2-5.5l3.5-4-.3-.3-3.5 4zm5.9-4.6a8.8 8.8 0 013 .5l-.6 1.9a7.8 7.8 0 00-3-.6z"/></g><g data-name="Group 9" fill="none" stroke="#e51a05" stroke-miterlimit="10" stroke-width="1.9"><path data-name="Path 44" d="M101.9 61a10.8 10.8 0 001-13.3L93.4 53z"/><path data-name="Path 45" d="M84.8 59.9a10.8 10.8 0 0015 2.8 8.7 8.7 0 002-1.7l-8.3-8h-.2.2l-6.9-6.7 7 6.6 9.2-5.2a10.9 10.9 0 00-18 12.2z"/></g><path data-name="Line 6" fill="#fff" stroke="#000" stroke-linecap="round" stroke-linejoin="round" stroke-width="1.5" d="M57.7 72l51.6 47"/></g></svg>
