<svg xmlns="http://www.w3.org/2000/svg" viewBox="0 0 360 309.8"><path d="M67.6 83.9l22.3-3.8-2.1-72.2s4.8-4.4 9.6 0l6.6 70 13.9 4-.4-14.7 52.7-4.2 15.4 2.8-.1 9.5 4.8 1.1-.2 10.3 3.9-.9.2-3.7L249 72l29.9 5.3V90l5.8 2.1.2 16.8 5.4-2.1.4 5.2 5.6-3.7 8.2 2.8.4 3 5.4.2.1 8.5-9.5 4.2-41.4 21.3-5.8 3.2-5.8 3.5-23.3-8.6v2.8l-3.9 2.4-.4 4.7-14 7.8-1.9-.9-2.1 1.5-3.9-1.7-.2-2.1-5.4-2.8-.2 11s-3.9 3.2-6-.2l-7.8-3 .2 3.9-4.7 1.5-6.7-3.7.2-3 4.5-2.4 3.9 1.7-.4-5.6-9.3-3.9-32.7-12.5-26.5-9.9.7 7.3s-10.8 4.3-16.4-.4l-.7-24.1-8.6 1.9-4.7-2.4-15.9 3.9-4.1-1.9-.4-5.6 2.8-.9.4-2.1 6.5-1.5-.4-2.1 2.2-.6-1.1-19.6z" fill="none" stroke="#c81d1d" stroke-width="3" stroke-linecap="round" stroke-linejoin="round" stroke-miterlimit="10"/><path fill="#f4dc24" stroke="#070102" stroke-width="3" stroke-linecap="round" stroke-linejoin="round" stroke-miterlimit="10" d="M225.4 53.1h-24l12.1-20.8z"/><path d="M214.7 41v5l-.8 1.4h-2.4V41h3.2zm-.3 7v2.3h-2.9V48h2.9z"/><g><path d="M173.1 44.9h-1.9l1.9 1.1v2.8h-2l-1.4-1.8v1.8h-3.4v-1.7l-1.3 1.7h-2V46l1.9-1.1H163v-2.8h3.1v-.5h-2.8v-2.5h2.8v-.6h3.8v.6h2.9v2.5h-2.9v.5h3.3l-.1 2.8zM184.1 46.1v2.7h-5.3v-3h-.2l-1 3H174v-1.1l1.2-1.9H174v-2h10.1v2h-2v.7h.4l.3-.4h1.3zm-9.7-3.4h-.4V39h3v-.5h3.7v.5h3.3v3.7h-.4v.8h-9.3l.1-.8zm2.3-1.4v.3h4.4v-.3h-4.4zM195.1 45.6v3.1H185v-3.1h3.1v-3.7h-2.8v-3h9.6v3H192v3.7h3.1z"/></g></svg>