<?xml version="1.0" encoding="utf-8"?>
<!-- Generator: Adobe Illustrator 23.0.1, SVG Export Plug-In . SVG Version: 6.00 Build 0)  -->
<svg version="1.1" id="圖層_1" xmlns="http://www.w3.org/2000/svg" xmlns:xlink="http://www.w3.org/1999/xlink" x="0px" y="0px"
	 viewBox="0 0 360 309.8" style="enable-background:new 0 0 360 309.8;" xml:space="preserve">
<style type="text/css">
	.st0{fill:none;stroke:#C81D1D;stroke-width:3;stroke-linecap:round;stroke-linejoin:round;stroke-miterlimit:10;}
</style>
<g>
	<path class="st0" d="M67.6,83.9l22.3-3.8L87.8,7.9c0,0,4.8-4.4,9.6,0l6.6,70l13.9,4l-0.4-14.7l52.7-4.2l15.4,2.8l-0.1,9.5l4.8,1.1
		l-0.2,10.3l3.9-0.9l0.2-3.7L249,72l29.9,5.3V90l5.8,2.1l0.2,16.8l5.4-2.1l0.4,5.2l5.6-3.7l8.2,2.8l0.4,3l5.4,0.2l0.1,8.5l-9.5,4.2
		l-41.4,21.3l-5.8,3.2l-5.8,3.5l-23.3-8.6v2.8l-3.9,2.4l-0.4,4.7l-14,7.8l-1.9-0.9l-2.1,1.5l-3.9-1.7l-0.2-2.1l-5.4-2.8l-0.2,11
		c0,0-3.9,3.2-6-0.2l-7.8-3l0.2,3.9l-4.7,1.5l-6.7-3.7l0.2-3l4.5-2.4l3.9,1.7l-0.4-5.6l-9.3-3.9l-32.7-12.5l-26.5-9.9l0.7,7.3
		c0,0-10.8,4.3-16.4-0.4l-0.7-24.1l-8.6,1.9l-4.7-2.4l-15.9,3.9l-4.1-1.9l-0.4-5.6l2.8-0.9l0.4-2.1l6.5-1.5l-0.4-2.1l2.2-0.6
		L67.6,83.9z"/>
</g>
</svg>
