<?xml version="1.0" encoding="utf-8"?>
<!-- Generator: Adobe Illustrator 23.0.1, SVG Export Plug-In . SVG Version: 6.00 Build 0)  -->
<svg version="1.1" id="圖層_1" xmlns="http://www.w3.org/2000/svg" xmlns:xlink="http://www.w3.org/1999/xlink" x="0px" y="0px"
	 viewBox="0 0 360 640" style="enable-background:new 0 0 360 640;" xml:space="preserve">
<style type="text/css">
	.st0{fill:#FFFFFF;}
</style>
<g id="圖層_3">
	<path d="M67.7,289.7l-0.2-16.2l22.7-4l-1.9-72.6c0,0,2.5-4.3,9.6,0l5.1,70.2l1.3,0.4l13.5,4.2l-0.3-14.7l52.8-4.4l15.1,2.8v9.5
		l4.8,1.3l-0.1,9.8l3.4-0.8l0.4-3.3l55.2-10.5l29.9,5.7l-0.4,12.2l6.1,1.5l0.1,17.4l2.8-1.3l2.2,0.5l0.1,3l2.1,0.7l4-1.9l7.7,2v2.5
		l5,0.5l0.4,1.9l1.6,0.9l-0.1,3.7l-9.9,6.5l-12.5-3.3l-0.3,8.5L263.7,335l-4.6,2.6l-0.1,2l-5.4,3l-2.1-0.5l-3.6,2.4l-23.6-8.6
		l0.4,3.3l-4.4,2v4.8l-14,7.7l-1.7-0.5l-2.2,1.1l-3.7-1.7v-2.5l-6.1-2.1l0.3,11c0,0-3.1,3-6.2-0.1l-8.2-3.2l0.4,3.3l-4,1.9l-6.9-3.4
		l0.3-2.8l4.1-2.2l4,2.1l-0.3-7.4l-1.2-0.1l-8.6-3.3l-0.3,4.1l-18.5,7l0.1,4.4l5.7-2.6l2.4,1.5l2.4-1.3l15,8.5l-0.4,2.4l7.9,4.4
		l0.1,2.8l2.5-1.3l3.6,2.4v4.9l-2.8,1.6l1.1,1.3l-0.1,4.4l-10.5,5.8l-3.3-2.2l-8.2,4.4l-2.9-2.4l-6.4,3.6l-20-13.2l-0.1-4.8l1.9-1.1
		l-1.1-0.7l0.3-12.2l2.9-1.3c0,0-4.9-0.5-5.7-1.9l0.1-12.3c0,0-6,3.4-13.8-0.7l-0.1-4.1c0,0-2.8,1.2-4.5,0.8l0.1,5l-10.9,4.8
		l-13.4-8.3l-0.1-6.9l10.2-3.8l6.2,3.4l-0.1-10.3c0,0-8.5,2.8-14-0.9l-0.1-6.6l0.3-2.4l-0.4-14.8l-9,1.5l-4.2-2l-16.5,3.7l-3.8-1.7
		l-0.4-6.1l2.8-0.3l0.4-1.9l6.5-1.2l0.1-2.5l0.8-0.4L67.7,289.7z"/>
	<circle class="st0" cx="219.7" cy="287.6" r="2.4"/>
	<circle class="st0" cx="227.1" cy="289.4" r="2.4"/>
	<circle class="st0" cx="204.3" cy="331.2" r="2.4"/>
	<circle class="st0" cx="211.9" cy="331.3" r="2.4"/>
	<circle class="st0" cx="183.8" cy="341" r="2.4"/>
	<circle class="st0" cx="191.4" cy="341" r="2.4"/>
	<g>
		<circle class="st0" cx="241.6" cy="321.4" r="2.4"/>
		<circle class="st0" cx="248.8" cy="318.7" r="2.4"/>
	</g>
	<g>
		<circle class="st0" cx="164.7" cy="310.3" r="3.5"/>
		<circle class="st0" cx="175.7" cy="309.7" r="3.5"/>
	</g>
	<g>
		<circle class="st0" cx="218" cy="311.7" r="3.5"/>
		<circle class="st0" cx="229" cy="311.1" r="3.5"/>
	</g>
	<g>
		<circle class="st0" cx="129.7" cy="328.6" r="2.4"/>
		<circle class="st0" cx="137.3" cy="329.8" r="2.4"/>
	</g>
	<g>
		<circle class="st0" cx="145.2" cy="364.8" r="2.4"/>
		<circle class="st0" cx="152.7" cy="366" r="2.4"/>
	</g>
	<g>
		<circle class="st0" cx="266.7" cy="290.8" r="2.4"/>
		<circle class="st0" cx="274.1" cy="292.5" r="2.4"/>
	</g>
	<circle class="st0" cx="267.5" cy="320" r="1.7"/>
	<circle class="st0" cx="272.7" cy="318" r="1.7"/>
	<circle class="st0" cx="298.7" cy="312.3" r="1.3"/>
	<circle class="st0" cx="302.6" cy="310.8" r="1.3"/>
	<g>
		<circle class="st0" cx="249.6" cy="334.1" r="1.1"/>
		<circle class="st0" cx="253.2" cy="333.4" r="1.1"/>
	</g>
	<g>
		<circle class="st0" cx="113.6" cy="338" r="1.1"/>
		<circle class="st0" cx="117.2" cy="337.3" r="1.1"/>
	</g>
	<g>
		<circle class="st0" cx="197.7" cy="317" r="1.1"/>
		<circle class="st0" cx="201.3" cy="316.3" r="1.1"/>
	</g>
	<g>
		<circle class="st0" cx="251.1" cy="304.3" r="1.1"/>
		<circle class="st0" cx="254.7" cy="303.6" r="1.1"/>
	</g>
	<g>
		<circle class="st0" cx="163.3" cy="326.8" r="1.1"/>
		<circle class="st0" cx="166.9" cy="326.1" r="1.1"/>
	</g>
	<g>
		<circle class="st0" cx="156.3" cy="343.8" r="1.1"/>
		<circle class="st0" cx="159.8" cy="345.1" r="1.1"/>
	</g>
	<g>
		<circle class="st0" cx="143" cy="339.8" r="1.1"/>
		<circle class="st0" cx="146.6" cy="339.1" r="1.1"/>
	</g>
	<g>
		<circle class="st0" cx="168" cy="378.4" r="1.1"/>
		<circle class="st0" cx="171.6" cy="377.7" r="1.1"/>
	</g>
	<g>
		<circle class="st0" cx="149.6" cy="376.6" r="1.1"/>
		<circle class="st0" cx="152.9" cy="378.3" r="1.1"/>
	</g>
	<g>
		<circle class="st0" cx="231.2" cy="332.8" r="0.9"/>
		<circle class="st0" cx="234" cy="333.4" r="0.9"/>
	</g>
	<g>
		<circle class="st0" cx="214" cy="343.8" r="0.9"/>
		<circle class="st0" cx="216.8" cy="343.5" r="0.9"/>
	</g>
	<circle class="st0" cx="281.5" cy="307.6" r="1.7"/>
	<circle class="st0" cx="287" cy="307.8" r="1.7"/>
	<circle cx="165.4" cy="310.6" r="1.4"/>
	<circle cx="130" cy="328.7" r="1.4"/>
	<circle cx="137.8" cy="329.5" r="1.4"/>
	<circle cx="145.6" cy="364.1" r="1.4"/>
	<circle cx="152.4" cy="365.6" r="1.4"/>
	<circle cx="176" cy="310.5" r="1.4"/>
	<circle cx="217.5" cy="312.3" r="1.4"/>
	<circle cx="228.4" cy="312.6" r="1.4"/>
	<circle cx="241.9" cy="320.7" r="1.4"/>
	<circle cx="248.6" cy="318.2" r="1.4"/>
	<circle cx="212.7" cy="331" r="1.4"/>
	<circle cx="184.3" cy="341" r="1.6"/>
	<circle cx="191.8" cy="341.2" r="1.6"/>
	<circle cx="267.1" cy="290.6" r="1.6"/>
	<circle cx="274.4" cy="292.1" r="1.6"/>
	<circle cx="198.2" cy="317.3" r="0.6"/>
	<circle cx="163.1" cy="326.6" r="0.6"/>
	<circle cx="166.9" cy="325.9" r="0.6"/>
	<circle cx="159.9" cy="345" r="0.6"/>
	<circle cx="156.8" cy="344" r="0.6"/>
	<circle cx="143.1" cy="339.6" r="0.6"/>
	<circle cx="146.7" cy="338.8" r="0.6"/>
	<circle cx="113.9" cy="337.9" r="0.6"/>
	<circle cx="117.5" cy="337.5" r="0.6"/>
	<circle cx="168.1" cy="378.2" r="0.6"/>
	<circle cx="171.5" cy="377.5" r="0.6"/>
	<circle cx="152.7" cy="377.9" r="0.6"/>
	<circle cx="149.6" cy="376.3" r="0.6"/>
	<circle cx="201.5" cy="316.7" r="0.6"/>
	<circle cx="220.8" cy="287.2" r="0.8"/>
	<circle cx="228" cy="289.5" r="0.8"/>
	<circle cx="251.2" cy="304.4" r="0.6"/>
	<circle cx="254.8" cy="303.6" r="0.6"/>
	<circle cx="273.1" cy="317.3" r="0.6"/>
	<circle cx="267.5" cy="319.4" r="0.6"/>
	<circle cx="281.8" cy="307.4" r="0.6"/>
	<circle cx="286.6" cy="307.6" r="0.6"/>
	<circle cx="303.2" cy="310.8" r="0.6"/>
	<circle cx="299.3" cy="312.5" r="0.6"/>
	<circle cx="249.7" cy="333.7" r="0.6"/>
	<circle cx="253.4" cy="333.1" r="0.6"/>
	<circle cx="234.1" cy="333.3" r="0.6"/>
	<circle cx="231.4" cy="332.6" r="0.6"/>
	<circle cx="213.9" cy="343.8" r="0.6"/>
	<circle cx="216.9" cy="343.6" r="0.6"/>
	<circle cx="204.7" cy="330.8" r="1.4"/>
</g>
</svg>
