<svg width="102" height="102" fill="none" xmlns="http://www.w3.org/2000/svg"><path d="M73.2 46.1 48.7 29.9c-.4-.3-.9-.2-1.3 0l-23 17.2c-.9.7-.4 2.1.7 2.1l4.6-.1v19.7H68V48.3l4.6-.1c1.2 0 1.6-1.5.6-2.1z" fill="#fff" stroke="#040000" stroke-width="1.036" stroke-miterlimit="10" stroke-linecap="round" stroke-linejoin="round"/><path d="M49.1 63.8c6.351 0 11.5-5.149 11.5-11.5s-5.149-11.5-11.5-11.5-11.5 5.149-11.5 11.5 5.149 11.5 11.5 11.5z" fill="#FFE500" stroke="#040000" stroke-width=".837" stroke-miterlimit="10"/><path d="M49.2 52.9 42 65.3h14.3l-7.1-12.4zM56.3 40.1l-7.2 12.4h14.3l-7.1-12.4zM41.5 40.1l-7.1 12.4h14.3l-7.2-12.4z" fill="#040000" stroke="#040000" stroke-width=".837" stroke-miterlimit="10"/><path d="M49.2 61.9a9.5 9.5 0 1 0 0-19 9.5 9.5 0 0 0 0 19z" stroke="#040000" stroke-width=".837" stroke-miterlimit="10"/><path d="M49.2 65.4c7.235 0 13.1-5.865 13.1-13.1 0-7.235-5.865-13.1-13.1-13.1-7.235 0-13.1 5.865-13.1 13.1 0 7.235 5.865 13.1 13.1 13.1z" stroke="#DD3328" stroke-width="2.072" stroke-miterlimit="10"/><path d="M58.8 43.2 40.6 62.3" stroke="#DD3328" stroke-width="2.399" stroke-miterlimit="10"/></svg>