<svg width="69" height="37" viewBox="0 0 69 37" fill="none" xmlns="http://www.w3.org/2000/svg">
<path d="M46.2 36.5H4.4C2.5 36.5 1 35 1 33.1V3.9C1 2 2.5 0.5 4.4 0.5H46.2C48.1 0.5 49.6 2 49.6 3.9V33.2C49.6 35 48.1 36.5 46.2 36.5Z" fill="white" stroke="black" stroke-miterlimit="10" stroke-linecap="round" stroke-linejoin="round"/>
<path d="M1 3.89999L22.8 21.4C24.2 22.5 26.1 22.5 27.5 21.4L49.6 3.89999" fill="white"/>
<path d="M1 3.89999L22.8 21.4C24.2 22.5 26.1 22.5 27.5 21.4L49.6 3.89999" stroke="black" stroke-miterlimit="10" stroke-linecap="round" stroke-linejoin="round"/>
<path d="M17.3 17.1L1 32.3" stroke="black" stroke-miterlimit="10" stroke-linecap="round" stroke-linejoin="round"/>
<path d="M49.5 32.2L34.1 16.3" stroke="black" stroke-miterlimit="10" stroke-linecap="round" stroke-linejoin="round"/>
<path d="M52.6 13.5H68" stroke="black" stroke-miterlimit="10" stroke-linecap="round" stroke-linejoin="round"/>
<path d="M52.6 18.1H64" stroke="black" stroke-miterlimit="10" stroke-linecap="round" stroke-linejoin="round"/>
<path d="M52.6 22.7H60.5" stroke="black" stroke-miterlimit="10" stroke-linecap="round" stroke-linejoin="round"/>
<path d="M19.4 25.3V26.8H15.2V28.5H19V29.8H15.2V31.7H19.4V33.2H13.5V25.4H19.4V25.3Z" fill="black"/>
<path d="M24.1 25.3C24.6 25.3 25.1 25.4 25.5 25.5C25.9 25.7 26.3 25.9 26.6 26.2C26.9 26.5 27.2 26.9 27.4 27.4C27.6 27.9 27.7 28.4 27.7 29.1C27.7 29.7 27.6 30.2 27.5 30.7C27.4 31.2 27 31.7 26.7 32C26.4 32.3 26 32.6 25.6 32.8C25.2 33 24.6 33.1 24 33.1H20.6V25.2H24.1V25.3ZM23.9 31.7C24.1 31.7 24.4 31.7 24.6 31.6C24.8 31.5 25 31.4 25.2 31.2C25.4 31 25.5 30.8 25.6 30.5C25.7 30.2 25.8 29.8 25.8 29.4C25.8 29 25.8 28.6 25.7 28.3C25.6 28 25.5 27.7 25.3 27.5C25.1 27.3 24.9 27.1 24.6 27C24.3 26.9 23.9 26.8 23.5 26.8H22.3V31.8L23.9 31.7Z" fill="black"/>
<path d="M31.2 25.3L33 30.7L34.7 25.3H37.1V33.2H35.5V27.6L33.6 33.2H32.3L30.4 27.7V33.2H28.8V25.3H31.2V25.3Z" fill="black"/>
</svg>
