<svg width="64" height="38" viewBox="0 0 64 38" fill="none" xmlns="http://www.w3.org/2000/svg">
<path d="M1.20001 20.5L5.10001 19.6C5.10001 19.6 9.50001 26 6.70001 37.3H1.90001L1.20001 20.5Z" fill="white" stroke="#040000" stroke-miterlimit="10" stroke-linecap="round" stroke-linejoin="round"/>
<path d="M5.70001 20.3L21.1 20.4C21.1 20.4 29.9 17.6 31.9 17.8C33.9 17.9 37.1 18.3 36.7 22.4C36.3 26.5 31.9 23.2 31.5 21.2" stroke="#040000" stroke-miterlimit="10" stroke-linecap="round" stroke-linejoin="round"/>
<path d="M32.8 17.5C32.8 17.5 34.8 15.9 40 17.5" stroke="#040000" stroke-miterlimit="10" stroke-linecap="round" stroke-linejoin="round"/>
<path d="M7.20001 35.8L23 32.9C23 32.9 29.1 35 32.2 32.4" stroke="#040000" stroke-miterlimit="10" stroke-linecap="round" stroke-linejoin="round"/>
<path d="M31.7 21.9L28.4 26.4C28.4 26.4 27.5 30 31.1 29.9C31.1 29.9 33.2 28.4 33.6 27.6" stroke="#040000" stroke-miterlimit="10" stroke-linecap="round" stroke-linejoin="round"/>
<path d="M36.5 18.8C36.5 18.8 40.9 16.9 45 16.5L53.5 13.3L58 24C58 24 52.7 26.1 50.3 25.7L43.5 30.6C43.5 30.6 39.3 33.8 37.7 33.6C37.7 33.6 35 34.4 34.8 32L37.7 29.3" stroke="#040000" stroke-miterlimit="10" stroke-linecap="round" stroke-linejoin="round"/>
<path d="M31.1 29.8C31.1 29.8 31.1 33.9 34.8 32.1" stroke="#040000" stroke-miterlimit="10" stroke-linecap="round" stroke-linejoin="round"/>
<path d="M36.8 28.6L39.1 29.3" stroke="#040000" stroke-miterlimit="10" stroke-linecap="round" stroke-linejoin="round"/>
<path d="M20 25.5C20 25.5 19.7 28.9 21.7 30.4" stroke="#040000" stroke-miterlimit="10" stroke-linecap="round" stroke-linejoin="round"/>
<path d="M21.1 4.70001L26.4 10.9" stroke="#040000" stroke-miterlimit="10" stroke-linecap="round" stroke-linejoin="round"/>
<path d="M32.3 0.600006L34 9.1" stroke="#040000" stroke-miterlimit="10" stroke-linecap="round" stroke-linejoin="round"/>
<path d="M43.3 1.60001L40 9.3" stroke="#040000" stroke-miterlimit="10" stroke-linecap="round" stroke-linejoin="round"/>
<path d="M45.9 10.4L51.6 5.5" stroke="#040000" stroke-miterlimit="10" stroke-linecap="round" stroke-linejoin="round"/>
<path d="M63.2 24.5L60 26.8C60 26.8 53.5 22.6 51.8 11.1L56.2 9.30002L63.2 24.5Z" fill="white" stroke="#040000" stroke-miterlimit="10" stroke-linecap="round" stroke-linejoin="round"/>
<path d="M32.3 26.5L34.2 27.4" stroke="#040000" stroke-miterlimit="10" stroke-linecap="round" stroke-linejoin="round"/>
</svg>
