<svg width="52" height="41" viewBox="0 0 52 41" fill="none" xmlns="http://www.w3.org/2000/svg">
<path d="M50.2 17.1L25.7 0.900002C25.3 0.600002 24.8 0.700002 24.4 0.900002L1.4 18.1C0.499999 18.8 1 20.2 2.1 20.2L6.7 20.1V39.8H45V19.3L49.6 19.2C50.8 19.2 51.2 17.7 50.2 17.1Z" fill="white" stroke="#040000" stroke-width="1.036" stroke-miterlimit="10" stroke-linecap="round" stroke-linejoin="round"/>
<path d="M26.1 34.8C32.4513 34.8 37.6 29.6513 37.6 23.3C37.6 16.9487 32.4513 11.8 26.1 11.8C19.7487 11.8 14.6 16.9487 14.6 23.3C14.6 29.6513 19.7487 34.8 26.1 34.8Z" fill="#FFE500" stroke="#040000" stroke-width="0.8373" stroke-miterlimit="10"/>
<path d="M26.2 23.9L19 36.3H33.3L26.2 23.9Z" fill="#040000" stroke="#040000" stroke-width="0.8373" stroke-miterlimit="10"/>
<path d="M33.3 11.1L26.1 23.5H40.4L33.3 11.1Z" fill="#040000" stroke="#040000" stroke-width="0.8373" stroke-miterlimit="10"/>
<path d="M18.5 11.1L11.4 23.5H25.7L18.5 11.1Z" fill="#040000" stroke="#040000" stroke-width="0.8373" stroke-miterlimit="10"/>
<path d="M26.2 32.9C31.4467 32.9 35.7 28.6467 35.7 23.4C35.7 18.1533 31.4467 13.9 26.2 13.9C20.9533 13.9 16.7 18.1533 16.7 23.4C16.7 28.6467 20.9533 32.9 26.2 32.9Z" stroke="#040000" stroke-width="0.8373" stroke-miterlimit="10"/>
<path d="M26.2 36.4C33.4349 36.4 39.3 30.5349 39.3 23.3C39.3 16.0651 33.4349 10.2 26.2 10.2C18.9651 10.2 13.1 16.0651 13.1 23.3C13.1 30.5349 18.9651 36.4 26.2 36.4Z" stroke="#DD3328" stroke-width="2.072" stroke-miterlimit="10"/>
<path d="M35.8 14.2L17.6 33.3" stroke="#DD3328" stroke-width="2.3986" stroke-miterlimit="10"/>
</svg>
