<svg width="50" height="56" viewBox="0 0 50 56" fill="none" xmlns="http://www.w3.org/2000/svg">
<path d="M22.883 20.316L19.9207 52.3808L45.5128 54.7451L48.475 22.6803L22.883 20.316Z" fill="white" stroke="#040000" stroke-miterlimit="10" stroke-linecap="round" stroke-linejoin="round"/>
<path d="M38.0631 18.4917L12.435 20.3987L14.8244 52.5086L40.4524 50.6016L38.0631 18.4917Z" fill="white" stroke="#040000" stroke-miterlimit="10" stroke-linecap="round" stroke-linejoin="round"/>
<path d="M45.3 6.00001C45.3 3.60001 43.4 1.70001 41 1.70001C40.1 1.70001 39.3 2.00001 38.6 2.50001C37.9 1.30001 36.7 0.600006 35.3 0.600006C33.6 0.600006 32.2 1.70001 31.7 3.10001C31.4 3.00001 31 2.90001 30.6 2.90001C28.3 2.90001 26.4 4.80001 26.4 7.10001C26.4 9.40001 28.3 11.3 30.6 11.3C31.3 11.3 31.9 11.1 32.5 10.8C33.2 12.7 35 14.1 37.2 14.1C39.6 14.1 41.6 12.4 42.1 10.1C43.9 9.60001 45.3 8.00001 45.3 6.00001Z" fill="white" stroke="#040000" stroke-miterlimit="10" stroke-linecap="round" stroke-linejoin="round"/>
<path d="M36.5 10.3L34.2 7.90001H35.5V4.70001H37.6V7.90001H38.9L36.5 10.3Z" fill="#221714"/>
<path d="M18.9 30.5L35.4 28.2" stroke="#040000" stroke-miterlimit="10" stroke-linecap="round" stroke-linejoin="round"/>
<path d="M19.4 33.9L35.9 31.6" stroke="#040000" stroke-miterlimit="10" stroke-linecap="round" stroke-linejoin="round"/>
<path d="M19.9 37.7L36.4 35.4" stroke="#040000" stroke-miterlimit="10" stroke-linecap="round" stroke-linejoin="round"/>
<path d="M20.4 41L36.9 38.6" stroke="#040000" stroke-miterlimit="10" stroke-linecap="round" stroke-linejoin="round"/>
<path d="M20.8 44.2L37.3 41.9" stroke="#040000" stroke-miterlimit="10" stroke-linecap="round" stroke-linejoin="round"/>
<path d="M25.7815 15.8219L1.035 22.7532L9.71934 53.7586L34.4659 46.8273L25.7815 15.8219Z" fill="white" stroke="#040000" stroke-miterlimit="10" stroke-linecap="round" stroke-linejoin="round"/>
<path d="M8.10001 33.6L24.2 29.1" stroke="#040000" stroke-miterlimit="10" stroke-linecap="round" stroke-linejoin="round"/>
<path d="M9.10001 36.9L25.1 32.4" stroke="#040000" stroke-miterlimit="10" stroke-linecap="round" stroke-linejoin="round"/>
<path d="M10.1 40.6L26.1 36.1" stroke="#040000" stroke-miterlimit="10" stroke-linecap="round" stroke-linejoin="round"/>
<path d="M11 43.8L27 39.3" stroke="#040000" stroke-miterlimit="10" stroke-linecap="round" stroke-linejoin="round"/>
<path d="M11.9 46.9L27.9 42.4" stroke="#040000" stroke-miterlimit="10" stroke-linecap="round" stroke-linejoin="round"/>
<path d="M20.6 26.2C22.3673 26.2 23.8 24.7673 23.8 23C23.8 21.2327 22.3673 19.8 20.6 19.8C18.8327 19.8 17.4 21.2327 17.4 23C17.4 24.7673 18.8327 26.2 20.6 26.2Z" fill="#FFE500" stroke="#040000" stroke-miterlimit="10"/>
<path d="M20.8 19.7V23L18.4 24.4" stroke="#040000" stroke-miterlimit="10" stroke-linecap="round" stroke-linejoin="round"/>
<path d="M20.8 23H23.4" stroke="#040000" stroke-width="0.9272" stroke-miterlimit="10" stroke-linecap="round" stroke-linejoin="round"/>
</svg>
