<svg width="102" height="102" fill="none" xmlns="http://www.w3.org/2000/svg"><path d="m47.883 38.316-2.962 32.065 25.592 2.364 2.962-32.065-25.592-2.364z" fill="#fff" stroke="#040000" stroke-miterlimit="10" stroke-linecap="round" stroke-linejoin="round"/><path d="m63.063 36.492-25.628 1.907 2.39 32.11 25.627-1.907-2.389-32.11zM70.3 24c0-2.4-1.9-4.3-4.3-4.3-.9 0-1.7.3-2.4.8-.7-1.2-1.9-1.9-3.3-1.9-1.7 0-3.1 1.1-3.6 2.5-.3-.1-.7-.2-1.1-.2-2.3 0-4.2 1.9-4.2 4.2 0 2.3 1.9 4.2 4.2 4.2.7 0 1.3-.2 1.9-.5.7 1.9 2.5 3.3 4.7 3.3 2.4 0 4.4-1.7 4.9-4 1.8-.5 3.2-2.1 3.2-4.1z" fill="#fff" stroke="#040000" stroke-miterlimit="10" stroke-linecap="round" stroke-linejoin="round"/><path d="m61.5 28.3-2.3-2.4h1.3v-3.2h2.1v3.2h1.3l-2.4 2.4z" fill="#221714"/><path d="m43.9 48.5 16.5-2.3M44.4 51.9l16.5-2.3M44.9 55.7l16.5-2.3M45.4 59l16.5-2.4M45.8 62.2l16.5-2.3" stroke="#040000" stroke-miterlimit="10" stroke-linecap="round" stroke-linejoin="round"/><path d="m50.782 33.822-24.747 6.931 8.684 31.006 24.747-6.932-8.684-31.005z" fill="#fff" stroke="#040000" stroke-miterlimit="10" stroke-linecap="round" stroke-linejoin="round"/><path d="m33.1 51.6 16.1-4.5M34.1 54.9l16-4.5M35.1 58.6l16-4.5M36 61.8l16-4.5M36.9 64.9l16-4.5" stroke="#040000" stroke-miterlimit="10" stroke-linecap="round" stroke-linejoin="round"/><path d="M45.6 44.2a3.2 3.2 0 1 0 0-6.4 3.2 3.2 0 0 0 0 6.4z" fill="#FFE500" stroke="#040000" stroke-miterlimit="10"/><path d="M45.8 37.7V41l-2.4 1.4" stroke="#040000" stroke-miterlimit="10" stroke-linecap="round" stroke-linejoin="round"/><path d="M45.8 41h2.6" stroke="#040000" stroke-width=".927" stroke-miterlimit="10" stroke-linecap="round" stroke-linejoin="round"/></svg>