<svg width="45" height="41" viewBox="0 0 45 41" fill="none" xmlns="http://www.w3.org/2000/svg">
<path d="M44.3 1H18.1V18.8H44.3V1Z" fill="white" stroke="black" stroke-width="0.2805" stroke-miterlimit="10" stroke-linecap="round" stroke-linejoin="round"/>
<path d="M32.7 20H27.6L28.8 13H33.8L32.7 20Z" fill="white" stroke="black" stroke-width="0.2805" stroke-miterlimit="10" stroke-linecap="round" stroke-linejoin="round"/>
<path d="M34.2 33.9C34.2 33.9 30.9 35.1 30.2 37C29.5 38.7 29.7 39.3 29.6 39.8C29.5 40.2 43.5 39.8 43.5 39.8C43.5 39.8 43.6 37.6 42.5 36.3C41.5 35.1 39 34 39 34L34.2 33.9Z" fill="white" stroke="black" stroke-width="0.2805" stroke-miterlimit="10" stroke-linecap="round" stroke-linejoin="round"/>
<path d="M34.3 32.8L34.2 33.9C34.2 33.9 37.1 35.5 39 34V32.9L34.3 32.8Z" fill="white" stroke="black" stroke-width="0.2805" stroke-miterlimit="10" stroke-linecap="round" stroke-linejoin="round"/>
<path d="M31.1 31.5C30.9 31.2 31 30.8 31.3 30.6C31.8 30.2 32.5 29.4 32.7 28.1C33 26.1 34.7 24.7 35.8 24.7C37 24.6 38 24.5 39.4 26C39.5 26.1 39.5 26.1 39.5 26.2C39.6 26.5 40.1 27.6 40.3 28.7C40.5 29.7 41.2 30.3 41.7 30.7C42.1 31 42.1 31.5 41.8 31.8C41.4 32.2 40.8 32.6 39.9 32.7C39.8 32.7 39.6 32.8 39.5 32.8C38.9 33.2 36.4 34.7 34 32.8C33.9 32.7 33.7 32.6 33.5 32.6C33 32.7 31.6 32.7 31.1 31.5Z" fill="black"/>
<path d="M3.8 29.7C3.8 29.7 2.7 29.3 2.6 30.5C2.6 30.8 2.6 31.5 3.7 31.5" fill="white"/>
<path d="M3.8 29.7C3.8 29.7 2.7 29.3 2.6 30.5C2.6 30.8 2.6 31.5 3.7 31.5" stroke="black" stroke-width="0.2805" stroke-miterlimit="10" stroke-linecap="round" stroke-linejoin="round"/>
<path d="M10.9 30.3C10.9 30.3 12 29.9 12.1 31.1C12.1 31.4 12.1 32.1 11 32.1" fill="white"/>
<path d="M10.9 30.3C10.9 30.3 12 29.9 12.1 31.1C12.1 31.4 12.1 32.1 11 32.1" stroke="black" stroke-width="0.2805" stroke-miterlimit="10" stroke-linecap="round" stroke-linejoin="round"/>
<path d="M5.1 35.8C5.1 35.8 1.8 36.7 1.1 38.1C0.399999 39.3 0.599999 39.8 0.499999 40.2C0.399999 40.5 14.4 40.2 14.4 40.2C14.4 40.2 14.5 38.6 13.4 37.6C12.4 36.7 9.8 35.9 9.8 35.9L5.1 35.8Z" fill="white" stroke="black" stroke-width="0.2805" stroke-miterlimit="10" stroke-linecap="round" stroke-linejoin="round"/>
<path d="M5.7 34.4L5 36.2C5 36.2 7.4 37 9.9 36.2L9.2 34.5L5.7 34.4Z" fill="white" stroke="black" stroke-width="0.2805" stroke-miterlimit="10" stroke-linecap="round" stroke-linejoin="round"/>
<path d="M11.5 26.4C11.4 27 10.3 27.1 9.6 27.1C9.5 27 9.5 27 9.4 26.9C8.8 26.5 8.2 26.3 7.5 26.3C5.4 26.3 3.7 28.2 3.7 30.6C3.7 33 5.4 34.9 7.5 34.9C9.6 34.9 11.3 33 11.3 30.6C11.3 29.7 11 28.9 10.6 28.2C12 27.6 11.5 26.4 11.5 26.4Z" fill="black" stroke="black" stroke-width="0.2749" stroke-miterlimit="10" stroke-linecap="round" stroke-linejoin="round"/>
<path d="M4.8 35.3H10L10.4 36.4C10.4 36.4 8.2 37.4 4.4 36.3L4.8 35.3Z" fill="white" stroke="black" stroke-width="0.2805" stroke-miterlimit="10" stroke-linecap="round" stroke-linejoin="round"/>
<path d="M16.9 24.4L19.1 36.8L22.2 36.3L22.6 23.7C22.5 23.7 18.6 24.4 16.9 24.4Z" fill="black"/>
<path d="M22.8 9.40001L22.7 8.30001L20.8 7.60001L18.6 9.10001L17.7 11.3L18.6 12.8L18.8 13.1L18.1 14.4H20.8L21.2 13.1H21.4C21.4 13.1 22.5 13.2 22.7 12L22.3 11.5C22.6 11.6 22.9 11.4 22.9 11.4L23 10.4L23.6 9.70001L22.8 9.40001Z" fill="white" stroke="black" stroke-width="0.2805" stroke-miterlimit="10" stroke-linecap="round" stroke-linejoin="round"/>
<path d="M18.8 13.2C18.8 13.2 16.1 12.1 17 9.00001C17.9 6.00001 21.1 6.6 21.1 6.6C21.1 6.6 22.8 7.00001 23.1 8.50001C23.1 8.50001 20.5 8.60001 19.5 8.70001L20 10.7L19.4 10.8C19.4 10.8 18.8 9.8 18.3 10.6C18.3 10.6 17.9 11.9 19 11.5L18.8 13.2Z" fill="black"/>
<path d="M21.8 10.4C21.9657 10.4 22.1 10.2657 22.1 10.1C22.1 9.9343 21.9657 9.79999 21.8 9.79999C21.6343 9.79999 21.5 9.9343 21.5 10.1C21.5 10.2657 21.6343 10.4 21.8 10.4Z" fill="#231815"/>
<path d="M18.6 10.8C18.6 10.8 18.9 10.6 19.1 11.1Z" fill="white"/>
<path d="M18.6 10.8C18.6 10.8 18.9 10.6 19.1 11.1" stroke="black" stroke-width="0.2805" stroke-miterlimit="10" stroke-linecap="round" stroke-linejoin="round"/>
<path d="M17.4 14.8C17.4 14.8 16.8 15.1 16.4 18.6V24.5C16.4 24.5 19.3 25.8 22.6 24.5L22.7 19.1C22.7 19.1 22.1 16 21.8 15.5" fill="white"/>
<path d="M17.4 14.8C17.4 14.8 16.8 15.1 16.4 18.6V24.5C16.4 24.5 19.3 25.8 22.6 24.5L22.7 19.1C22.7 19.1 22.1 16 21.8 15.5" stroke="black" stroke-width="0.2805" stroke-miterlimit="10"/>
<path d="M21.2 17.1C21.2 17.1 23.7 18 24.4 18.3C24.5 18.2 26.1 17.4 27 17.1C27 17.1 27.9 15 28.3 15.6C28.4 15.7 27.9 16.2 28 16.2C28.2 16.2 28.7 15.6 29.1 15.6C29.5 15.6 29.8 15.8 29.9 16.2C30 16.6 29.8 17 29.5 17.2C29.2 17.5 28.7 17.6 28.1 17.7C28.1 17.7 27 19.3 25.2 19.7C25.2 19.7 22.3 20.3 19.3 18.7C19.4 18.7 21.2 17.1 21.2 17.1Z" fill="white" stroke="black" stroke-width="0.2805" stroke-miterlimit="10" stroke-linecap="round" stroke-linejoin="round"/>
<path d="M19.3 15.2L21.8 16.6L21.2 17.1" stroke="black" stroke-width="0.2805" stroke-miterlimit="10" stroke-linecap="round" stroke-linejoin="round"/>
<path d="M18 13.7L21.6 14.4L21.9 15.5L17.3 14.8C17.3 14.8 17.4 14 18 13.7Z" fill="white" stroke="black" stroke-width="0.2805" stroke-miterlimit="10" stroke-linecap="round" stroke-linejoin="round"/>
<path d="M25.1 27.4C25.1 27.4 26.1 28.5 25.9 30.3C25.6 32.4 24.1 33 24.1 33L24.3 35.8C24.3 35.8 21.2 36.8 20.1 34.8C20.1 34.8 21.1 33.5 21.1 33L23.2 27.3L25.1 27.4Z" fill="white" stroke="black" stroke-width="0.2805" stroke-miterlimit="10" stroke-linecap="round" stroke-linejoin="round"/>
<path d="M24.1 30.4C24.1 30.4 24.7 30.2 24.7 30.7Z" fill="white"/>
<path d="M24.1 30.4C24.1 30.4 24.7 30.2 24.7 30.7" stroke="black" stroke-width="0.2805" stroke-miterlimit="10" stroke-linecap="round" stroke-linejoin="round"/>
<path d="M16.3 40C16.3 40 16 35.4 20.1 34.8L24.3 34.9C24.3 34.9 25.9 35.3 27 36.3C28.4 37.6 28.3 40 28.3 40H16.3Z" fill="black" stroke="black" stroke-width="0.2805" stroke-miterlimit="10" stroke-linecap="round" stroke-linejoin="round"/>
<path d="M18.1 29.2C18.1 29.2 18.3 26.6 20.6 25.7C20.6 25.7 23.7 24.5 25.4 27.2L24 28.5C24 28.5 24.8 29.5 24.7 29.9C24.7 29.9 23.9 29.6 23.6 30.2C23.6 30.2 23.2 31 23.9 31.3L24.6 31.5C24.6 31.5 24.3 32.6 23.1 33.1C23.1 33.1 22.8 33.3 22.5 33.7C22.6 33.6 17.8 33.1 18.1 29.2Z" fill="white" stroke="black" stroke-width="0.2805" stroke-miterlimit="10" stroke-linecap="round" stroke-linejoin="round"/>
<path d="M15.8 32C15.8 32 16.7 31.8 17 30.9C17 30.9 17.3 30.1 17.9 29.6C18.7 29 19.9 29.9 19.3 30.8C19.3 30.8 19.3 30.8 19.3 30.9C18.6 31.9 17.8 32.2 15.8 32Z" fill="white" stroke="black" stroke-width="0.2805" stroke-miterlimit="10" stroke-linecap="round" stroke-linejoin="round"/>
<path d="M26.9 4.10001L29.8 8.80001V4.10001H31.2V11.1H29.7L26.8 6.40001V11.1H25.4V4.10001H26.9Z" fill="black"/>
<path d="M36.6 11.4C38.6435 11.4 40.3 9.74345 40.3 7.7C40.3 5.65655 38.6435 4 36.6 4C34.5565 4 32.9 5.65655 32.9 7.7C32.9 9.74345 34.5565 11.4 36.6 11.4Z" fill="#FFDD00" stroke="black" stroke-width="0.2888" stroke-miterlimit="10"/>
<path d="M36.6 7.90002L34.3 11.9H38.9L36.6 7.90002Z" fill="black" stroke="black" stroke-width="0.271" stroke-miterlimit="10"/>
<path d="M38.9 3.70001L36.6 7.80001H41.2L38.9 3.70001Z" fill="black" stroke="black" stroke-width="0.271" stroke-miterlimit="10"/>
<path d="M34.1 3.70001L31.8 7.80001H36.5L34.1 3.70001Z" fill="black" stroke="black" stroke-width="0.271" stroke-miterlimit="10"/>
<path d="M36.6 10.8C38.3121 10.8 39.7 9.41209 39.7 7.70001C39.7 5.98793 38.3121 4.60001 36.6 4.60001C34.8879 4.60001 33.5 5.98793 33.5 7.70001C33.5 9.41209 34.8879 10.8 36.6 10.8Z" stroke="black" stroke-width="0.2888" stroke-miterlimit="10"/>
</svg>
