<svg xmlns="http://www.w3.org/2000/svg" viewBox="0 0 2635.9 346.8"><path d="M2620.8 136.7c-4.8 4.2-9.6 8.2-14.3 12.5-6.4 5.7-12.7 11.6-19.4 17.7l-3.1-4.1-15.9-21.2c-1.8-2.4-3.7-3.2-6.9-3-33.9 2.8-67.7 5.8-101.6 8-25.6 1.7-51.2 2.3-76.8 3.3-15.4.6-30.9.8-46.3 1.5-3.5.1-5.2-.3-5.8-4.3-1.9-12-4.3-23.9-6.5-35.8-.2-.8 0-1.7 0-2.4h15.7c4.8 0 9.6.3 14.4 0a8 8 0 004.4-2c14-13.7 25.4-29.6 36.4-45.7a234.6 234.6 0 0028.4-52.7h.7c1.8.8 3.5 1.7 5.3 2.3l36.6 12.3 3.6 1.4c-8.3 16-17.6 31-28 45.1a281.5 281.5 0 01-35.8 39.4c14.7 1.6 121.2-2.9 129.2-6.9l-40.2-39.5 2.8-2.2c8.3-6 16.5-11.9 24.7-18 2.4-1.8 3.7-1.5 5.9.5 31.2 28.5 61 58.3 89.4 89.6.9 1 2.2 1.8 3.3 2.7v1.5h-.2zM1831.4 40.9c-9.7 1.8-18.6 3.6-27.5 4.9-9.8 1.4-19.7 2.4-29.6 3.3-2.7.3-3.5 1.2-3.5 3.8-.1 9.8-.2 9.8 9.5 9.8h57.1v11c-.1 2.4.8 3.3 3.2 3.2 4.2-.1 8.4-.2 12.5 0 2.9.1 3.8-.9 3.8-3.8l-.1-57.5v-4.9h5.4c9.4 0 18.9.1 28.4-.1 3.4-.1 4.1 1.1 4.1 4.2l-.1 57.5c0 3.5 1 4.6 4.6 4.6 16.6-.2 33.2 0 49.8-.1 3.2 0 4.4.7 4.4 4.2-.5 33.8-.6 67.5-1.4 101.3-.6 24.5-2 49.1-3.5 73.5a208 208 0 01-3.3 24.8c-1.9 10.8-9.4 16.9-19.1 20.6a89.5 89.5 0 01-36 3.9c-.8 0-2.2-1-2.3-1.7l-6.2-40.2c2.5.3 4.5.5 6.5.9 15.2 2.5 20.3-.9 21.6-16.3 1.3-17 2.1-34.1 2.4-51.1.5-25.6.4-51.3.7-77 .1-3.7-1-5.1-4.7-4.8-3.3.3-6.6.2-10 0-3-.2-3.7 1-3.8 3.9-.3 15.4-.4 30.9-1.2 46.4a444 444 0 01-15.3 99.9 191.9 191.9 0 01-17.4 42.5l-2.3 3.8c-7.3-5.3-14.2-10.5-21.3-15.4a11 11 0 00-6.3-1.8c-32 3.2-63.9 7.2-96 9.7-22 1.7-44.1 1.6-66.2 2.2-1.1 0-3-1-3.2-1.9-1.9-11-3.5-22.1-5.2-33.1l.2-1.1 4.5-.3 61.9-.9c3.2 0 4.1-1.2 3.9-4.1-.2-2.5 0-4.9 0-7.4 0-4.9 0-4.9-4.8-4.9h-47.9c-4.9 0-4.9 0-4.9-4.8V227c-.1-2.8.9-3.6 3.6-3.6l49.7.1c3.5 0 4.5-1.1 4.4-4.4-.3-9.2.8-7.6-7.6-7.7h-52.4V105.5l4.3-.2c17.2 0 34.4-.1 51.6.1 3.3 0 4.3-.9 4.2-4.2-.3-8.7.8-7.2-7.2-7.3h-60.9V63l4.2-.2h58.6c5.3 0 5.3 0 5.3-5.5v-2.6c.2-2.5-1.3-2.7-3.3-2.6a561.2 561.2 0 01-50.7 2c-1 0-2.9-1.2-3-2.2-1.9-10-3.5-20-5.3-30.7l9-.4c30.2-1.1 60.4-1.7 90.5-3.4 15.5-.9 30.9-3.7 46.3-6 3.2-.5 4.7.1 6 3.2 3.1 8.5 7 16.8 11.3 26.3m6.2 74c0-6.1-.2-11.5.1-16.9.2-3.2-.8-4.1-4.1-4.1-18.5.2-37.1 0-55.6.1-8.3 0-6.9-1.2-7.2 7.2-.1 3.2.8 4.2 4.1 4.2l53.1-.1c3.3 0 4.1 1 4.1 4.2-.1 32.8-.1 65.6 0 98.4 0 3-.8 4-3.9 4l-49.7-.1c-8.6 0-7.3-1.3-7.6 7.7-.1 3.4.9 4.4 4.4 4.4 16.6-.2 33.2-.1 49.7-.1h4.6l.2 4c0 6.9-.2 13.8.1 20.6.1 3.4-.9 4.4-4.3 4.4-16.9-.2-33.9 0-50.8-.1-2.8 0-4.1.7-3.9 3.7a41 41 0 010 7c-.2 2.8.7 3.6 3.5 3.4 18.4-1.7 36.9-3.1 55.4-4.9 1.5-.1 3.6-1.8 4.2-3.3 4.1-10.6 8.7-21.2 11.7-32.1 9.7-35.6 11.2-72.1 11.3-108.8 0-2.5-1.3-2.8-3.3-2.7l-16.1-.1m-55.6 69.3h10.6c2.4.1 3.7-.6 3.5-3.3v-8.4c.1-2.5-.9-3.2-3.2-3.2h-21.7c-2.1 0-3.2.6-3.1 2.9v9.2c0 2 .8 2.9 2.8 2.8h11.1m-63.2 0c3.8 0 7.6.2 11.4-.1.9-.1 2.4-1.6 2.5-2.5.3-3 0-6.1.2-9.2.2-2.5-1-3.2-3.3-3.1h-13.2c-11.9 0-11.8 0-11 12 .1 2.2 1 3 3.1 2.9h10.3m62.9-37.7h11.4c2.2.1 3.1-.8 3-3v-7.7c.1-2.3-.9-3-3.1-3h-15.1c-10.1 0-10.1 0-9.8 10.2v.7c-.1 2.1.8 2.8 2.8 2.8h10.8m-62.7 0h3.7c10.5 0 10.4 0 10.1-10.6-.1-2.5-1-3.2-3.3-3.1h-14.4c-10.1 0-10 0-9.8 10.2.1 2.8 1.1 3.6 3.7 3.5h10M634.4 17.6V22l.1 284.9c0 3.8-1.1 4.7-4.7 4.6-10.5-.2-21.1-.1-31.7-.1h-4.5v-12.3l-4.7-.2h-192c-4.8 0-4.8 0-4.8 4.9 0 7.6 0 7.6-7.6 7.6h-28.7c-3.3.1-4.5-.8-4.4-4.3.2-10.7.1-21.3.1-32V22.7c0-5.1 0-5.1 5.2-5.1H634.4zM495 214.1l1.5.7 12.1-14.6c1.5-1.8 1.5-3.5.7-5.7a210 210 0 01-6-17.4 264 264 0 01-9.5-62.5c-.2-3.7-1.4-4.7-5-4.6l-83.3.1c-5.3 0-5.3 0-5.3-5.1V84.4c0-5.2 0-5.2 5.1-5.2 27.5 0 55-.1 82.5.1 3.6 0 4.7-1 4.5-4.6-.3-6.3-.2-12.5 0-18.8.1-3.2-.8-4.2-4.1-4.2h-92.1c-3.2 0-4.2 1-4.2 4.2v206c0 3.1 1 4 4 4h193.8c3 0 4-.9 4-4V224c0-1.1-.2-2.1-.4-3.2-1 .8-1.1 1.5-1.3 2.2-2.9 8.2-5 16.8-9.1 24.4-7.8 14.4-21.8 17.3-35.6 8.4a60.5 60.5 0 01-19-22.1l-1.9-3.1c-8 11.1-15.6 21.9-25.7 30.9l-2.7-3.2c-6.3-7.5-12.5-15.2-18.9-22.7-.9-1-2.9-1.9-4.2-1.7-18.5 3.9-36.9 8.1-55.4 12-5.8 1.2-11.7 1.9-18 2.8a5205 5205 0 01-4.6-33.1c33.6-1.9 65.9-7.3 98-17.6v16.1h.1zm39-54.7l1.6.2a253.7 253.7 0 0016.2-45.3l30.1 11-.7 2.4a365.2 365.2 0 01-29.9 69.5c-.6 1.1-1.5 2.8-1.1 3.7 2.6 5.1 5.3 10.2 8.4 15.1 1.6 2.5 3.6 2 5.1-.7 1-1.8 1.8-3.8 2.3-5.8l5-20.2 22.4 13.5c.2-1.8.4-2.7.4-3.7l.1-143.6c0-3-1.1-3.8-3.9-3.7l-24.7.1c-1 0-1.9.2-4 .5l22 15.3-12.7 10.5.3 1h12.7c2.2-.1 3.1.7 3 3v27.9h-4.8c-16.5 0-32.9.1-49.4 0-2.9 0-4 .9-3.7 3.8.5 4.4.5 8.8 1 13.2l4.3 32.3m21.7-80.2l.5-1.5-19.8-15.4 10.8-9.5-.5-1h-15.3c-2.7-.1-3.4 1-3.3 3.5.1 6.8.2 13.5 0 20.2-.1 3 1.2 3.8 3.9 3.7h23.7zM827.2 226.4c-.7 20.9-1.2 41.2-6 61a43 43 0 01-2.7 7.6c-2.6 6-7 10.3-13.6 11.2-9.7 1.3-19.5 2.3-29.2 2.9-7.6.5-15.2 0-22.8 0-2.5 0-3.7-.6-4.1-3.4-1.5-9.3-3.3-18.6-5-27.9l-.1-2.6 7.7.6c7.1.4 14.2 1 21.3 1.1 11.4.2 16.9-4.6 18.9-15.8 1.5-8.4 1.5-8.4-6.8-8.4h-42.4l-4.8-.2 2.7-22.6c1.7-13.8 3.4-27.5 4.9-41.3.3-3.2 1.3-4.4 4.7-4.3 14.2.2 28.5 0 42.7.1 3 0 4.3-.8 4-3.9-.2-3.4-.2-6.9 0-10.3.1-2.6-.9-3.4-3.4-3.4l-23.2.1h-4.2l-.6-7.5-14.3 5.4c-7.2 2.8-7.2 2.8-10.2-4.4-2.1-4.9-4.2-9.9-6.8-14.7-.9 28.4-3 56.5-8.1 84.3s-10.2 55.7-22.7 82.1L683 293.6c-4.5-4.2-9-8.3-13.4-12.6-.8-.8-1.4-2.7-1-3.5a192.4 192.4 0 0018.5-61c3.9-24 5.7-48.3 5.8-72.6.2-37.5.3-74.9.3-112.4 0-3.7 1.2-4.4 4.6-4.4H813l.8-1-8.3-14.1 15.4-1 23.9-1.4c2.2-.2 3.8.4 4.8 2.5 1.8 3.8 4 7.4 5.4 11.2 1.1 3.1 2.9 3.9 6 3.9l106.9-.1h5.3v28.3c0 2.2-.8 3.2-3 3h-233c-2.8-.3-3.8.8-3.8 3.7.2 11.2.1 22.3.1 33.5 0 10.8.1 21.6-.1 32.4-.1 3.3.9 4.6 4.2 3.8l22.3-5.7.5-1.7-18.4-18.9 18.3-8.6-.1-1-3.7-.2c-3.9-.2-9 .9-11.2-1.1-2-1.8-.7-7.1-.7-10.9-.1-3.6.2-7.2-.1-10.7s.8-4.6 4.4-4.6c19.1.2 38.1.1 57.1.1 15.4 0 30.7.1 46.1-.1 2.8 0 4.8.9 6.9 2.7 5.1 4.4 10.4 8.6 15.6 12.9 1.9 1.6 3.5 1.5 4.9-.5l12.8-18.8c.7-1 1.1-2.1 1.9-3.7l7.6 4.5c5.2 3.1 10.3 6.2 15.6 9.1 2.5 1.4 2.8 2.8 1.1 4.9l-14.6 18.9-2.8 3c3.9 2.3 7.4 4.5 11.1 6.4.8.4 2.8-.5 3.5-1.4l19.7-25 26.4 15.2-20 24.8c10.6 5.1 22 7.7 33.7 10.1l-.4 2.1-10.9 29.3c-.8 2.2-2 2.9-4.2 2l-26-10.1-4.4-1.9c.3 4.8.1 8.8.7 12.8 1 5.5 4.5 8 10.7 8.1 6.6.2 13.3.1 20.5.1V192c-.1 7 1 6.3-6.6 6.4-2.6.1-5.3 0-8.2.4 23 18 34.6 41.1 32 70.2a72 72 0 01-26.5 50.1 73 73 0 01-95.7-1.1 72.6 72.6 0 01-22.5-35.2 72.7 72.7 0 01-.2-42.1 76.3 76.3 0 0122.7-35.8c-1.7-.3-2.5-.6-3.2-.5-5.8 1.1-9.7-1.6-13.3-5.8-2.7-3.1-5.9-5.8-9.7-9.4-.2 4.4-.6 8-.7 11.7-.2 9.5-.2 9.5-9.7 9.5-14.1 0-28.3.1-42.4-.1-2.9 0-4.3.7-4.4 3.8-.1 2.8-.4 5.7-.9 8.4-.6 3.2.7 4 3.8 4l46.4-.1h4.8zm15.8 35a62 62 0 10123.8.1 62 62 0 10-123.8-.1M829.4 186c8.9-4.3 13.4-11 16-19.3a86.5 86.5 0 002.7-27.7l.1-3.3h46.2l-44.7-33a131.6 131.6 0 01-43.5 37.3c6.4.5 12.5.7 18.7.4 3.5-.2 4.3 1.1 4.3 4.4-.2 12.2-.1 24.3-.1 36.5l.3 4.7m70.1-.4c-.3-6.4-.8-13.1-1-19.8-.1-2.5-.8-3.5-3.4-3.5-4.4.1-8.8.2-13.2 0-2.7-.1-3.6.9-3.6 3.6-.1 9-2.5 17.4-6.7 25.3l-1.4 2.8 29.3-8.4M771.4 96.1c5.1 6 9.8 11.7 14.7 17.2.5.6 2.3.5 3.2.1 5.3-2.9 10.5-5.8 15.5-9.1 3.2-2.1 6-4.8 9-7.3l-.4-.8-42-.1zM301.8 262l-.1 36.3c0 .8-1.3 1.7-2.2 2.1-.8.4-1.9.1-2.9.1H28.7c-5.3 0-5.3 0-5.3-5.1 0-9.8.1-19.7-.1-29.5-.1-3.3 1-4.1 4.2-4.1l106.1.1c5.3 0 5.4 0 5.4-5.5 0-10.3-.1-20.6.1-31 .1-3.5-1-4.7-4.6-4.6-23.6.1-47.2 0-70.7.2-3.8 0-4.8-1.1-4.7-4.8.3-9.2.2-18.4 0-27.6-.1-3.2.8-4.2 4.1-4.2 23.7.1 47.4 0 71.1.2 3.8 0 4.9-1.1 4.8-4.8-.3-8.7-.2-17.5 0-26.2.1-3.2-1-4.2-4.2-4.2H62.3c-6.4 0-5.4.2-5.5-5.6v-11.1l-3.7 1.8-22.2 11.6c-1.9 1-3.3 1.2-4.2-1.4l-16.2-42A245.5 245.5 0 00110 53.8l-3.7-.2H62.8c-2.9 0-3.8-.8-3.8-3.7V20.4c0-2.8.6-3.9 3.7-3.9l112 .1a8 8 0 014.8 2 360.1 360.1 0 00132 81.8l2.4.9 1 .8-17.1 44.2-27.6-15.2v18l-5.1.3h-74.8c-4.9 0-4.9 0-4.9 4.7 0 8.7.1 17.4-.1 26.2-.1 3.3 1.1 4.2 4.2 4.1l73-.1c3.6 0 4.9.7 4.8 4.6-.3 9.3-.2 18.7 0 28 .1 3.1-1 3.9-4 3.9-24.3-.1-48.6 0-73 0-4.9 0-4.9 0-4.9 4.8 0 10.6.1 21.1-.1 31.7-.1 3.6 1.1 4.6 4.6 4.5h111.9v.2zM163.4 53.9A246.6 246.6 0 0194.1 111h141.8a371.5 371.5 0 01-72.5-57.1M1186.4 39.3l-13.3-25.1 21.4-1.9c6.1-.5 12.3-.8 18.4-1.4 2.4-.3 3.9.4 5 2.6 3.9 7.9 8 15.7 11.7 23.7 1.1 2.4 2.3 3.3 4.9 3.2l62.7-.1c3.1 0 4.3.7 4.2 4-.2 9.4-.2 18.9 0 28.4.1 3.4-1.1 4-4.2 4l-80.7-.1c-3 0-4.6.9-5.9 3.6a187.5 187.5 0 01-29.4 44.8c-.5.5-.7 1.2-1.3 2.2h14.5c4.4-.1 8.8-.7 13.2-.7 2.8 0 4.5-1.1 6.2-3.2a159.3 159.3 0 0022.9-36.2l34.6 16-3.4 6.7a335.5 335.5 0 01-62.3 82.6 276.3 276.3 0 01-71.7 49.9c-.9.4-2.9.4-3.4-.3-8.2-10.2-16.3-20.6-24.8-31.4 28.7-11.9 54.4-28 78.9-48.1l-2.7-.4-49.7 1.7c-2.7.1-4.2.9-5.5 3.2-5.5 9.6-11.3 19-16.9 28.5l-1.7 2.7-20-27.3-1 .3-.2 4.1.1 131.6c0 3.5-.8 4.6-4.4 4.5-10.6-.2-21.1-.2-31.7 0-3.4 0-4.1-1.1-4.1-4.2l.1-120.9V183l-.9-.2c-7.4 20-18.1 38-31.4 55.6l-4.1-13.3-10.1-33.5c-.6-2.1-.3-3.5 1.2-5.3 18.9-23 33.5-48.4 43-76.6.5-1.5.7-3 1.2-5.1l-4.7-.2h-35.4c-2.9 0-3.8-.8-3.8-3.7.2-10.1.1-20.1 0-30.2 0-2.7.7-3.6 3.5-3.6l37.6.1c3.1 0 4-1.1 3.9-4V11.3a20 20 0 013.2-.3c11.1 0 22.1.1 33.2-.1 3 0 3.7 1 3.7 3.8-.1 16 .1 31.9-.1 47.9-.1 3.6 1.1 4.6 4.6 4.5 8-.3 16-.2 24 0 3.5.1 4.8-.8 4.6-4.5-.3-5.9.1-11.8-.2-17.7-.2-3.7 1.2-4.5 4.6-4.4l57.1.1h4c.1-.5.4-.9.8-1.3m-17 38.2c-1.1-.4-1.4-.6-1.8-.6l-42-.1c-2.5 0-2.8 1.3-2.8 3.3.1 6.8-.2 13.5.1 20.3.1 3.3-1.1 4.1-4.2 4.1-9.4-.2-18.9 0-28.3-.1-2.7-.1-3.7.8-3.6 3.6.2 4.8.2 9.6 0 14.4-.1 2.5.9 4 2.7 5.6l25.9 22.3 6.4 5.8.8-.4-3.7-29c4.7 0 9 .2 13.2-.1 1.5-.1 3.3-.8 4.4-1.9a179 179 0 0026.7-35.6c2.1-3.7 4-7.5 6.2-11.6M2277.1 24.4v39.2l-4.7.2h-102.8c-5 0-5 0-5 5.1 0 30.9.1 61.9-.1 92.8 0 3.8 1 4.7 4.7 4.7 37.3-.2 74.7-.1 112-.1h5.1l.2 3.9c0 10.5-.2 21.1.1 31.7.1 3.6-1.1 4.3-4.4 4.3l-112.7-.1c-5.3 0-5.3 0-5.3 5.2 0 31.8-.1 63.6.1 95.4 0 3.6-.8 4.9-4.6 4.8-12.5-.2-25.1-.2-37.6 0-3.1.1-3.9-1-3.9-4l.1-96.2c0-3.7-1-4.7-4.8-4.7-38.4.1-76.9 0-115.3.2-3.6 0-4.9-.7-4.8-4.6.3-10.6.1-21.1.1-31.7l.2-4.1h4.9l114.6.1c3.6 0 4.8-.8 4.8-4.7-.2-31.1-.1-62.1-.1-93.2 0-4.7 0-4.7-5-4.7H2002.8l-.2-3.9V28.3c0-2.9.6-4.1 3.8-4l267.2.1c1.1-.2 2.2-.1 3.5 0M2469 172.4h115.3c4.8 0 4.8 0 4.8 4.9v129.3c0 4.9 0 4.9-4.8 4.9-11.3 0-22.6-.2-33.9.1-3.9.1-5-1.2-4.6-4.8.3-2.9 0-5.9.1-8.9.1-2-.8-2.9-2.8-2.8h-145.6c-5.2 0-5.2 0-5.2 5.2v8.1c.1 2.5-1 3.1-3.3 3.1h-36.9c-2.5 0-3.1-1-3.1-3.3v-24.3-106.5c0-5.1 0-5.1 5-5.1l115 .1m.3 37.9c-24.3 0-48.6.1-73-.1-3.3 0-4.2 1-4.2 4.2.2 12.9.1 25.8 0 38.7 0 3 .9 4 4 4h145.5c3.3 0 4.2-1 4.2-4.2a1596 1596 0 010-37.9c.1-3.8-1-4.8-4.8-4.8-23.8.2-47.7.1-71.7.1M1489.6 266.5h25.6c4.3 0 8.6.3 12.9.2 6.2-.2 9.6-3.7 9.6-9.8l.1-106.9c0-3.6-1.9-3.6-4.4-3.6-24 0-47.9-.1-71.9.1-3.8 0-4.8-1.1-4.7-4.8.2-10.2.2-20.4 0-30.6 0-3.1.6-4.3 4-4.3h167.7c2.7 0 3.9.6 3.9 3.7-.2 10.7-.2 21.4 0 32.1.1 3.2-1.2 3.9-4.1 3.9l-42.4-.1c-5.5 0-5.5 0-5.5 5.7 0 37.4.1 74.9-.1 112.4 0 6.9-.5 14.1-2.3 20.7-3.8 14.5-15 20.4-28.8 21.6-9.4.8-18.9.5-28.3.6-7.1.1-14.3.1-21.4-.1-1.1 0-3-1.1-3.1-2-2.4-12.8-4.6-25.9-6.8-38.8"/><path d="M1097.4 274.7c73.8-25 134-66.5 172.2-136.5l31.6 18.8a343 343 0 01-24.6 39.4c-9.1 12.3-18.9 24.1-28.1 36l54.9 43.6-29.2 34.7c-5.5-5.9-10.5-11.8-16-17.2-11.9-11.8-24-23.3-35.9-35-2.4-2.3-3.9-2.2-6.4-.2a332.4 332.4 0 01-90.4 52.5c-2.9 1.1-4.3.7-5.9-1.9-7.3-11.5-14.8-22.9-22.2-34.2M1422.5 96.1l31.4 23.3c-3.8 6.4-7.2 12.9-11.3 18.9a432.7 432.7 0 01-18.1 24.1 11.4 11.4 0 00-2.7 7.6v138.5c.1 2.3-.9 3-3.1 3h-34.3c-2.8 0-3.2-1.2-3.2-3.6v-35-67.6l-30.8 28.6-6.2-12.7c-4.4-9-8.7-18.1-13.2-27.1-1.4-2.7-1.1-4.1 1.6-5.8a267 267 0 0068.2-61.1c6.9-8.9 13-18.5 19.4-27.8.9-1 1.5-2 2.3-3.3M1544.4 25.9c22.6 0 45.2.1 67.8-.1 3.6 0 4.9.7 4.8 4.6-.3 9.8-.2 19.6 0 29.4.1 3.5-.8 4.6-4.5 4.6h-136.6c-3.1 0-4.3-.7-4.2-4 .2-10.2.2-20.4 0-30.6-.1-3.4 1.1-4.1 4.2-4.1 22.8.3 45.6.2 68.5.2M1359.3 126.4l-25.6-38.2c31-19.4 56.7-44.2 77.4-74.7l32 23.2c-22.4 35.1-48.8 66-83.8 89.7M2183 136.8c21.4-20 37.2-43.5 50.7-69.2l35.8 20.6a356.5 356.5 0 01-50.1 76.1l-36.4-27.5M2097.3 139.9l-39.3 21.2a490 490 0 00-39.8-75.5l14.6-7c6.3-3 12.7-5.9 18.9-9.1 2.4-1.2 3.6-.7 5.1 1.3 13.9 19.5 26 40.2 36.9 61.5l3.6 7.6M407 195.1v-72.3l3.9-.3c22.9 0 45.9.1 68.8-.1 3.3 0 4.1 1.1 4.1 4.2v64.8c0 2.6-.2 4.1-3.5 4l-70.3-.1c-.9.2-1.8 0-3-.2m28.6-36.1v9.6c0 1.9.7 2.9 2.8 2.9h14c2 0 2.9-.8 2.9-2.8 0-6.5.1-13-.1-19.5 0-.9-1.6-2.5-2.5-2.5-4.8-.3-9.6-.1-14.3-.1-2.1 0-2.8 1-2.7 2.9l-.1 9.5M889.4 265.7h-37.7c-2.7 0-2.3-2.1-2.3-3.7a55.5 55.5 0 0124-46.8c5.8-4.2 5.9-4.1 9.3 2.3 4.6 8.9 9.3 17.8 13.8 26.8.5 1.1.8 3.1.2 3.8-6.7 8.2-6.7 8.2-7.3 17.6M921.7 265.7h37.7c2.7 0 2.3-2.1 2.3-3.7a55.5 55.5 0 00-24-46.8c-5.8-4.2-5.9-4.1-9.2 2.3-4.6 8.9-9.3 17.8-13.8 26.8-.5 1.1-.8 3.1-.2 3.8 6.6 8.2 6.7 8.2 7.2 17.6M894 275.3l-17.5 32.8c-1.2 2.3.8 2.9 2.1 3.7a54 54 0 0051.3.8c6.3-3.1 6.3-3.2 2.2-9-5.5-8.1-11-16.2-16.7-24.2-.7-1-2.3-2.2-3.2-2-6.6 2-11 1.8-18.4-1.8M905.4 273.9c-6.7 0-11.7-5.2-11.8-11.9 0-6.5 5.4-12.1 11.8-12.1 6.4-.1 11.9 5.4 12 11.9.1 6.9-5.2 12.1-12 12.1"/></svg>
