<svg width="49" height="56" viewBox="0 0 49 56" fill="none" xmlns="http://www.w3.org/2000/svg">
<path d="M22.6909 20.7002L19.7267 52.7849L45.3287 55.1502L48.2929 23.0655L22.6909 20.7002Z" fill="white" stroke="#040000" stroke-miterlimit="10" stroke-linecap="round" stroke-linejoin="round"/>
<path d="M37.9259 18.9186L12.2879 20.8263L14.6787 52.9561L40.3167 51.0484L37.9259 18.9186Z" fill="white" stroke="#040000" stroke-miterlimit="10" stroke-linecap="round" stroke-linejoin="round"/>
<path d="M45.11 6.34C45.11 3.96 43.18 2.04 40.81 2.04C39.91 2.04 39.08 2.32 38.39 2.79C37.73 1.63 36.5 0.85 35.08 0.85C33.42 0.85 32.02 1.92 31.49 3.4C31.15 3.31 30.79 3.24 30.42 3.24C28.11 3.24 26.24 5.11 26.24 7.42C26.24 9.73 28.11 11.6 30.42 11.6C31.09 11.6 31.72 11.43 32.29 11.14C32.99 13.07 34.82 14.47 36.99 14.47C39.4 14.47 41.42 12.76 41.9 10.49C43.74 10.01 45.11 8.34 45.11 6.34Z" fill="white" stroke="#040000" stroke-miterlimit="10" stroke-linecap="round" stroke-linejoin="round"/>
<path d="M36.36 10.65L34.02 8.29H35.32L35.31 5.12H37.39L37.4 8.29H38.71L36.36 10.65Z" fill="#221714"/>
<path d="M18.71 30.88L35.2 28.54" stroke="#040000" stroke-miterlimit="10" stroke-linecap="round" stroke-linejoin="round"/>
<path d="M19.2 34.32L35.69 31.97" stroke="#040000" stroke-miterlimit="10" stroke-linecap="round" stroke-linejoin="round"/>
<path d="M19.74 38.09L36.23 35.75" stroke="#040000" stroke-miterlimit="10" stroke-linecap="round" stroke-linejoin="round"/>
<path d="M20.2 41.36L36.69 39.02" stroke="#040000" stroke-miterlimit="10" stroke-linecap="round" stroke-linejoin="round"/>
<path d="M20.67 44.62L37.15 42.28" stroke="#040000" stroke-miterlimit="10" stroke-linecap="round" stroke-linejoin="round"/>
<path d="M25.5767 16.1878L0.820587 23.1218L9.51032 54.1464L34.2665 47.2124L25.5767 16.1878Z" fill="white" stroke="#040000" stroke-miterlimit="10" stroke-linecap="round" stroke-linejoin="round"/>
<path d="M7.97 33.96L24 29.47" stroke="#040000" stroke-miterlimit="10" stroke-linecap="round" stroke-linejoin="round"/>
<path d="M8.90001 37.3L24.94 32.81" stroke="#040000" stroke-miterlimit="10" stroke-linecap="round" stroke-linejoin="round"/>
<path d="M9.93001 40.98L25.97 36.49" stroke="#040000" stroke-miterlimit="10" stroke-linecap="round" stroke-linejoin="round"/>
<path d="M10.82 44.15L26.86 39.66" stroke="#040000" stroke-miterlimit="10" stroke-linecap="round" stroke-linejoin="round"/>
<path d="M11.71 47.32L27.75 42.83" stroke="#040000" stroke-miterlimit="10" stroke-linecap="round" stroke-linejoin="round"/>
<path d="M20.4 26.57C22.1728 26.57 23.61 25.1328 23.61 23.36C23.61 21.5872 22.1728 20.15 20.4 20.15C18.6272 20.15 17.19 21.5872 17.19 23.36C17.19 25.1328 18.6272 26.57 20.4 26.57Z" fill="#FFE500" stroke="#040000" stroke-miterlimit="10"/>
<path d="M20.59 20.13V23.34L18.25 24.82" stroke="#040000" stroke-miterlimit="10" stroke-linecap="round" stroke-linejoin="round"/>
<path d="M20.61 23.35H23.26" stroke="#040000" stroke-width="0.9272" stroke-miterlimit="10" stroke-linecap="round" stroke-linejoin="round"/>
</svg>
