<?xml version="1.0" encoding="utf-8"?>
<!-- Generator: Adobe Illustrator 23.0.1, SVG Export Plug-In . SVG Version: 6.00 Build 0)  -->
<svg version="1.1" id="圖層_1" xmlns="http://www.w3.org/2000/svg" xmlns:xlink="http://www.w3.org/1999/xlink" x="0px" y="0px"
	 viewBox="0 0 271.19 194.48" style="enable-background:new 0 0 271.19 194.48;" xml:space="preserve">
<style type="text/css">
	.st0{fill:#FFE500;}
</style>
<g>
	<path class="st0" d="M78.66,61.01v34.73H63.73v-21h-3.36v-8.16L66.36,61L78.66,61.01L78.66,61.01z"/>
	<path class="st0" d="M111.33,72.61L100.3,96.06H86.36v-1.64l9.8-20.58v-0.82H82.88V60.97h28.46L111.33,72.61L111.33,72.61z"/>
	<path class="st0" d="M128.96,95.78V85.53h14.64v-2.21h-10.46L129,79.71V66.46l4.96-4.92h22.18v9.59h-14.55v2.21h11.32l4.14,3.61
		v13.9l-4.96,4.92L128.96,95.78L128.96,95.78z"/>
	<path class="st0" d="M189.27,66.58V95.7h-12.3v-6.48h-4.35v6.48h-12.26V66.58l3.61-5h21.69L189.27,66.58z M176.97,78.72v-6.36
		h-4.35v6.36H176.97z"/>
	<path class="st0" d="M221.74,84.71l-7.09,6.27v4.8h-14.96v-4.8l-7.13-6.27v-23h12.71v17.96h3.77V61.71h12.71v23H221.74z"/>
	<path class="st0" d="M90.92,110.99v33.91h-10.5l-7.05-11.64h-0.86v11.6H60.37v-33.87h10.87l6.85,11.56h0.9v-11.56
		C78.99,110.99,90.92,110.99,90.92,110.99z"/>
	<path class="st0" d="M120.48,110.66l5.04,5.49v23.49l-5.04,5.41h-21.2l-5.04-5.41v-23.53l5.04-5.45H120.48z M112.61,134.6v-13.24
		h-5.45v13.24H112.61z"/>
	<path class="st0" d="M139.83,134.28v10.74h-10.74v-10.74H139.83z"/>
</g>
</svg>
