<svg xmlns="http://www.w3.org/2000/svg" viewBox="0 0 330.2 294.8"><g fill="#FFE500"><path d="m35.8 74.2 8.7.2 5 2.9 3.3-2 3 2.3 6.9-3.1 9.7 8.3 9.9-10.2 10.7-.4 4.4 3.3 7.4-1.4 3.7 2.4 10.3-4.7 8.8 7.6 41-11.6 7.2 3.5 18.5-8.8 6.7 3.7h5.9l1.6-4.2 8.1-2 2.7 4.9 7.6-.8 8.8 8.1 6.9-6.1 4.3-1.2h38.4l41.3 224.5-145.7-28.9L35.3 118.8l-6.9-9.5-5.8-1.9 1.5-6 4.7-1.4-4.3-2.1 1.4-5.6 8.2-2.2-6.4-2.6-.1-4.7z"/><path d="M58.4 25 36.9 12.9l-9.9.7-4.8.3-8.9 1.8-9.8 13.8V36l7.2 3.8L2.5 53l48.1 40.8 77.6 27.2 47.9 5.4 19.6-63.7-28.8-50.1-5.3.3-6.5 18.5-11.4-12.7-5-5.9-21.6 2.7-3.3 8.6-6.2-4.9-10.2 1.2-9.7-7.6L78 8.6l-14.9 10 6.7 5.2-5.9 1.1-5-.1"/></g></svg>