<svg xmlns="http://www.w3.org/2000/svg" xmlns:xlink="http://www.w3.org/1999/xlink" viewBox="0 0 330.7 244.7" xml:space="preserve"><path fill="#FFF" stroke="#231815" stroke-linecap="round" stroke-linejoin="round" stroke-miterlimit="10" d="m121.1 11 24.3 177.8 172.1-50.1-15-120.9z"/><g fill="none" stroke="#E51A05" stroke-width="2" stroke-miterlimit="10"><path d="M237.3 125.1c1.5 6 6.9 10.4 13.3 10.4l1.1-13.4-14.4 3z"/><path d="M250.5 108c-7.6 0-13.7 6.1-13.7 13.7 0 1.1.2 2.3.4 3.3l14.4-3v-.3.3l11.9-2.5-11.9 2.5-1.1 13.4c7.6 0 13.7-6.1 13.7-13.7.1-7.5-6.1-13.7-13.7-13.7z"/></g><g opacity=".12"><path fill="#9E9E9E" d="m121.6 11.7 24.3 177.7L318 139.3 303 18.5z"/><defs><path id="a" d="m121.6 11.7 24.3 177.7L318 139.3 303 18.5z"/></defs><clipPath id="b"><use xlink:href="#a" overflow="visible"/></clipPath><g clip-path="url(#b)"><defs><path id="c" d="M310.9-25.5h72v72h-72z"/></defs><clipPath id="d"><use xlink:href="#c" overflow="visible"/></clipPath><g clip-path="url(#d)" fill="none" stroke="#231815" stroke-width="1.5" stroke-dasharray="2,1"><path d="M311.4 45h72M311.4 42h72M311.4 39h72M311.4 36h72M311.4 33h72M311.4 30h72M311.4 27h72M311.4 24h72M311.4 21h72M311.4 18h72M311.4 15h72M311.4 12h72M311.4 9h72M311.4 6h72M311.4 3h72M311.4 0h72"/></g><g><defs><path id="e" d="M310.9-25.5h72v72h-72z"/></defs><clipPath id="f"><use xlink:href="#e" overflow="visible"/></clipPath><g clip-path="url(#f)" fill="none" stroke="#231815" stroke-width="1.5" stroke-dasharray="2,1"><path d="M239.4 45h72M239.4 42h72M239.4 39h72M239.4 36h72M239.4 33h72M239.4 30h72M239.4 27h72M239.4 24h72M239.4 21h72M239.4 18h72M239.4 15h72M239.4 12h72M239.4 9h72M239.4 6h72M239.4 3h72M239.4 0h72"/></g></g></g><defs><path id="g" d="m121.6 11.7 24.3 177.7L318 139.3 303 18.5z"/></defs><clipPath id="h"><use xlink:href="#g" overflow="visible"/></clipPath><g clip-path="url(#h)"><defs><path id="i" d="M310.9 46.5h72v72h-72z"/></defs><clipPath id="j"><use xlink:href="#i" overflow="visible"/></clipPath><g clip-path="url(#j)" fill="none" stroke="#231815" stroke-width="1.5" stroke-dasharray="2,1"><path d="M311.4 117h72M311.4 114h72M311.4 111h72M311.4 108h72M311.4 105h72M311.4 102h72M311.4 99h72M311.4 96h72M311.4 93h72M311.4 90h72M311.4 87h72M311.4 84h72M311.4 81h72M311.4 78h72M311.4 75h72M311.4 72h72M311.4 69h72M311.4 66h72M311.4 63h72M311.4 60h72M311.4 57h72M311.4 54h72M311.4 51h72M311.4 48h72"/></g><g><defs><path id="k" d="M310.9 46.5h72v72h-72z"/></defs><clipPath id="l"><use xlink:href="#k" overflow="visible"/></clipPath><g clip-path="url(#l)" fill="none" stroke="#231815" stroke-width="1.5" stroke-dasharray="2,1"><path d="M239.4 117h72M239.4 114h72M239.4 111h72M239.4 108h72M239.4 105h72M239.4 102h72M239.4 99h72M239.4 96h72M239.4 93h72M239.4 90h72M239.4 87h72M239.4 84h72M239.4 81h72M239.4 78h72M239.4 75h72M239.4 72h72M239.4 69h72M239.4 66h72M239.4 63h72M239.4 60h72M239.4 57h72M239.4 54h72M239.4 51h72M239.4 48h72"/></g></g></g><defs><path id="m" d="m121.6 11.7 24.3 177.7L318 139.3 303 18.5z"/></defs><clipPath id="n"><use xlink:href="#m" overflow="visible"/></clipPath><g clip-path="url(#n)"><defs><path id="o" d="M310.9 118.5h72v72h-72z"/></defs><clipPath id="p"><use xlink:href="#o" overflow="visible"/></clipPath><g clip-path="url(#p)" fill="none" stroke="#231815" stroke-width="1.5" stroke-dasharray="2,1"><path d="M311.4 189h72M311.4 186h72M311.4 183h72M311.4 180h72M311.4 177h72M311.4 174h72M311.4 171h72M311.4 168h72M311.4 165h72M311.4 162h72M311.4 159h72M311.4 156h72M311.4 153h72M311.4 150h72M311.4 147h72M311.4 144h72M311.4 141h72M311.4 138h72M311.4 135h72M311.4 132h72M311.4 129h72M311.4 126h72M311.4 123h72M311.4 120h72"/></g><g><defs><path id="q" d="M310.9 118.5h72v72h-72z"/></defs><clipPath id="r"><use xlink:href="#q" overflow="visible"/></clipPath><g clip-path="url(#r)" fill="none" stroke="#231815" stroke-width="1.5" stroke-dasharray="2,1"><path d="M239.4 189h72M239.4 186h72M239.4 183h72M239.4 180h72M239.4 177h72M239.4 174h72M239.4 171h72M239.4 168h72M239.4 165h72M239.4 162h72M239.4 159h72M239.4 156h72M239.4 153h72M239.4 150h72M239.4 147h72M239.4 144h72M239.4 141h72M239.4 138h72M239.4 135h72M239.4 132h72M239.4 129h72M239.4 126h72M239.4 123h72M239.4 120h72"/></g></g></g><defs><path id="s" d="m121.6 11.7 24.3 177.7L318 139.3 303 18.5z"/></defs><clipPath id="t"><use xlink:href="#s" overflow="visible"/></clipPath><g clip-path="url(#t)"><path fill="#9E9E9E" d="M238.9-25.5h72v72h-72z"/><defs><path id="u" d="M238.9-25.5h72v72h-72z"/></defs><clipPath id="v"><use xlink:href="#u" overflow="visible"/></clipPath><g clip-path="url(#v)" fill="none" stroke="#231815" stroke-width="1.5" stroke-dasharray="2,1"><path d="M239.4 45h72M239.4 42h72M239.4 39h72M239.4 36h72M239.4 33h72M239.4 30h72M239.4 27h72M239.4 24h72M239.4 21h72M239.4 18h72M239.4 15h72M239.4 12h72M239.4 9h72M239.4 6h72M239.4 3h72M239.4 0h72"/></g><g><defs><path id="w" d="M238.9-25.5h72v72h-72z"/></defs><clipPath id="x"><use xlink:href="#w" overflow="visible"/></clipPath><g clip-path="url(#x)" fill="none" stroke="#231815" stroke-width="1.5" stroke-dasharray="2,1"><path d="M167.4 45h72M167.4 42h72M167.4 39h72M167.4 36h72M167.4 33h72M167.4 30h72M167.4 27h72M167.4 24h72M167.4 21h72M167.4 18h72M167.4 15h72M167.4 12h72M167.4 9h72M167.4 6h72M167.4 3h72M167.4 0h72"/></g></g></g><g><defs><path id="y" d="m121.6 11.7 24.3 177.7L318 139.3 303 18.5z"/></defs><clipPath id="z"><use xlink:href="#y" overflow="visible"/></clipPath><g clip-path="url(#z)"><path fill="#9E9E9E" d="M238.9 46.5h72v72h-72z"/><defs><path id="A" d="M238.9 46.5h72v72h-72z"/></defs><clipPath id="B"><use xlink:href="#A" overflow="visible"/></clipPath><g clip-path="url(#B)" fill="none" stroke="#231815" stroke-width="1.5" stroke-dasharray="2,1"><path d="M239.4 117h72M239.4 114h72M239.4 111h72M239.4 108h72M239.4 105h72M239.4 102h72M239.4 99h72M239.4 96h72M239.4 93h72M239.4 90h72M239.4 87h72M239.4 84h72M239.4 81h72M239.4 78h72M239.4 75h72M239.4 72h72M239.4 69h72M239.4 66h72M239.4 63h72M239.4 60h72M239.4 57h72M239.4 54h72M239.4 51h72M239.4 48h72"/></g><g><defs><path id="C" d="M238.9 46.5h72v72h-72z"/></defs><clipPath id="D"><use xlink:href="#C" overflow="visible"/></clipPath><g clip-path="url(#D)" fill="none" stroke="#231815" stroke-width="1.5" stroke-dasharray="2,1"><path d="M167.4 117h72M167.4 114h72M167.4 111h72M167.4 108h72M167.4 105h72M167.4 102h72M167.4 99h72M167.4 96h72M167.4 93h72M167.4 90h72M167.4 87h72M167.4 84h72M167.4 81h72M167.4 78h72M167.4 75h72M167.4 72h72M167.4 69h72M167.4 66h72M167.4 63h72M167.4 60h72M167.4 57h72M167.4 54h72M167.4 51h72M167.4 48h72"/></g></g></g></g><g><defs><path id="E" d="m121.6 11.7 24.3 177.7L318 139.3 303 18.5z"/></defs><clipPath id="F"><use xlink:href="#E" overflow="visible"/></clipPath><g clip-path="url(#F)"><path fill="#9E9E9E" d="M238.9 118.5h72v72h-72z"/><defs><path id="G" d="M238.9 118.5h72v72h-72z"/></defs><clipPath id="H"><use xlink:href="#G" overflow="visible"/></clipPath><g clip-path="url(#H)" fill="none" stroke="#231815" stroke-width="1.5" stroke-dasharray="2,1"><path d="M239.4 189h72M239.4 186h72M239.4 183h72M239.4 180h72M239.4 177h72M239.4 174h72M239.4 171h72M239.4 168h72M239.4 165h72M239.4 162h72M239.4 159h72M239.4 156h72M239.4 153h72M239.4 150h72M239.4 147h72M239.4 144h72M239.4 141h72M239.4 138h72M239.4 135h72M239.4 132h72M239.4 129h72M239.4 126h72M239.4 123h72M239.4 120h72"/></g><g><defs><path id="I" d="M238.9 118.5h72v72h-72z"/></defs><clipPath id="J"><use xlink:href="#I" overflow="visible"/></clipPath><g clip-path="url(#J)" fill="none" stroke="#231815" stroke-width="1.5" stroke-dasharray="2,1"><path d="M167.4 189h72M167.4 186h72M167.4 183h72M167.4 180h72M167.4 177h72M167.4 174h72M167.4 171h72M167.4 168h72M167.4 165h72M167.4 162h72M167.4 159h72M167.4 156h72M167.4 153h72M167.4 150h72M167.4 147h72M167.4 144h72M167.4 141h72M167.4 138h72M167.4 135h72M167.4 132h72M167.4 129h72M167.4 126h72M167.4 123h72M167.4 120h72"/></g></g></g></g><g><defs><path id="K" d="m121.6 11.7 24.3 177.7L318 139.3 303 18.5z"/></defs><clipPath id="L"><use xlink:href="#K" overflow="visible"/></clipPath><g clip-path="url(#L)"><path fill="#9E9E9E" d="M166.9-25.5h72v72h-72z"/><defs><path id="M" d="M166.9-25.5h72v72h-72z"/></defs><clipPath id="N"><use xlink:href="#M" overflow="visible"/></clipPath><g clip-path="url(#N)" fill="none" stroke="#231815" stroke-width="1.5" stroke-dasharray="2,1"><path d="M167.4 45h72M167.4 42h72M167.4 39h72M167.4 36h72M167.4 33h72M167.4 30h72M167.4 27h72M167.4 24h72M167.4 21h72M167.4 18h72M167.4 15h72M167.4 12h72M167.4 9h72M167.4 6h72M167.4 3h72M167.4 0h72"/></g><g><defs><path id="O" d="M166.9-25.5h72v72h-72z"/></defs><clipPath id="P"><use xlink:href="#O" overflow="visible"/></clipPath><g clip-path="url(#P)" fill="none" stroke="#231815" stroke-width="1.5" stroke-dasharray="2,1"><path d="M95.4 45h72M95.4 42h72M95.4 39h72M95.4 36h72M95.4 33h72M95.4 30h72M95.4 27h72M95.4 24h72M95.4 21h72M95.4 18h72M95.4 15h72M95.4 12h72M95.4 9h72M95.4 6h72M95.4 3h72M95.4 0h72"/></g></g></g></g><g><defs><path id="Q" d="m121.6 11.7 24.3 177.7L318 139.3 303 18.5z"/></defs><clipPath id="R"><use xlink:href="#Q" overflow="visible"/></clipPath><g clip-path="url(#R)"><path fill="#9E9E9E" d="M166.9 46.5h72v72h-72z"/><defs><path id="S" d="M166.9 46.5h72v72h-72z"/></defs><clipPath id="T"><use xlink:href="#S" overflow="visible"/></clipPath><g clip-path="url(#T)" fill="none" stroke="#231815" stroke-width="1.5" stroke-dasharray="2,1"><path d="M167.4 117h72M167.4 114h72M167.4 111h72M167.4 108h72M167.4 105h72M167.4 102h72M167.4 99h72M167.4 96h72M167.4 93h72M167.4 90h72M167.4 87h72M167.4 84h72M167.4 81h72M167.4 78h72M167.4 75h72M167.4 72h72M167.4 69h72M167.4 66h72M167.4 63h72M167.4 60h72M167.4 57h72M167.4 54h72M167.4 51h72M167.4 48h72"/></g><g><defs><path id="U" d="M166.9 46.5h72v72h-72z"/></defs><clipPath id="V"><use xlink:href="#U" overflow="visible"/></clipPath><g clip-path="url(#V)" fill="none" stroke="#231815" stroke-width="1.5" stroke-dasharray="2,1"><path d="M95.4 117h72M95.4 114h72M95.4 111h72M95.4 108h72M95.4 105h72M95.4 102h72M95.4 99h72M95.4 96h72M95.4 93h72M95.4 90h72M95.4 87h72M95.4 84h72M95.4 81h72M95.4 78h72M95.4 75h72M95.4 72h72M95.4 69h72M95.4 66h72M95.4 63h72M95.4 60h72M95.4 57h72M95.4 54h72M95.4 51h72M95.4 48h72"/></g></g></g></g><g><defs><path id="W" d="m121.6 11.7 24.3 177.7L318 139.3 303 18.5z"/></defs><clipPath id="X"><use xlink:href="#W" overflow="visible"/></clipPath><g clip-path="url(#X)"><path fill="#9E9E9E" d="M166.9 118.5h72v72h-72z"/><defs><path id="Y" d="M166.9 118.5h72v72h-72z"/></defs><clipPath id="Z"><use xlink:href="#Y" overflow="visible"/></clipPath><g clip-path="url(#Z)" fill="none" stroke="#231815" stroke-width="1.5" stroke-dasharray="2,1"><path d="M167.4 189h72M167.4 186h72M167.4 183h72M167.4 180h72M167.4 177h72M167.4 174h72M167.4 171h72M167.4 168h72M167.4 165h72M167.4 162h72M167.4 159h72M167.4 156h72M167.4 153h72M167.4 150h72M167.4 147h72M167.4 144h72M167.4 141h72M167.4 138h72M167.4 135h72M167.4 132h72M167.4 129h72M167.4 126h72M167.4 123h72M167.4 120h72"/></g><g><defs><path id="aa" d="M166.9 118.5h72v72h-72z"/></defs><clipPath id="ab"><use xlink:href="#aa" overflow="visible"/></clipPath><g clip-path="url(#ab)" fill="none" stroke="#231815" stroke-width="1.5" stroke-dasharray="2,1"><path d="M95.4 189h72M95.4 186h72M95.4 183h72M95.4 180h72M95.4 177h72M95.4 174h72M95.4 171h72M95.4 168h72M95.4 165h72M95.4 162h72M95.4 159h72M95.4 156h72M95.4 153h72M95.4 150h72M95.4 147h72M95.4 144h72M95.4 141h72M95.4 138h72M95.4 135h72M95.4 132h72M95.4 129h72M95.4 126h72M95.4 123h72M95.4 120h72"/></g></g></g></g><g><defs><path id="ac" d="m121.6 11.7 24.3 177.7L318 139.3 303 18.5z"/></defs><clipPath id="ad"><use xlink:href="#ac" overflow="visible"/></clipPath><g clip-path="url(#ad)"><path fill="#9E9E9E" d="M94.9-25.5h72v72h-72z"/><defs><path id="ae" d="M94.9-25.5h72v72h-72z"/></defs><clipPath id="af"><use xlink:href="#ae" overflow="visible"/></clipPath><g clip-path="url(#af)" fill="none" stroke="#231815" stroke-width="1.5" stroke-dasharray="2,1"><path d="M95.4 45h72M95.4 42h72M95.4 39h72M95.4 36h72M95.4 33h72M95.4 30h72M95.4 27h72M95.4 24h72M95.4 21h72M95.4 18h72M95.4 15h72M95.4 12h72M95.4 9h72M95.4 6h72M95.4 3h72M95.4 0h72"/></g><g><defs><path id="ag" d="M94.9-25.5h72v72h-72z"/></defs><clipPath id="ah"><use xlink:href="#ag" overflow="visible"/></clipPath><g clip-path="url(#ah)" fill="none" stroke="#231815" stroke-width="1.5" stroke-dasharray="2,1"><path d="M23.4 45h72M23.4 42h72M23.4 39h72M23.4 36h72M23.4 33h72M23.4 30h72M23.4 27h72M23.4 24h72M23.4 21h72M23.4 18h72M23.4 15h72M23.4 12h72M23.4 9h72M23.4 6h72M23.4 3h72M23.4 0h72"/></g></g></g></g><g><defs><path id="ai" d="m121.6 11.7 24.3 177.7L318 139.3 303 18.5z"/></defs><clipPath id="aj"><use xlink:href="#ai" overflow="visible"/></clipPath><g clip-path="url(#aj)"><path fill="#9E9E9E" d="M94.9 46.5h72v72h-72z"/><defs><path id="ak" d="M94.9 46.5h72v72h-72z"/></defs><clipPath id="al"><use xlink:href="#ak" overflow="visible"/></clipPath><g clip-path="url(#al)" fill="none" stroke="#231815" stroke-width="1.5" stroke-dasharray="2,1"><path d="M95.4 117h72M95.4 114h72M95.4 111h72M95.4 108h72M95.4 105h72M95.4 102h72M95.4 99h72M95.4 96h72M95.4 93h72M95.4 90h72M95.4 87h72M95.4 84h72M95.4 81h72M95.4 78h72M95.4 75h72M95.4 72h72M95.4 69h72M95.4 66h72M95.4 63h72M95.4 60h72M95.4 57h72M95.4 54h72M95.4 51h72M95.4 48h72"/></g><g><defs><path id="am" d="M94.9 46.5h72v72h-72z"/></defs><clipPath id="an"><use xlink:href="#am" overflow="visible"/></clipPath><g clip-path="url(#an)" fill="none" stroke="#231815" stroke-width="1.5" stroke-dasharray="2,1"><path d="M23.4 117h72M23.4 114h72M23.4 111h72M23.4 108h72M23.4 105h72M23.4 102h72M23.4 99h72M23.4 96h72M23.4 93h72M23.4 90h72M23.4 87h72M23.4 84h72M23.4 81h72M23.4 78h72M23.4 75h72M23.4 72h72M23.4 69h72M23.4 66h72M23.4 63h72M23.4 60h72M23.4 57h72M23.4 54h72M23.4 51h72M23.4 48h72"/></g></g></g></g><g><defs><path id="ao" d="m121.6 11.7 24.3 177.7L318 139.3 303 18.5z"/></defs><clipPath id="ap"><use xlink:href="#ao" overflow="visible"/></clipPath><g clip-path="url(#ap)"><path fill="#9E9E9E" d="M94.9 118.5h72v72h-72z"/><defs><path id="aq" d="M94.9 118.5h72v72h-72z"/></defs><clipPath id="ar"><use xlink:href="#aq" overflow="visible"/></clipPath><g clip-path="url(#ar)" fill="none" stroke="#231815" stroke-width="1.5" stroke-dasharray="2,1"><path d="M95.4 189h72M95.4 186h72M95.4 183h72M95.4 180h72M95.4 177h72M95.4 174h72M95.4 171h72M95.4 168h72M95.4 165h72M95.4 162h72M95.4 159h72M95.4 156h72M95.4 153h72M95.4 150h72M95.4 147h72M95.4 144h72M95.4 141h72M95.4 138h72M95.4 135h72M95.4 132h72M95.4 129h72M95.4 126h72M95.4 123h72M95.4 120h72"/></g><g><defs><path id="as" d="M94.9 118.5h72v72h-72z"/></defs><clipPath id="at"><use xlink:href="#as" overflow="visible"/></clipPath><g clip-path="url(#at)" fill="none" stroke="#231815" stroke-width="1.5" stroke-dasharray="2,1"><path d="M23.4 189h72M23.4 186h72M23.4 183h72M23.4 180h72M23.4 177h72M23.4 174h72M23.4 171h72M23.4 168h72M23.4 165h72M23.4 162h72M23.4 159h72M23.4 156h72M23.4 153h72M23.4 150h72M23.4 147h72M23.4 144h72M23.4 141h72M23.4 138h72M23.4 135h72M23.4 132h72M23.4 129h72M23.4 126h72M23.4 123h72M23.4 120h72"/></g></g></g></g></g><path fill="#FAF8EF" d="M150.5 96.8s-7.3-3.9-17.2 1.2l-3.6-25.7s-2.3-4.4-14.2-2c0 0-19.1-2.1-27.1.5 0 0-9.1 2.8-17.5 14.1 0 0-22.1 21.8-32.3 29.3 0 0-9.2 6.5-10 11.4-.7 4.8-3.4 3.4-3.4 33.9l.9 30.9-3.3 17.4 57.6 27.1s17.7-18.9 20.9-25.6c0 0 17.5-29.3 19.7-39.3 0 0 3.2-18.9 12.4-29.3 0 0 18.7-23 19.5-27-.2-.1 6.3-15.7-2.4-16.9zm-45.1 33.1-6.5 8.3-6.7 4.7-2.1-1.8s4.4-3.4 1.8-15l-1.8-2.3s3.1.3 2.9-6.7c0 0 7-1.3 7.8-2.6 0 0 7 4.9 12.2 3.4-.1-.2-4.8 8.1-7.6 12z"/><defs><path id="au" d="M150.8 96.4s-7.3-3.9-17.2 1.2L130 72s-2.3-4.4-14.2-2c0 0-19.1-2.1-27.1.5 0 0-9.1 2.8-17.5 14.1 0 0-22.1 21.8-32.3 29.3 0 0-9.2 6.5-10 11.4-.7 4.8-3.4 3.4-3.4 33.9l.9 30.9-3.3 17.4 57.6 27.1s17.7-18.9 20.9-25.6c0 0 17.5-29.3 19.7-39.3 0 0 3.2-18.9 12.4-29.3 0 0 18.7-23 19.5-27-.1-.1 6.3-15.7-2.4-17zm-45.1 33.2-6.5 8.3-6.7 4.7-2.1-1.8s4.4-3.4 1.8-15l-1.8-2.3s3.1.3 2.9-6.7c0 0 7-1.3 7.8-2.6 0 0 7 4.9 12.2 3.4-.1-.2-4.7 8.1-7.6 12z"/></defs><clipPath id="av"><use xlink:href="#au" overflow="visible"/></clipPath><g clip-path="url(#av)"><defs><path id="aw" d="M154.8 32.5h72v74.8h-72z"/></defs><clipPath id="ax"><use xlink:href="#aw" overflow="visible"/></clipPath><g clip-path="url(#ax)" fill="none" stroke="#231815" stroke-width=".3" stroke-linecap="square"><path d="M226.8 106.5h72M226.8 104.8h72M226.8 103.1h72M226.8 101.4h72M226.8 99.7h72M226.8 98h72M226.8 96.3h72M226.8 94.6h72M226.8 92.9h72M226.8 91.2h72M226.8 89.5h72M226.8 87.8h72M226.8 86.1h72M226.8 84.4h72M226.8 82.7h72M226.8 81h72M226.8 79.3h72M226.8 77.6h72M226.8 75.9h72M226.8 74.2h72M226.8 72.5h72M226.8 70.8h72M226.8 69.1h72M226.8 67.4h72M226.8 65.7h72M226.8 64h72M226.8 62.3h72M226.8 60.6h72M226.8 58.9h72M226.8 57.2h72M226.8 55.5h72M226.8 53.8h72M226.8 52.1h72M226.8 50.4h72M226.8 48.7h72M226.8 47h72M226.8 45.3h72M226.8 43.6h72M226.8 41.9h72M226.8 40.2h72M226.8 38.5h72M226.8 36.8h72M226.8 35.1h72M226.8 33.4h72"/></g><g><defs><path id="ay" d="M154.8 32.5h72v74.8h-72z"/></defs><clipPath id="az"><use xlink:href="#ay" overflow="visible"/></clipPath><g clip-path="url(#az)" fill="none" stroke="#231815" stroke-width=".3" stroke-linecap="square"><path d="M154.8 106.5h72M154.8 104.8h72M154.8 103.1h72M154.8 101.4h72M154.8 99.7h72M154.8 98h72M154.8 96.3h72M154.8 94.6h72M154.8 92.9h72M154.8 91.2h72M154.8 89.5h72M154.8 87.8h72M154.8 86.1h72M154.8 84.4h72M154.8 82.7h72M154.8 81h72M154.8 79.3h72M154.8 77.6h72M154.8 75.9h72M154.8 74.2h72M154.8 72.5h72M154.8 70.8h72M154.8 69.1h72M154.8 67.4h72M154.8 65.7h72M154.8 64h72M154.8 62.3h72M154.8 60.6h72M154.8 58.9h72M154.8 57.2h72M154.8 55.5h72M154.8 53.8h72M154.8 52.1h72M154.8 50.4h72M154.8 48.7h72M154.8 47h72M154.8 45.3h72M154.8 43.6h72M154.8 41.9h72M154.8 40.2h72M154.8 38.5h72M154.8 36.8h72M154.8 35.1h72M154.8 33.4h72"/></g></g><g><defs><path id="aA" d="M154.8 32.5h72v74.8h-72z"/></defs><clipPath id="aB"><use xlink:href="#aA" overflow="visible"/></clipPath><g clip-path="url(#aB)" fill="none" stroke="#231815" stroke-width=".3" stroke-linecap="square"><path d="M82.8 106.5h72M82.8 104.8h72M82.8 103.1h72M82.8 101.4h72M82.8 99.7h72M82.8 98h72M82.8 96.3h72M82.8 94.6h72M82.8 92.9h72M82.8 91.2h72M82.8 89.5h72M82.8 87.8h72M82.8 86.1h72M82.8 84.4h72M82.8 82.7h72M82.8 81h72M82.8 79.3h72M82.8 77.6h72M82.8 75.9h72M82.8 74.2h72M82.8 72.5h72M82.8 70.8h72M82.8 69.1h72M82.8 67.4h72M82.8 65.7h72M82.8 64h72M82.8 62.3h72M82.8 60.6h72M82.8 58.9h72M82.8 57.2h72M82.8 55.5h72M82.8 53.8h72M82.8 52.1h72M82.8 50.4h72M82.8 48.7h72M82.8 47h72M82.8 45.3h72M82.8 43.6h72M82.8 41.9h72M82.8 40.2h72M82.8 38.5h72M82.8 36.8h72M82.8 35.1h72M82.8 33.4h72"/></g></g></g><defs><path id="aC" d="M150.8 96.4s-7.3-3.9-17.2 1.2L130 72s-2.3-4.4-14.2-2c0 0-19.1-2.1-27.1.5 0 0-9.1 2.8-17.5 14.1 0 0-22.1 21.8-32.3 29.3 0 0-9.2 6.5-10 11.4-.7 4.8-3.4 3.4-3.4 33.9l.9 30.9-3.3 17.4 57.6 27.1s17.7-18.9 20.9-25.6c0 0 17.5-29.3 19.7-39.3 0 0 3.2-18.9 12.4-29.3 0 0 18.7-23 19.5-27-.1-.1 6.3-15.7-2.4-17zm-45.1 33.2-6.5 8.3-6.7 4.7-2.1-1.8s4.4-3.4 1.8-15l-1.8-2.3s3.1.3 2.9-6.7c0 0 7-1.3 7.8-2.6 0 0 7 4.9 12.2 3.4-.1-.2-4.7 8.1-7.6 12z"/></defs><clipPath id="aD"><use xlink:href="#aC" overflow="visible"/></clipPath><g clip-path="url(#aD)"><defs><path id="aE" d="M154.8 107.3h72v74.8h-72z"/></defs><clipPath id="aF"><use xlink:href="#aE" overflow="visible"/></clipPath><g clip-path="url(#aF)" fill="none" stroke="#231815" stroke-width=".3" stroke-linecap="square"><path d="M226.8 181.3h72M226.8 179.6h72M226.8 177.9h72M226.8 176.2h72M226.8 174.5h72M226.8 172.8h72M226.8 171.1h72M226.8 169.4h72M226.8 167.7h72M226.8 166h72M226.8 164.3h72M226.8 162.6h72M226.8 160.9h72M226.8 159.2h72M226.8 157.5h72M226.8 155.8h72M226.8 154.1h72M226.8 152.4h72M226.8 150.7h72M226.8 149h72M226.8 147.3h72M226.8 145.6h72M226.8 143.9h72M226.8 142.2h72M226.8 140.5h72M226.8 138.8h72M226.8 137.1h72M226.8 135.4h72M226.8 133.7h72M226.8 132h72M226.8 130.3h72M226.8 128.6h72M226.8 126.9h72M226.8 125.2h72M226.8 123.5h72M226.8 121.8h72M226.8 120.1h72M226.8 118.4h72M226.8 116.7h72M226.8 115h72M226.8 113.3h72M226.8 111.6h72M226.8 109.9h72M226.8 108.2h72"/></g><g><defs><path id="aG" d="M154.8 107.3h72v74.8h-72z"/></defs><clipPath id="aH"><use xlink:href="#aG" overflow="visible"/></clipPath><g clip-path="url(#aH)" fill="none" stroke="#231815" stroke-width=".3" stroke-linecap="square"><path d="M154.8 181.3h72M154.8 179.6h72M154.8 177.9h72M154.8 176.2h72M154.8 174.5h72M154.8 172.8h72M154.8 171.1h72M154.8 169.4h72M154.8 167.7h72M154.8 166h72M154.8 164.3h72M154.8 162.6h72M154.8 160.9h72M154.8 159.2h72M154.8 157.5h72M154.8 155.8h72M154.8 154.1h72M154.8 152.4h72M154.8 150.7h72M154.8 149h72M154.8 147.3h72M154.8 145.6h72M154.8 143.9h72M154.8 142.2h72M154.8 140.5h72M154.8 138.8h72M154.8 137.1h72M154.8 135.4h72M154.8 133.7h72M154.8 132h72M154.8 130.3h72M154.8 128.6h72M154.8 126.9h72M154.8 125.2h72M154.8 123.5h72M154.8 121.8h72M154.8 120.1h72M154.8 118.4h72M154.8 116.7h72M154.8 115h72M154.8 113.3h72M154.8 111.6h72M154.8 109.9h72M154.8 108.2h72"/></g></g><g><defs><path id="aI" d="M154.8 107.3h72v74.8h-72z"/></defs><clipPath id="aJ"><use xlink:href="#aI" overflow="visible"/></clipPath><g clip-path="url(#aJ)" fill="none" stroke="#231815" stroke-width=".3" stroke-linecap="square"><path d="M82.8 181.3h72M82.8 179.6h72M82.8 177.9h72M82.8 176.2h72M82.8 174.5h72M82.8 172.8h72M82.8 171.1h72M82.8 169.4h72M82.8 167.7h72M82.8 166h72M82.8 164.3h72M82.8 162.6h72M82.8 160.9h72M82.8 159.2h72M82.8 157.5h72M82.8 155.8h72M82.8 154.1h72M82.8 152.4h72M82.8 150.7h72M82.8 149h72M82.8 147.3h72M82.8 145.6h72M82.8 143.9h72M82.8 142.2h72M82.8 140.5h72M82.8 138.8h72M82.8 137.1h72M82.8 135.4h72M82.8 133.7h72M82.8 132h72M82.8 130.3h72M82.8 128.6h72M82.8 126.9h72M82.8 125.2h72M82.8 123.5h72M82.8 121.8h72M82.8 120.1h72M82.8 118.4h72M82.8 116.7h72M82.8 115h72M82.8 113.3h72M82.8 111.6h72M82.8 109.9h72M82.8 108.2h72"/></g></g></g><defs><path id="aK" d="M150.8 96.4s-7.3-3.9-17.2 1.2L130 72s-2.3-4.4-14.2-2c0 0-19.1-2.1-27.1.5 0 0-9.1 2.8-17.5 14.1 0 0-22.1 21.8-32.3 29.3 0 0-9.2 6.5-10 11.4-.7 4.8-3.4 3.4-3.4 33.9l.9 30.9-3.3 17.4 57.6 27.1s17.7-18.9 20.9-25.6c0 0 17.5-29.3 19.7-39.3 0 0 3.2-18.9 12.4-29.3 0 0 18.7-23 19.5-27-.1-.1 6.3-15.7-2.4-17zm-45.1 33.2-6.5 8.3-6.7 4.7-2.1-1.8s4.4-3.4 1.8-15l-1.8-2.3s3.1.3 2.9-6.7c0 0 7-1.3 7.8-2.6 0 0 7 4.9 12.2 3.4-.1-.2-4.7 8.1-7.6 12z"/></defs><clipPath id="aL"><use xlink:href="#aK" overflow="visible"/></clipPath><g clip-path="url(#aL)"><defs><path id="aM" d="M154.8 182.1h72v74.8h-72z"/></defs><clipPath id="aN"><use xlink:href="#aM" overflow="visible"/></clipPath><g clip-path="url(#aN)" fill="none" stroke="#231815" stroke-width=".3" stroke-linecap="square"><path d="M226.8 244.2h72M226.8 242.5h72M226.8 240.8h72M226.8 239.1h72M226.8 237.4h72M226.8 235.7h72M226.8 234h72M226.8 232.3h72M226.8 230.6h72M226.8 228.9h72M226.8 227.2h72M226.8 225.5h72M226.8 223.8h72M226.8 222.1h72M226.8 220.4h72M226.8 218.7h72M226.8 217h72M226.8 215.3h72M226.8 213.6h72M226.8 211.9h72M226.8 210.2h72M226.8 208.5h72M226.8 206.8h72M226.8 205.1h72M226.8 203.4h72M226.8 201.7h72M226.8 200h72M226.8 198.3h72M226.8 196.6h72M226.8 194.9h72M226.8 193.2h72M226.8 191.5h72M226.8 189.8h72M226.8 188.1h72M226.8 186.4h72M226.8 184.7h72M226.8 183h72"/></g><g><defs><path id="aO" d="M154.8 182.1h72v74.8h-72z"/></defs><clipPath id="aP"><use xlink:href="#aO" overflow="visible"/></clipPath><g clip-path="url(#aP)" fill="none" stroke="#231815" stroke-width=".3" stroke-linecap="square"><path d="M154.8 244.2h72M154.8 242.5h72M154.8 240.8h72M154.8 239.1h72M154.8 237.4h72M154.8 235.7h72M154.8 234h72M154.8 232.3h72M154.8 230.6h72M154.8 228.9h72M154.8 227.2h72M154.8 225.5h72M154.8 223.8h72M154.8 222.1h72M154.8 220.4h72M154.8 218.7h72M154.8 217h72M154.8 215.3h72M154.8 213.6h72M154.8 211.9h72M154.8 210.2h72M154.8 208.5h72M154.8 206.8h72M154.8 205.1h72M154.8 203.4h72M154.8 201.7h72M154.8 200h72M154.8 198.3h72M154.8 196.6h72M154.8 194.9h72M154.8 193.2h72M154.8 191.5h72M154.8 189.8h72M154.8 188.1h72M154.8 186.4h72M154.8 184.7h72M154.8 183h72"/></g></g><g><defs><path id="aQ" d="M154.8 182.1h72v74.8h-72z"/></defs><clipPath id="aR"><use xlink:href="#aQ" overflow="visible"/></clipPath><g clip-path="url(#aR)" fill="none" stroke="#231815" stroke-width=".3" stroke-linecap="square"><path d="M82.8 244.2h72M82.8 242.5h72M82.8 240.8h72M82.8 239.1h72M82.8 237.4h72M82.8 235.7h72M82.8 234h72M82.8 232.3h72M82.8 230.6h72M82.8 228.9h72M82.8 227.2h72M82.8 225.5h72M82.8 223.8h72M82.8 222.1h72M82.8 220.4h72M82.8 218.7h72M82.8 217h72M82.8 215.3h72M82.8 213.6h72M82.8 211.9h72M82.8 210.2h72M82.8 208.5h72M82.8 206.8h72M82.8 205.1h72M82.8 203.4h72M82.8 201.7h72M82.8 200h72M82.8 198.3h72M82.8 196.6h72M82.8 194.9h72M82.8 193.2h72M82.8 191.5h72M82.8 189.8h72M82.8 188.1h72M82.8 186.4h72M82.8 184.7h72M82.8 183h72"/></g></g></g><g><defs><path id="aS" d="M150.8 96.4s-7.3-3.9-17.2 1.2L130 72s-2.3-4.4-14.2-2c0 0-19.1-2.1-27.1.5 0 0-9.1 2.8-17.5 14.1 0 0-22.1 21.8-32.3 29.3 0 0-9.2 6.5-10 11.4-.7 4.8-3.4 3.4-3.4 33.9l.9 30.9-3.3 17.4 57.6 27.1s17.7-18.9 20.9-25.6c0 0 17.5-29.3 19.7-39.3 0 0 3.2-18.9 12.4-29.3 0 0 18.7-23 19.5-27-.1-.1 6.3-15.7-2.4-17zm-45.1 33.2-6.5 8.3-6.7 4.7-2.1-1.8s4.4-3.4 1.8-15l-1.8-2.3s3.1.3 2.9-6.7c0 0 7-1.3 7.8-2.6 0 0 7 4.9 12.2 3.4-.1-.2-4.7 8.1-7.6 12z"/></defs><clipPath id="aT"><use xlink:href="#aS" overflow="visible"/></clipPath><g fill="none" stroke="#A5A5A5" stroke-width=".3" stroke-linecap="square" clip-path="url(#aT)"><path d="M154.8 181.3h72M154.8 179.6h72M154.8 177.9h72M154.8 176.2h72M154.8 174.5h72M154.8 172.8h72M154.8 171.1h72M154.8 169.4h72M154.8 167.7h72M154.8 166h72M154.8 164.3h72M154.8 162.6h72M154.8 160.9h72M154.8 159.2h72M154.8 157.5h72M154.8 155.8h72M154.8 154.1h72M154.8 152.4h72M154.8 150.7h72M154.8 149h72M154.8 147.3h72M154.8 145.6h72M154.8 143.9h72M154.8 142.2h72M154.8 140.5h72M154.8 138.8h72M154.8 137.1h72M154.8 135.4h72M154.8 133.7h72M154.8 132h72M154.8 130.3h72M154.8 128.6h72M154.8 126.9h72M154.8 125.2h72M154.8 123.5h72M154.8 121.8h72M154.8 120.1h72M154.8 118.4h72M154.8 116.7h72M154.8 115h72M154.8 113.3h72M154.8 111.6h72M154.8 109.9h72M154.8 108.2h72"/><g><path d="M82.8 181.3h72M82.8 179.6h72M82.8 177.9h72M82.8 176.2h72M82.8 174.5h72M82.8 172.8h72M82.8 171.1h72M82.8 169.4h72M82.8 167.7h72M82.8 166h72M82.8 164.3h72M82.8 162.6h72M82.8 160.9h72M82.8 159.2h72M82.8 157.5h72M82.8 155.8h72M82.8 154.1h72M82.8 152.4h72M82.8 150.7h72M82.8 149h72M82.8 147.3h72M82.8 145.6h72M82.8 143.9h72M82.8 142.2h72M82.8 140.5h72M82.8 138.8h72M82.8 137.1h72M82.8 135.4h72M82.8 133.7h72M82.8 132h72M82.8 130.3h72M82.8 128.6h72M82.8 126.9h72M82.8 125.2h72M82.8 123.5h72M82.8 121.8h72M82.8 120.1h72M82.8 118.4h72M82.8 116.7h72M82.8 115h72M82.8 113.3h72M82.8 111.6h72M82.8 109.9h72M82.8 108.2h72"/></g><g><path d="M10.8 181.3h72M10.8 179.6h72M10.8 177.9h72M10.8 176.2h72M10.8 174.5h72M10.8 172.8h72M10.8 171.1h72M10.8 169.4h72M10.8 167.7h72M10.8 166h72M10.8 164.3h72M10.8 162.6h72M10.8 160.9h72M10.8 159.2h72M10.8 157.5h72M10.8 155.8h72M10.8 154.1h72M10.8 152.4h72M10.8 150.7h72M10.8 149h72M10.8 147.3h72M10.8 145.6h72M10.8 143.9h72M10.8 142.2h72M10.8 140.5h72M10.8 138.8h72M10.8 137.1h72M10.8 135.4h72M10.8 133.7h72M10.8 132h72M10.8 130.3h72M10.8 128.6h72M10.8 126.9h72M10.8 125.2h72M10.8 123.5h72M10.8 121.8h72M10.8 120.1h72M10.8 118.4h72M10.8 116.7h72M10.8 115h72M10.8 113.3h72M10.8 111.6h72M10.8 109.9h72M10.8 108.2h72"/></g></g></g><g><defs><path id="aU" d="M150.8 96.4s-7.3-3.9-17.2 1.2L130 72s-2.3-4.4-14.2-2c0 0-19.1-2.1-27.1.5 0 0-9.1 2.8-17.5 14.1 0 0-22.1 21.8-32.3 29.3 0 0-9.2 6.5-10 11.4-.7 4.8-3.4 3.4-3.4 33.9l.9 30.9-3.3 17.4 57.6 27.1s17.7-18.9 20.9-25.6c0 0 17.5-29.3 19.7-39.3 0 0 3.2-18.9 12.4-29.3 0 0 18.7-23 19.5-27-.1-.1 6.3-15.7-2.4-17zm-45.1 33.2-6.5 8.3-6.7 4.7-2.1-1.8s4.4-3.4 1.8-15l-1.8-2.3s3.1.3 2.9-6.7c0 0 7-1.3 7.8-2.6 0 0 7 4.9 12.2 3.4-.1-.2-4.7 8.1-7.6 12z"/></defs><clipPath id="aV"><use xlink:href="#aU" overflow="visible"/></clipPath><g fill="none" stroke="#A5A5A5" stroke-width=".3" stroke-linecap="square" clip-path="url(#aV)"><path d="M154.8 244.2h72M154.8 242.5h72M154.8 240.8h72M154.8 239.1h72M154.8 237.4h72M154.8 235.7h72M154.8 234h72M154.8 232.3h72M154.8 230.6h72M154.8 228.9h72M154.8 227.2h72M154.8 225.5h72M154.8 223.8h72M154.8 222.1h72M154.8 220.4h72M154.8 218.7h72M154.8 217h72M154.8 215.3h72M154.8 213.6h72M154.8 211.9h72M154.8 210.2h72M154.8 208.5h72M154.8 206.8h72M154.8 205.1h72M154.8 203.4h72M154.8 201.7h72M154.8 200h72M154.8 198.3h72M154.8 196.6h72M154.8 194.9h72M154.8 193.2h72M154.8 191.5h72M154.8 189.8h72M154.8 188.1h72M154.8 186.4h72M154.8 184.7h72M154.8 183h72"/><g><path d="M82.8 244.2h72M82.8 242.5h72M82.8 240.8h72M82.8 239.1h72M82.8 237.4h72M82.8 235.7h72M82.8 234h72M82.8 232.3h72M82.8 230.6h72M82.8 228.9h72M82.8 227.2h72M82.8 225.5h72M82.8 223.8h72M82.8 222.1h72M82.8 220.4h72M82.8 218.7h72M82.8 217h72M82.8 215.3h72M82.8 213.6h72M82.8 211.9h72M82.8 210.2h72M82.8 208.5h72M82.8 206.8h72M82.8 205.1h72M82.8 203.4h72M82.8 201.7h72M82.8 200h72M82.8 198.3h72M82.8 196.6h72M82.8 194.9h72M82.8 193.2h72M82.8 191.5h72M82.8 189.8h72M82.8 188.1h72M82.8 186.4h72M82.8 184.7h72M82.8 183h72"/></g><g><path d="M10.8 244.2h72M10.8 242.5h72M10.8 240.8h72M10.8 239.1h72M10.8 237.4h72M10.8 235.7h72M10.8 234h72M10.8 232.3h72M10.8 230.6h72M10.8 228.9h72M10.8 227.2h72M10.8 225.5h72M10.8 223.8h72M10.8 222.1h72M10.8 220.4h72M10.8 218.7h72M10.8 217h72M10.8 215.3h72M10.8 213.6h72M10.8 211.9h72M10.8 210.2h72M10.8 208.5h72M10.8 206.8h72M10.8 205.1h72M10.8 203.4h72M10.8 201.7h72M10.8 200h72M10.8 198.3h72M10.8 196.6h72M10.8 194.9h72M10.8 193.2h72M10.8 191.5h72M10.8 189.8h72M10.8 188.1h72M10.8 186.4h72M10.8 184.7h72M10.8 183h72"/></g></g></g><g><defs><path id="aW" d="M150.8 96.4s-7.3-3.9-17.2 1.2L130 72s-2.3-4.4-14.2-2c0 0-19.1-2.1-27.1.5 0 0-9.1 2.8-17.5 14.1 0 0-22.1 21.8-32.3 29.3 0 0-9.2 6.5-10 11.4-.7 4.8-3.4 3.4-3.4 33.9l.9 30.9-3.3 17.4 57.6 27.1s17.7-18.9 20.9-25.6c0 0 17.5-29.3 19.7-39.3 0 0 3.2-18.9 12.4-29.3 0 0 18.7-23 19.5-27-.1-.1 6.3-15.7-2.4-17zm-45.1 33.2-6.5 8.3-6.7 4.7-2.1-1.8s4.4-3.4 1.8-15l-1.8-2.3s3.1.3 2.9-6.7c0 0 7-1.3 7.8-2.6 0 0 7 4.9 12.2 3.4-.1-.2-4.7 8.1-7.6 12z"/></defs><clipPath id="aX"><use xlink:href="#aW" overflow="visible"/></clipPath><g fill="none" stroke="#A5A5A5" stroke-width=".3" stroke-linecap="square" clip-path="url(#aX)"><path d="M82.8 106.5h72M82.8 104.8h72M82.8 103.1h72M82.8 101.4h72M82.8 99.7h72M82.8 98h72M82.8 96.3h72M82.8 94.6h72M82.8 92.9h72M82.8 91.2h72M82.8 89.5h72M82.8 87.8h72M82.8 86.1h72M82.8 84.4h72M82.8 82.7h72M82.8 81h72M82.8 79.3h72M82.8 77.6h72M82.8 75.9h72M82.8 74.2h72M82.8 72.5h72M82.8 70.8h72M82.8 69.1h72M82.8 67.4h72M82.8 65.7h72M82.8 64h72M82.8 62.3h72M82.8 60.6h72M82.8 58.9h72M82.8 57.2h72M82.8 55.5h72M82.8 53.8h72M82.8 52.1h72M82.8 50.4h72M82.8 48.7h72M82.8 47h72M82.8 45.3h72M82.8 43.6h72M82.8 41.9h72M82.8 40.2h72M82.8 38.5h72M82.8 36.8h72M82.8 35.1h72M82.8 33.4h72"/><g><path d="M10.8 106.5h72M10.8 104.8h72M10.8 103.1h72M10.8 101.4h72M10.8 99.7h72M10.8 98h72M10.8 96.3h72M10.8 94.6h72M10.8 92.9h72M10.8 91.2h72M10.8 89.5h72M10.8 87.8h72M10.8 86.1h72M10.8 84.4h72M10.8 82.7h72M10.8 81h72M10.8 79.3h72M10.8 77.6h72M10.8 75.9h72M10.8 74.2h72M10.8 72.5h72M10.8 70.8h72M10.8 69.1h72M10.8 67.4h72M10.8 65.7h72M10.8 64h72M10.8 62.3h72M10.8 60.6h72M10.8 58.9h72M10.8 57.2h72M10.8 55.5h72M10.8 53.8h72M10.8 52.1h72M10.8 50.4h72M10.8 48.7h72M10.8 47h72M10.8 45.3h72M10.8 43.6h72M10.8 41.9h72M10.8 40.2h72M10.8 38.5h72M10.8 36.8h72M10.8 35.1h72M10.8 33.4h72"/></g><g><path d="M-61.2 106.5h72M-61.2 104.8h72M-61.2 103.1h72M-61.2 101.4h72M-61.2 99.7h72M-61.2 98h72M-61.2 96.3h72M-61.2 94.6h72M-61.2 92.9h72M-61.2 91.2h72M-61.2 89.5h72M-61.2 87.8h72M-61.2 86.1h72M-61.2 84.4h72M-61.2 82.7h72M-61.2 81h72M-61.2 79.3h72M-61.2 77.6h72M-61.2 75.9h72M-61.2 74.2h72M-61.2 72.5h72M-61.2 70.8h72M-61.2 69.1h72M-61.2 67.4h72M-61.2 65.7h72M-61.2 64h72M-61.2 62.3h72M-61.2 60.6h72M-61.2 58.9h72M-61.2 57.2h72M-61.2 55.5h72M-61.2 53.8h72M-61.2 52.1h72M-61.2 50.4h72M-61.2 48.7h72M-61.2 47h72M-61.2 45.3h72M-61.2 43.6h72M-61.2 41.9h72M-61.2 40.2h72M-61.2 38.5h72M-61.2 36.8h72M-61.2 35.1h72M-61.2 33.4h72"/></g></g></g><g><defs><path id="aY" d="M150.8 96.4s-7.3-3.9-17.2 1.2L130 72s-2.3-4.4-14.2-2c0 0-19.1-2.1-27.1.5 0 0-9.1 2.8-17.5 14.1 0 0-22.1 21.8-32.3 29.3 0 0-9.2 6.5-10 11.4-.7 4.8-3.4 3.4-3.4 33.9l.9 30.9-3.3 17.4 57.6 27.1s17.7-18.9 20.9-25.6c0 0 17.5-29.3 19.7-39.3 0 0 3.2-18.9 12.4-29.3 0 0 18.7-23 19.5-27-.1-.1 6.3-15.7-2.4-17zm-45.1 33.2-6.5 8.3-6.7 4.7-2.1-1.8s4.4-3.4 1.8-15l-1.8-2.3s3.1.3 2.9-6.7c0 0 7-1.3 7.8-2.6 0 0 7 4.9 12.2 3.4-.1-.2-4.7 8.1-7.6 12z"/></defs><clipPath id="aZ"><use xlink:href="#aY" overflow="visible"/></clipPath><g fill="none" stroke="#A5A5A5" stroke-width=".3" stroke-linecap="square" clip-path="url(#aZ)"><path d="M10.8 181.3h72M10.8 179.6h72M10.8 177.9h72M10.8 176.2h72M10.8 174.5h72M10.8 172.8h72M10.8 171.1h72M10.8 169.4h72M10.8 167.7h72M10.8 166h72M10.8 164.3h72M10.8 162.6h72M10.8 160.9h72M10.8 159.2h72M10.8 157.5h72M10.8 155.8h72M10.8 154.1h72M10.8 152.4h72M10.8 150.7h72M10.8 149h72M10.8 147.3h72M10.8 145.6h72M10.8 143.9h72M10.8 142.2h72M10.8 140.5h72M10.8 138.8h72M10.8 137.1h72M10.8 135.4h72M10.8 133.7h72M10.8 132h72M10.8 130.3h72M10.8 128.6h72M10.8 126.9h72M10.8 125.2h72M10.8 123.5h72M10.8 121.8h72M10.8 120.1h72M10.8 118.4h72M10.8 116.7h72M10.8 115h72M10.8 113.3h72M10.8 111.6h72M82.2 110.2l-71.4-.3M10.8 108.2h72"/><g><path d="M-61.2 181.3h72M-61.2 179.6h72M-61.2 177.9h72M-61.2 176.2h72M-61.2 174.5h72M-61.2 172.8h72M-61.2 171.1h72M-61.2 169.4h72M-61.2 167.7h72M-61.2 166h72M-61.2 164.3h72M-61.2 162.6h72M-61.2 160.9h72M-61.2 159.2h72M-61.2 157.5h72M-61.2 155.8h72M-61.2 154.1h72M-61.2 152.4h72M-61.2 150.7h72M-61.2 149h72M-61.2 147.3h72M-61.2 145.6h72M-61.2 143.9h72M-61.2 142.2h72M-61.2 140.5h72M-61.2 138.8h72M-61.2 137.1h72M-61.2 135.4h72M-61.2 133.7h72M-61.2 132h72M-61.2 130.3h72M-61.2 128.6h72M-61.2 126.9h72M-61.2 125.2h72M-61.2 123.5h72M-61.2 121.8h72M-61.2 120.1h72M-61.2 118.4h72M-61.2 116.7h72M-61.2 115h72M-61.2 113.3h72M-61.2 111.6h72M-61.2 109.9h72M-61.2 108.2h72"/></g></g></g><g><defs><path id="ba" d="M121.4 165.5s3.8-19.5 13.5-28c0 0 12.4-14.9 12.9-17.4l-10-2.8s-21.2 20-23.5 29.3c0 0-17.4 47.5-38.6 59.3-3.2 1.8-6.1 4-8.4 6.8l-9.2 11 21.6 10.5s20.6-23.4 24.7-31.4c4.1-8 0 0 0 0s16.4-32.6 17-37.3"/></defs><clipPath id="bb"><use xlink:href="#ba" overflow="visible"/></clipPath><g clip-path="url(#bb)" fill="#AAA"><circle cx="45.8" cy="138.2" r="2"/><circle cx="45.8" cy="143.1" r="2"/><circle cx="45.8" cy="148" r="2"/><circle cx="45.8" cy="152.9" r="2"/><circle cx="45.8" cy="157.8" r="2"/><circle cx="45.8" cy="162.6" r="2"/><circle cx="45.8" cy="167.5" r="2"/><circle cx="45.8" cy="172.4" r="2"/><circle cx="45.8" cy="177.3" r="2"/><circle cx="45.8" cy="182.2" r="2"/><circle cx="45.8" cy="187" r="2"/><circle cx="45.8" cy="191.9" r="2"/><circle cx="45.8" cy="196.8" r="2"/><circle cx="45.8" cy="201.7" r="2"/><circle cx="45.8" cy="206.6" r="2"/><circle cx="45.8" cy="211.4" r="2"/><circle cx="50.9" cy="138.2" r="2"/><circle cx="50.9" cy="143.1" r="2"/><circle cx="50.9" cy="148" r="2"/><circle cx="50.9" cy="152.9" r="2"/><circle cx="50.9" cy="157.8" r="2"/><circle cx="50.9" cy="162.6" r="2"/><circle cx="50.9" cy="167.5" r="2"/><circle cx="50.9" cy="172.4" r="2"/><circle cx="50.9" cy="177.3" r="2"/><circle cx="50.9" cy="182.2" r="2"/><circle cx="50.9" cy="187" r="2"/><circle cx="50.9" cy="191.9" r="2"/><circle cx="50.9" cy="196.8" r="2"/><circle cx="50.9" cy="201.7" r="2"/><circle cx="50.9" cy="206.6" r="2"/><circle cx="50.9" cy="211.4" r="2"/><circle cx="56.1" cy="138.2" r="2"/><circle cx="56.1" cy="143.1" r="2"/><circle cx="56.1" cy="148" r="2"/><circle cx="56.1" cy="152.9" r="2"/><circle cx="56.1" cy="157.8" r="2"/><circle cx="56.1" cy="162.6" r="2"/><circle cx="56.1" cy="167.5" r="2"/><circle cx="56.1" cy="172.4" r="2"/><circle cx="56.1" cy="177.3" r="2"/><circle cx="56.1" cy="182.2" r="2"/><circle cx="56.1" cy="187" r="2"/><circle cx="56.1" cy="191.9" r="2"/><circle cx="56.1" cy="196.8" r="2"/><circle cx="56.1" cy="201.7" r="2"/><circle cx="56.1" cy="206.6" r="2"/><circle cx="56.1" cy="211.4" r="2"/><circle cx="61.5" cy="138.2" r="2"/><circle cx="61.5" cy="143.1" r="2"/><circle cx="61.5" cy="148" r="2"/><circle cx="61.5" cy="152.9" r="2"/><circle cx="61.5" cy="157.8" r="2"/><circle cx="61.5" cy="162.6" r="2"/><circle cx="61.5" cy="167.5" r="2"/><circle cx="61.5" cy="172.4" r="2"/><circle cx="61.5" cy="177.3" r="2"/><circle cx="61.5" cy="182.2" r="2"/><circle cx="61.5" cy="187" r="2"/><circle cx="61.5" cy="191.9" r="2"/><circle cx="61.5" cy="196.8" r="2"/><circle cx="61.5" cy="201.7" r="2"/><circle cx="61.5" cy="206.6" r="2"/><circle cx="61.5" cy="211.4" r="2"/><circle cx="66.7" cy="138.2" r="2"/><circle cx="66.7" cy="143.1" r="2"/><circle cx="66.7" cy="148" r="2"/><circle cx="66.7" cy="152.9" r="2"/><circle cx="66.7" cy="157.8" r="2"/><circle cx="66.7" cy="162.6" r="2"/><circle cx="66.7" cy="167.5" r="2"/><circle cx="66.7" cy="172.4" r="2"/><circle cx="66.7" cy="177.3" r="2"/><circle cx="66.7" cy="182.2" r="2"/><circle cx="66.7" cy="187" r="2"/><circle cx="66.7" cy="191.9" r="2"/><circle cx="66.7" cy="196.8" r="2"/><circle cx="66.7" cy="201.7" r="2"/><circle cx="66.7" cy="206.6" r="2"/><circle cx="66.7" cy="211.4" r="2"/><circle cx="72.1" cy="138.2" r="2"/><circle cx="72.1" cy="143.1" r="2"/><circle cx="72.1" cy="148" r="2"/><circle cx="72.1" cy="152.9" r="2"/><circle cx="72.1" cy="157.8" r="2"/><circle cx="72.1" cy="162.6" r="2"/><circle cx="72.1" cy="167.5" r="2"/><circle cx="72.1" cy="172.4" r="2"/><circle cx="72.1" cy="177.3" r="2"/><circle cx="72.1" cy="182.2" r="2"/><circle cx="72.1" cy="187" r="2"/><circle cx="72.1" cy="191.9" r="2"/><circle cx="72.1" cy="196.8" r="2"/><circle cx="72.1" cy="201.7" r="2"/><circle cx="72.1" cy="206.6" r="2"/><circle cx="72.1" cy="211.4" r="2"/><circle cx="77.5" cy="138.2" r="2"/><circle cx="77.5" cy="143.1" r="2"/><circle cx="77.5" cy="148" r="2"/><circle cx="77.5" cy="152.9" r="2"/><circle cx="77.5" cy="157.8" r="2"/><circle cx="77.5" cy="162.6" r="2"/><circle cx="77.5" cy="167.5" r="2"/><circle cx="77.5" cy="172.4" r="2"/><circle cx="77.5" cy="177.3" r="2"/><circle cx="77.5" cy="182.2" r="2"/><circle cx="77.5" cy="187" r="2"/><circle cx="77.5" cy="191.9" r="2"/><circle cx="77.5" cy="196.8" r="2"/><circle cx="77.5" cy="201.7" r="2"/><circle cx="77.5" cy="206.6" r="2"/><circle cx="77.5" cy="211.4" r="2"/><circle cx="82.7" cy="138.2" r="2"/><circle cx="82.7" cy="143.1" r="2"/><circle cx="82.7" cy="148" r="2"/><circle cx="82.7" cy="152.9" r="2"/><circle cx="82.7" cy="157.8" r="2"/><circle cx="82.7" cy="162.6" r="2"/><circle cx="82.7" cy="167.5" r="2"/><circle cx="82.7" cy="172.4" r="2"/><circle cx="82.7" cy="177.3" r="2"/><circle cx="82.7" cy="182.2" r="2"/><circle cx="82.7" cy="187" r="2"/><circle cx="82.7" cy="191.9" r="2"/><circle cx="82.7" cy="196.8" r="2"/><circle cx="82.7" cy="201.7" r="2"/><circle cx="82.7" cy="206.6" r="2"/><circle cx="82.7" cy="211.4" r="2"/><circle cx="88.2" cy="138.2" r="2"/><circle cx="88.2" cy="143.1" r="2"/><circle cx="88.2" cy="148" r="2"/><circle cx="88.2" cy="152.9" r="2"/><circle cx="88.2" cy="157.8" r="2"/><circle cx="88.2" cy="162.6" r="2"/><circle cx="88.2" cy="167.5" r="2"/><circle cx="88.2" cy="172.4" r="2"/><circle cx="88.2" cy="177.3" r="2"/><circle cx="88.2" cy="182.2" r="2"/><circle cx="88.2" cy="187" r="2"/><circle cx="88.2" cy="191.9" r="2"/><circle cx="88.2" cy="196.8" r="2"/><circle cx="88.2" cy="201.7" r="2"/><circle cx="88.2" cy="206.6" r="2"/><circle cx="88.2" cy="211.4" r="2"/><circle cx="93.6" cy="138.2" r="2"/><circle cx="93.6" cy="143.1" r="2"/><circle cx="93.6" cy="148" r="2"/><circle cx="93.6" cy="152.9" r="2"/><circle cx="93.6" cy="157.8" r="2"/><circle cx="93.6" cy="162.6" r="2"/><circle cx="93.6" cy="167.5" r="2"/><circle cx="93.6" cy="172.4" r="2"/><circle cx="93.6" cy="177.3" r="2"/><circle cx="93.6" cy="182.2" r="2"/><circle cx="93.6" cy="187" r="2"/><circle cx="93.6" cy="191.9" r="2"/><circle cx="93.6" cy="196.8" r="2"/><circle cx="93.6" cy="201.7" r="2"/><circle cx="93.6" cy="206.6" r="2"/><circle cx="93.6" cy="211.4" r="2"/><circle cx="98.8" cy="138.2" r="2"/><circle cx="98.8" cy="143.1" r="2"/><circle cx="98.8" cy="148" r="2"/><circle cx="98.8" cy="152.9" r="2"/><circle cx="98.8" cy="157.8" r="2"/><circle cx="98.8" cy="162.6" r="2"/><circle cx="98.8" cy="167.5" r="2"/><circle cx="98.8" cy="172.4" r="2"/><circle cx="98.8" cy="177.3" r="2"/><circle cx="98.8" cy="182.2" r="2"/><circle cx="98.8" cy="187" r="2"/><circle cx="98.8" cy="191.9" r="2"/><circle cx="98.8" cy="196.8" r="2"/><circle cx="98.8" cy="201.7" r="2"/><circle cx="98.8" cy="206.6" r="2"/><circle cx="98.8" cy="211.4" r="2"/><circle cx="104.3" cy="138.2" r="2"/><circle cx="104.3" cy="143.1" r="2"/><circle cx="104.3" cy="148" r="2"/><circle cx="104.3" cy="152.9" r="2"/><circle cx="104.3" cy="157.8" r="2"/><circle cx="104.3" cy="162.6" r="2"/><circle cx="104.3" cy="167.5" r="2"/><circle cx="104.3" cy="172.4" r="2"/><circle cx="104.3" cy="177.3" r="2"/><circle cx="104.3" cy="182.2" r="2"/><circle cx="104.3" cy="187" r="2"/><circle cx="104.3" cy="191.9" r="2"/><circle cx="104.3" cy="196.8" r="2"/><circle cx="104.3" cy="201.7" r="2"/><circle cx="104.3" cy="206.6" r="2"/><circle cx="104.3" cy="211.4" r="2"/><circle cx="109.9" cy="138.2" r="2"/><circle cx="109.9" cy="143.1" r="2"/><circle cx="109.9" cy="148" r="2"/><circle cx="109.9" cy="152.9" r="2"/><circle cx="109.9" cy="157.8" r="2"/><circle cx="109.9" cy="162.6" r="2"/><circle cx="109.9" cy="167.5" r="2"/><circle cx="109.9" cy="172.4" r="2"/><circle cx="109.9" cy="177.3" r="2"/><circle cx="109.9" cy="182.2" r="2"/><circle cx="109.9" cy="187" r="2"/><circle cx="109.9" cy="191.9" r="2"/><circle cx="109.9" cy="196.8" r="2"/><circle cx="109.9" cy="201.7" r="2"/><circle cx="109.9" cy="206.6" r="2"/><circle cx="109.9" cy="211.4" r="2"/><circle cx="115.6" cy="138.2" r="2"/><circle cx="115.6" cy="143.1" r="2"/><circle cx="115.6" cy="148" r="2"/><circle cx="115.6" cy="152.9" r="2"/><circle cx="115.6" cy="157.8" r="2"/><circle cx="115.6" cy="162.6" r="2"/><circle cx="115.6" cy="167.5" r="2"/><circle cx="115.6" cy="172.4" r="2"/><circle cx="115.6" cy="177.3" r="2"/><circle cx="115.6" cy="182.2" r="2"/><circle cx="115.6" cy="187" r="2"/><circle cx="115.6" cy="191.9" r="2"/><circle cx="115.6" cy="196.8" r="2"/><circle cx="115.6" cy="201.7" r="2"/><circle cx="115.6" cy="206.6" r="2"/><circle cx="115.6" cy="211.4" r="2"/><g><circle cx="45.8" cy="216.9" r="2"/><circle cx="45.8" cy="221.8" r="2"/><circle cx="45.8" cy="226.7" r="2"/><circle cx="45.8" cy="231.6" r="2"/><circle cx="45.8" cy="236.4" r="2"/><circle cx="45.8" cy="241.3" r="2"/><circle cx="45.8" cy="246.2" r="2"/><circle cx="50.9" cy="216.9" r="2"/><circle cx="50.9" cy="221.8" r="2"/><circle cx="50.9" cy="226.7" r="2"/><circle cx="50.9" cy="231.6" r="2"/><circle cx="50.9" cy="236.4" r="2"/><circle cx="50.9" cy="241.3" r="2"/><circle cx="50.9" cy="246.2" r="2"/><circle cx="56.1" cy="216.9" r="2"/><circle cx="56.1" cy="221.8" r="2"/><circle cx="56.1" cy="226.7" r="2"/><circle cx="56.1" cy="231.6" r="2"/><circle cx="56.1" cy="236.4" r="2"/><circle cx="56.1" cy="241.3" r="2"/><circle cx="56.1" cy="246.2" r="2"/><circle cx="61.5" cy="216.9" r="2"/><circle cx="61.5" cy="221.8" r="2"/><circle cx="61.5" cy="226.7" r="2"/><circle cx="61.5" cy="231.6" r="2"/><circle cx="61.5" cy="236.4" r="2"/><circle cx="61.5" cy="241.3" r="2"/><circle cx="61.5" cy="246.2" r="2"/><circle cx="66.7" cy="216.9" r="2"/><circle cx="66.7" cy="221.8" r="2"/><circle cx="66.7" cy="226.7" r="2"/><circle cx="66.7" cy="231.6" r="2"/><circle cx="66.7" cy="236.4" r="2"/><circle cx="66.7" cy="241.3" r="2"/><circle cx="66.7" cy="246.2" r="2"/><circle cx="72.1" cy="216.9" r="2"/><circle cx="72.1" cy="221.8" r="2"/><circle cx="72.1" cy="226.7" r="2"/><circle cx="72.1" cy="231.6" r="2"/><circle cx="72.1" cy="236.4" r="2"/><circle cx="72.1" cy="241.3" r="2"/><circle cx="72.1" cy="246.2" r="2"/><circle cx="77.5" cy="216.9" r="2"/><circle cx="77.5" cy="221.8" r="2"/><circle cx="77.5" cy="226.7" r="2"/><circle cx="77.5" cy="231.6" r="2"/><circle cx="77.5" cy="236.4" r="2"/><circle cx="77.5" cy="241.3" r="2"/><circle cx="77.5" cy="246.2" r="2"/><circle cx="82.7" cy="216.9" r="2"/><circle cx="82.7" cy="221.8" r="2"/><circle cx="82.7" cy="226.7" r="2"/><circle cx="82.7" cy="231.6" r="2"/><circle cx="82.7" cy="236.4" r="2"/><circle cx="82.7" cy="241.3" r="2"/><circle cx="82.7" cy="246.2" r="2"/><circle cx="88.2" cy="216.9" r="2"/><circle cx="88.2" cy="221.8" r="2"/><circle cx="88.2" cy="226.7" r="2"/><circle cx="88.2" cy="231.6" r="2"/><circle cx="88.2" cy="236.4" r="2"/><circle cx="88.2" cy="241.3" r="2"/><circle cx="88.2" cy="246.2" r="2"/><circle cx="93.6" cy="216.9" r="2"/><circle cx="93.6" cy="221.8" r="2"/><circle cx="93.6" cy="226.7" r="2"/><circle cx="93.6" cy="231.6" r="2"/><circle cx="93.6" cy="236.4" r="2"/><circle cx="93.6" cy="241.3" r="2"/><circle cx="93.6" cy="246.2" r="2"/><circle cx="98.8" cy="216.9" r="2"/><circle cx="98.8" cy="221.8" r="2"/><circle cx="98.8" cy="226.7" r="2"/><circle cx="98.8" cy="231.6" r="2"/><circle cx="98.8" cy="236.4" r="2"/><circle cx="98.8" cy="241.3" r="2"/><circle cx="98.8" cy="246.2" r="2"/><circle cx="104.3" cy="216.9" r="2"/><circle cx="104.3" cy="221.8" r="2"/><circle cx="104.3" cy="226.7" r="2"/><circle cx="104.3" cy="231.6" r="2"/><circle cx="104.3" cy="236.4" r="2"/><circle cx="104.3" cy="241.3" r="2"/><circle cx="104.3" cy="246.2" r="2"/><circle cx="109.9" cy="216.9" r="2"/><circle cx="109.9" cy="221.8" r="2"/><circle cx="109.9" cy="226.7" r="2"/><circle cx="109.9" cy="231.6" r="2"/><circle cx="109.9" cy="236.4" r="2"/><circle cx="109.9" cy="241.3" r="2"/><circle cx="109.9" cy="246.2" r="2"/><circle cx="115.6" cy="216.9" r="2"/><circle cx="115.6" cy="221.8" r="2"/><circle cx="115.6" cy="226.7" r="2"/><circle cx="115.6" cy="231.6" r="2"/><circle cx="115.6" cy="236.4" r="2"/><circle cx="115.6" cy="241.3" r="2"/><circle cx="115.6" cy="246.2" r="2"/></g></g><g><defs><path id="bc" d="M121.4 165.5s3.8-19.5 13.5-28c0 0 12.4-14.9 12.9-17.4l-10-2.8s-21.2 20-23.5 29.3c0 0-17.4 47.5-38.6 59.3-3.2 1.8-6.1 4-8.4 6.8l-9.2 11 21.6 10.5s20.6-23.4 24.7-31.4c4.1-8 0 0 0 0s16.4-32.6 17-37.3"/></defs><clipPath id="bd"><use xlink:href="#bc" overflow="visible"/></clipPath><g clip-path="url(#bd)" fill="#AAA"><circle cx="121.8" cy="83.3" r="2"/><circle cx="121.8" cy="88.2" r="2"/><circle cx="121.8" cy="93" r="2"/><circle cx="121.8" cy="97.9" r="2"/><circle cx="121.8" cy="102.8" r="2"/><circle cx="121.8" cy="107.7" r="2"/><circle cx="121.8" cy="112.6" r="2"/><circle cx="121.8" cy="117.4" r="2"/><circle cx="121.8" cy="122.3" r="2"/><circle cx="121.8" cy="127.2" r="2"/><circle cx="121.8" cy="132.1" r="2"/><circle cx="121.8" cy="137" r="2"/><circle cx="121.8" cy="141.8" r="2"/><circle cx="121.8" cy="146.7" r="2"/><circle cx="121.8" cy="151.6" r="2"/><circle cx="121.8" cy="156.5" r="2"/><circle cx="127" cy="83.3" r="2"/><circle cx="127" cy="88.2" r="2"/><circle cx="127" cy="93" r="2"/><circle cx="127" cy="97.9" r="2"/><circle cx="127" cy="102.8" r="2"/><circle cx="127" cy="107.7" r="2"/><circle cx="127" cy="112.6" r="2"/><circle cx="127" cy="117.4" r="2"/><circle cx="127" cy="122.3" r="2"/><circle cx="127" cy="127.2" r="2"/><circle cx="127" cy="132.1" r="2"/><circle cx="127" cy="137" r="2"/><circle cx="127" cy="141.8" r="2"/><circle cx="127" cy="146.7" r="2"/><circle cx="127" cy="151.6" r="2"/><circle cx="127" cy="156.5" r="2"/><circle cx="132.1" cy="83.3" r="2"/><circle cx="132.1" cy="88.2" r="2"/><circle cx="132.1" cy="93" r="2"/><circle cx="132.1" cy="97.9" r="2"/><circle cx="132.1" cy="102.8" r="2"/><circle cx="132.1" cy="107.7" r="2"/><circle cx="132.1" cy="112.6" r="2"/><circle cx="132.1" cy="117.4" r="2"/><circle cx="132.1" cy="122.3" r="2"/><circle cx="132.1" cy="127.2" r="2"/><circle cx="132.1" cy="132.1" r="2"/><circle cx="132.1" cy="137" r="2"/><circle cx="132.1" cy="141.8" r="2"/><circle cx="132.1" cy="146.7" r="2"/><circle cx="132.1" cy="151.6" r="2"/><circle cx="132.1" cy="156.5" r="2"/><circle cx="137.5" cy="83.3" r="2"/><circle cx="137.5" cy="88.2" r="2"/><circle cx="137.5" cy="93" r="2"/><circle cx="137.5" cy="97.9" r="2"/><circle cx="137.5" cy="102.8" r="2"/><circle cx="137.5" cy="107.7" r="2"/><circle cx="137.5" cy="112.6" r="2"/><circle cx="137.5" cy="117.4" r="2"/><circle cx="137.5" cy="122.3" r="2"/><circle cx="137.5" cy="127.2" r="2"/><circle cx="137.5" cy="132.1" r="2"/><circle cx="137.5" cy="137" r="2"/><circle cx="137.5" cy="141.8" r="2"/><circle cx="137.5" cy="146.7" r="2"/><circle cx="137.5" cy="151.6" r="2"/><circle cx="137.5" cy="156.5" r="2"/><circle cx="142.8" cy="83.3" r="2"/><circle cx="142.8" cy="88.2" r="2"/><circle cx="142.8" cy="93" r="2"/><circle cx="142.8" cy="97.9" r="2"/><circle cx="142.8" cy="102.8" r="2"/><circle cx="142.8" cy="107.7" r="2"/><circle cx="142.8" cy="112.6" r="2"/><circle cx="142.8" cy="117.4" r="2"/><circle cx="142.8" cy="122.3" r="2"/><circle cx="142.8" cy="127.2" r="2"/><circle cx="142.8" cy="132.1" r="2"/><circle cx="142.8" cy="137" r="2"/><circle cx="142.8" cy="141.8" r="2"/><circle cx="142.8" cy="146.7" r="2"/><circle cx="142.8" cy="151.6" r="2"/><circle cx="142.8" cy="156.5" r="2"/><circle cx="148.2" cy="83.3" r="2"/><circle cx="148.2" cy="88.2" r="2"/><circle cx="148.2" cy="93" r="2"/><circle cx="148.2" cy="97.9" r="2"/><circle cx="148.2" cy="102.8" r="2"/><circle cx="148.2" cy="107.7" r="2"/><circle cx="148.2" cy="112.6" r="2"/><circle cx="148.2" cy="117.4" r="2"/><circle cx="148.2" cy="122.3" r="2"/><circle cx="148.2" cy="127.2" r="2"/><circle cx="148.2" cy="132.1" r="2"/><circle cx="148.2" cy="137" r="2"/><circle cx="148.2" cy="141.8" r="2"/><circle cx="148.2" cy="146.7" r="2"/><circle cx="148.2" cy="151.6" r="2"/><circle cx="148.2" cy="156.5" r="2"/><circle cx="153.5" cy="83.3" r="2"/><circle cx="153.5" cy="88.2" r="2"/><circle cx="153.5" cy="93" r="2"/><circle cx="153.5" cy="97.9" r="2"/><circle cx="153.5" cy="102.8" r="2"/><circle cx="153.5" cy="107.7" r="2"/><circle cx="153.5" cy="112.6" r="2"/><circle cx="153.5" cy="117.4" r="2"/><circle cx="153.5" cy="122.3" r="2"/><circle cx="153.5" cy="127.2" r="2"/><circle cx="153.5" cy="132.1" r="2"/><circle cx="153.5" cy="137" r="2"/><circle cx="153.5" cy="141.8" r="2"/><circle cx="153.5" cy="146.7" r="2"/><circle cx="153.5" cy="151.6" r="2"/><circle cx="153.5" cy="156.5" r="2"/><circle cx="158.7" cy="83.3" r="2"/><circle cx="158.7" cy="88.2" r="2"/><circle cx="158.7" cy="93" r="2"/><circle cx="158.7" cy="97.9" r="2"/><circle cx="158.7" cy="102.8" r="2"/><circle cx="158.7" cy="107.7" r="2"/><circle cx="158.7" cy="112.6" r="2"/><circle cx="158.7" cy="117.4" r="2"/><circle cx="158.7" cy="122.3" r="2"/><circle cx="158.7" cy="127.2" r="2"/><circle cx="158.7" cy="132.1" r="2"/><circle cx="158.7" cy="137" r="2"/><circle cx="158.7" cy="141.8" r="2"/><circle cx="158.7" cy="146.7" r="2"/><circle cx="158.7" cy="151.6" r="2"/><circle cx="158.7" cy="156.5" r="2"/><circle cx="164.2" cy="83.3" r="2"/><circle cx="164.2" cy="88.2" r="2"/><circle cx="164.2" cy="93" r="2"/><circle cx="164.2" cy="97.9" r="2"/><circle cx="164.2" cy="102.8" r="2"/><circle cx="164.2" cy="107.7" r="2"/><circle cx="164.2" cy="112.6" r="2"/><circle cx="164.2" cy="117.4" r="2"/><circle cx="164.2" cy="122.3" r="2"/><circle cx="164.2" cy="127.2" r="2"/><circle cx="164.2" cy="132.1" r="2"/><circle cx="164.2" cy="137" r="2"/><circle cx="164.2" cy="141.8" r="2"/><circle cx="164.2" cy="146.7" r="2"/><circle cx="164.2" cy="151.6" r="2"/><circle cx="164.2" cy="156.5" r="2"/><circle cx="169.7" cy="83.3" r="2"/><circle cx="169.7" cy="88.2" r="2"/><circle cx="169.7" cy="93" r="2"/><circle cx="169.7" cy="97.9" r="2"/><circle cx="169.7" cy="102.8" r="2"/><circle cx="169.7" cy="107.7" r="2"/><circle cx="169.7" cy="112.6" r="2"/><circle cx="169.7" cy="117.4" r="2"/><circle cx="169.7" cy="122.3" r="2"/><circle cx="169.7" cy="127.2" r="2"/><circle cx="169.7" cy="132.1" r="2"/><circle cx="169.7" cy="137" r="2"/><circle cx="169.7" cy="141.8" r="2"/><circle cx="169.7" cy="146.7" r="2"/><circle cx="169.7" cy="151.6" r="2"/><circle cx="169.7" cy="156.5" r="2"/><circle cx="174.9" cy="83.3" r="2"/><circle cx="174.9" cy="88.2" r="2"/><circle cx="174.9" cy="93" r="2"/><circle cx="174.9" cy="97.9" r="2"/><circle cx="174.9" cy="102.8" r="2"/><circle cx="174.9" cy="107.7" r="2"/><circle cx="174.9" cy="112.6" r="2"/><circle cx="174.9" cy="117.4" r="2"/><circle cx="174.9" cy="122.3" r="2"/><circle cx="174.9" cy="127.2" r="2"/><circle cx="174.9" cy="132.1" r="2"/><circle cx="174.9" cy="137" r="2"/><circle cx="174.9" cy="141.8" r="2"/><circle cx="174.9" cy="146.7" r="2"/><circle cx="174.9" cy="151.6" r="2"/><circle cx="174.9" cy="156.5" r="2"/><circle cx="180.4" cy="83.3" r="2"/><circle cx="180.4" cy="88.2" r="2"/><circle cx="180.4" cy="93" r="2"/><circle cx="180.4" cy="97.9" r="2"/><circle cx="180.4" cy="102.8" r="2"/><circle cx="180.4" cy="107.7" r="2"/><circle cx="180.4" cy="112.6" r="2"/><circle cx="180.4" cy="117.4" r="2"/><circle cx="180.4" cy="122.3" r="2"/><circle cx="180.4" cy="127.2" r="2"/><circle cx="180.4" cy="132.1" r="2"/><circle cx="180.4" cy="137" r="2"/><circle cx="180.4" cy="141.8" r="2"/><circle cx="180.4" cy="146.7" r="2"/><circle cx="180.4" cy="151.6" r="2"/><circle cx="180.4" cy="156.5" r="2"/><circle cx="185.9" cy="83.3" r="2"/><circle cx="185.9" cy="88.2" r="2"/><circle cx="185.9" cy="93" r="2"/><circle cx="185.9" cy="97.9" r="2"/><circle cx="185.9" cy="102.8" r="2"/><circle cx="185.9" cy="107.7" r="2"/><circle cx="185.9" cy="112.6" r="2"/><circle cx="185.9" cy="117.4" r="2"/><circle cx="185.9" cy="122.3" r="2"/><circle cx="185.9" cy="127.2" r="2"/><circle cx="185.9" cy="132.1" r="2"/><circle cx="185.9" cy="137" r="2"/><circle cx="185.9" cy="141.8" r="2"/><circle cx="185.9" cy="146.7" r="2"/><circle cx="185.9" cy="151.6" r="2"/><circle cx="185.9" cy="156.5" r="2"/><circle cx="191.6" cy="83.3" r="2"/><circle cx="191.6" cy="88.2" r="2"/><circle cx="191.6" cy="93" r="2"/><circle cx="191.6" cy="97.9" r="2"/><circle cx="191.6" cy="102.8" r="2"/><circle cx="191.6" cy="107.7" r="2"/><circle cx="191.6" cy="112.6" r="2"/><circle cx="191.6" cy="117.4" r="2"/><circle cx="191.6" cy="122.3" r="2"/><circle cx="191.6" cy="127.2" r="2"/><circle cx="191.6" cy="132.1" r="2"/><circle cx="191.6" cy="137" r="2"/><circle cx="191.6" cy="141.8" r="2"/><circle cx="191.6" cy="146.7" r="2"/><circle cx="191.6" cy="151.6" r="2"/><circle cx="191.6" cy="156.5" r="2"/><g><circle cx="121.8" cy="161.9" r="2"/><circle cx="121.8" cy="166.8" r="2"/><circle cx="121.8" cy="171.7" r="2"/><circle cx="121.8" cy="176.6" r="2"/><circle cx="121.8" cy="181.5" r="2"/><circle cx="121.8" cy="186.3" r="2"/><circle cx="121.8" cy="191.2" r="2"/><circle cx="121.8" cy="196.1" r="2"/><circle cx="121.8" cy="201" r="2"/><circle cx="121.8" cy="205.9" r="2"/><circle cx="121.8" cy="210.7" r="2"/><circle cx="121.8" cy="215.6" r="2"/><circle cx="121.8" cy="220.5" r="2"/><circle cx="121.8" cy="225.4" r="2"/><circle cx="121.8" cy="230.3" r="2"/><circle cx="121.8" cy="235.1" r="2"/><circle cx="127" cy="161.9" r="2"/><circle cx="127" cy="166.8" r="2"/><circle cx="127" cy="171.7" r="2"/><circle cx="127" cy="176.6" r="2"/><circle cx="127" cy="181.5" r="2"/><circle cx="127" cy="186.3" r="2"/><circle cx="127" cy="191.2" r="2"/><circle cx="127" cy="196.1" r="2"/><circle cx="127" cy="201" r="2"/><circle cx="127" cy="205.9" r="2"/><circle cx="127" cy="210.7" r="2"/><circle cx="127" cy="215.6" r="2"/><circle cx="127" cy="220.5" r="2"/><circle cx="127" cy="225.4" r="2"/><circle cx="127" cy="230.3" r="2"/><circle cx="127" cy="235.1" r="2"/><circle cx="132.1" cy="161.9" r="2"/><circle cx="132.1" cy="166.8" r="2"/><circle cx="132.1" cy="171.7" r="2"/><circle cx="132.1" cy="176.6" r="2"/><circle cx="132.1" cy="181.5" r="2"/><circle cx="132.1" cy="186.3" r="2"/><circle cx="132.1" cy="191.2" r="2"/><circle cx="132.1" cy="196.1" r="2"/><circle cx="132.1" cy="201" r="2"/><circle cx="132.1" cy="205.9" r="2"/><circle cx="132.1" cy="210.7" r="2"/><circle cx="132.1" cy="215.6" r="2"/><circle cx="132.1" cy="220.5" r="2"/><circle cx="132.1" cy="225.4" r="2"/><circle cx="132.1" cy="230.3" r="2"/><circle cx="132.1" cy="235.1" r="2"/><circle cx="137.5" cy="161.9" r="2"/><circle cx="137.5" cy="166.8" r="2"/><circle cx="137.5" cy="171.7" r="2"/><circle cx="137.5" cy="176.6" r="2"/><circle cx="137.5" cy="181.5" r="2"/><circle cx="137.5" cy="186.3" r="2"/><circle cx="137.5" cy="191.2" r="2"/><circle cx="137.5" cy="196.1" r="2"/><circle cx="137.5" cy="201" r="2"/><circle cx="137.5" cy="205.9" r="2"/><circle cx="137.5" cy="210.7" r="2"/><circle cx="137.5" cy="215.6" r="2"/><circle cx="137.5" cy="220.5" r="2"/><circle cx="137.5" cy="225.4" r="2"/><circle cx="137.5" cy="230.3" r="2"/><circle cx="137.5" cy="235.1" r="2"/><circle cx="142.8" cy="161.9" r="2"/><circle cx="142.8" cy="166.8" r="2"/><circle cx="142.8" cy="171.7" r="2"/><circle cx="142.8" cy="176.6" r="2"/><circle cx="142.8" cy="181.5" r="2"/><circle cx="142.8" cy="186.3" r="2"/><circle cx="142.8" cy="191.2" r="2"/><circle cx="142.8" cy="196.1" r="2"/><circle cx="142.8" cy="201" r="2"/><circle cx="142.8" cy="205.9" r="2"/><circle cx="142.8" cy="210.7" r="2"/><circle cx="142.8" cy="215.6" r="2"/><circle cx="142.8" cy="220.5" r="2"/><circle cx="142.8" cy="225.4" r="2"/><circle cx="142.8" cy="230.3" r="2"/><circle cx="142.8" cy="235.1" r="2"/><circle cx="148.2" cy="161.9" r="2"/><circle cx="148.2" cy="166.8" r="2"/><circle cx="148.2" cy="171.7" r="2"/><circle cx="148.2" cy="176.6" r="2"/><circle cx="148.2" cy="181.5" r="2"/><circle cx="148.2" cy="186.3" r="2"/><circle cx="148.2" cy="191.2" r="2"/><circle cx="148.2" cy="196.1" r="2"/><circle cx="148.2" cy="201" r="2"/><circle cx="148.2" cy="205.9" r="2"/><circle cx="148.2" cy="210.7" r="2"/><circle cx="148.2" cy="215.6" r="2"/><circle cx="148.2" cy="220.5" r="2"/><circle cx="148.2" cy="225.4" r="2"/><circle cx="148.2" cy="230.3" r="2"/><circle cx="148.2" cy="235.1" r="2"/><circle cx="153.5" cy="161.9" r="2"/><circle cx="153.5" cy="166.8" r="2"/><circle cx="153.5" cy="171.7" r="2"/><circle cx="153.5" cy="176.6" r="2"/><circle cx="153.5" cy="181.5" r="2"/><circle cx="153.5" cy="186.3" r="2"/><circle cx="153.5" cy="191.2" r="2"/><circle cx="153.5" cy="196.1" r="2"/><circle cx="153.5" cy="201" r="2"/><circle cx="153.5" cy="205.9" r="2"/><circle cx="153.5" cy="210.7" r="2"/><circle cx="153.5" cy="215.6" r="2"/><circle cx="153.5" cy="220.5" r="2"/><circle cx="153.5" cy="225.4" r="2"/><circle cx="153.5" cy="230.3" r="2"/><circle cx="153.5" cy="235.1" r="2"/><circle cx="158.7" cy="161.9" r="2"/><circle cx="158.7" cy="166.8" r="2"/><circle cx="158.7" cy="171.7" r="2"/><circle cx="158.7" cy="176.6" r="2"/><circle cx="158.7" cy="181.5" r="2"/><circle cx="158.7" cy="186.3" r="2"/><circle cx="158.7" cy="191.2" r="2"/><circle cx="158.7" cy="196.1" r="2"/><circle cx="158.7" cy="201" r="2"/><circle cx="158.7" cy="205.9" r="2"/><circle cx="158.7" cy="210.7" r="2"/><circle cx="158.7" cy="215.6" r="2"/><circle cx="158.7" cy="220.5" r="2"/><circle cx="158.7" cy="225.4" r="2"/><circle cx="158.7" cy="230.3" r="2"/><circle cx="158.7" cy="235.1" r="2"/><circle cx="164.2" cy="161.9" r="2"/><circle cx="164.2" cy="166.8" r="2"/><circle cx="164.2" cy="171.7" r="2"/><circle cx="164.2" cy="176.6" r="2"/><circle cx="164.2" cy="181.5" r="2"/><circle cx="164.2" cy="186.3" r="2"/><circle cx="164.2" cy="191.2" r="2"/><circle cx="164.2" cy="196.1" r="2"/><circle cx="164.2" cy="201" r="2"/><circle cx="164.2" cy="205.9" r="2"/><circle cx="164.2" cy="210.7" r="2"/><circle cx="164.2" cy="215.6" r="2"/><circle cx="164.2" cy="220.5" r="2"/><circle cx="164.2" cy="225.4" r="2"/><circle cx="164.2" cy="230.3" r="2"/><circle cx="164.2" cy="235.1" r="2"/><circle cx="169.7" cy="161.9" r="2"/><circle cx="169.7" cy="166.8" r="2"/><circle cx="169.7" cy="171.7" r="2"/><circle cx="169.7" cy="176.6" r="2"/><circle cx="169.7" cy="181.5" r="2"/><circle cx="169.7" cy="186.3" r="2"/><circle cx="169.7" cy="191.2" r="2"/><circle cx="169.7" cy="196.1" r="2"/><circle cx="169.7" cy="201" r="2"/><circle cx="169.7" cy="205.9" r="2"/><circle cx="169.7" cy="210.7" r="2"/><circle cx="169.7" cy="215.6" r="2"/><circle cx="169.7" cy="220.5" r="2"/><circle cx="169.7" cy="225.4" r="2"/><circle cx="169.7" cy="230.3" r="2"/><circle cx="169.7" cy="235.1" r="2"/><circle cx="174.9" cy="161.9" r="2"/><circle cx="174.9" cy="166.8" r="2"/><circle cx="174.9" cy="171.7" r="2"/><circle cx="174.9" cy="176.6" r="2"/><circle cx="174.9" cy="181.5" r="2"/><circle cx="174.9" cy="186.3" r="2"/><circle cx="174.9" cy="191.2" r="2"/><circle cx="174.9" cy="196.1" r="2"/><circle cx="174.9" cy="201" r="2"/><circle cx="174.9" cy="205.9" r="2"/><circle cx="174.9" cy="210.7" r="2"/><circle cx="174.9" cy="215.6" r="2"/><circle cx="174.9" cy="220.5" r="2"/><circle cx="174.9" cy="225.4" r="2"/><circle cx="174.9" cy="230.3" r="2"/><circle cx="174.9" cy="235.1" r="2"/><circle cx="180.4" cy="161.9" r="2"/><circle cx="180.4" cy="166.8" r="2"/><circle cx="180.4" cy="171.7" r="2"/><circle cx="180.4" cy="176.6" r="2"/><circle cx="180.4" cy="181.5" r="2"/><circle cx="180.4" cy="186.3" r="2"/><circle cx="180.4" cy="191.2" r="2"/><circle cx="180.4" cy="196.1" r="2"/><circle cx="180.4" cy="201" r="2"/><circle cx="180.4" cy="205.9" r="2"/><circle cx="180.4" cy="210.7" r="2"/><circle cx="180.4" cy="215.6" r="2"/><circle cx="180.4" cy="220.5" r="2"/><circle cx="180.4" cy="225.4" r="2"/><circle cx="180.4" cy="230.3" r="2"/><circle cx="180.4" cy="235.1" r="2"/><circle cx="185.9" cy="161.9" r="2"/><circle cx="185.9" cy="166.8" r="2"/><circle cx="185.9" cy="171.7" r="2"/><circle cx="185.9" cy="176.6" r="2"/><circle cx="185.9" cy="181.5" r="2"/><circle cx="185.9" cy="186.3" r="2"/><circle cx="185.9" cy="191.2" r="2"/><circle cx="185.9" cy="196.1" r="2"/><circle cx="185.9" cy="201" r="2"/><circle cx="185.9" cy="205.9" r="2"/><circle cx="185.9" cy="210.7" r="2"/><circle cx="185.9" cy="215.6" r="2"/><circle cx="185.9" cy="220.5" r="2"/><circle cx="185.9" cy="225.4" r="2"/><circle cx="185.9" cy="230.3" r="2"/><circle cx="185.9" cy="235.1" r="2"/><circle cx="191.6" cy="161.9" r="2"/><circle cx="191.6" cy="166.8" r="2"/><circle cx="191.6" cy="171.7" r="2"/><circle cx="191.6" cy="176.6" r="2"/><circle cx="191.6" cy="181.5" r="2"/><circle cx="191.6" cy="186.3" r="2"/><circle cx="191.6" cy="191.2" r="2"/><circle cx="191.6" cy="196.1" r="2"/><circle cx="191.6" cy="201" r="2"/><circle cx="191.6" cy="205.9" r="2"/><circle cx="191.6" cy="210.7" r="2"/><circle cx="191.6" cy="215.6" r="2"/><circle cx="191.6" cy="220.5" r="2"/><circle cx="191.6" cy="225.4" r="2"/><circle cx="191.6" cy="230.3" r="2"/><circle cx="191.6" cy="235.1" r="2"/></g></g></g></g><g><defs><path id="be" d="M131.1 89.5s-8.3 1.2-12-3.1c0 0-12.9 4.3-20.6 2.8 0 0-13.8 20.6-18.8 19.1 0 0 .9 20.6-4.6 20 0 0 13.5 10.1 11.4 17.2l5.9-3.5-2.1-1.8s5.4-8.3.8-16.9c0 0 3.2-3.8 2.1-7.3 0 0 6.3-1.7 7.8-2.6 0 0 5.9 5.5 12.2 3.4 0 0 12.9-19.5 20.3-19.7l-2.4-7.6z"/></defs><clipPath id="bf"><use xlink:href="#be" overflow="visible"/></clipPath><g clip-path="url(#bf)" fill="#AAA"><circle cx="31.1" cy="68.3" r="2"/><circle cx="31.1" cy="73.1" r="2"/><circle cx="31.1" cy="78" r="2"/><circle cx="31.1" cy="82.9" r="2"/><circle cx="31.1" cy="87.8" r="2"/><circle cx="31.1" cy="92.7" r="2"/><circle cx="31.1" cy="97.5" r="2"/><circle cx="31.1" cy="102.4" r="2"/><circle cx="31.1" cy="107.3" r="2"/><circle cx="31.1" cy="112.2" r="2"/><circle cx="31.1" cy="117.1" r="2"/><circle cx="31.1" cy="121.9" r="2"/><circle cx="31.1" cy="126.8" r="2"/><circle cx="31.1" cy="131.7" r="2"/><circle cx="31.1" cy="136.6" r="2"/><circle cx="31.1" cy="141.5" r="2"/><circle cx="36.3" cy="68.3" r="2"/><circle cx="36.3" cy="73.1" r="2"/><circle cx="36.3" cy="78" r="2"/><circle cx="36.3" cy="82.9" r="2"/><circle cx="36.3" cy="87.8" r="2"/><circle cx="36.3" cy="92.7" r="2"/><circle cx="36.3" cy="97.5" r="2"/><circle cx="36.3" cy="102.4" r="2"/><circle cx="36.3" cy="107.3" r="2"/><circle cx="36.3" cy="112.2" r="2"/><circle cx="36.3" cy="117.1" r="2"/><circle cx="36.3" cy="121.9" r="2"/><circle cx="36.3" cy="126.8" r="2"/><circle cx="36.3" cy="131.7" r="2"/><circle cx="36.3" cy="136.6" r="2"/><circle cx="36.3" cy="141.5" r="2"/><circle cx="41.4" cy="68.3" r="2"/><circle cx="41.4" cy="73.1" r="2"/><circle cx="41.4" cy="78" r="2"/><circle cx="41.4" cy="82.9" r="2"/><circle cx="41.4" cy="87.8" r="2"/><circle cx="41.4" cy="92.7" r="2"/><circle cx="41.4" cy="97.5" r="2"/><circle cx="41.4" cy="102.4" r="2"/><circle cx="41.4" cy="107.3" r="2"/><circle cx="41.4" cy="112.2" r="2"/><circle cx="41.4" cy="117.1" r="2"/><circle cx="41.4" cy="121.9" r="2"/><circle cx="41.4" cy="126.8" r="2"/><circle cx="41.4" cy="131.7" r="2"/><circle cx="41.4" cy="136.6" r="2"/><circle cx="41.4" cy="141.5" r="2"/><circle cx="46.8" cy="68.3" r="2"/><circle cx="46.8" cy="73.1" r="2"/><circle cx="46.8" cy="78" r="2"/><circle cx="46.8" cy="82.9" r="2"/><circle cx="46.8" cy="87.8" r="2"/><circle cx="46.8" cy="92.7" r="2"/><circle cx="46.8" cy="97.5" r="2"/><circle cx="46.8" cy="102.4" r="2"/><circle cx="46.8" cy="107.3" r="2"/><circle cx="46.8" cy="112.2" r="2"/><circle cx="46.8" cy="117.1" r="2"/><circle cx="46.8" cy="121.9" r="2"/><circle cx="46.8" cy="126.8" r="2"/><circle cx="46.8" cy="131.7" r="2"/><circle cx="46.8" cy="136.6" r="2"/><circle cx="46.8" cy="141.5" r="2"/><circle cx="52" cy="68.3" r="2"/><circle cx="52" cy="73.1" r="2"/><circle cx="52" cy="78" r="2"/><circle cx="52" cy="82.9" r="2"/><circle cx="52" cy="87.8" r="2"/><circle cx="52" cy="92.7" r="2"/><circle cx="52" cy="97.5" r="2"/><circle cx="52" cy="102.4" r="2"/><circle cx="52" cy="107.3" r="2"/><circle cx="52" cy="112.2" r="2"/><circle cx="52" cy="117.1" r="2"/><circle cx="52" cy="121.9" r="2"/><circle cx="52" cy="126.8" r="2"/><circle cx="52" cy="131.7" r="2"/><circle cx="52" cy="136.6" r="2"/><circle cx="52" cy="141.5" r="2"/><circle cx="57.5" cy="68.3" r="2"/><circle cx="57.5" cy="73.1" r="2"/><circle cx="57.5" cy="78" r="2"/><circle cx="57.5" cy="82.9" r="2"/><circle cx="57.5" cy="87.8" r="2"/><circle cx="57.5" cy="92.7" r="2"/><circle cx="57.5" cy="97.5" r="2"/><circle cx="57.5" cy="102.4" r="2"/><circle cx="57.5" cy="107.3" r="2"/><circle cx="57.5" cy="112.2" r="2"/><circle cx="57.5" cy="117.1" r="2"/><circle cx="57.5" cy="121.9" r="2"/><circle cx="57.5" cy="126.8" r="2"/><circle cx="57.5" cy="131.7" r="2"/><circle cx="57.5" cy="136.6" r="2"/><circle cx="57.5" cy="141.5" r="2"/><circle cx="62.8" cy="68.3" r="2"/><circle cx="62.8" cy="73.1" r="2"/><circle cx="62.8" cy="78" r="2"/><circle cx="62.8" cy="82.9" r="2"/><circle cx="62.8" cy="87.8" r="2"/><circle cx="62.8" cy="92.7" r="2"/><circle cx="62.8" cy="97.5" r="2"/><circle cx="62.8" cy="102.4" r="2"/><circle cx="62.8" cy="107.3" r="2"/><circle cx="62.8" cy="112.2" r="2"/><circle cx="62.8" cy="117.1" r="2"/><circle cx="62.8" cy="121.9" r="2"/><circle cx="62.8" cy="126.8" r="2"/><circle cx="62.8" cy="131.7" r="2"/><circle cx="62.8" cy="136.6" r="2"/><circle cx="62.8" cy="141.5" r="2"/><circle cx="68" cy="68.3" r="2"/><circle cx="68" cy="73.1" r="2"/><circle cx="68" cy="78" r="2"/><circle cx="68" cy="82.9" r="2"/><circle cx="68" cy="87.8" r="2"/><circle cx="68" cy="92.7" r="2"/><circle cx="68" cy="97.5" r="2"/><circle cx="68" cy="102.4" r="2"/><circle cx="68" cy="107.3" r="2"/><circle cx="68" cy="112.2" r="2"/><circle cx="68" cy="117.1" r="2"/><circle cx="68" cy="121.9" r="2"/><circle cx="68" cy="126.8" r="2"/><circle cx="68" cy="131.7" r="2"/><circle cx="68" cy="136.6" r="2"/><circle cx="68" cy="141.5" r="2"/><circle cx="73.5" cy="68.3" r="2"/><circle cx="73.5" cy="73.1" r="2"/><circle cx="73.5" cy="78" r="2"/><circle cx="73.5" cy="82.9" r="2"/><circle cx="73.5" cy="87.8" r="2"/><circle cx="73.5" cy="92.7" r="2"/><circle cx="73.5" cy="97.5" r="2"/><circle cx="73.5" cy="102.4" r="2"/><circle cx="73.5" cy="107.3" r="2"/><circle cx="73.5" cy="112.2" r="2"/><circle cx="73.5" cy="117.1" r="2"/><circle cx="73.5" cy="121.9" r="2"/><circle cx="73.5" cy="126.8" r="2"/><circle cx="73.5" cy="131.7" r="2"/><circle cx="73.5" cy="136.6" r="2"/><circle cx="73.5" cy="141.5" r="2"/><circle cx="78.9" cy="68.3" r="2"/><circle cx="78.9" cy="73.1" r="2"/><circle cx="78.9" cy="78" r="2"/><circle cx="78.9" cy="82.9" r="2"/><circle cx="78.9" cy="87.8" r="2"/><circle cx="78.9" cy="92.7" r="2"/><circle cx="78.9" cy="97.5" r="2"/><circle cx="78.9" cy="102.4" r="2"/><circle cx="78.9" cy="107.3" r="2"/><circle cx="78.9" cy="112.2" r="2"/><circle cx="78.9" cy="117.1" r="2"/><circle cx="78.9" cy="121.9" r="2"/><circle cx="78.9" cy="126.8" r="2"/><circle cx="78.9" cy="131.7" r="2"/><circle cx="78.9" cy="136.6" r="2"/><circle cx="78.9" cy="141.5" r="2"/><circle cx="84.1" cy="68.3" r="2"/><circle cx="84.1" cy="73.1" r="2"/><circle cx="84.1" cy="78" r="2"/><circle cx="84.1" cy="82.9" r="2"/><circle cx="84.1" cy="87.8" r="2"/><circle cx="84.1" cy="92.7" r="2"/><circle cx="84.1" cy="97.5" r="2"/><circle cx="84.1" cy="102.4" r="2"/><circle cx="84.1" cy="107.3" r="2"/><circle cx="84.1" cy="112.2" r="2"/><circle cx="84.1" cy="117.1" r="2"/><circle cx="84.1" cy="121.9" r="2"/><circle cx="84.1" cy="126.8" r="2"/><circle cx="84.1" cy="131.7" r="2"/><circle cx="84.1" cy="136.6" r="2"/><circle cx="84.1" cy="141.5" r="2"/><circle cx="89.7" cy="68.3" r="2"/><circle cx="89.7" cy="73.1" r="2"/><circle cx="89.7" cy="78" r="2"/><circle cx="89.7" cy="82.9" r="2"/><circle cx="89.7" cy="87.8" r="2"/><circle cx="89.7" cy="92.7" r="2"/><circle cx="89.7" cy="97.5" r="2"/><circle cx="89.7" cy="102.4" r="2"/><circle cx="89.7" cy="107.3" r="2"/><circle cx="89.7" cy="112.2" r="2"/><circle cx="89.7" cy="117.1" r="2"/><circle cx="89.7" cy="121.9" r="2"/><circle cx="89.7" cy="126.8" r="2"/><circle cx="89.7" cy="131.7" r="2"/><circle cx="89.7" cy="136.6" r="2"/><circle cx="89.7" cy="141.5" r="2"/><circle cx="95.2" cy="68.3" r="2"/><circle cx="95.2" cy="73.1" r="2"/><circle cx="95.2" cy="78" r="2"/><circle cx="95.2" cy="82.9" r="2"/><circle cx="95.2" cy="87.8" r="2"/><circle cx="95.2" cy="92.7" r="2"/><circle cx="95.2" cy="97.5" r="2"/><circle cx="95.2" cy="102.4" r="2"/><circle cx="95.2" cy="107.3" r="2"/><circle cx="95.2" cy="112.2" r="2"/><circle cx="95.2" cy="117.1" r="2"/><circle cx="95.2" cy="121.9" r="2"/><circle cx="95.2" cy="126.8" r="2"/><circle cx="95.2" cy="131.7" r="2"/><circle cx="95.2" cy="136.6" r="2"/><circle cx="95.2" cy="141.5" r="2"/><circle cx="100.9" cy="68.3" r="2"/><circle cx="100.9" cy="73.1" r="2"/><circle cx="100.9" cy="78" r="2"/><circle cx="100.9" cy="82.9" r="2"/><circle cx="100.9" cy="87.8" r="2"/><circle cx="100.9" cy="92.7" r="2"/><circle cx="100.9" cy="97.5" r="2"/><circle cx="100.9" cy="102.4" r="2"/><circle cx="100.9" cy="107.3" r="2"/><circle cx="100.9" cy="112.2" r="2"/><circle cx="100.9" cy="117.1" r="2"/><circle cx="100.9" cy="121.9" r="2"/><circle cx="100.9" cy="126.8" r="2"/><circle cx="100.9" cy="131.7" r="2"/><circle cx="100.9" cy="136.6" r="2"/><circle cx="100.9" cy="141.5" r="2"/><g><circle cx="31.1" cy="146.9" r="2"/><circle cx="31.1" cy="151.8" r="2"/><circle cx="31.1" cy="156.7" r="2"/><circle cx="31.1" cy="161.6" r="2"/><circle cx="31.1" cy="166.4" r="2"/><circle cx="31.1" cy="171.3" r="2"/><circle cx="31.1" cy="176.2" r="2"/><circle cx="31.1" cy="181.1" r="2"/><circle cx="31.1" cy="186" r="2"/><circle cx="31.1" cy="190.8" r="2"/><circle cx="31.1" cy="195.7" r="2"/><circle cx="31.1" cy="200.6" r="2"/><circle cx="31.1" cy="205.5" r="2"/><circle cx="31.1" cy="210.4" r="2"/><circle cx="31.1" cy="215.2" r="2"/><circle cx="31.1" cy="220.1" r="2"/><circle cx="36.3" cy="146.9" r="2"/><circle cx="36.3" cy="151.8" r="2"/><circle cx="36.3" cy="156.7" r="2"/><circle cx="36.3" cy="161.6" r="2"/><circle cx="36.3" cy="166.4" r="2"/><circle cx="36.3" cy="171.3" r="2"/><circle cx="36.3" cy="176.2" r="2"/><circle cx="36.3" cy="181.1" r="2"/><circle cx="36.3" cy="186" r="2"/><circle cx="36.3" cy="190.8" r="2"/><circle cx="36.3" cy="195.7" r="2"/><circle cx="36.3" cy="200.6" r="2"/><circle cx="36.3" cy="205.5" r="2"/><circle cx="36.3" cy="210.4" r="2"/><circle cx="36.3" cy="215.2" r="2"/><circle cx="36.3" cy="220.1" r="2"/><circle cx="41.4" cy="146.9" r="2"/><circle cx="41.4" cy="151.8" r="2"/><circle cx="41.4" cy="156.7" r="2"/><circle cx="41.4" cy="161.6" r="2"/><circle cx="41.4" cy="166.4" r="2"/><circle cx="41.4" cy="171.3" r="2"/><circle cx="41.4" cy="176.2" r="2"/><circle cx="41.4" cy="181.1" r="2"/><circle cx="41.4" cy="186" r="2"/><circle cx="41.4" cy="190.8" r="2"/><circle cx="41.4" cy="195.7" r="2"/><circle cx="41.4" cy="200.6" r="2"/><circle cx="41.4" cy="205.5" r="2"/><circle cx="41.4" cy="210.4" r="2"/><circle cx="41.4" cy="215.2" r="2"/><circle cx="41.4" cy="220.1" r="2"/><circle cx="46.8" cy="146.9" r="2"/><circle cx="46.8" cy="151.8" r="2"/><circle cx="46.8" cy="156.7" r="2"/><circle cx="46.8" cy="161.6" r="2"/><circle cx="46.8" cy="166.4" r="2"/><circle cx="46.8" cy="171.3" r="2"/><circle cx="46.8" cy="176.2" r="2"/><circle cx="46.8" cy="181.1" r="2"/><circle cx="46.8" cy="186" r="2"/><circle cx="46.8" cy="190.8" r="2"/><circle cx="46.8" cy="195.7" r="2"/><circle cx="46.8" cy="200.6" r="2"/><circle cx="46.8" cy="205.5" r="2"/><circle cx="46.8" cy="210.4" r="2"/><circle cx="46.8" cy="215.2" r="2"/><circle cx="46.8" cy="220.1" r="2"/><circle cx="52" cy="146.9" r="2"/><circle cx="52" cy="151.8" r="2"/><circle cx="52" cy="156.7" r="2"/><circle cx="52" cy="161.6" r="2"/><circle cx="52" cy="166.4" r="2"/><circle cx="52" cy="171.3" r="2"/><circle cx="52" cy="176.2" r="2"/><circle cx="52" cy="181.1" r="2"/><circle cx="52" cy="186" r="2"/><circle cx="52" cy="190.8" r="2"/><circle cx="52" cy="195.7" r="2"/><circle cx="52" cy="200.6" r="2"/><circle cx="52" cy="205.5" r="2"/><circle cx="52" cy="210.4" r="2"/><circle cx="52" cy="215.2" r="2"/><circle cx="52" cy="220.1" r="2"/><circle cx="57.5" cy="146.9" r="2"/><circle cx="57.5" cy="151.8" r="2"/><circle cx="57.5" cy="156.7" r="2"/><circle cx="57.5" cy="161.6" r="2"/><circle cx="57.5" cy="166.4" r="2"/><circle cx="57.5" cy="171.3" r="2"/><circle cx="57.5" cy="176.2" r="2"/><circle cx="57.5" cy="181.1" r="2"/><circle cx="57.5" cy="186" r="2"/><circle cx="57.5" cy="190.8" r="2"/><circle cx="57.5" cy="195.7" r="2"/><circle cx="57.5" cy="200.6" r="2"/><circle cx="57.5" cy="205.5" r="2"/><circle cx="57.5" cy="210.4" r="2"/><circle cx="57.5" cy="215.2" r="2"/><circle cx="57.5" cy="220.1" r="2"/><circle cx="62.8" cy="146.9" r="2"/><circle cx="62.8" cy="151.8" r="2"/><circle cx="62.8" cy="156.7" r="2"/><circle cx="62.8" cy="161.6" r="2"/><circle cx="62.8" cy="166.4" r="2"/><circle cx="62.8" cy="171.3" r="2"/><circle cx="62.8" cy="176.2" r="2"/><circle cx="62.8" cy="181.1" r="2"/><circle cx="62.8" cy="186" r="2"/><circle cx="62.8" cy="190.8" r="2"/><circle cx="62.8" cy="195.7" r="2"/><circle cx="62.8" cy="200.6" r="2"/><circle cx="62.8" cy="205.5" r="2"/><circle cx="62.8" cy="210.4" r="2"/><circle cx="62.8" cy="215.2" r="2"/><circle cx="62.8" cy="220.1" r="2"/><circle cx="68" cy="146.9" r="2"/><circle cx="68" cy="151.8" r="2"/><circle cx="68" cy="156.7" r="2"/><circle cx="68" cy="161.6" r="2"/><circle cx="68" cy="166.4" r="2"/><circle cx="68" cy="171.3" r="2"/><circle cx="68" cy="176.2" r="2"/><circle cx="68" cy="181.1" r="2"/><circle cx="68" cy="186" r="2"/><circle cx="68" cy="190.8" r="2"/><circle cx="68" cy="195.7" r="2"/><circle cx="68" cy="200.6" r="2"/><circle cx="68" cy="205.5" r="2"/><circle cx="68" cy="210.4" r="2"/><circle cx="68" cy="215.2" r="2"/><circle cx="68" cy="220.1" r="2"/><circle cx="73.5" cy="146.9" r="2"/><circle cx="73.5" cy="151.8" r="2"/><circle cx="73.5" cy="156.7" r="2"/><circle cx="73.5" cy="161.6" r="2"/><circle cx="73.5" cy="166.4" r="2"/><circle cx="73.5" cy="171.3" r="2"/><circle cx="73.5" cy="176.2" r="2"/><circle cx="73.5" cy="181.1" r="2"/><circle cx="73.5" cy="186" r="2"/><circle cx="73.5" cy="190.8" r="2"/><circle cx="73.5" cy="195.7" r="2"/><circle cx="73.5" cy="200.6" r="2"/><circle cx="73.5" cy="205.5" r="2"/><circle cx="73.5" cy="210.4" r="2"/><circle cx="73.5" cy="215.2" r="2"/><circle cx="73.5" cy="220.1" r="2"/><circle cx="78.9" cy="146.9" r="2"/><circle cx="78.9" cy="151.8" r="2"/><circle cx="78.9" cy="156.7" r="2"/><circle cx="78.9" cy="161.6" r="2"/><circle cx="78.9" cy="166.4" r="2"/><circle cx="78.9" cy="171.3" r="2"/><circle cx="78.9" cy="176.2" r="2"/><circle cx="78.9" cy="181.1" r="2"/><circle cx="78.9" cy="186" r="2"/><circle cx="78.9" cy="190.8" r="2"/><circle cx="78.9" cy="195.7" r="2"/><circle cx="78.9" cy="200.6" r="2"/><circle cx="78.9" cy="205.5" r="2"/><circle cx="78.9" cy="210.4" r="2"/><circle cx="78.9" cy="215.2" r="2"/><circle cx="78.9" cy="220.1" r="2"/><circle cx="84.1" cy="146.9" r="2"/><circle cx="84.1" cy="151.8" r="2"/><circle cx="84.1" cy="156.7" r="2"/><circle cx="84.1" cy="161.6" r="2"/><circle cx="84.1" cy="166.4" r="2"/><circle cx="84.1" cy="171.3" r="2"/><circle cx="84.1" cy="176.2" r="2"/><circle cx="84.1" cy="181.1" r="2"/><circle cx="84.1" cy="186" r="2"/><circle cx="84.1" cy="190.8" r="2"/><circle cx="84.1" cy="195.7" r="2"/><circle cx="84.1" cy="200.6" r="2"/><circle cx="84.1" cy="205.5" r="2"/><circle cx="84.1" cy="210.4" r="2"/><circle cx="84.1" cy="215.2" r="2"/><circle cx="84.1" cy="220.1" r="2"/><circle cx="89.7" cy="146.9" r="2"/><circle cx="89.7" cy="151.8" r="2"/><circle cx="89.7" cy="156.7" r="2"/><circle cx="89.7" cy="161.6" r="2"/><circle cx="89.7" cy="166.4" r="2"/><circle cx="89.7" cy="171.3" r="2"/><circle cx="89.7" cy="176.2" r="2"/><circle cx="89.7" cy="181.1" r="2"/><circle cx="89.7" cy="186" r="2"/><circle cx="89.7" cy="190.8" r="2"/><circle cx="89.7" cy="195.7" r="2"/><circle cx="89.7" cy="200.6" r="2"/><circle cx="89.7" cy="205.5" r="2"/><circle cx="89.7" cy="210.4" r="2"/><circle cx="89.7" cy="215.2" r="2"/><circle cx="89.7" cy="220.1" r="2"/><circle cx="95.2" cy="146.9" r="2"/><circle cx="95.2" cy="151.8" r="2"/><circle cx="95.2" cy="156.7" r="2"/><circle cx="95.2" cy="161.6" r="2"/><circle cx="95.2" cy="166.4" r="2"/><circle cx="95.2" cy="171.3" r="2"/><circle cx="95.2" cy="176.2" r="2"/><circle cx="95.2" cy="181.1" r="2"/><circle cx="95.2" cy="186" r="2"/><circle cx="95.2" cy="190.8" r="2"/><circle cx="95.2" cy="195.7" r="2"/><circle cx="95.2" cy="200.6" r="2"/><circle cx="95.2" cy="205.5" r="2"/><circle cx="95.2" cy="210.4" r="2"/><circle cx="95.2" cy="215.2" r="2"/><circle cx="95.2" cy="220.1" r="2"/><circle cx="100.9" cy="146.9" r="2"/><circle cx="100.9" cy="151.8" r="2"/><circle cx="100.9" cy="156.7" r="2"/><circle cx="100.9" cy="161.6" r="2"/><circle cx="100.9" cy="166.4" r="2"/><circle cx="100.9" cy="171.3" r="2"/><circle cx="100.9" cy="176.2" r="2"/><circle cx="100.9" cy="181.1" r="2"/><circle cx="100.9" cy="186" r="2"/><circle cx="100.9" cy="190.8" r="2"/><circle cx="100.9" cy="195.7" r="2"/><circle cx="100.9" cy="200.6" r="2"/><circle cx="100.9" cy="205.5" r="2"/><circle cx="100.9" cy="210.4" r="2"/><circle cx="100.9" cy="215.2" r="2"/><circle cx="100.9" cy="220.1" r="2"/></g></g><g><defs><path id="bg" d="M131.1 89.5s-8.3 1.2-12-3.1c0 0-12.9 4.3-20.6 2.8 0 0-13.8 20.6-18.8 19.1 0 0 .9 20.6-4.6 20 0 0 13.5 10.1 11.4 17.2l5.9-3.5-2.1-1.8s5.4-8.3.8-16.9c0 0 3.2-3.8 2.1-7.3 0 0 6.3-1.7 7.8-2.6 0 0 5.9 5.5 12.2 3.4 0 0 12.9-19.5 20.3-19.7l-2.4-7.6z"/></defs><clipPath id="bh"><use xlink:href="#bg" overflow="visible"/></clipPath><g clip-path="url(#bh)" fill="#AAA"><circle cx="106.1" cy="13.3" r="2"/><circle cx="106.1" cy="18.2" r="2"/><circle cx="106.1" cy="23" r="2"/><circle cx="106.1" cy="27.9" r="2"/><circle cx="106.1" cy="32.8" r="2"/><circle cx="106.1" cy="37.7" r="2"/><circle cx="106.1" cy="42.6" r="2"/><circle cx="106.1" cy="47.4" r="2"/><circle cx="106.1" cy="52.3" r="2"/><circle cx="106.1" cy="57.2" r="2"/><circle cx="106.1" cy="62.1" r="2"/><circle cx="106.1" cy="67" r="2"/><circle cx="106.1" cy="71.8" r="2"/><circle cx="106.1" cy="76.7" r="2"/><circle cx="106.1" cy="81.6" r="2"/><circle cx="106.1" cy="86.5" r="2"/><circle cx="111.3" cy="13.3" r="2"/><circle cx="111.3" cy="18.2" r="2"/><circle cx="111.3" cy="23" r="2"/><circle cx="111.3" cy="27.9" r="2"/><circle cx="111.3" cy="32.8" r="2"/><circle cx="111.3" cy="37.7" r="2"/><circle cx="111.3" cy="42.6" r="2"/><circle cx="111.3" cy="47.4" r="2"/><circle cx="111.3" cy="52.3" r="2"/><circle cx="111.3" cy="57.2" r="2"/><circle cx="111.3" cy="62.1" r="2"/><circle cx="111.3" cy="67" r="2"/><circle cx="111.3" cy="71.8" r="2"/><circle cx="111.3" cy="76.7" r="2"/><circle cx="111.3" cy="81.6" r="2"/><circle cx="111.3" cy="86.5" r="2"/><circle cx="116.4" cy="13.3" r="2"/><circle cx="116.4" cy="18.2" r="2"/><circle cx="116.4" cy="23" r="2"/><circle cx="116.4" cy="27.9" r="2"/><circle cx="116.4" cy="32.8" r="2"/><circle cx="116.4" cy="37.7" r="2"/><circle cx="116.4" cy="42.6" r="2"/><circle cx="116.4" cy="47.4" r="2"/><circle cx="116.4" cy="52.3" r="2"/><circle cx="116.4" cy="57.2" r="2"/><circle cx="116.4" cy="62.1" r="2"/><circle cx="116.4" cy="67" r="2"/><circle cx="116.4" cy="71.8" r="2"/><circle cx="116.4" cy="76.7" r="2"/><circle cx="116.4" cy="81.6" r="2"/><circle cx="116.4" cy="86.5" r="2"/><circle cx="121.9" cy="13.3" r="2"/><circle cx="121.9" cy="18.2" r="2"/><circle cx="121.9" cy="23" r="2"/><circle cx="121.9" cy="27.9" r="2"/><circle cx="121.9" cy="32.8" r="2"/><circle cx="121.9" cy="37.7" r="2"/><circle cx="121.9" cy="42.6" r="2"/><circle cx="121.9" cy="47.4" r="2"/><circle cx="121.9" cy="52.3" r="2"/><circle cx="121.9" cy="57.2" r="2"/><circle cx="121.9" cy="62.1" r="2"/><circle cx="121.9" cy="67" r="2"/><circle cx="121.9" cy="71.8" r="2"/><circle cx="121.9" cy="76.7" r="2"/><circle cx="121.9" cy="81.6" r="2"/><circle cx="121.9" cy="86.5" r="2"/><circle cx="127.1" cy="13.3" r="2"/><circle cx="127.1" cy="18.2" r="2"/><circle cx="127.1" cy="23" r="2"/><circle cx="127.1" cy="27.9" r="2"/><circle cx="127.1" cy="32.8" r="2"/><circle cx="127.1" cy="37.7" r="2"/><circle cx="127.1" cy="42.6" r="2"/><circle cx="127.1" cy="47.4" r="2"/><circle cx="127.1" cy="52.3" r="2"/><circle cx="127.1" cy="57.2" r="2"/><circle cx="127.1" cy="62.1" r="2"/><circle cx="127.1" cy="67" r="2"/><circle cx="127.1" cy="71.8" r="2"/><circle cx="127.1" cy="76.7" r="2"/><circle cx="127.1" cy="81.6" r="2"/><circle cx="127.1" cy="86.5" r="2"/><circle cx="132.5" cy="13.3" r="2"/><circle cx="132.5" cy="18.2" r="2"/><circle cx="132.5" cy="23" r="2"/><circle cx="132.5" cy="27.9" r="2"/><circle cx="132.5" cy="32.8" r="2"/><circle cx="132.5" cy="37.7" r="2"/><circle cx="132.5" cy="42.6" r="2"/><circle cx="132.5" cy="47.4" r="2"/><circle cx="132.5" cy="52.3" r="2"/><circle cx="132.5" cy="57.2" r="2"/><circle cx="132.5" cy="62.1" r="2"/><circle cx="132.5" cy="67" r="2"/><circle cx="132.5" cy="71.8" r="2"/><circle cx="132.5" cy="76.7" r="2"/><circle cx="132.5" cy="81.6" r="2"/><circle cx="132.5" cy="86.5" r="2"/><circle cx="137.8" cy="13.3" r="2"/><circle cx="137.8" cy="18.2" r="2"/><circle cx="137.8" cy="23" r="2"/><circle cx="137.8" cy="27.9" r="2"/><circle cx="137.8" cy="32.8" r="2"/><circle cx="137.8" cy="37.7" r="2"/><circle cx="137.8" cy="42.6" r="2"/><circle cx="137.8" cy="47.4" r="2"/><circle cx="137.8" cy="52.3" r="2"/><circle cx="137.8" cy="57.2" r="2"/><circle cx="137.8" cy="62.1" r="2"/><circle cx="137.8" cy="67" r="2"/><circle cx="137.8" cy="71.8" r="2"/><circle cx="137.8" cy="76.7" r="2"/><circle cx="137.8" cy="81.6" r="2"/><circle cx="137.8" cy="86.5" r="2"/><circle cx="143" cy="13.3" r="2"/><circle cx="143" cy="18.2" r="2"/><circle cx="143" cy="23" r="2"/><circle cx="143" cy="27.9" r="2"/><circle cx="143" cy="32.8" r="2"/><circle cx="143" cy="37.7" r="2"/><circle cx="143" cy="42.6" r="2"/><circle cx="143" cy="47.4" r="2"/><circle cx="143" cy="52.3" r="2"/><circle cx="143" cy="57.2" r="2"/><circle cx="143" cy="62.1" r="2"/><circle cx="143" cy="67" r="2"/><circle cx="143" cy="71.8" r="2"/><circle cx="143" cy="76.7" r="2"/><circle cx="143" cy="81.6" r="2"/><circle cx="143" cy="86.5" r="2"/><circle cx="148.5" cy="13.3" r="2"/><circle cx="148.5" cy="18.2" r="2"/><circle cx="148.5" cy="23" r="2"/><circle cx="148.5" cy="27.9" r="2"/><circle cx="148.5" cy="32.8" r="2"/><circle cx="148.5" cy="37.7" r="2"/><circle cx="148.5" cy="42.6" r="2"/><circle cx="148.5" cy="47.4" r="2"/><circle cx="148.5" cy="52.3" r="2"/><circle cx="148.5" cy="57.2" r="2"/><circle cx="148.5" cy="62.1" r="2"/><circle cx="148.5" cy="67" r="2"/><circle cx="148.5" cy="71.8" r="2"/><circle cx="148.5" cy="76.7" r="2"/><circle cx="148.5" cy="81.6" r="2"/><circle cx="148.5" cy="86.5" r="2"/><circle cx="154" cy="13.3" r="2"/><circle cx="154" cy="18.2" r="2"/><circle cx="154" cy="23" r="2"/><circle cx="154" cy="27.9" r="2"/><circle cx="154" cy="32.8" r="2"/><circle cx="154" cy="37.7" r="2"/><circle cx="154" cy="42.6" r="2"/><circle cx="154" cy="47.4" r="2"/><circle cx="154" cy="52.3" r="2"/><circle cx="154" cy="57.2" r="2"/><circle cx="154" cy="62.1" r="2"/><circle cx="154" cy="67" r="2"/><circle cx="154" cy="71.8" r="2"/><circle cx="154" cy="76.7" r="2"/><circle cx="154" cy="81.6" r="2"/><circle cx="154" cy="86.5" r="2"/><circle cx="159.2" cy="13.3" r="2"/><circle cx="159.2" cy="18.2" r="2"/><circle cx="159.2" cy="23" r="2"/><circle cx="159.2" cy="27.9" r="2"/><circle cx="159.2" cy="32.8" r="2"/><circle cx="159.2" cy="37.7" r="2"/><circle cx="159.2" cy="42.6" r="2"/><circle cx="159.2" cy="47.4" r="2"/><circle cx="159.2" cy="52.3" r="2"/><circle cx="159.2" cy="57.2" r="2"/><circle cx="159.2" cy="62.1" r="2"/><circle cx="159.2" cy="67" r="2"/><circle cx="159.2" cy="71.8" r="2"/><circle cx="159.2" cy="76.7" r="2"/><circle cx="159.2" cy="81.6" r="2"/><circle cx="159.2" cy="86.5" r="2"/><circle cx="164.7" cy="13.3" r="2"/><circle cx="164.7" cy="18.2" r="2"/><circle cx="164.7" cy="23" r="2"/><circle cx="164.7" cy="27.9" r="2"/><circle cx="164.7" cy="32.8" r="2"/><circle cx="164.7" cy="37.7" r="2"/><circle cx="164.7" cy="42.6" r="2"/><circle cx="164.7" cy="47.4" r="2"/><circle cx="164.7" cy="52.3" r="2"/><circle cx="164.7" cy="57.2" r="2"/><circle cx="164.7" cy="62.1" r="2"/><circle cx="164.7" cy="67" r="2"/><circle cx="164.7" cy="71.8" r="2"/><circle cx="164.7" cy="76.7" r="2"/><circle cx="164.7" cy="81.6" r="2"/><circle cx="164.7" cy="86.5" r="2"/><circle cx="170.2" cy="13.3" r="2"/><circle cx="170.2" cy="18.2" r="2"/><circle cx="170.2" cy="23" r="2"/><circle cx="170.2" cy="27.9" r="2"/><circle cx="170.2" cy="32.8" r="2"/><circle cx="170.2" cy="37.7" r="2"/><circle cx="170.2" cy="42.6" r="2"/><circle cx="170.2" cy="47.4" r="2"/><circle cx="170.2" cy="52.3" r="2"/><circle cx="170.2" cy="57.2" r="2"/><circle cx="170.2" cy="62.1" r="2"/><circle cx="170.2" cy="67" r="2"/><circle cx="170.2" cy="71.8" r="2"/><circle cx="170.2" cy="76.7" r="2"/><circle cx="170.2" cy="81.6" r="2"/><circle cx="170.2" cy="86.5" r="2"/><circle cx="175.9" cy="13.3" r="2"/><circle cx="175.9" cy="18.2" r="2"/><circle cx="175.9" cy="23" r="2"/><circle cx="175.9" cy="27.9" r="2"/><circle cx="175.9" cy="32.8" r="2"/><circle cx="175.9" cy="37.7" r="2"/><circle cx="175.9" cy="42.6" r="2"/><circle cx="175.9" cy="47.4" r="2"/><circle cx="175.9" cy="52.3" r="2"/><circle cx="175.9" cy="57.2" r="2"/><circle cx="175.9" cy="62.1" r="2"/><circle cx="175.9" cy="67" r="2"/><circle cx="175.9" cy="71.8" r="2"/><circle cx="175.9" cy="76.7" r="2"/><circle cx="175.9" cy="81.6" r="2"/><circle cx="175.9" cy="86.5" r="2"/><g><circle cx="106.1" cy="92" r="2"/><circle cx="106.1" cy="96.8" r="2"/><circle cx="106.1" cy="101.7" r="2"/><circle cx="106.1" cy="106.6" r="2"/><circle cx="106.1" cy="111.5" r="2"/><circle cx="106.1" cy="116.4" r="2"/><circle cx="106.1" cy="121.2" r="2"/><circle cx="106.1" cy="126.1" r="2"/><circle cx="106.1" cy="131" r="2"/><circle cx="106.1" cy="135.9" r="2"/><circle cx="106.1" cy="140.8" r="2"/><circle cx="106.1" cy="145.6" r="2"/><circle cx="106.1" cy="150.5" r="2"/><circle cx="106.1" cy="155.4" r="2"/><circle cx="106.1" cy="160.3" r="2"/><circle cx="106.1" cy="165.2" r="2"/><circle cx="111.3" cy="92" r="2"/><circle cx="111.3" cy="96.8" r="2"/><circle cx="111.3" cy="101.7" r="2"/><circle cx="111.3" cy="106.6" r="2"/><circle cx="111.3" cy="111.5" r="2"/><circle cx="111.3" cy="116.4" r="2"/><circle cx="111.3" cy="121.2" r="2"/><circle cx="111.3" cy="126.1" r="2"/><circle cx="111.3" cy="131" r="2"/><circle cx="111.3" cy="135.9" r="2"/><circle cx="111.3" cy="140.8" r="2"/><circle cx="111.3" cy="145.6" r="2"/><circle cx="111.3" cy="150.5" r="2"/><circle cx="111.3" cy="155.4" r="2"/><circle cx="111.3" cy="160.3" r="2"/><circle cx="111.3" cy="165.2" r="2"/><circle cx="116.4" cy="92" r="2"/><circle cx="116.4" cy="96.8" r="2"/><circle cx="116.4" cy="101.7" r="2"/><circle cx="116.4" cy="106.6" r="2"/><circle cx="116.4" cy="111.5" r="2"/><circle cx="116.4" cy="116.4" r="2"/><circle cx="116.4" cy="121.2" r="2"/><circle cx="116.4" cy="126.1" r="2"/><circle cx="116.4" cy="131" r="2"/><circle cx="116.4" cy="135.9" r="2"/><circle cx="116.4" cy="140.8" r="2"/><circle cx="116.4" cy="145.6" r="2"/><circle cx="116.4" cy="150.5" r="2"/><circle cx="116.4" cy="155.4" r="2"/><circle cx="116.4" cy="160.3" r="2"/><circle cx="116.4" cy="165.2" r="2"/><circle cx="121.9" cy="92" r="2"/><circle cx="121.9" cy="96.8" r="2"/><circle cx="121.9" cy="101.7" r="2"/><circle cx="121.9" cy="106.6" r="2"/><circle cx="121.9" cy="111.5" r="2"/><circle cx="121.9" cy="116.4" r="2"/><circle cx="121.9" cy="121.2" r="2"/><circle cx="121.9" cy="126.1" r="2"/><circle cx="121.9" cy="131" r="2"/><circle cx="121.9" cy="135.9" r="2"/><circle cx="121.9" cy="140.8" r="2"/><circle cx="121.9" cy="145.6" r="2"/><circle cx="121.9" cy="150.5" r="2"/><circle cx="121.9" cy="155.4" r="2"/><circle cx="121.9" cy="160.3" r="2"/><circle cx="121.9" cy="165.2" r="2"/><circle cx="127.1" cy="92" r="2"/><circle cx="127.1" cy="96.8" r="2"/><circle cx="127.1" cy="101.7" r="2"/><circle cx="127.1" cy="106.6" r="2"/><circle cx="127.1" cy="111.5" r="2"/><circle cx="127.1" cy="116.4" r="2"/><circle cx="127.1" cy="121.2" r="2"/><circle cx="127.1" cy="126.1" r="2"/><circle cx="127.1" cy="131" r="2"/><circle cx="127.1" cy="135.9" r="2"/><circle cx="127.1" cy="140.8" r="2"/><circle cx="127.1" cy="145.6" r="2"/><circle cx="127.1" cy="150.5" r="2"/><circle cx="127.1" cy="155.4" r="2"/><circle cx="127.1" cy="160.3" r="2"/><circle cx="127.1" cy="165.2" r="2"/><circle cx="132.5" cy="92" r="2"/><circle cx="132.5" cy="96.8" r="2"/><circle cx="132.5" cy="101.7" r="2"/><circle cx="132.5" cy="106.6" r="2"/><circle cx="132.5" cy="111.5" r="2"/><circle cx="132.5" cy="116.4" r="2"/><circle cx="132.5" cy="121.2" r="2"/><circle cx="132.5" cy="126.1" r="2"/><circle cx="132.5" cy="131" r="2"/><circle cx="132.5" cy="135.9" r="2"/><circle cx="132.5" cy="140.8" r="2"/><circle cx="132.5" cy="145.6" r="2"/><circle cx="132.5" cy="150.5" r="2"/><circle cx="132.5" cy="155.4" r="2"/><circle cx="132.5" cy="160.3" r="2"/><circle cx="132.5" cy="165.2" r="2"/><circle cx="137.8" cy="92" r="2"/><circle cx="137.8" cy="96.8" r="2"/><circle cx="137.8" cy="101.7" r="2"/><circle cx="137.8" cy="106.6" r="2"/><circle cx="137.8" cy="111.5" r="2"/><circle cx="137.8" cy="116.4" r="2"/><circle cx="137.8" cy="121.2" r="2"/><circle cx="137.8" cy="126.1" r="2"/><circle cx="137.8" cy="131" r="2"/><circle cx="137.8" cy="135.9" r="2"/><circle cx="137.8" cy="140.8" r="2"/><circle cx="137.8" cy="145.6" r="2"/><circle cx="137.8" cy="150.5" r="2"/><circle cx="137.8" cy="155.4" r="2"/><circle cx="137.8" cy="160.3" r="2"/><circle cx="137.8" cy="165.2" r="2"/><circle cx="143" cy="92" r="2"/><circle cx="143" cy="96.8" r="2"/><circle cx="143" cy="101.7" r="2"/><circle cx="143" cy="106.6" r="2"/><circle cx="143" cy="111.5" r="2"/><circle cx="143" cy="116.4" r="2"/><circle cx="143" cy="121.2" r="2"/><circle cx="143" cy="126.1" r="2"/><circle cx="143" cy="131" r="2"/><circle cx="143" cy="135.9" r="2"/><circle cx="143" cy="140.8" r="2"/><circle cx="143" cy="145.6" r="2"/><circle cx="143" cy="150.5" r="2"/><circle cx="143" cy="155.4" r="2"/><circle cx="143" cy="160.3" r="2"/><circle cx="143" cy="165.2" r="2"/><circle cx="148.5" cy="92" r="2"/><circle cx="148.5" cy="96.8" r="2"/><circle cx="148.5" cy="101.7" r="2"/><circle cx="148.5" cy="106.6" r="2"/><circle cx="148.5" cy="111.5" r="2"/><circle cx="148.5" cy="116.4" r="2"/><circle cx="148.5" cy="121.2" r="2"/><circle cx="148.5" cy="126.1" r="2"/><circle cx="148.5" cy="131" r="2"/><circle cx="148.5" cy="135.9" r="2"/><circle cx="148.5" cy="140.8" r="2"/><circle cx="148.5" cy="145.6" r="2"/><circle cx="148.5" cy="150.5" r="2"/><circle cx="148.5" cy="155.4" r="2"/><circle cx="148.5" cy="160.3" r="2"/><circle cx="148.5" cy="165.2" r="2"/><circle cx="154" cy="92" r="2"/><circle cx="154" cy="96.8" r="2"/><circle cx="154" cy="101.7" r="2"/><circle cx="154" cy="106.6" r="2"/><circle cx="154" cy="111.5" r="2"/><circle cx="154" cy="116.4" r="2"/><circle cx="154" cy="121.2" r="2"/><circle cx="154" cy="126.1" r="2"/><circle cx="154" cy="131" r="2"/><circle cx="154" cy="135.9" r="2"/><circle cx="154" cy="140.8" r="2"/><circle cx="154" cy="145.6" r="2"/><circle cx="154" cy="150.5" r="2"/><circle cx="154" cy="155.4" r="2"/><circle cx="154" cy="160.3" r="2"/><circle cx="154" cy="165.2" r="2"/><circle cx="159.2" cy="92" r="2"/><circle cx="159.2" cy="96.8" r="2"/><circle cx="159.2" cy="101.7" r="2"/><circle cx="159.2" cy="106.6" r="2"/><circle cx="159.2" cy="111.5" r="2"/><circle cx="159.2" cy="116.4" r="2"/><circle cx="159.2" cy="121.2" r="2"/><circle cx="159.2" cy="126.1" r="2"/><circle cx="159.2" cy="131" r="2"/><circle cx="159.2" cy="135.9" r="2"/><circle cx="159.2" cy="140.8" r="2"/><circle cx="159.2" cy="145.6" r="2"/><circle cx="159.2" cy="150.5" r="2"/><circle cx="159.2" cy="155.4" r="2"/><circle cx="159.2" cy="160.3" r="2"/><circle cx="159.2" cy="165.2" r="2"/><circle cx="164.7" cy="92" r="2"/><circle cx="164.7" cy="96.8" r="2"/><circle cx="164.7" cy="101.7" r="2"/><circle cx="164.7" cy="106.6" r="2"/><circle cx="164.7" cy="111.5" r="2"/><circle cx="164.7" cy="116.4" r="2"/><circle cx="164.7" cy="121.2" r="2"/><circle cx="164.7" cy="126.1" r="2"/><circle cx="164.7" cy="131" r="2"/><circle cx="164.7" cy="135.9" r="2"/><circle cx="164.7" cy="140.8" r="2"/><circle cx="164.7" cy="145.6" r="2"/><circle cx="164.7" cy="150.5" r="2"/><circle cx="164.7" cy="155.4" r="2"/><circle cx="164.7" cy="160.3" r="2"/><circle cx="164.7" cy="165.2" r="2"/><circle cx="170.2" cy="92" r="2"/><circle cx="170.2" cy="96.8" r="2"/><circle cx="170.2" cy="101.7" r="2"/><circle cx="170.2" cy="106.6" r="2"/><circle cx="170.2" cy="111.5" r="2"/><circle cx="170.2" cy="116.4" r="2"/><circle cx="170.2" cy="121.2" r="2"/><circle cx="170.2" cy="126.1" r="2"/><circle cx="170.2" cy="131" r="2"/><circle cx="170.2" cy="135.9" r="2"/><circle cx="170.2" cy="140.8" r="2"/><circle cx="170.2" cy="145.6" r="2"/><circle cx="170.2" cy="150.5" r="2"/><circle cx="170.2" cy="155.4" r="2"/><circle cx="170.2" cy="160.3" r="2"/><circle cx="170.2" cy="165.2" r="2"/><circle cx="175.9" cy="92" r="2"/><circle cx="175.9" cy="96.8" r="2"/><circle cx="175.9" cy="101.7" r="2"/><circle cx="175.9" cy="106.6" r="2"/><circle cx="175.9" cy="111.5" r="2"/><circle cx="175.9" cy="116.4" r="2"/><circle cx="175.9" cy="121.2" r="2"/><circle cx="175.9" cy="126.1" r="2"/><circle cx="175.9" cy="131" r="2"/><circle cx="175.9" cy="135.9" r="2"/><circle cx="175.9" cy="140.8" r="2"/><circle cx="175.9" cy="145.6" r="2"/><circle cx="175.9" cy="150.5" r="2"/><circle cx="175.9" cy="155.4" r="2"/><circle cx="175.9" cy="160.3" r="2"/><circle cx="175.9" cy="165.2" r="2"/></g></g></g></g><g><path fill="none" stroke="#231815" stroke-linecap="round" stroke-linejoin="round" stroke-miterlimit="10" d="M136.4 113.9s10-2.6 11 5.9M210.3 14.8 230.7 164M257.6 17.1l16.7 134.7M220.8 92.6l88.9-11.8"/><circle fill="#231815" cx="185.5" cy="93.1" r="27.3"/><path fill="none" stroke="#231815" stroke-width="1.5" stroke-linecap="round" stroke-linejoin="round" stroke-miterlimit="10" d="M81 131.8s7.7-9.6 4.6-19.6c0 0 12.3-7.4 15.2-18.4 0 0 13.3 3 18.2-1 0 0 8.6 3.9 13.7 2.7l-3-23.5s-6.3-4.3-14.2-2c0 0-17.8-.6-22.5.1S81.4 74 77.8 77.6 62.5 93.8 62.5 93.8s-13.9 12.5-15.8 13.7c0 0-13.1 10.7-14.7 12.6s-6 7.8-6.4 23.8.6 31.3.6 31.3v15.2l-3.3 17.4 57.6 27.1s17.2-16.8 24.7-31.4c0 0 14.6-26.7 17-37.2 1.1-4.7 2.2-8.5 3.1-11.2 1.1-3.4 2.7-6.5 4.7-9.4 2.8-3.9 7.1-9.7 10.3-13.2 4.9-5.4 12.7-19.1 12.7-19.1s5.3-12.8-.1-15.9c-5.4-3.1-12.9-1.9-12.9-1.9s-11.7 2.8-18 10.7c-6 7.6-10.6 14.8-11.5 16.2s-10 15.4-14 17.8c-5 3-18.5 13.7-18.5 13.7"/><path fill="none" stroke="#231815" stroke-linecap="round" stroke-linejoin="round" stroke-miterlimit="10" d="M91.5 143.5c-5.4-12.6-25.1-18.3-25.1-18.3M121.8 81.7s-3.7 4-2.9 11M95.9 84l4.9 9.7M75.2 106.6l10.4 5.6M92.2 107.4s9.5.3 13.9-3c0 0 9 5.1 15.3 2"/><path fill="none" stroke="#231815" stroke-linecap="round" stroke-linejoin="round" stroke-miterlimit="10" d="M108.5 99.2s-3.1 1.9-2.4 5.3"/><path fill="none" stroke="#231815" stroke-width="1.5" stroke-linecap="round" stroke-linejoin="round" stroke-miterlimit="10" d="M86.3 117.3s12.2-1.1 14.4-3.9c0 0 6 5 12.7 3.6"/><path fill="none" stroke="#231815" stroke-linecap="round" stroke-linejoin="round" stroke-miterlimit="10" d="M102.2 108.7s-1.6 1.3-1.4 4.7"/><path fill="none" stroke="#231815" stroke-width="1.5" stroke-linecap="round" stroke-linejoin="round" stroke-miterlimit="10" d="M89.2 122s7.2 6.1 1.4 18.9"/><path fill="none" stroke="#231815" stroke-width="1.5" stroke-linecap="round" stroke-linejoin="round" stroke-miterlimit="10" d="M90.9 124c3-3.1 2-7.4 2-7.4M148.3 120.3c-13.7-1.3-13.6-11.4-13.6-11.4-.3-8.7 13.9-12.7 13.9-12.7"/></g><g fill="#FFF"><path d="m170 82.9 16-2.6-1-6.2 3.8-.6c.1.9.3 1.7.6 2.5s.7 1.5 1.2 2.1 1.1 1.1 1.8 1.4 1.5.5 2.5.5l.6 4-24.7 4-.8-5.1zM190.4 105.9c-1.8-.7-3.7-1.3-5.7-1.7-2-.4-3.9-.6-5.9-.6-2-.1-3.8 0-5.4.3l-.9-5.4c3.7-.3 7.4 0 11.1.9 3.6.9 7.1 2.3 10.3 4.2L192 91.9l4.7-.7 2.7 16.9-4.3.7c-1.4-1.2-2.9-2.1-4.7-2.9z"/></g><g><path d="M279.7 51.8c-.8.1-1.3 0-1.7-.5-.3-.5-.5-1.2-.6-2.2.5-.1 1.2-.5 1.7-.8 0 .6.1 1.3.1 1.5s.1.3.3.2l7.2-.8-.8-6.9-9.2 1-.2-1.7 10.8-1.2 1.2 10.3-8.8 1.1zm-.3-6.1-.8.1-.2-1.6 4.9-.5.6 4.9-4.1.5-.4-3.4zm2.7-.3-1.3.1.2 1.7 1.3-.1-.2-1.7zm2.6 3.5L284 43l1.4-.2.7 5.9-1.4.2zM279.1 53.6c.6.6 1.4 1 2.2 1.3l-.5 1.5c-.8-.3-1.8-.7-2.4-1.3l.7-1.5zm1.2 6.6c0 .4.2.5.9.4-.2.4-.3 1.1-.4 1.5-1.4 0-1.8-.4-1.9-1.6l-.2-1.8c-.2-1.7.2-2.1 1.5-2.3l1.1-.1.2 1.3.5.4-.3-3.1 3.7-.4.9 7.9-3.7.4-.4-3.3c-.1.4-.3.8-.5 1l-1.2-.9c.2-.4.5-1 .7-1.6l-.8.1c-.3 0-.4.1-.3.6l.2 1.5zm2 2.8c-.6.6-1.4 1.3-2 1.6l-.8-1.4c.6-.3 1.5-.9 2.1-1.5l.7 1.3zm.6-6.4.5 4.5h.3l-.5-4.5h-.3zm1.3-.2.5 4.5h.3l-.5-4.5h-.3zm2.5 7.3-1.2-10.4 1.3-.1.3 2.4c.1-.1.3-.1.4-.2l.3.9-.3-2.6 1.3-.1.4 3.7c.1-.1.3-.1.4-.2l.5 1.7c-.2.1-.4.2-.7.3l.4 3.6-1.3.1-.3-2.4-.1 1.1-.5-.2.3 2.3-1.2.1zm1.2-6.8-.6.3.3 2.3c.2.1.4.1.6.1l-.3-2.7z"/></g><g><path d="M292.3 106.8c-.7 1.4-1.7 3.5-2.5 4.5l-1.6-1.2c.7-.8 1.7-2.5 2.4-3.9l-5.8 1.1-.4-1.9 5.3-1c-1.2-.8-2.4-1.8-3.3-3 .4-.4 1-1 1.3-1.5 1.3 1.9 3.4 3.3 5.3 4l-.9-4.4 1.8-.3 2 10.3-1.8.3-.7-3.6c-.4-.1-.7-.3-1.1-.4l-1.1.2 1.1.8zM289.9 123.5c-.8.2-1.3.1-1.7-.4-.4-.5-.6-1.1-.7-2.1.5-.1 1.2-.6 1.6-.9.1.6.2 1.2.2 1.4.1.2.1.3.3.2l7.1-1.4-1.3-6.9-9 1.7-.3-1.7 10.7-2 2 10.2-8.9 1.9zm-.8-6-.7.1-.3-1.6 4.8-.9.9 4.9-4.1.8-.6-3.3zm2.7-.5-1.3.2.3 1.7 1.3-.2-.3-1.7zm2.8 3.3-1.1-5.8 1.4-.3 1.1 5.8-1.4.3zM289.5 125.4c.6.5 1.5.9 2.3 1.1l-.4 1.5c-.9-.2-1.8-.6-2.5-1.1l.6-1.5zm1.6 6.5c.1.4.2.4.9.4-.2.4-.3 1.1-.3 1.5-1.4.1-1.8-.3-2-1.5l-.3-1.7c-.3-1.7 0-2.1 1.3-2.4l1.1-.2.3 1.3.6.4-.6-3 3.7-.7 1.5 7.8-3.7.7-.6-3.3c-.1.4-.2.8-.4 1l-1.2-.8c.2-.4.4-1 .6-1.6l-.8.2c-.3.1-.3.2-.2.7l.1 1.2zm2.3 2.6c-.5.7-1.3 1.4-1.9 1.8l-.9-1.4c.6-.3 1.4-1 2-1.7l.8 1.3zm0-6.4.9 4.5.3-.1-.9-4.5-.3.1zm1.3-.3.9 4.5.3-.1-.9-4.5-.3.1zm3.1 7.1-2-10.3 1.3-.3.4 2.3c.1-.1.3-.2.4-.2l.4.9-.5-2.5 1.3-.2.7 3.7c.1-.1.3-.1.4-.2l.6 1.6c-.2.1-.4.3-.7.4l.7 3.6-1.3.3-.5-2.4v1.1l-.5-.2.4 2.3-1.1.1zm.7-6.9-.6.3.4 2.2c.2 0 .5.1.6.1l-.4-2.6z"/></g></svg>