<svg id="圖層_1" data-name="圖層 1" xmlns="http://www.w3.org/2000/svg" xmlns:xlink="http://www.w3.org/1999/xlink" viewBox="0 0 85.04 85.04"><defs><style>.cls-1,.cls-12,.cls-14,.cls-2,.cls-7{fill:none;}.cls-2{stroke:#c1c1c1;stroke-linecap:square;stroke-width:0.15px;}.cls-3{clip-path:url(#clip-path);}.cls-4{fill:#a09c77;}.cls-13,.cls-5,.cls-8{fill:#fff;}.cls-12,.cls-13,.cls-5,.cls-7{stroke:#000;stroke-linecap:round;stroke-linejoin:round;}.cls-5,.cls-7{stroke-width:0.48px;}.cls-6{fill:url(#新增圖樣_2);}.cls-9{fill:#ffed09;}.cls-10{fill:url(#新增圖樣_3);}.cls-11{fill:url(#新增圖樣_3-3);}.cls-12,.cls-13{stroke-width:0.32px;}.cls-14{stroke:#e51a05;stroke-miterlimit:10;stroke-width:0.67px;}</style><clipPath id="clip-path"><rect class="cls-1" width="20.4" height="19.88"/></clipPath><pattern id="新增圖樣_2" data-name="新增圖樣 2" width="36.05" height="37.17" patternTransform="translate(-3.72 -19.36) rotate(40.79)" patternUnits="userSpaceOnUse" viewBox="0 0 36.05 37.17"><rect class="cls-1" width="36.05" height="37.17"/><line class="cls-2" x1="0.07" y1="36.81" x2="35.98" y2="36.81"/><line class="cls-2" x1="0.07" y1="35.96" x2="35.98" y2="35.96"/><line class="cls-2" x1="0.07" y1="35.12" x2="35.98" y2="35.12"/><line class="cls-2" x1="0.07" y1="34.27" x2="35.98" y2="34.27"/><line class="cls-2" x1="0.07" y1="33.42" x2="35.98" y2="33.42"/><line class="cls-2" x1="0.07" y1="32.57" x2="35.98" y2="32.57"/><line class="cls-2" x1="0.07" y1="31.73" x2="35.98" y2="31.73"/><line class="cls-2" x1="0.07" y1="30.88" x2="35.98" y2="30.88"/><line class="cls-2" x1="0.07" y1="30.03" x2="35.98" y2="30.03"/><line class="cls-2" x1="0.07" y1="29.18" x2="35.98" y2="29.18"/><line class="cls-2" x1="0.07" y1="28.33" x2="35.98" y2="28.33"/><line class="cls-2" x1="0.07" y1="27.49" x2="35.98" y2="27.49"/><line class="cls-2" x1="0.07" y1="26.64" x2="35.98" y2="26.64"/><line class="cls-2" x1="0.07" y1="25.79" x2="35.98" y2="25.79"/><line class="cls-2" x1="0.07" y1="24.94" x2="35.98" y2="24.94"/><line class="cls-2" x1="0.07" y1="24.1" x2="35.98" y2="24.1"/><line class="cls-2" x1="0.07" y1="23.25" x2="35.98" y2="23.25"/><line class="cls-2" x1="0.07" y1="22.4" x2="35.98" y2="22.4"/><line class="cls-2" x1="0.07" y1="21.55" x2="35.98" y2="21.55"/><line class="cls-2" x1="0.07" y1="20.7" x2="35.98" y2="20.7"/><line class="cls-2" x1="0.07" y1="19.86" x2="35.98" y2="19.86"/><line class="cls-2" x1="0.07" y1="19.01" x2="35.98" y2="19.01"/><line class="cls-2" x1="0.07" y1="18.16" x2="35.98" y2="18.16"/><line class="cls-2" x1="0.07" y1="17.31" x2="35.98" y2="17.31"/><line class="cls-2" x1="0.07" y1="16.47" x2="35.98" y2="16.47"/><line class="cls-2" x1="0.07" y1="15.62" x2="35.98" y2="15.62"/><line class="cls-2" x1="0.07" y1="14.77" x2="35.98" y2="14.77"/><line class="cls-2" x1="0.07" y1="13.92" x2="35.98" y2="13.92"/><line class="cls-2" x1="0.07" y1="13.07" x2="35.98" y2="13.07"/><line class="cls-2" x1="0.07" y1="12.23" x2="35.98" y2="12.23"/><line class="cls-2" x1="0.07" y1="11.38" x2="35.98" y2="11.38"/><line class="cls-2" x1="0.07" y1="10.53" x2="35.98" y2="10.53"/><line class="cls-2" x1="0.07" y1="9.68" x2="35.98" y2="9.68"/><line class="cls-2" x1="0.07" y1="8.84" x2="35.98" y2="8.84"/><line class="cls-2" x1="0.07" y1="7.99" x2="35.98" y2="7.99"/><line class="cls-2" x1="0.07" y1="7.14" x2="35.98" y2="7.14"/><line class="cls-2" x1="0.07" y1="6.29" x2="35.98" y2="6.29"/><line class="cls-2" x1="0.07" y1="5.45" x2="35.98" y2="5.45"/><line class="cls-2" x1="0.07" y1="4.6" x2="35.98" y2="4.6"/><line class="cls-2" x1="0.07" y1="3.75" x2="35.98" y2="3.75"/><line class="cls-2" x1="0.07" y1="2.9" x2="35.98" y2="2.9"/><line class="cls-2" x1="0.07" y1="2.05" x2="35.98" y2="2.05"/><line class="cls-2" x1="0.07" y1="1.21" x2="35.98" y2="1.21"/><line class="cls-2" x1="0.07" y1="0.36" x2="35.98" y2="0.36"/></pattern><pattern id="新增圖樣_3" data-name="新增圖樣 3" width="20.4" height="19.88" patternTransform="matrix(0.22, -0.01, 0.01, 0.22, 0.82, 4.62)" patternUnits="userSpaceOnUse" viewBox="0 0 20.4 19.88"><rect class="cls-1" width="20.4" height="19.88"/><g class="cls-3"><circle class="cls-4" cx="0.04" cy="0.03" r="1.15"/><circle class="cls-4" cx="0.04" cy="2.87" r="1.15"/><circle class="cls-4" cx="0.04" cy="5.71" r="1.15"/><circle class="cls-4" cx="0.04" cy="8.55" r="1.15"/><circle class="cls-4" cx="0.04" cy="11.38" r="1.15"/><circle class="cls-4" cx="0.04" cy="14.22" r="1.15"/><circle class="cls-4" cx="0.04" cy="17.06" r="1.15"/><circle class="cls-4" cx="0.04" cy="19.9" r="1.15"/><circle class="cls-4" cx="2.95" cy="0.03" r="1.15"/><circle class="cls-4" cx="2.95" cy="2.87" r="1.15"/><circle class="cls-4" cx="2.95" cy="5.71" r="1.15"/><circle class="cls-4" cx="2.95" cy="8.55" r="1.15"/><circle class="cls-4" cx="2.95" cy="11.38" r="1.15"/><circle class="cls-4" cx="2.95" cy="14.22" r="1.15"/><circle class="cls-4" cx="2.95" cy="17.06" r="1.15"/><circle class="cls-4" cx="2.95" cy="19.9" r="1.15"/><circle class="cls-4" cx="5.87" cy="0.03" r="1.15"/><circle class="cls-4" cx="5.87" cy="2.87" r="1.15"/><circle class="cls-4" cx="5.87" cy="5.71" r="1.15"/><circle class="cls-4" cx="5.87" cy="8.55" r="1.15"/><circle class="cls-4" cx="5.87" cy="11.38" r="1.15"/><circle class="cls-4" cx="5.87" cy="14.22" r="1.15"/><circle class="cls-4" cx="5.87" cy="17.06" r="1.15"/><circle class="cls-4" cx="5.87" cy="19.9" r="1.15"/><circle class="cls-4" cx="8.79" cy="0.03" r="1.15"/><circle class="cls-4" cx="8.79" cy="2.87" r="1.15"/><circle class="cls-4" cx="8.79" cy="5.71" r="1.15"/><circle class="cls-4" cx="8.79" cy="8.55" r="1.15"/><circle class="cls-4" cx="8.79" cy="11.38" r="1.15"/><circle class="cls-4" cx="8.79" cy="14.22" r="1.15"/><circle class="cls-4" cx="8.79" cy="17.06" r="1.15"/><circle class="cls-4" cx="8.79" cy="19.9" r="1.15"/><circle class="cls-4" cx="11.71" cy="0.03" r="1.15"/><circle class="cls-4" cx="11.71" cy="2.87" r="1.15"/><circle class="cls-4" cx="11.71" cy="5.71" r="1.15"/><circle class="cls-4" cx="11.71" cy="8.55" r="1.15"/><circle class="cls-4" cx="11.71" cy="11.38" r="1.15"/><circle class="cls-4" cx="11.71" cy="14.22" r="1.15"/><circle class="cls-4" cx="11.71" cy="17.06" r="1.15"/><circle class="cls-4" cx="11.71" cy="19.9" r="1.15"/><circle class="cls-4" cx="14.63" cy="0.03" r="1.15"/><circle class="cls-4" cx="14.63" cy="2.87" r="1.15"/><circle class="cls-4" cx="14.63" cy="5.71" r="1.15"/><circle class="cls-4" cx="14.63" cy="8.55" r="1.15"/><circle class="cls-4" cx="14.63" cy="11.38" r="1.15"/><circle class="cls-4" cx="14.63" cy="14.22" r="1.15"/><circle class="cls-4" cx="14.63" cy="17.06" r="1.15"/><circle class="cls-4" cx="14.63" cy="19.9" r="1.15"/><circle class="cls-4" cx="17.55" cy="0.03" r="1.15"/><circle class="cls-4" cx="17.55" cy="2.87" r="1.15"/><circle class="cls-4" cx="17.55" cy="5.71" r="1.15"/><circle class="cls-4" cx="17.55" cy="8.55" r="1.15"/><circle class="cls-4" cx="17.55" cy="11.38" r="1.15"/><circle class="cls-4" cx="17.55" cy="14.22" r="1.15"/><circle class="cls-4" cx="17.55" cy="17.06" r="1.15"/><circle class="cls-4" cx="17.55" cy="19.9" r="1.15"/><circle class="cls-4" cx="20.46" cy="0.03" r="1.15"/><circle class="cls-4" cx="20.46" cy="2.87" r="1.15"/><circle class="cls-4" cx="20.46" cy="5.71" r="1.15"/><circle class="cls-4" cx="20.46" cy="8.55" r="1.15"/><circle class="cls-4" cx="20.46" cy="11.38" r="1.15"/><circle class="cls-4" cx="20.46" cy="14.22" r="1.15"/><circle class="cls-4" cx="20.46" cy="17.06" r="1.15"/><circle class="cls-4" cx="20.46" cy="19.9" r="1.15"/></g></pattern><pattern id="新增圖樣_3-3" data-name="新增圖樣 3" width="20.4" height="19.88" patternTransform="translate(-3.4 15.06) rotate(-2.55) scale(0.32)" patternUnits="userSpaceOnUse" viewBox="0 0 20.4 19.88"><rect class="cls-1" width="20.4" height="19.88"/><g class="cls-3"><circle class="cls-4" cx="0.04" cy="0.03" r="1.15"/><circle class="cls-4" cx="0.04" cy="2.87" r="1.15"/><circle class="cls-4" cx="0.04" cy="5.71" r="1.15"/><circle class="cls-4" cx="0.04" cy="8.55" r="1.15"/><circle class="cls-4" cx="0.04" cy="11.38" r="1.15"/><circle class="cls-4" cx="0.04" cy="14.22" r="1.15"/><circle class="cls-4" cx="0.04" cy="17.06" r="1.15"/><circle class="cls-4" cx="0.04" cy="19.9" r="1.15"/><circle class="cls-4" cx="2.95" cy="0.03" r="1.15"/><circle class="cls-4" cx="2.95" cy="2.87" r="1.15"/><circle class="cls-4" cx="2.95" cy="5.71" r="1.15"/><circle class="cls-4" cx="2.95" cy="8.55" r="1.15"/><circle class="cls-4" cx="2.95" cy="11.38" r="1.15"/><circle class="cls-4" cx="2.95" cy="14.22" r="1.15"/><circle class="cls-4" cx="2.95" cy="17.06" r="1.15"/><circle class="cls-4" cx="2.95" cy="19.9" r="1.15"/><circle class="cls-4" cx="5.87" cy="0.03" r="1.15"/><circle class="cls-4" cx="5.87" cy="2.87" r="1.15"/><circle class="cls-4" cx="5.87" cy="5.71" r="1.15"/><circle class="cls-4" cx="5.87" cy="8.55" r="1.15"/><circle class="cls-4" cx="5.87" cy="11.38" r="1.15"/><circle class="cls-4" cx="5.87" cy="14.22" r="1.15"/><circle class="cls-4" cx="5.87" cy="17.06" r="1.15"/><circle class="cls-4" cx="5.87" cy="19.9" r="1.15"/><circle class="cls-4" cx="8.79" cy="0.03" r="1.15"/><circle class="cls-4" cx="8.79" cy="2.87" r="1.15"/><circle class="cls-4" cx="8.79" cy="5.71" r="1.15"/><circle class="cls-4" cx="8.79" cy="8.55" r="1.15"/><circle class="cls-4" cx="8.79" cy="11.38" r="1.15"/><circle class="cls-4" cx="8.79" cy="14.22" r="1.15"/><circle class="cls-4" cx="8.79" cy="17.06" r="1.15"/><circle class="cls-4" cx="8.79" cy="19.9" r="1.15"/><circle class="cls-4" cx="11.71" cy="0.03" r="1.15"/><circle class="cls-4" cx="11.71" cy="2.87" r="1.15"/><circle class="cls-4" cx="11.71" cy="5.71" r="1.15"/><circle class="cls-4" cx="11.71" cy="8.55" r="1.15"/><circle class="cls-4" cx="11.71" cy="11.38" r="1.15"/><circle class="cls-4" cx="11.71" cy="14.22" r="1.15"/><circle class="cls-4" cx="11.71" cy="17.06" r="1.15"/><circle class="cls-4" cx="11.71" cy="19.9" r="1.15"/><circle class="cls-4" cx="14.63" cy="0.03" r="1.15"/><circle class="cls-4" cx="14.63" cy="2.87" r="1.15"/><circle class="cls-4" cx="14.63" cy="5.71" r="1.15"/><circle class="cls-4" cx="14.63" cy="8.55" r="1.15"/><circle class="cls-4" cx="14.63" cy="11.38" r="1.15"/><circle class="cls-4" cx="14.63" cy="14.22" r="1.15"/><circle class="cls-4" cx="14.63" cy="17.06" r="1.15"/><circle class="cls-4" cx="14.63" cy="19.9" r="1.15"/><circle class="cls-4" cx="17.55" cy="0.03" r="1.15"/><circle class="cls-4" cx="17.55" cy="2.87" r="1.15"/><circle class="cls-4" cx="17.55" cy="5.71" r="1.15"/><circle class="cls-4" cx="17.55" cy="8.55" r="1.15"/><circle class="cls-4" cx="17.55" cy="11.38" r="1.15"/><circle class="cls-4" cx="17.55" cy="14.22" r="1.15"/><circle class="cls-4" cx="17.55" cy="17.06" r="1.15"/><circle class="cls-4" cx="17.55" cy="19.9" r="1.15"/><circle class="cls-4" cx="20.46" cy="0.03" r="1.15"/><circle class="cls-4" cx="20.46" cy="2.87" r="1.15"/><circle class="cls-4" cx="20.46" cy="5.71" r="1.15"/><circle class="cls-4" cx="20.46" cy="8.55" r="1.15"/><circle class="cls-4" cx="20.46" cy="11.38" r="1.15"/><circle class="cls-4" cx="20.46" cy="14.22" r="1.15"/><circle class="cls-4" cx="20.46" cy="17.06" r="1.15"/><circle class="cls-4" cx="20.46" cy="19.9" r="1.15"/></g></pattern></defs><title>hand_top_right</title><path id="Path_1" data-name="Path 1" class="cls-5" d="M38.16,83.54,2.55,54,36.17,13.44,71.86,42.31Z"/><polygon class="cls-6" points="38.19 83.68 2.71 53.86 36.12 13.37 71.82 42.32 38.19 83.68"/><path id="Path_1-2" data-name="Path 1" class="cls-7" d="M38.16,83.54,2.55,54,36.17,13.44,71.86,42.31Z"/><line id="Line_3" data-name="Line 3" class="cls-7" x1="44.74" y1="75.32" x2="9.39" y2="45.81"/><line id="Line_4" data-name="Line 4" class="cls-7" x1="51.86" y1="66.42" x2="16.67" y2="37.2"/><line id="Line_5" data-name="Line 5" class="cls-7" x1="64.27" y1="51.49" x2="28.87" y2="22.61"/><line id="Line_6" data-name="Line 6" class="cls-7" x1="21.9" y1="70.02" x2="35.6" y2="52.91"/><ellipse id="Ellipse_1" data-name="Ellipse 1" cx="41.1" cy="44.65" rx="7.62" ry="7.69" transform="translate(-2.57 2.51) rotate(-3.39)"/><path id="Path_37" data-name="Path 37" class="cls-8" d="M45.6,43.75l-2.49,3.3,1.26,1-.59.78a2.48,2.48,0,0,0-.55-.36,1.93,1.93,0,0,0-.59-.18,1.11,1.11,0,0,0-.57.06,1.49,1.49,0,0,0-.55.34L40.71,48l3.85-5.1Z"/><path id="Path_38" data-name="Path 38" class="cls-8" d="M37.82,43.06a7.76,7.76,0,0,0,1.35-.68,7.18,7.18,0,0,0,1.19-.93,5.69,5.69,0,0,0,1-1l1.11.85a9.09,9.09,0,0,1-2.21,1.79,9.8,9.8,0,0,1-2.63,1L40,46l-.75,1-3.45-2.67.67-.89A4.3,4.3,0,0,0,37.82,43.06Z"/><path id="Path_39" data-name="Path 39" d="M41.78,63.33c.21-.23.34-.33.57-.3a1.62,1.62,0,0,1,.72.43,2.83,2.83,0,0,0-.25.65,2.57,2.57,0,0,0-.4-.34s-.09-.06-.15,0l-1.69,2.09,2,1.62,2.16-2.63.48.39-2.51,3.12-3-2.45Zm-.56,2,1.69,1.41-.34.41-1.68-1.41Zm2.22-.5.19-.22.44.37-1.15,1.42L41.5,65.26l1-1.2Zm-.63.8.3-.36-.48-.39-.31.36Z"/><path id="Path_40" data-name="Path 40" d="M36.9,62l3,2.45-.3.39-.66-.55a.33.33,0,0,0,0,.16l-.33-.16.75.61-.3.4-1-.86a.2.2,0,0,0-.05.16l-.63-.4a1.31,1.31,0,0,1,.09-.28l-1-.86.3-.39.7.58L37,63l.17-.07-.66-.55Zm2.58-.76c-.13-.09-.17-.08-.35.11a1.61,1.61,0,0,0-.29-.51c.39-.34.57-.34.92-.07l.49.4c.49.4.49.62.18,1l-.24.31-.39-.3h-.26l.88.74L39.54,64l-2.25-1.87L38.17,61l1,.79a2.5,2.5,0,0,1-.15-.38l.55-.07a2.19,2.19,0,0,0,.23.6l.18-.23c.09-.09,0-.12-.09-.24ZM38.3,64.1l.07-.24-.66-.51a.56.56,0,0,1-.2.11Zm1.11-.85-1.28-1.07-.1.09,1.29,1.07Zm2.06-.54a1.82,1.82,0,0,0-.88.24l-.25-.52a2.91,2.91,0,0,1,.95-.29Zm-1.76.14-1.29-1.07-.09.09L39.61,63ZM38.21,61a2.25,2.25,0,0,1,.12-1l.58.15a4.21,4.21,0,0,0-.16.93Z"/><path id="Path_41" data-name="Path 41" d="M26,52.14a14.85,14.85,0,0,1-.39-1.85l.75,0a10.36,10.36,0,0,0,.23,1.66l1.34-1.72.56.43-1.23,1.57a4.75,4.75,0,0,1,1.64,0,4.45,4.45,0,0,0,0,.73,4.25,4.25,0,0,0-2.42.16l1.32,1-.4.52-3-2.39.4-.52,1.08.83a1.77,1.77,0,0,1,.42-.15l.26-.33Z"/><path id="Path_42" data-name="Path 42" d="M22.58,46.93c.21-.24.37-.36.57-.3a2.14,2.14,0,0,1,.71.39,2.06,2.06,0,0,0-.22.63,2.79,2.79,0,0,0-.43-.34c-.05-.07-.09-.06-.15,0L21.43,49.4l2,1.58,2.09-2.67.47.37-2.45,3.15-3-2.32Zm-.51,2,1.71,1.36-.31.42-1.71-1.35Zm2.21-.53.17-.23.47.37L23.81,50l-1.42-1.13.95-1.2Zm-.63.78.28-.38-.52-.4-.28.38Z"/><path id="Path_43" data-name="Path 43" d="M17.69,45.67l3,2.39-.31.39-.67-.55a.87.87,0,0,0-.07.17l-.32-.19.76.61-.31.38L18.7,48a1.22,1.22,0,0,0-.07.17l-.57-.31c0-.08.07-.17.09-.25l-1-.84.32-.38.71.54-.26-.28.17-.08-.66-.52Zm2.55-.81c-.1-.09-.17-.07-.34.13a1.8,1.8,0,0,0-.32-.49c.36-.36.56-.34.93-.09l.51.4c.48.38.5.6.21,1l-.25.33-.39-.32-.25,0,.9.72-.86,1.1L18.1,45.83l.86-1.1,1,.78a1.71,1.71,0,0,1-.13-.38l.55-.07a6,6,0,0,0,.22.59l.21-.24c.09-.1,0-.13-.1-.24Zm-1.12,2.89a.68.68,0,0,1,.09-.25L18.55,47c-.07.05-.14.07-.2.12Zm1.1-.9-1.32-1-.09.1,1.32,1Zm2.05-.56a2.49,2.49,0,0,0-.89.23L21.1,46A3.15,3.15,0,0,1,22,45.7Zm-1.73.18-1.33-1-.08.1,1.32,1ZM19,44.69a2.69,2.69,0,0,1,.1-.94l.6.15a2.52,2.52,0,0,0-.13,1Z"/><path id="Path_3" data-name="Path 3" class="cls-9" d="M47,22.3s2.9-6.2,3.48-7.62a8.4,8.4,0,0,1,4.67-4.18,83.92,83.92,0,0,0,9.08-4.74s6.43-3.15,7.2-4.83c0,0,11,5.05,12,12.21,0,0-5.08,7.92-6.92,11.08-1.63,2.78-2.39,3.92-2.39,3.92s-3.24,5-6.13,5.36c-2.24.26-3.6.42-3.74-1.88,0,0-2.29,2.07-3.3,1.88l-5.08-4.28s-3.16,4.3-6.51,2.48.73-6.59.73-6.59Z"/><path class="cls-10" d="M56.89,27l.33-1L62,20.63s8.93.77,13.49-6.94l2.85,5.87s-4.93,7.52-4.93,6c0,0,.91-5.82-3.44-2.29,0,0,.32-4.27-3-2.71,0,0-.61-.24-4.52,5,0,0-.57-1.23-3-.24Z"/><path class="cls-11" d="M51.09,16s2.12,2.19,3.56,2.17l-4.4,6.73L48,23S51.45,17.45,51.09,16Z"/><path id="Path_20" data-name="Path 20" class="cls-12" d="M46.88,22.31s2.9-6.21,3.48-7.63A8.4,8.4,0,0,1,55,10.5a84.56,84.56,0,0,0,9.08-4.73s6.43-3.15,7.2-4.84c0,0,11,5.06,12,12.22,0,0-5.08,7.92-6.92,11.07-1.63,2.79-2.39,3.92-2.39,3.92s-3.24,5-6.13,5.37c-2.24.26-3.6.42-3.74-1.88,0,0-2.29,2.06-3.3,1.87L55.8,29.23s-3.16,4.3-6.51,2.48.73-6.59.73-6.59Z"/><line id="Line_2" data-name="Line 2" class="cls-12" x1="50.02" y1="25.12" x2="54.73" y2="18.21"/><path id="Path_21" data-name="Path 21" class="cls-12" d="M56.84,17.77a3.85,3.85,0,0,1-4.68-1"/><path id="Path_22" data-name="Path 22" class="cls-12" d="M51.92,22.1s-.59-2.37-2.31-2.9"/><path id="Path_23" data-name="Path 23" class="cls-13" d="M49.52,25.89c3.73-.49,3.61,3.31,3.61,3.31-.86,2.9-4.25,2.2-4.25,2.2a2,2,0,0,1-.9-2.29A8,8,0,0,1,49.52,25.89Z"/><path id="Path_24" data-name="Path 24" class="cls-12" d="M62.37,19.67s-3.23,4.89-5,6.14a8,8,0,0,1-1.55,3.42"/><path id="Path_25" data-name="Path 25" class="cls-12" d="M59.27,32.07,62,30.22a3.14,3.14,0,0,0,1.36-2.37,2.81,2.81,0,0,0-.76-2.14A2.26,2.26,0,0,0,60,25.13a2.55,2.55,0,0,0-.43.23l-2.43,1.55"/><path id="Path_26" data-name="Path 26" class="cls-12" d="M64.18,31.63s5.47-6.2,5.7-7.5c0,0,.84-3.32-1.43-3.85a2.81,2.81,0,0,0-2.72,1.38l-3.22,3.81"/><path id="Path_27" data-name="Path 27" class="cls-12" d="M68.42,32.61s4.52-5.32,4.92-7.29c0,0,.91-2.63-1.1-3.28,0,0-1.36-.37-2.22,1.46"/><path id="Path_28" data-name="Path 28" class="cls-12" d="M72.06,25.71A1.44,1.44,0,0,1,70.13,25"/><path id="Path_29" data-name="Path 29" class="cls-12" d="M69,23.85s-1.68,1.14-2.88-.19.33-2.79.33-2.79"/><path id="Path_30" data-name="Path 30" class="cls-12" d="M61.15,29.48s-1.81.56-2.39-.82a1.84,1.84,0,0,1,.29-1.86L60.43,25"/><path id="Path_31" data-name="Path 31" class="cls-12" d="M61.33,21.27a1.73,1.73,0,0,1,2.43,1.58"/><path id="Path_32" data-name="Path 32" class="cls-12" d="M53.16,25.1s.82,1.92,4.19.71"/><path id="Path_33" data-name="Path 33" class="cls-12" d="M52.55,27.68s-2,.7-2.3-1.77"/><path id="Path_34" data-name="Path 34" class="cls-12" d="M60,29.5a2.19,2.19,0,0,0-1.12-2.2"/><path id="Path_35" data-name="Path 35" class="cls-12" d="M67.62,24.2a1.72,1.72,0,0,0-1.76-1.66"/><path id="Path_36" data-name="Path 36" class="cls-12" d="M61.93,20.63s8.57.31,13.46-6.75"/><path class="cls-14" d="M18.54,55.83a3.78,3.78,0,0,1-6,4.38l5.19-5.5A3.89,3.89,0,0,1,18.54,55.83Z"/><path class="cls-14" d="M17.71,54.71l-5.19,5.5a3.59,3.59,0,0,1-.79-1.08,3.78,3.78,0,0,1,6-4.42Z"/><line class="cls-14" x1="18.61" y1="59.23" x2="15" y2="57.66"/></svg>