<?xml version="1.0" encoding="utf-8"?>
<!-- Generator: Adobe Illustrator 23.0.1, SVG Export Plug-In . SVG Version: 6.00 Build 0)  -->
<svg version="1.1" id="圖層_1" xmlns="http://www.w3.org/2000/svg" xmlns:xlink="http://www.w3.org/1999/xlink" x="0px" y="0px"
	 viewBox="0 0 360 310.3" style="enable-background:new 0 0 360 310.3;" xml:space="preserve">
<style type="text/css">
	.st0{fill:#FFFFFF;}
</style>
<g id="圖層_3">
	<path d="M68,99.8l-0.2-16.2l22.7-4L88.6,7c0,0,2.5-4.3,9.6,0l5.1,70.2l1.3,0.4l13.5,4.2l-0.3-14.7l52.8-4.4l15.1,2.8V75l4.8,1.3
		l-0.1,9.8l3.4-0.8l0.4-3.3l55.2-10.5l29.9,5.7l-0.4,12.2l6.1,1.5l0.1,17.4l2.8-1.3l2.2,0.5l0.1,3l2.1,0.7l4-1.9l7.7,2v2.5l5,0.5
		l0.4,1.9l1.6,0.9l-0.1,3.7l-9.9,6.5l-12.5-3.3l-0.3,8.5L264,145.1l-4.6,2.6l-0.1,2l-5.4,3l-2.1-0.5l-3.6,2.4l-23.6-8.6l0.4,3.3
		l-4.4,2v4.8l-14,7.7l-1.7-0.5l-2.2,1.1l-3.7-1.7v-2.5l-6.1-2.1l0.3,11c0,0-3.1,3-6.2-0.1l-8.2-3.2l0.4,3.3l-4,1.9l-6.9-3.4l0.3-2.8
		l4.1-2.2l4,2.1l-0.3-7.4l-1.2-0.1l-8.6-3.3l-0.3,4.1l-18.5,7l0.1,4.4l5.7-2.6l2.4,1.5l2.4-1.3l15,8.5l-0.4,2.4l7.9,4.4l0.1,2.8
		l2.5-1.3l3.6,2.4v4.9l-2.8,1.6l1.1,1.3l-0.1,4.4l-10.5,5.8l-3.3-2.2l-8.2,4.4l-2.9-2.4l-6.4,3.6l-20-13.2l-0.1-4.8l1.9-1.1
		l-1.1-0.7l0.3-12.2l2.9-1.3c0,0-4.9-0.5-5.7-1.9l0.1-12.3c0,0-6,3.4-13.8-0.7l-0.1-4.1c0,0-2.8,1.2-4.5,0.8l0.1,5l-10.9,4.8
		l-13.4-8.3l-0.1-6.9l10.2-3.8l6.2,3.4l-0.1-10.3c0,0-8.5,2.8-14-0.9l-0.1-6.6l0.3-2.4l-0.4-14.8l-9,1.5l-4.2-2L62,118.5l-3.8-1.7
		l-0.4-6.1l2.8-0.3l0.4-1.9l6.5-1.2l0.1-2.5l0.8-0.4L68,99.8z"/>
	<circle class="st0" cx="220" cy="97.7" r="2.4"/>
	<circle class="st0" cx="227.4" cy="99.5" r="2.4"/>
	<circle class="st0" cx="204.6" cy="141.3" r="2.4"/>
	<circle class="st0" cx="212.2" cy="141.4" r="2.4"/>
	<circle class="st0" cx="184.1" cy="151.1" r="2.4"/>
	<circle class="st0" cx="191.7" cy="151.1" r="2.4"/>
	<g>
		<circle class="st0" cx="241.9" cy="131.5" r="2.4"/>
		<circle class="st0" cx="249.1" cy="128.8" r="2.4"/>
	</g>
	<g>
		<circle class="st0" cx="165" cy="120.4" r="3.5"/>
		<circle class="st0" cx="176" cy="119.8" r="3.5"/>
	</g>
	<g>
		<circle class="st0" cx="218.3" cy="121.8" r="3.5"/>
		<circle class="st0" cx="229.3" cy="121.2" r="3.5"/>
	</g>
	<g>
		<circle class="st0" cx="130" cy="138.7" r="2.4"/>
		<circle class="st0" cx="137.6" cy="139.9" r="2.4"/>
	</g>
	<g>
		<circle class="st0" cx="145.5" cy="174.9" r="2.4"/>
		<circle class="st0" cx="153" cy="176.1" r="2.4"/>
	</g>
	<g>
		<circle class="st0" cx="267" cy="100.9" r="2.4"/>
		<circle class="st0" cx="274.4" cy="102.6" r="2.4"/>
	</g>
	<circle class="st0" cx="267.8" cy="130.1" r="1.7"/>
	<circle class="st0" cx="273" cy="128.1" r="1.7"/>
	<circle class="st0" cx="299" cy="122.4" r="1.3"/>
	<circle class="st0" cx="302.9" cy="120.9" r="1.3"/>
	<g>
		<circle class="st0" cx="249.9" cy="144.2" r="1.1"/>
		<circle class="st0" cx="253.5" cy="143.5" r="1.1"/>
	</g>
	<g>
		<circle class="st0" cx="113.9" cy="148.1" r="1.1"/>
		<circle class="st0" cx="117.5" cy="147.4" r="1.1"/>
	</g>
	<g>
		<circle class="st0" cx="198" cy="127.1" r="1.1"/>
		<circle class="st0" cx="201.6" cy="126.4" r="1.1"/>
	</g>
	<g>
		<circle class="st0" cx="251.4" cy="114.4" r="1.1"/>
		<circle class="st0" cx="255" cy="113.7" r="1.1"/>
	</g>
	<g>
		<circle class="st0" cx="163.6" cy="136.9" r="1.1"/>
		<circle class="st0" cx="167.2" cy="136.2" r="1.1"/>
	</g>
	<g>
		<circle class="st0" cx="156.6" cy="153.9" r="1.1"/>
		<circle class="st0" cx="160.1" cy="155.2" r="1.1"/>
	</g>
	<g>
		<circle class="st0" cx="143.3" cy="149.9" r="1.1"/>
		<circle class="st0" cx="146.9" cy="149.2" r="1.1"/>
	</g>
	<g>
		<circle class="st0" cx="168.3" cy="188.5" r="1.1"/>
		<circle class="st0" cx="171.9" cy="187.8" r="1.1"/>
	</g>
	<g>
		<circle class="st0" cx="149.9" cy="186.7" r="1.1"/>
		<circle class="st0" cx="153.2" cy="188.4" r="1.1"/>
	</g>
	<g>
		<circle class="st0" cx="231.5" cy="142.9" r="0.9"/>
		<circle class="st0" cx="234.3" cy="143.5" r="0.9"/>
	</g>
	<g>
		<circle class="st0" cx="214.3" cy="153.9" r="0.9"/>
		<circle class="st0" cx="217.1" cy="153.6" r="0.9"/>
	</g>
	<circle class="st0" cx="281.8" cy="117.7" r="1.7"/>
	<circle class="st0" cx="287.3" cy="117.9" r="1.7"/>
	<circle cx="165.7" cy="120.7" r="1.4"/>
	<circle cx="130.3" cy="138.8" r="1.4"/>
	<circle cx="138.1" cy="139.6" r="1.4"/>
	<circle cx="145.9" cy="174.2" r="1.4"/>
	<circle cx="152.7" cy="175.7" r="1.4"/>
	<circle cx="176.3" cy="120.6" r="1.4"/>
	<circle cx="217.8" cy="122.4" r="1.4"/>
	<circle cx="228.7" cy="122.7" r="1.4"/>
	<circle cx="242.2" cy="130.8" r="1.4"/>
	<circle cx="248.9" cy="128.3" r="1.4"/>
	<circle cx="213" cy="141.1" r="1.4"/>
	<circle cx="184.6" cy="151.1" r="1.6"/>
	<circle cx="192.1" cy="151.3" r="1.6"/>
	<circle cx="267.4" cy="100.7" r="1.6"/>
	<circle cx="274.7" cy="102.2" r="1.6"/>
	<circle cx="198.5" cy="127.4" r="0.6"/>
	<circle cx="163.4" cy="136.7" r="0.6"/>
	<circle cx="167.2" cy="136" r="0.6"/>
	<circle cx="160.2" cy="155.1" r="0.6"/>
	<circle cx="157.1" cy="154.1" r="0.6"/>
	<circle cx="143.4" cy="149.7" r="0.6"/>
	<circle cx="147" cy="148.9" r="0.6"/>
	<circle cx="114.2" cy="148" r="0.6"/>
	<circle cx="117.8" cy="147.6" r="0.6"/>
	<circle cx="168.4" cy="188.3" r="0.6"/>
	<circle cx="171.8" cy="187.6" r="0.6"/>
	<circle cx="153" cy="188" r="0.6"/>
	<circle cx="149.9" cy="186.4" r="0.6"/>
	<circle cx="201.8" cy="126.8" r="0.6"/>
	<circle cx="221.1" cy="97.3" r="0.8"/>
	<circle cx="228.3" cy="99.6" r="0.8"/>
	<circle cx="251.5" cy="114.5" r="0.6"/>
	<circle cx="255.1" cy="113.7" r="0.6"/>
	<circle cx="273.4" cy="127.4" r="0.6"/>
	<circle cx="267.8" cy="129.5" r="0.6"/>
	<circle cx="282.1" cy="117.5" r="0.6"/>
	<circle cx="286.9" cy="117.7" r="0.6"/>
	<circle cx="303.5" cy="120.9" r="0.6"/>
	<circle cx="299.6" cy="122.6" r="0.6"/>
	<circle cx="250" cy="143.8" r="0.6"/>
	<circle cx="253.7" cy="143.2" r="0.6"/>
	<circle cx="234.4" cy="143.4" r="0.6"/>
	<circle cx="231.7" cy="142.7" r="0.6"/>
	<circle cx="214.2" cy="153.9" r="0.6"/>
	<circle cx="217.2" cy="153.7" r="0.6"/>
	<circle cx="205" cy="140.9" r="1.4"/>
</g>
</svg>
