<svg version="1.1" id="圖層_1" xmlns="http://www.w3.org/2000/svg" x="0" y="0" viewBox="0 0 360 310.3" style="enable-background:new 0 0 360 310.3" xml:space="preserve"><style>.st0{stroke-width:.9948}.st0,.st1,.st2{fill:#f4dc24;stroke:#070102;stroke-linecap:round;stroke-linejoin:round;stroke-miterlimit:10}.st2{fill:none}.st3{enable-background:new}.st4{fill:#c81d1d}</style><g id="圖層_3"><path class="st0" d="M269 253.6h-38.6v3.7h.1c.1 1.4 8.7 2.6 19.2 2.6s19-1.1 19.2-2.6h.1v-3.7h0z"/><ellipse class="st1" cx="249.7" cy="253.3" rx="19.2" ry="2.6"/><path class="st2" d="M235.2 255.3v1.9M238.3 255.8v1.9M241.2 256v2M244.2 256.1v1.9M247.4 256.3v1.9M250.6 256.3v2M253.5 256.3v1.9M256.8 256.2v1.9M260.3 255.9v2M263.7 255.5v1.9M266.9 254.9v1.9M232 254.8v2"/><path d="M253.4 254c1.2 0 1.8-.1 2.3-.2.7-.1 1.1-.4 1.1-.7-.1-.5-1.3-.8-3.1-.8-.9 0-1.6.1-2 .2-.5.1-.6.3-1.1.7-.5.5-.9.7-1.6.9-.8.2-1.9.3-3.3.3-1.1 0-2.2-.1-3.1-.2-1.1-.2-1.7-.5-1.8-.9 0-.4.4-.7 1.5-.9.7-.1 1.4-.2 2.9-.3l.5.5c-.9 0-1.2.1-1.7.1-.8.1-1.2.3-1.2.6 0 .4 1.2.7 2.9.7.7 0 1.4-.1 1.7-.2.4-.1.6-.3 1-.6.6-.6 1-.8 1.7-.9.8-.2 2-.3 3.3-.3 3.2 0 5.2.5 5.3 1.3.1.5-.8.9-2.4 1.1-.7.1-1.2.1-2.5.2l-.4-.6z"/><path class="st2" d="M258 253.1h1.8M239.6 253.1h1.8"/><g><path class="st0" d="M266.9 249.5h-38.6v3.7h.1c.1 1.4 8.7 2.6 19.2 2.6s19.1-1.1 19.2-2.6h.1v-3.7h0z"/><ellipse class="st1" cx="247.6" cy="249.2" rx="19.2" ry="2.6"/><path class="st2" d="M233.2 251.2v2M236.2 251.7v1.9M239.1 252v1.9M242.2 252v2M245.4 252.2v1.9M248.6 252.2v2M251.5 252.2v1.9M254.7 252.1v1.9M258.3 251.8v2M261.6 251.4v1.9M264.9 250.8v2M230 250.8v1.9"/><g><path d="M251.4 249.9c1.2 0 1.8-.1 2.3-.2.7-.1 1.1-.4 1.1-.7-.1-.5-1.3-.8-3.1-.8-.9 0-1.6.1-2 .2-.5.1-.6.3-1.1.7-.5.5-.9.7-1.6.9-.8.2-1.9.3-3.3.3-1.1 0-2.2-.1-3.1-.2-1.1-.2-1.7-.5-1.8-.9 0-.4.4-.7 1.5-.9.7-.1 1.4-.2 2.9-.3l.5.5c-.9 0-1.2.1-1.7.1-.8.1-1.2.3-1.2.6 0 .4 1.2.7 2.9.7.7 0 1.4-.1 1.7-.2.4-.1.6-.3 1-.6.6-.6 1-.8 1.7-.9.8-.2 2-.3 3.3-.3 3.2 0 5.2.5 5.3 1.3.1.5-.8.9-2.4 1.1-.7.1-1.2.1-2.5.2l-.4-.6z"/></g><path class="st2" d="M255.9 249h1.9M237.5 249h1.9"/></g><g><path class="st0" d="M267.8 245.6h-38.6v3.7h.1c.1 1.4 8.7 2.6 19.2 2.6s19-1.1 19.2-2.6h.1v-3.7h0z"/><ellipse class="st1" cx="248.5" cy="245.3" rx="19.2" ry="2.6"/><path class="st2" d="M234 247.3v2M237.1 247.8v1.9M240 248.1v1.9M243 248.1v2M246.2 248.3v1.9M249.4 248.3v2M252.3 248.3v1.9M255.6 248.2v1.9M259.1 247.9v2M262.5 247.5v1.9M265.7 246.9v2M230.8 246.9v1.9"/><g><path d="M252.2 246c1.2 0 1.8-.1 2.3-.2.7-.1 1.1-.4 1.1-.7-.1-.5-1.3-.8-3.1-.8-.9 0-1.6.1-2 .2-.5.1-.6.3-1.1.7-.5.5-.9.7-1.6.9-.8.2-1.9.3-3.3.3-1.1 0-2.2-.1-3.1-.2-1.1-.2-1.7-.5-1.8-.9 0-.4.4-.7 1.5-.9.7-.1 1.4-.2 2.9-.3l.5.5c-.9 0-1.2.1-1.7.1-.8.1-1.2.3-1.2.6 0 .4 1.2.7 2.9.7.7 0 1.4-.1 1.7-.2.4-.1.6-.3 1-.6.6-.6 1-.8 1.7-.9.8-.2 2-.3 3.3-.3 3.2 0 5.2.5 5.3 1.3.1.5-.8.9-2.4 1.1-.7.1-1.2.1-2.5.2l-.4-.6z"/></g><path class="st2" d="M256.7 245.1h1.9M238.3 245.1h1.9"/></g><g><path class="st0" d="M265.6 241.8H227v3.7h.1c.1 1.4 8.7 2.6 19.2 2.6s19.1-1.1 19.2-2.6h.1v-3.7h0z"/><ellipse class="st1" cx="246.3" cy="241.4" rx="19.2" ry="2.6"/><path class="st2" d="M231.9 243.5v1.9M234.9 243.9v2M237.8 244.2v1.9M240.8 244.3v1.9M244 244.4v2M247.2 244.5v1.9M250.1 244.4v2M253.4 244.3v2M256.9 244.1v1.9M260.3 243.6v2M263.6 243.1v1.9M228.7 243v1.9"/><g><path d="M250.1 242.2c1.2 0 1.8-.1 2.3-.2.7-.1 1.1-.4 1.1-.7-.1-.5-1.3-.8-3.1-.8-.9 0-1.6.1-2 .2-.5.1-.6.3-1.1.7-.5.5-.9.7-1.6.9-.8.2-1.9.3-3.3.3-1.1 0-2.2-.1-3.1-.2-1.1-.2-1.7-.5-1.8-.9 0-.4.4-.7 1.5-.9.7-.1 1.4-.2 2.9-.3l.5.5c-.9 0-1.2.1-1.7.1-.8.1-1.2.3-1.2.6 0 .4 1.2.7 2.9.7.7 0 1.4-.1 1.7-.2.4-.1.6-.3 1-.6.6-.6 1-.8 1.7-.9.8-.2 2-.3 3.3-.3 3.2 0 5.2.5 5.3 1.3.1.5-.8.9-2.4 1.1-.7.1-1.2.1-2.5.2l-.4-.6z"/></g><path class="st2" d="m254.6 241.2 1.8.1M236.2 241.2l1.8.1"/></g><g><path class="st0" d="M269.2 237.7h-38.6v3.7h.1c.1 1.4 8.7 2.6 19.2 2.6s19-1.1 19.2-2.6h.1v-3.7h0z"/><ellipse class="st1" cx="249.9" cy="237.3" rx="19.2" ry="2.6"/><path class="st2" d="M235.4 239.3v2M238.5 239.8v1.9M241.4 240.1v1.9M244.4 240.1v2M247.6 240.3v1.9M250.8 240.4v1.9M253.7 240.3v1.9M257 240.2v1.9M260.5 240v1.9M263.9 239.5v1.9M267.1 238.9v2M232.2 238.9v1.9"/><g><path d="M253.6 238c1.2 0 1.8-.1 2.3-.2.7-.1 1.1-.4 1.1-.7-.1-.5-1.3-.8-3.1-.8-.9 0-1.6.1-2 .2-.5.1-.6.3-1.1.7-.5.5-.9.7-1.6.9-.8.2-1.9.3-3.3.3-1.1 0-2.2-.1-3.1-.2-1.1-.2-1.7-.5-1.8-.9 0-.4.4-.7 1.5-.9.7-.1 1.4-.2 2.9-.3l.5.5c-.9 0-1.2.1-1.7.1-.8.1-1.2.3-1.2.6 0 .4 1.2.7 2.9.7.7 0 1.4-.1 1.7-.2.4-.1.6-.3 1-.6.6-.6 1-.8 1.7-.9.8-.2 2-.3 3.3-.3 3.2 0 5.2.5 5.3 1.3.1.5-.8.9-2.4 1.1-.7.1-1.2.1-2.5.2l-.4-.6z"/></g><path class="st2" d="M258.2 237.1h1.8M239.7 237.1h1.9"/></g><g><path class="st0" d="M265.8 231.5h-38.6v3.7h.1c.1 1.4 8.7 2.6 19.2 2.6s19.1-1.1 19.2-2.6h.1v-3.7h0z"/><ellipse class="st1" cx="246.5" cy="231.1" rx="19.2" ry="2.6"/><path class="st2" d="M232.1 233.1v2M235.1 233.6v1.9M238 233.9v1.9M241 233.9v2M244.2 234.1v2M247.4 234.2v1.9M250.3 234.1v2M253.6 234v1.9M257.1 233.8v1.9M260.5 233.3v2M263.8 232.7v2M228.9 232.7v1.9"/><g><path d="M250.2 231.8c1.2 0 1.8-.1 2.3-.2.7-.1 1.1-.4 1.1-.7-.1-.5-1.3-.8-3.1-.8-.9 0-1.6.1-2 .2-.5.1-.6.3-1.1.7-.5.5-.9.7-1.6.9-.8.2-1.9.3-3.3.3-1.1 0-2.2-.1-3.1-.2-1.1-.2-1.7-.5-1.8-.9 0-.4.4-.7 1.5-.9.7-.1 1.4-.2 2.9-.3l.5.5c-.9 0-1.2.1-1.7.1-.8.1-1.2.3-1.2.6 0 .4 1.2.7 2.9.7.7 0 1.4-.1 1.7-.2.4-.1.6-.3 1-.6.6-.6 1-.8 1.7-.9.8-.2 2-.3 3.3-.3 3.2 0 5.2.5 5.3 1.3.1.5-.8.9-2.4 1.1-.7.1-1.2.1-2.5.2l-.4-.6z"/></g><path class="st2" d="M254.8 230.9h1.8M236.4 230.9h1.8"/></g><g><path class="st0" d="M271.5 225.4h-38.6v3.7h.1c.1 1.4 8.7 2.6 19.2 2.6s19-1.1 19.2-2.6h.1v-3.7h0z"/><ellipse class="st1" cx="252.2" cy="225.1" rx="19.2" ry="2.6"/><path class="st2" d="M237.7 227.1v1.9M240.8 227.6v1.9M243.7 227.8v2M246.7 227.9v1.9M249.9 228.1v1.9M253.1 228.1v2M256 228.1v1.9M259.3 228v1.9M262.8 227.7v2M266.2 227.3v1.9M269.4 226.7v1.9M234.5 226.6v2"/><g><path d="M255.9 225.8c1.2 0 1.8-.1 2.3-.2.7-.1 1.1-.4 1.1-.7-.1-.5-1.3-.8-3.1-.8-.9 0-1.6.1-2 .2-.5.1-.6.3-1.1.7-.5.5-.9.7-1.6.9-.8.2-1.9.3-3.3.3-1.1 0-2.2-.1-3.1-.2-1.1-.2-1.7-.5-1.8-.9 0-.4.4-.7 1.5-.9.7-.1 1.4-.2 2.9-.3l.5.5c-.9 0-1.2.1-1.7.1-.8.1-1.2.3-1.2.6 0 .4 1.2.7 2.9.7.7 0 1.4-.1 1.7-.2.4-.1.6-.3 1-.6.6-.6 1-.8 1.7-.9.8-.2 2-.3 3.3-.3 3.2 0 5.2.5 5.3 1.3.1.5-.8.9-2.4 1.1-.7.1-1.2.1-2.5.2l-.4-.6z"/></g><path class="st2" d="M260.5 224.9h1.8M242 224.9h1.9"/></g><g><path class="st0" d="M269.4 219.2h-38.6v3.7h.1c.1 1.4 8.7 2.6 19.2 2.6s19-1.1 19.2-2.6h.1v-3.7h0z"/><ellipse class="st1" cx="250.1" cy="218.9" rx="19.2" ry="2.6"/><path class="st2" d="M235.7 220.9v2M238.7 221.4v1.9M241.6 221.7v1.9M244.6 221.7v2M247.8 221.9v1.9M251 221.9v2M253.9 221.9v1.9M257.2 221.8v1.9M260.7 221.5v2M264.1 221.1v1.9M267.4 220.5v2M232.5 220.5v1.9"/><g><path d="M253.9 219.6c1.2 0 1.8-.1 2.3-.2.7-.1 1.1-.4 1.1-.7-.1-.5-1.3-.8-3.1-.8-.9 0-1.6.1-2 .2-.5.1-.6.3-1.1.7-.5.5-.9.7-1.6.9-.8.2-1.9.3-3.3.3-1.1 0-2.2-.1-3.1-.2-1.1-.2-1.7-.5-1.8-.9 0-.4.4-.7 1.5-.9.7-.1 1.4-.2 2.9-.3l.5.5c-.9 0-1.2.1-1.7.1-.8.1-1.2.3-1.2.6 0 .4 1.2.7 2.9.7.7 0 1.4-.1 1.7-.2.4-.1.6-.3 1-.6.6-.6 1-.8 1.7-.9.8-.2 2-.3 3.3-.3 3.2 0 5.2.5 5.3 1.3.1.5-.8.9-2.4 1.1-.7.1-1.2.1-2.5.2l-.4-.6z"/></g><path class="st2" d="M258.4 218.7h1.9M240 218.7h1.8"/></g><g><path class="st0" d="M276 213.4h-38.6v3.7h.1c.1 1.4 8.7 2.6 19.2 2.6s19-1.1 19.2-2.6h.1v-3.7h0z"/><ellipse class="st1" cx="256.7" cy="213.1" rx="19.2" ry="2.6"/><path class="st2" d="M242.2 215.1v1.9M245.3 215.6v1.9M248.2 215.8v2M251.2 215.9v1.9M254.4 216.1v1.9M257.6 216.1v2M260.5 216.1v1.9M263.8 216v1.9M267.3 215.7v2M270.7 215.3v1.9M273.9 214.7v1.9M239 214.6v2"/><g><path d="M260.4 213.8c1.2 0 1.8-.1 2.3-.2.7-.1 1.1-.4 1.1-.7-.1-.5-1.3-.8-3.1-.8-.9 0-1.6.1-2 .2-.5.1-.6.3-1.1.7-.5.5-.9.7-1.6.9-.8.2-1.9.3-3.3.3-1.1 0-2.2-.1-3.1-.2-1.1-.2-1.7-.5-1.8-.9 0-.4.4-.7 1.5-.9.7-.1 1.4-.2 2.9-.3l.5.5c-.9 0-1.2.1-1.7.1-.8.1-1.2.3-1.2.6 0 .4 1.2.7 2.9.7.7 0 1.4-.1 1.7-.2.4-.1.6-.3 1-.6.6-.6 1-.8 1.7-.9.8-.2 2-.3 3.3-.3 3.2 0 5.2.5 5.3 1.3.1.5-.8.9-2.4 1.1-.7.1-1.2.1-2.5.2l-.4-.6z"/></g><path class="st2" d="M265 212.9h1.8M246.5 212.9h1.9"/></g><g><path class="st0" d="M271.9 207.8h-38.6v3.7h.1c.1 1.4 8.7 2.6 19.2 2.6s19-1.1 19.2-2.6h.1v-3.7h0z"/><ellipse class="st1" cx="252.6" cy="207.5" rx="19.2" ry="2.6"/><path class="st2" d="M238.1 209.5v1.9M241.1 209.9v2M244.1 210.2v2M247.1 210.3v1.9M250.3 210.4v2M253.5 210.5v1.9M256.4 210.4v2M259.6 210.3v2M263.2 210.1v1.9M266.6 209.6v2M269.8 209.1v1.9M234.9 209v2"/><g><path d="M256.3 208.2c1.2 0 1.8-.1 2.3-.2.7-.1 1.1-.4 1.1-.7-.1-.5-1.3-.8-3.1-.8-.9 0-1.6.1-2 .2-.5.1-.6.3-1.1.7-.5.5-.9.7-1.6.9-.8.2-1.9.3-3.3.3-1.1 0-2.2-.1-3.1-.2-1.1-.2-1.7-.5-1.8-.9 0-.4.4-.7 1.5-.9.7-.1 1.4-.2 2.9-.3l.5.5c-.9 0-1.2.1-1.7.1-.8.1-1.2.3-1.2.6 0 .4 1.2.7 2.9.7.7 0 1.4-.1 1.7-.2.4-.1.6-.3 1-.6.6-.6 1-.8 1.7-.9.8-.2 2-.3 3.3-.3 3.2 0 5.2.5 5.3 1.3.1.5-.8.9-2.4 1.1-.7.1-1.2.1-2.5.2l-.4-.6z"/></g><path class="st2" d="m260.8 207.2 1.9.1M242.4 207.2l1.9.1"/></g><g><path class="st0" d="M272.4 201.4h-38.6v3.7h.1c.1 1.4 8.7 2.6 19.2 2.6s19-1.1 19.2-2.6h.1v-3.7h0z"/><ellipse class="st1" cx="253.1" cy="201.1" rx="19.2" ry="2.6"/><path class="st2" d="M238.7 203.1v1.9M241.7 203.6v1.9M244.6 203.8v2M247.6 203.9v1.9M250.8 204.1v1.9M254 204.1v2M256.9 204.1v1.9M260.2 204v1.9M263.7 203.7v2M267.1 203.3v1.9M270.4 202.7v1.9M235.5 202.6v2"/><g><path d="M256.9 201.8c1.2 0 1.8-.1 2.3-.2.7-.1 1.1-.4 1.1-.7-.1-.5-1.3-.8-3.1-.8-.9 0-1.6.1-2 .2-.5.1-.6.3-1.1.7-.5.5-.9.7-1.6.9-.8.2-1.9.3-3.3.3-1.1 0-2.2-.1-3.1-.2-1.1-.2-1.7-.5-1.8-.9 0-.4.4-.7 1.5-.9.7-.1 1.4-.2 2.9-.3l.5.5c-.9 0-1.2.1-1.7.1-.8.1-1.2.3-1.2.6 0 .4 1.2.7 2.9.7.7 0 1.4-.1 1.7-.2.4-.1.6-.3 1-.6.6-.6 1-.8 1.7-.9.8-.2 2-.3 3.3-.3 3.2 0 5.2.5 5.3 1.3.1.5-.8.9-2.4 1.1-.7.1-1.2.1-2.5.2l-.4-.6z"/></g><path class="st2" d="M261.4 200.9h1.9M243 200.9h1.8"/></g><g><path class="st0" d="M275.3 195.9h-38.6v3.7h.1c.1 1.4 8.7 2.6 19.2 2.6s19-1.1 19.2-2.6h.1v-3.7h0z"/><ellipse class="st1" cx="256" cy="195.6" rx="19.2" ry="2.6"/><path class="st2" d="M241.5 197.6v2M244.6 198.1v1.9M247.5 198.4v1.9M250.5 198.4v2M253.7 198.6v1.9M256.9 198.6v2M259.8 198.6v1.9M263.1 198.5v1.9M266.6 198.2v2M270 197.8v1.9M273.2 197.2v2M238.3 197.2v1.9"/><g><path d="M259.7 196.3c1.2 0 1.8-.1 2.3-.2.7-.1 1.1-.4 1.1-.7-.1-.5-1.3-.8-3.1-.8-.9 0-1.6.1-2 .2-.5.1-.6.3-1.1.7-.5.5-.9.7-1.6.9-.8.2-1.9.3-3.3.3-1.1 0-2.2-.1-3.1-.2-1.1-.2-1.7-.5-1.8-.9 0-.4.4-.7 1.5-.9.7-.1 1.4-.2 2.9-.3l.5.5c-.9 0-1.2.1-1.7.1-.8.1-1.2.3-1.2.6 0 .4 1.2.7 2.9.7.7 0 1.4-.1 1.7-.2.4-.1.6-.3 1-.6.6-.6 1-.8 1.7-.9.8-.2 2-.3 3.3-.3 3.2 0 5.2.5 5.3 1.3.1.5-.8.9-2.4 1.1-.7.1-1.2.1-2.5.2l-.4-.6z"/></g><path class="st2" d="M264.2 195.4h1.9M245.8 195.4h1.9"/></g><g><path class="st0" d="M273.3 189.9h-38.6v3.7h.1c.1 1.4 8.7 2.6 19.2 2.6s19-1.1 19.2-2.6h.1v-3.7h0z"/><ellipse class="st1" cx="254" cy="189.5" rx="19.2" ry="2.6"/><path class="st2" d="M239.6 191.5v2M242.6 192v1.9M245.5 192.3v1.9M248.5 192.3v2M251.7 192.5v1.9M254.9 192.5v2M257.9 192.5v1.9M261.1 192.4v1.9M264.6 192.1v2M268 191.7v1.9M271.3 191.1v2M236.4 191.1v1.9"/><g><path d="M257.7 190.2c1.2 0 1.8-.1 2.3-.2.7-.1 1.1-.4 1.1-.7-.1-.5-1.3-.8-3.1-.8-.9 0-1.6.1-2 .2-.5.1-.6.3-1.1.7-.5.5-.9.7-1.6.9-.8.2-1.9.3-3.3.3-1.1 0-2.2-.1-3.1-.2-1.1-.2-1.7-.5-1.8-.9 0-.4.4-.7 1.5-.9.7-.1 1.4-.2 2.9-.3l.5.5c-.9 0-1.2.1-1.7.1-.8.1-1.2.3-1.2.6 0 .4 1.2.7 2.9.7.7 0 1.4-.1 1.7-.2.4-.1.6-.3 1-.6.6-.6 1-.8 1.7-.9.8-.2 2-.3 3.3-.3 3.2 0 5.2.5 5.3 1.3.1.5-.8.9-2.4 1.1-.7.1-1.2.1-2.5.2l-.4-.6z"/></g><path class="st2" d="M262.3 189.3h1.8M243.9 189.3h1.8"/></g><g><path class="st0" d="M276.7 184.4h-38.6v3.7h.1c.1 1.4 8.7 2.6 19.2 2.6s19-1.1 19.2-2.6h.1v-3.7h0z"/><ellipse class="st1" cx="257.4" cy="184.1" rx="19.2" ry="2.6"/><path class="st2" d="M242.9 186.1v1.9M246 186.5v2M248.9 186.8v2M251.9 186.9v1.9M255.1 187.1v1.9M258.3 187.1v2M261.2 187.1v1.9M264.5 186.9v2M268 186.7v2M271.4 186.3v1.9M274.7 185.7v1.9M239.7 185.6v2"/><g><path d="M261.1 184.8c1.2 0 1.8-.1 2.3-.2.7-.1 1.1-.4 1.1-.7-.1-.5-1.3-.8-3.1-.8-.9 0-1.6.1-2 .2-.5.1-.6.3-1.1.7-.5.5-.9.7-1.6.9-.8.2-1.9.3-3.3.3-1.1 0-2.2-.1-3.1-.2-1.1-.2-1.7-.5-1.8-.9 0-.4.4-.7 1.5-.9.7-.1 1.4-.2 2.9-.3l.5.5c-.9 0-1.2.1-1.7.1-.8.1-1.2.3-1.2.6 0 .4 1.2.7 2.9.7.7 0 1.4-.1 1.7-.2.4-.1.6-.3 1-.6.6-.6 1-.8 1.7-.9.8-.2 2-.3 3.3-.3 3.2 0 5.2.5 5.3 1.3.1.5-.8.9-2.4 1.1-.7.1-1.2.1-2.5.2l-.4-.6z"/></g><path class="st2" d="m265.7 183.8 1.8.1M247.3 183.8l1.8.1"/></g><g><path class="st0" d="M273.7 178.6h-38.6v3.7h.1c.1 1.4 8.7 2.6 19.2 2.6s19-1.1 19.2-2.6h.1v-3.7h0z"/><ellipse class="st1" cx="254.4" cy="178.2" rx="19.2" ry="2.6"/><path class="st2" d="M239.9 180.3v1.9M243 180.7v2M245.9 181v2M248.9 181.1v1.9M252.1 181.2v2M255.3 181.3v1.9M258.2 181.2v2M261.5 181.1v2M265 180.9v1.9M268.4 180.4v2M271.6 179.9v1.9M236.7 179.8v2"/><g><path d="M258.1 179c1.2 0 1.8-.1 2.3-.2.7-.1 1.1-.4 1.1-.7-.1-.5-1.3-.8-3.1-.8-.9 0-1.6.1-2 .2-.5.1-.6.3-1.1.7-.5.5-.9.7-1.6.9-.8.2-1.9.3-3.3.3-1.1 0-2.2-.1-3.1-.2-1.1-.2-1.7-.5-1.8-.9 0-.4.4-.7 1.5-.9.7-.1 1.4-.2 2.9-.3l.5.5c-.9 0-1.2.1-1.7.1-.8.1-1.2.3-1.2.6 0 .4 1.2.7 2.9.7.7 0 1.4-.1 1.7-.2.4-.1.6-.3 1-.6.6-.6 1-.8 1.7-.9.8-.2 2-.3 3.3-.3 3.2 0 5.2.5 5.3 1.3.1.5-.8.9-2.4 1.1-.7.1-1.2.1-2.5.2l-.4-.6z"/></g><path class="st2" d="m262.7 178 1.8.1M244.2 178l1.9.1"/></g><g><path class="st0" d="M277.6 172.1H239v3.7h.1c.1 1.4 8.7 2.6 19.2 2.6s19-1.1 19.2-2.6h.1v-3.7h0z"/><ellipse class="st1" cx="258.3" cy="171.8" rx="19.2" ry="2.6"/><path class="st2" d="M243.9 173.8v2M246.9 174.3v1.9M249.8 174.6v1.9M252.9 174.6v2M256.1 174.8v1.9M259.3 174.8v2M262.2 174.8v1.9M265.4 174.7v1.9M269 174.4v2M272.3 174v1.9M275.6 173.4v2M240.7 173.4v1.9"/><g><path d="M262.1 172.5c1.2 0 1.8-.1 2.3-.2.7-.1 1.1-.4 1.1-.7-.1-.5-1.3-.8-3.1-.8-.9 0-1.6.1-2 .2-.5.1-.6.3-1.1.7-.5.5-.9.7-1.6.9-.8.2-1.9.3-3.3.3-1.1 0-2.2-.1-3.1-.2-1.1-.2-1.7-.5-1.8-.9 0-.4.4-.7 1.5-.9.7-.1 1.4-.2 2.9-.3l.5.5c-.9 0-1.2.1-1.7.1-.8.1-1.2.3-1.2.6 0 .4 1.2.7 2.9.7.7 0 1.4-.1 1.7-.2.4-.1.6-.3 1-.6.6-.6 1-.8 1.7-.9.8-.2 2-.3 3.3-.3 3.2 0 5.2.5 5.3 1.3.1.5-.8.9-2.4 1.1-.7.1-1.2.1-2.5.2l-.4-.6z"/></g><path class="st2" d="M266.6 171.6h1.9M248.2 171.6h1.8"/></g><g><path class="st0" d="M276.1 166h-38.6v3.7h.1c.1 1.4 8.7 2.6 19.2 2.6s19-1.1 19.2-2.6h.1V166h0z"/><ellipse class="st1" cx="256.8" cy="165.6" rx="19.2" ry="2.6"/><path class="st2" d="M242.4 167.6v2M245.4 168.1v1.9M248.3 168.4v1.9M251.4 168.4v2M254.6 168.6v1.9M257.7 168.7v1.9M260.7 168.6v1.9M263.9 168.5v1.9M267.5 168.3v1.9M270.8 167.8v1.9M274.1 167.2v2M239.2 167.2v1.9"/><g><path d="M260.6 166.3c1.2 0 1.8-.1 2.3-.2.7-.1 1.1-.4 1.1-.7-.1-.5-1.3-.8-3.1-.8-.9 0-1.6.1-2 .2-.5.1-.6.3-1.1.7-.5.5-.9.7-1.6.9-.8.2-1.9.3-3.3.3-1.1 0-2.2-.1-3.1-.2-1.1-.2-1.7-.5-1.8-.9 0-.4.4-.7 1.5-.9.7-.1 1.4-.2 2.9-.3l.5.5c-.9 0-1.2.1-1.7.1-.8.1-1.2.3-1.2.6 0 .4 1.2.7 2.9.7.7 0 1.4-.1 1.7-.2.4-.1.6-.3 1-.6.6-.6 1-.8 1.7-.9.8-.2 2-.3 3.3-.3 3.2 0 5.2.5 5.3 1.3.1.5-.8.9-2.4 1.1-.7.1-1.2.1-2.5.2l-.4-.6z"/></g><path class="st2" d="M265.1 165.4h1.9M246.7 165.4h1.8"/></g><g><path class="st0" d="M277.7 160.5h-38.6v3.7h.1c.1 1.4 8.7 2.6 19.2 2.6s19-1.1 19.2-2.6h.1v-3.7h0z"/><ellipse class="st1" cx="258.4" cy="160.2" rx="19.2" ry="2.6"/><path class="st2" d="M244 162.2v2M247 162.7v1.9M249.9 163v1.9M252.9 163v2M256.1 163.2v1.9M259.4 163.2v2M262.3 163.2v1.9M265.5 163.1v1.9M269.1 162.8v2M272.4 162.4v1.9M275.7 161.8v2M240.8 161.8v1.9"/><path d="M262.2 160.9c1.2 0 1.8-.1 2.3-.2.7-.1 1.1-.4 1.1-.7-.1-.5-1.3-.8-3.1-.8-.9 0-1.6.1-2 .2-.5.1-.6.3-1.1.7-.5.5-.9.7-1.6.9-.8.2-1.9.3-3.3.3-1.1 0-2.2-.1-3.1-.2-1.1-.2-1.7-.5-1.8-.9 0-.4.4-.7 1.5-.9.7-.1 1.4-.2 2.9-.3l.5.5c-.9 0-1.2.1-1.7.1-.8.1-1.2.3-1.2.6 0 .4 1.2.7 2.9.7.7 0 1.4-.1 1.7-.2.4-.1.6-.3 1-.6.6-.6 1-.8 1.7-.9.8-.2 2-.3 3.3-.3 3.2 0 5.2.5 5.3 1.3 0 .5-.8.9-2.4 1.1-.7.1-1.2.1-2.5.2l-.4-.6z"/><path class="st2" d="M266.7 160h1.9M248.3 160h1.8"/><g><path class="st0" d="M275.7 156.5h-38.6v3.7h.1c.1 1.4 8.7 2.6 19.2 2.6s19-1.1 19.2-2.6h.1v-3.7h0z"/><ellipse class="st1" cx="256.4" cy="156.1" rx="19.2" ry="2.6"/><path class="st2" d="M241.9 158.1v2M245 158.6v1.9M247.9 158.9v1.9M250.9 158.9v2M254.1 159.1v1.9M257.3 159.1v2M260.2 159.1v1.9M263.5 159v1.9M267 158.7v2M270.4 158.3v1.9M273.6 157.7v2M238.7 157.7v1.9"/><g><path d="M260.1 156.8c1.2 0 1.8-.1 2.3-.2.7-.1 1.1-.4 1.1-.7-.1-.5-1.3-.8-3.1-.8-.9 0-1.6.1-2 .2-.5.1-.6.3-1.1.7-.5.5-.9.7-1.6.9-.8.2-1.9.3-3.3.3-1.1 0-2.2-.1-3.1-.2-1.1-.2-1.7-.5-1.8-.9 0-.4.4-.7 1.5-.9.7-.1 1.4-.2 2.9-.3l.5.5c-.9 0-1.2.1-1.7.1-.8.1-1.2.3-1.2.6 0 .4 1.2.7 2.9.7.7 0 1.4-.1 1.7-.2.4-.1.6-.3 1-.6.6-.6 1-.8 1.7-.9.8-.2 2-.3 3.3-.3 3.2 0 5.2.5 5.3 1.3.1.5-.8.9-2.4 1.1-.7.1-1.2.1-2.5.2l-.4-.6z"/></g><path class="st2" d="M264.7 155.9h1.8M246.3 155.9h1.8"/></g><g><path class="st0" d="M276.5 152.6h-38.6v3.7h.1c.1 1.4 8.7 2.6 19.2 2.6s19-1.1 19.2-2.6h.1v-3.7h0z"/><ellipse class="st1" cx="257.2" cy="152.2" rx="19.2" ry="2.6"/><path class="st2" d="M242.8 154.2v2M245.8 154.7v1.9M248.7 155v1.9M251.7 155v2M254.9 155.2v1.9M258.1 155.3v1.9M261.1 155.2v1.9M264.3 155.1v1.9M267.9 154.9v1.9M271.2 154.4v1.9M274.5 153.8v2M239.6 153.8v1.9"/><g><path d="M260.9 152.9c1.2 0 1.8-.1 2.3-.2.7-.1 1.1-.4 1.1-.7-.1-.5-1.3-.8-3.1-.8-.9 0-1.6.1-2 .2-.5.1-.6.3-1.1.7-.5.5-.9.7-1.6.9-.8.2-1.9.3-3.3.3-1.1 0-2.2-.1-3.1-.2-1.1-.2-1.7-.5-1.8-.9 0-.4.4-.7 1.5-.9.7-.1 1.4-.2 2.9-.3l.5.5c-.9 0-1.2.1-1.7.1-.8.1-1.2.3-1.2.6 0 .4 1.2.7 2.9.7.7 0 1.4-.1 1.7-.2.4-.1.6-.3 1-.6.6-.6 1-.8 1.7-.9.8-.2 2-.3 3.3-.3 3.2 0 5.2.5 5.3 1.3.1.5-.8.9-2.4 1.1-.7.1-1.2.1-2.5.2l-.4-.6z"/></g><path class="st2" d="M265.5 152h1.9M247.1 152h1.8"/></g><g><path class="st0" d="M274.4 148.7h-38.6v3.7h.1c.1 1.4 8.7 2.6 19.2 2.6s19-1.1 19.2-2.6h.1v-3.7h0z"/><ellipse class="st1" cx="255.1" cy="148.3" rx="19.2" ry="2.6"/><path class="st2" d="M240.6 150.4v1.9M243.6 150.8v2M246.6 151.1v1.9M249.6 151.2v1.9M252.8 151.3v2M256 151.4v1.9M258.9 151.3v2M262.1 151.2v2M265.7 151v1.9M269.1 150.5v2M272.3 150v1.9M237.4 149.9v1.9"/><g><path d="M258.8 149.1c1.2 0 1.8-.1 2.3-.2.7-.1 1.1-.4 1.1-.7-.1-.5-1.3-.8-3.1-.8-.9 0-1.6.1-2 .2-.5.1-.6.3-1.1.7-.5.5-.9.7-1.6.9-.8.2-1.9.3-3.3.3-1.1 0-2.2-.1-3.1-.2-1.1-.2-1.7-.5-1.8-.9 0-.4.4-.7 1.5-.9.7-.1 1.4-.2 2.9-.3l.5.5c-.9 0-1.2.1-1.7.1-.8.1-1.2.3-1.2.6 0 .4 1.2.7 2.9.7.7 0 1.4-.1 1.7-.2.4-.1.6-.3 1-.6.6-.6 1-.8 1.7-.9.8-.2 2-.3 3.3-.3 3.2 0 5.2.5 5.3 1.3.1.5-.8.9-2.4 1.1-.7.1-1.2.1-2.5.2l-.4-.6z"/></g><path class="st2" d="m263.3 148.1 1.9.1M244.9 148.1l1.9.1"/></g><g><path class="st0" d="M277.9 144.6h-38.6v3.7h.1c.1 1.4 8.7 2.6 19.2 2.6s19-1.1 19.2-2.6h.1v-3.7h0z"/><ellipse class="st1" cx="258.6" cy="144.2" rx="19.2" ry="2.6"/><path class="st2" d="M244.2 146.2v2M247.2 146.7v1.9M250.1 147v1.9M253.1 147v2M256.4 147.2v1.9M259.5 147.3v1.9M262.5 147.2v1.9M265.7 147.1v1.9M269.3 146.9v1.9M272.6 146.4v1.9M275.9 145.8v2M241 145.8v1.9"/><g><path d="M262.4 144.9c1.2 0 1.8-.1 2.3-.2.7-.1 1.1-.4 1.1-.7-.1-.5-1.3-.8-3.1-.8-.9 0-1.6.1-2 .2-.5.1-.6.3-1.1.7-.5.5-.9.7-1.6.9-.8.2-1.9.3-3.3.3-1.1 0-2.2-.1-3.1-.2-1.1-.2-1.7-.5-1.8-.9 0-.4.4-.7 1.5-.9.7-.1 1.4-.2 2.9-.3l.5.5c-.9 0-1.2.1-1.7.1-.8.1-1.2.3-1.2.6 0 .4 1.2.7 2.9.7.7 0 1.4-.1 1.7-.2.4-.1.6-.3 1-.6.6-.6 1-.8 1.7-.9.8-.2 2-.3 3.3-.3 3.2 0 5.2.5 5.3 1.3 0 .5-.8.9-2.4 1.1-.7.1-1.2.1-2.5.2l-.4-.6z"/></g><path class="st2" d="M266.9 144h1.8M248.5 144h1.8"/></g><g><path class="st0" d="M274.5 138.4h-38.6v3.7h.1c.1 1.4 8.7 2.6 19.2 2.6s19-1.1 19.2-2.6h.1v-3.7h0z"/><ellipse class="st1" cx="255.2" cy="138" rx="19.2" ry="2.6"/><path class="st2" d="M240.8 140v2M243.8 140.5v1.9M246.7 140.8v1.9M249.8 140.8v2M253 141v2M256.2 141.1v1.9M259.1 141v2M262.3 140.9v1.9M265.9 140.7v1.9M269.3 140.2v2M272.5 139.6v2M237.6 139.6v1.9"/><g><path d="M259 138.7c1.2 0 1.8-.1 2.3-.2.7-.1 1.1-.4 1.1-.7-.1-.5-1.3-.8-3.1-.8-.9 0-1.6.1-2 .2-.5.1-.6.3-1.1.7-.5.5-.9.7-1.6.9-.8.2-1.9.3-3.3.3-1.1 0-2.2-.1-3.1-.2-1.1-.2-1.7-.5-1.8-.9 0-.4.4-.7 1.5-.9.7-.1 1.4-.2 2.9-.3l.5.5c-.9 0-1.2.1-1.7.1-.8.1-1.2.3-1.2.6 0 .4 1.2.7 2.9.7.7 0 1.4-.1 1.7-.2.4-.1.6-.3 1-.6.6-.6 1-.8 1.7-.9.8-.2 2-.3 3.3-.3 3.2 0 5.2.5 5.3 1.3.1.5-.8.9-2.4 1.1-.7.1-1.2.1-2.5.2l-.4-.6z"/></g><path class="st2" d="M263.5 137.8h1.9M245.1 137.8h1.9"/></g><g><path class="st0" d="M280.2 132.3h-38.6v3.7h.1c.1 1.4 8.7 2.6 19.2 2.6s19-1.1 19.2-2.6h.1v-3.7h0z"/><ellipse class="st1" cx="260.9" cy="132" rx="19.2" ry="2.6"/><path class="st2" d="M246.5 134v2M249.5 134.5v1.9M252.4 134.8v1.9M255.4 134.8v1.9M258.6 135v1.9M261.8 135v2M264.8 135v1.9M268 134.9v1.9M271.6 134.6v2M274.9 134.2v1.9M278.2 133.6v2M243.3 133.6v1.9"/><g><path d="M264.6 132.7c1.2 0 1.8-.1 2.3-.2.7-.1 1.1-.4 1.1-.7 0-.5-1.3-.8-3.1-.8-.9 0-1.6.1-2 .2-.5.1-.6.3-1.1.7-.5.5-.9.7-1.6.9-.8.2-1.9.3-3.3.3-1.1 0-2.2-.1-3.1-.2-1.1-.2-1.7-.5-1.8-.9 0-.4.4-.7 1.5-.9.7-.1 1.4-.2 2.9-.3l.5.5c-.9 0-1.2.1-1.7.1-.8.1-1.2.3-1.2.6 0 .4 1.2.7 2.9.7.7 0 1.4-.1 1.7-.2.4-.1.6-.3 1-.6.6-.6 1-.8 1.7-.9.8-.2 2-.3 3.3-.3 3.2 0 5.2.5 5.3 1.3 0 .5-.8.9-2.4 1.1-.7.1-1.2.1-2.5.2l-.4-.6z"/></g><path class="st2" d="M269.2 131.8h1.8M250.8 131.8h1.8"/></g><g><path class="st0" d="M278.2 126.2h-38.6v3.7h.1c.1 1.4 8.7 2.6 19.2 2.6s19-1.1 19.2-2.6h.1v-3.7h0z"/><ellipse class="st1" cx="258.9" cy="125.8" rx="19.2" ry="2.6"/><path class="st2" d="M244.4 127.8v2M247.4 128.3v1.9M250.4 128.6v1.9M253.4 128.6v2M256.6 128.8v1.9M259.8 128.8v2M262.7 128.8v1.9M265.9 128.7v1.9M269.5 128.4v2M272.9 128v1.9M276.1 127.4v2M241.2 127.4v1.9"/><g><path d="M262.6 126.5c1.2 0 1.8-.1 2.3-.2.7-.1 1.1-.4 1.1-.7-.1-.5-1.3-.8-3.1-.8-.9 0-1.6.1-2 .2-.5.1-.6.3-1.1.7-.5.5-.9.7-1.6.9-.8.2-1.9.3-3.3.3-1.1 0-2.2-.1-3.1-.2-1.1-.2-1.7-.5-1.8-.9 0-.4.4-.7 1.5-.9.7-.1 1.4-.2 2.9-.3l.5.5c-.9 0-1.2.1-1.7.1-.8.1-1.2.3-1.2.6 0 .4 1.2.7 2.9.7.7 0 1.4-.1 1.7-.2.4-.1.6-.3 1-.6.6-.6 1-.8 1.7-.9.8-.2 2-.3 3.3-.3 3.2 0 5.2.5 5.3 1.3 0 .5-.8.9-2.4 1.1-.7.1-1.2.1-2.5.2l-.4-.6z"/></g><path class="st2" d="M267.1 125.6h1.9M248.7 125.6h1.9"/></g><g><path class="st0" d="M284.7 120.3h-38.6v3.7h.1c.1 1.4 8.7 2.6 19.2 2.6s19-1.1 19.2-2.6h.1v-3.7h0z"/><ellipse class="st1" cx="265.4" cy="120" rx="19.2" ry="2.6"/><path class="st2" d="M251 122v1.9M254 122.5v1.9M256.9 122.7v2M259.9 122.8v1.9M263.1 123v1.9M266.4 123v2M269.3 123v1.9M272.5 122.9v1.9M276.1 122.6v2M279.4 122.2v1.9M282.7 121.6v1.9M247.8 121.5v2"/><g><path d="M269.1 120.7c1.2 0 1.8-.1 2.3-.2.7-.1 1.1-.4 1.1-.7 0-.5-1.3-.8-3.1-.8-.9 0-1.6.1-2 .2-.5.1-.6.3-1.1.7-.5.5-.9.7-1.6.9-.8.2-1.9.3-3.3.3-1.1 0-2.2-.1-3.1-.2-1.1-.2-1.7-.5-1.8-.9 0-.4.4-.7 1.5-.9.7-.1 1.4-.2 2.9-.3l.5.5c-.9 0-1.2.1-1.7.1-.8.1-1.2.3-1.2.6 0 .4 1.2.7 2.9.7.7 0 1.4-.1 1.7-.2.4-.1.6-.3 1-.6.6-.6 1-.8 1.7-.9.8-.2 2-.3 3.3-.3 3.2 0 5.2.5 5.3 1.3 0 .5-.8.9-2.4 1.1-.7.1-1.2.1-2.5.2l-.4-.6z"/></g><path class="st2" d="M273.7 119.8h1.8M255.3 119.8h1.8"/></g><g><path class="st0" d="M280.6 114.7H242v3.7h.1c.1 1.4 8.7 2.6 19.2 2.6s19-1.1 19.2-2.6h.1v-3.7h0z"/><ellipse class="st1" cx="261.3" cy="114.4" rx="19.2" ry="2.6"/><path class="st2" d="M246.9 116.4v1.9M249.9 116.8v2M252.8 117.1v2M255.8 117.2v1.9M259 117.4v1.9M262.2 117.4v2M265.1 117.4v1.9M268.4 117.2v2M271.9 117v2M275.3 116.6v1.9M278.6 116v1.9M243.6 115.9v2"/><g><path d="M265 115.1c1.2 0 1.8-.1 2.3-.2.7-.1 1.1-.4 1.1-.7 0-.5-1.3-.8-3.1-.8-.9 0-1.6.1-2 .2-.5.1-.6.3-1.1.7-.5.5-.9.7-1.6.9-.8.2-1.9.3-3.3.3-1.1 0-2.2-.1-3.1-.2-1.1-.2-1.7-.5-1.8-.9 0-.4.4-.7 1.5-.9.7-.1 1.4-.2 2.9-.3l.5.4c-.9 0-1.2.1-1.7.1-.8.1-1.2.3-1.2.6 0 .4 1.2.7 2.9.7.7 0 1.4-.1 1.7-.2.4-.1.6-.3 1-.6.6-.6 1-.8 1.7-.9.8-.2 2-.3 3.3-.3 3.2 0 5.2.5 5.3 1.3 0 .5-.8.9-2.4 1.1-.7.1-1.2.1-2.5.2l-.4-.5z"/></g><path class="st2" d="m269.6 114.1 1.8.1M251.2 114.1l1.8.1"/></g><g><path class="st0" d="M281.2 108.3h-38.6v3.7h.1c.1 1.4 8.7 2.6 19.2 2.6s19-1.1 19.2-2.6h.1v-3.7h0z"/><ellipse class="st1" cx="261.9" cy="108" rx="19.2" ry="2.6"/><path class="st2" d="M247.4 110v1.9M250.4 110.5v1.9M253.4 110.7v2M256.4 110.8v1.9M259.6 111v1.9M262.8 111v2M265.7 111v1.9M269 110.9v1.9M272.5 110.6v2M275.9 110.2v1.9M279.1 109.6v1.9M244.2 109.5v2"/><g><path d="M265.6 108.7c1.2 0 1.8-.1 2.3-.2.7-.1 1.1-.4 1.1-.7 0-.5-1.3-.8-3.1-.8-.9 0-1.6.1-2 .2-.5.1-.6.3-1.1.7-.5.5-.9.7-1.6.9-.8.2-1.9.3-3.3.3-1.1 0-2.2-.1-3.1-.2-1.1-.2-1.7-.5-1.8-.9 0-.4.4-.7 1.5-.9.7-.1 1.4-.2 2.9-.3l.5.4c-.9 0-1.2.1-1.7.1-.8.1-1.2.3-1.2.6 0 .4 1.2.7 2.9.7.7 0 1.4-.1 1.7-.2.4-.1.6-.3 1-.6.6-.6 1-.8 1.7-.9.8-.2 2-.3 3.3-.3 3.2 0 5.2.5 5.3 1.3 0 .5-.8.9-2.4 1.1-.7.1-1.2.1-2.5.2l-.4-.5z"/></g><path class="st2" d="M270.1 107.8h1.9M251.7 107.8h1.9"/></g><g><path class="st0" d="M284 102.8h-38.6v3.7h.1c.1 1.4 8.7 2.6 19.2 2.6s19-1.1 19.2-2.6h.1v-3.7h0z"/><ellipse class="st1" cx="264.7" cy="102.5" rx="19.2" ry="2.6"/><path class="st2" d="M250.3 104.5v2M253.3 105v1.9M256.2 105.3v1.9M259.2 105.3v2M262.4 105.5v1.9M265.6 105.5v2M268.5 105.5v1.9M271.8 105.4v1.9M275.3 105.1v2M278.7 104.7v1.9M282 104.1v2M247.1 104.1v1.9"/><g><path d="M268.4 103.2c1.2 0 1.8-.1 2.3-.2.7-.1 1.1-.4 1.1-.7 0-.5-1.3-.8-3.1-.8-.9 0-1.6.1-2 .2-.5.1-.6.3-1.1.7-.5.5-.9.7-1.6.9-.8.2-1.9.3-3.3.3-1.1 0-2.2-.1-3.1-.2-1.1-.2-1.7-.5-1.8-.9 0-.4.4-.7 1.5-.9.7-.1 1.4-.2 2.9-.3l.5.5c-.9 0-1.2.1-1.7.1-.8.1-1.2.3-1.2.6 0 .4 1.2.7 2.9.7.7 0 1.4-.1 1.7-.2.4-.1.6-.3 1-.6.6-.6 1-.8 1.7-.9.8-.2 2-.3 3.3-.3 3.2 0 5.2.5 5.3 1.3 0 .5-.8.9-2.4 1.1-.7.1-1.2.1-2.5.2l-.4-.6z"/></g><path class="st2" d="M273 102.3h1.8M254.6 102.3h1.8"/></g><g><path class="st0" d="M282.1 96.8h-38.6v3.7h.1c.1 1.4 8.7 2.6 19.2 2.6s19-1.1 19.2-2.6h.1v-3.7h0z"/><ellipse class="st1" cx="262.8" cy="96.4" rx="19.2" ry="2.6"/><path class="st2" d="M248.3 98.4v2M251.4 98.9v1.9M254.3 99.2v1.9M257.3 99.2v2M260.5 99.4v1.9M263.7 99.5v1.9M266.6 99.4v1.9M269.9 99.3v1.9M273.4 99.1v1.9M276.8 98.6v1.9M280 98v2M245.1 98v1.9"/><g><path d="M266.5 97.1c1.2 0 1.8-.1 2.3-.2.7-.1 1.1-.4 1.1-.7 0-.5-1.3-.8-3.1-.8-.9 0-1.6.1-2 .2-.5.1-.6.3-1.1.7-.5.5-.9.7-1.6.9-.8.2-1.9.3-3.3.3-1.1 0-2.2-.1-3.1-.2-1.1-.2-1.7-.5-1.8-.9 0-.4.4-.7 1.5-.9.7-.1 1.4-.2 2.9-.3l.5.5c-.9 0-1.2.1-1.7.1-.8.1-1.2.3-1.2.6 0 .4 1.2.7 2.9.7.7 0 1.4-.1 1.7-.2.4-.1.6-.3 1-.6.6-.6 1-.8 1.7-.9.8-.2 2-.3 3.3-.3 3.2 0 5.2.5 5.3 1.3 0 .5-.8.9-2.4 1.1-.7.1-1.2.1-2.5.2l-.4-.6z"/></g><path class="st2" d="M271 96.2h1.9M252.6 96.2h1.9"/></g><g><path class="st0" d="M285.4 91.3h-38.6V95h.1c.1 1.4 8.7 2.6 19.2 2.6s19-1.1 19.2-2.6h.1v-3.7h0z"/><ellipse class="st1" cx="266.1" cy="91" rx="19.2" ry="2.6"/><path class="st2" d="M251.7 93v1.9M254.7 93.4v2M257.6 93.7v2M260.7 93.8v1.9M263.9 94v1.9M267.1 94v2M270 94v1.9M273.2 93.8v2M276.8 93.6v2M280.1 93.2v1.9M283.4 92.6v1.9M248.5 92.5v2"/><g><path d="M269.9 91.7c1.2 0 1.8-.1 2.3-.2.7-.1 1.1-.4 1.1-.7 0-.5-1.3-.8-3.1-.8-.9 0-1.6.1-2 .2-.5.1-.6.3-1.1.7-.5.5-.9.7-1.6.9-.8.2-1.9.3-3.3.3-1.1 0-2.2-.1-3.1-.2-1.1-.2-1.7-.5-1.8-.9 0-.4.4-.7 1.5-.9.7-.1 1.4-.2 2.9-.3l.5.5c-.9 0-1.2.1-1.7.1-.8.1-1.2.3-1.2.6 0 .4 1.2.7 2.9.7.7 0 1.4-.1 1.7-.2.4-.1.6-.3 1-.6.6-.6 1-.8 1.7-.9.8-.2 2-.3 3.3-.3 3.2 0 5.2.5 5.3 1.3 0 .5-.8.9-2.4 1.1-.7.1-1.2.1-2.5.2l-.4-.6z"/></g><path class="st2" d="m274.4 90.7 1.9.1M256 90.7l1.9.1"/></g><g><path class="st0" d="M282.4 85.5h-38.6v3.7h.1c.1 1.4 8.7 2.6 19.2 2.6s19-1.1 19.2-2.6h.1v-3.7h0z"/><ellipse class="st1" cx="263.1" cy="85.2" rx="19.2" ry="2.6"/><path class="st2" d="M248.7 87.2v1.9M251.7 87.6v2M254.6 87.9v2M257.6 88v1.9M260.9 88.1v2M264 88.2v1.9M267 88.1v2M270.2 88v2M273.8 87.8v1.9M277.1 87.3v2M280.4 86.8v1.9M245.5 86.7v2"/><g><path d="M266.9 85.9c1.2 0 1.8-.1 2.3-.2.7-.1 1.1-.4 1.1-.7 0-.5-1.3-.8-3.1-.8-.9 0-1.6.1-2 .2-.5.1-.6.3-1.1.7-.5.5-.9.7-1.6.9-.8.2-1.9.3-3.3.3-1.1 0-2.2-.1-3.1-.2-1.1-.2-1.7-.5-1.8-.9 0-.4.4-.7 1.5-.9.7-.1 1.4-.2 2.9-.3l.5.5c-.9 0-1.2.1-1.7.1-.8.1-1.2.3-1.2.6 0 .4 1.2.7 2.9.7.7 0 1.4-.1 1.7-.2.4-.1.6-.3 1-.6.6-.6 1-.8 1.7-.9.8-.2 2-.3 3.3-.3 3.2 0 5.2.5 5.3 1.3 0 .5-.8.9-2.4 1.1-.7.1-1.2.1-2.5.2l-.4-.6z"/></g><path class="st2" d="m271.4 84.9 1.9.1M253 84.9l1.8.1"/></g><g><path class="st0" d="M286.4 79.1h-38.6v3.7h.1c.1 1.4 8.7 2.6 19.2 2.6s19-1.1 19.2-2.6h.1v-3.7h0z"/><ellipse class="st1" cx="267.1" cy="78.7" rx="19.2" ry="2.6"/><path class="st2" d="M252.6 80.7v2M255.6 81.2v1.9M258.6 81.5v1.9M261.6 81.5v2M264.8 81.7v1.9M268 81.8v1.9M270.9 81.7v1.9M274.2 81.6v1.9M277.7 81.4v1.9M281.1 80.9v1.9M284.3 80.3v2M249.4 80.3v1.9"/><g><path d="M270.8 79.4c1.2 0 1.8-.1 2.3-.2.7-.1 1.1-.4 1.1-.7 0-.5-1.3-.8-3.1-.8-.9 0-1.6.1-2 .2-.5.1-.6.3-1.1.7-.5.5-.9.7-1.6.9-.8.2-1.9.3-3.3.3-1.1 0-2.2-.1-3.1-.2-1.1-.2-1.7-.5-1.8-.9 0-.4.4-.7 1.5-.9.7-.1 1.4-.2 2.9-.3l.5.4c-.9 0-1.2.1-1.7.1-.8.1-1.2.3-1.2.6 0 .4 1.2.7 2.9.7.7 0 1.4-.1 1.7-.2.4-.1.6-.3 1-.6.6-.6 1-.8 1.7-.9.8-.2 2-.3 3.3-.3 3.2 0 5.2.5 5.3 1.3 0 .5-.8.9-2.4 1.1-.7.1-1.2.1-2.5.2l-.4-.5z"/></g><path class="st2" d="M275.4 78.5h1.8M256.9 78.5h1.9"/></g><g><path class="st0" d="M284.9 72.9h-38.6v3.7h.1c.1 1.4 8.7 2.6 19.2 2.6s19-1.1 19.2-2.6h.1v-3.7h0z"/><ellipse class="st1" cx="265.6" cy="72.5" rx="19.2" ry="2.6"/><path class="st2" d="M251.1 74.5v2M254.1 75v1.9M257.1 75.3v1.9M260.1 75.3v2M263.3 75.5v1.9M266.5 75.6v1.9M269.4 75.5v1.9M272.7 75.4v1.9M276.2 75.2v1.9M279.6 74.7v1.9M282.8 74.1v2M247.9 74.1V76"/><g><path d="M269.3 73.2c1.2 0 1.8-.1 2.3-.2.7-.1 1.1-.4 1.1-.7 0-.5-1.3-.8-3.1-.8-.9 0-1.6.1-2 .2-.5.1-.6.3-1.1.7-.5.5-.9.7-1.6.9-.8.2-1.9.3-3.3.3-1.1 0-2.2-.1-3.1-.2-1.1-.2-1.7-.5-1.8-.9 0-.4.4-.7 1.5-.9.7-.1 1.4-.2 2.9-.3l.5.4c-.9 0-1.2.1-1.7.1-.8.1-1.2.3-1.2.6 0 .4 1.2.7 2.9.7.7 0 1.4-.1 1.7-.2.4-.1.6-.3 1-.6.6-.6 1-.8 1.7-.9.8-.2 2-.3 3.3-.3 3.2 0 5.2.5 5.3 1.3 0 .5-.8.9-2.4 1.1-.7.1-1.2.1-2.5.2l-.4-.5z"/></g><path class="st2" d="M273.9 72.3h1.8M255.4 72.3h1.9"/></g></g><g><path class="st0" d="M203.3 269.5h-38.6v3.7h.1c.1 1.4 8.7 2.6 19.2 2.6s19.1-1.1 19.2-2.6h.1v-3.7h0z"/><ellipse class="st1" cx="184" cy="269.1" rx="19.2" ry="2.6"/><path class="st2" d="M169.5 271.1v2M172.6 271.6v1.9M175.5 271.9v1.9M178.5 271.9v2M181.7 272.1v1.9M184.9 272.2v1.9M187.8 272.1v1.9M191.1 272v1.9M194.6 271.8v1.9M198 271.3v1.9M201.2 270.7v2M166.3 270.7v1.9"/><path d="M187.7 269.8c1.2 0 1.8-.1 2.3-.2.7-.1 1.1-.4 1.1-.7-.1-.5-1.3-.8-3.1-.8-.9 0-1.6.1-2 .2-.5.1-.6.3-1.1.7-.5.5-.9.7-1.6.9-.8.2-1.9.3-3.3.3-1.1 0-2.2-.1-3.1-.2-1.1-.2-1.7-.5-1.8-.9 0-.4.4-.7 1.5-.9.7-.1 1.4-.2 2.9-.3l.5.5c-.9 0-1.2.1-1.7.1-.8.1-1.2.3-1.2.6 0 .4 1.2.7 2.9.7.7 0 1.4-.1 1.7-.2.4-.1.6-.3 1-.6.6-.6 1-.8 1.7-.9.8-.2 2-.3 3.3-.3 3.2 0 5.2.5 5.3 1.3.1.5-.8.9-2.4 1.1-.7.1-1.2.1-2.5.2l-.4-.6z"/><path class="st2" d="M192.3 268.9h1.8M173.8 268.9h1.9"/><g><path class="st0" d="M201.2 265.4h-38.6v3.7h.1c.1 1.4 8.7 2.6 19.2 2.6s19.1-1.1 19.2-2.6h.1v-3.7h0z"/><ellipse class="st1" cx="181.9" cy="265" rx="19.2" ry="2.6"/><path class="st2" d="M167.5 267v2M170.5 267.5v1.9M173.4 267.8v1.9M176.5 267.8v2M179.7 268v2M182.9 268.1v1.9M185.8 268v2M189 267.9v1.9M192.6 267.7v1.9M195.9 267.2v2M199.2 266.6v2M164.3 266.6v1.9"/><g><path d="M185.7 265.7c1.2 0 1.8-.1 2.3-.2.7-.1 1.1-.4 1.1-.7-.1-.5-1.3-.8-3.1-.8-.9 0-1.6.1-2 .2-.5.1-.6.3-1.1.7-.5.5-.9.7-1.6.9-.8.2-1.9.3-3.3.3-1.1 0-2.2-.1-3.1-.2-1.1-.2-1.7-.5-1.8-.9 0-.4.4-.7 1.5-.9.7-.1 1.4-.2 2.9-.3l.5.5c-.9 0-1.2.1-1.7.1-.8.1-1.2.3-1.2.6 0 .4 1.2.7 2.9.7.7 0 1.4-.1 1.7-.2.4-.1.6-.3 1-.6.6-.6 1-.8 1.7-.9.8-.2 2-.3 3.3-.3 3.2 0 5.2.5 5.3 1.3.1.5-.8.9-2.4 1.1-.7.1-1.2.1-2.5.2l-.4-.6z"/></g><path class="st2" d="M190.2 264.8h1.9M171.8 264.8h1.9"/></g><g><path class="st0" d="M202.1 261.5h-38.6v3.7h.1c.1 1.4 8.7 2.6 19.2 2.6s19.1-1.1 19.2-2.6h.1v-3.7h0z"/><ellipse class="st1" cx="182.8" cy="261.1" rx="19.2" ry="2.6"/><path class="st2" d="M168.3 263.1v2M171.4 263.6v1.9M174.3 263.9v1.9M177.3 263.9v2M180.5 264.1v2M183.7 264.2v1.9M186.6 264.1v2M189.9 264v1.9M193.4 263.8v1.9M196.8 263.3v2M200 262.7v2M165.1 262.7v1.9"/><g><path d="M186.5 261.8c1.2 0 1.8-.1 2.3-.2.7-.1 1.1-.4 1.1-.7-.1-.5-1.3-.8-3.1-.8-.9 0-1.6.1-2 .2-.5.1-.6.3-1.1.7-.5.5-.9.7-1.6.9-.8.2-1.9.3-3.3.3-1.1 0-2.2-.1-3.1-.2-1.1-.2-1.7-.5-1.8-.9 0-.4.4-.7 1.5-.9.7-.1 1.4-.2 2.9-.3l.5.5c-.9 0-1.2.1-1.7.1-.8.1-1.2.3-1.2.6 0 .4 1.2.7 2.9.7.7 0 1.4-.1 1.7-.2.4-.1.6-.3 1-.6.6-.6 1-.8 1.7-.9.8-.2 2-.3 3.3-.3 3.2 0 5.2.5 5.3 1.3.1.5-.8.9-2.4 1.1-.7.1-1.2.1-2.5.2l-.4-.6z"/></g><path class="st2" d="M191 260.9h1.9M172.6 260.9h1.9"/></g><g><path class="st0" d="M199.9 257.6h-38.6v3.7h.1c.1 1.4 8.7 2.6 19.2 2.6s19.1-1.1 19.2-2.6h.1v-3.7h0z"/><ellipse class="st1" cx="180.6" cy="257.3" rx="19.2" ry="2.6"/><path class="st2" d="M166.2 259.3v1.9M169.2 259.7v2M172.1 260v2M175.1 260.1v1.9M178.3 260.2v2M181.5 260.3v1.9M184.4 260.2v2M187.7 260.1v2M191.2 259.9v1.9M194.6 259.4v2M197.9 258.9v1.9M163 258.8v2"/><g><path d="M184.3 258c1.2 0 1.8-.1 2.3-.2.7-.1 1.1-.4 1.1-.7-.1-.5-1.3-.8-3.1-.8-.9 0-1.6.1-2 .2-.5.1-.6.3-1.1.7-.5.5-.9.7-1.6.9-.8.2-1.9.3-3.3.3-1.1 0-2.2-.1-3.1-.2-1.1-.2-1.7-.5-1.8-.9 0-.4.4-.7 1.5-.9.7-.1 1.4-.2 2.9-.3l.5.5c-.9 0-1.2.1-1.7.1-.8.1-1.2.3-1.2.6 0 .4 1.2.7 2.9.7.7 0 1.4-.1 1.7-.2.4-.1.6-.3 1-.6.6-.6 1-.8 1.7-.9.8-.2 2-.3 3.3-.3 3.2 0 5.2.5 5.3 1.3.1.5-.8.9-2.4 1.1-.7.1-1.2.1-2.5.2l-.4-.6z"/></g><path class="st2" d="m188.9 257 1.8.1M170.5 257l1.8.1"/></g><g><path class="st0" d="M203.5 253.5h-38.6v3.7h.1c.1 1.4 8.7 2.6 19.2 2.6s19.1-1.1 19.2-2.6h.1v-3.7h0z"/><ellipse class="st1" cx="184.2" cy="253.1" rx="19.2" ry="2.6"/><path class="st2" d="M169.7 255.2v1.9M172.8 255.6v1.9M175.7 255.9v1.9M178.7 256v1.9M181.9 256.1v2M185.1 256.2v1.9M188 256.1v2M191.3 256v1.9M194.8 255.8v1.9M198.2 255.3v2M201.4 254.8v1.9M166.5 254.7v1.9"/><g><path d="M187.9 253.9c1.2 0 1.8-.1 2.3-.2.7-.1 1.1-.4 1.1-.7-.1-.5-1.3-.8-3.1-.8-.9 0-1.6.1-2 .2-.5.1-.6.3-1.1.7-.5.5-.9.7-1.6.9-.8.2-1.9.3-3.3.3-1.1 0-2.2-.1-3.1-.2-1.1-.2-1.7-.5-1.8-.9 0-.4.4-.7 1.5-.9.7-.1 1.4-.2 2.9-.3l.5.5c-.9 0-1.2.1-1.7.1-.8.1-1.2.3-1.2.6 0 .4 1.2.7 2.9.7.7 0 1.4-.1 1.7-.2.4-.1.6-.3 1-.6.6-.6 1-.8 1.7-.9.8-.2 2-.3 3.3-.3 3.2 0 5.2.5 5.3 1.3.1.5-.8.9-2.4 1.1-.7.1-1.2.1-2.5.2l-.4-.6z"/></g><path class="st2" d="M192.4 252.9h1.9M174 252.9h1.9"/></g><g><path class="st0" d="M200.1 247.3h-38.6v3.7h.1c.1 1.4 8.7 2.6 19.2 2.6s19.1-1.1 19.2-2.6h.1v-3.7h0z"/><ellipse class="st1" cx="180.8" cy="246.9" rx="19.2" ry="2.6"/><path class="st2" d="M166.4 249v1.9M169.4 249.4v2M172.3 249.7v1.9M175.3 249.8v1.9M178.5 249.9v2M181.7 250v1.9M184.6 249.9v2M187.9 249.8v2M191.4 249.6v1.9M194.8 249.1v2M198.1 248.6v1.9M163.2 248.5v1.9"/><g><path d="M184.5 247.7c1.2 0 1.8-.1 2.3-.2.7-.1 1.1-.4 1.1-.7-.1-.5-1.3-.8-3.1-.8-.9 0-1.6.1-2 .2-.5.1-.6.3-1.1.7-.5.5-.9.7-1.6.9-.8.2-1.9.3-3.3.3-1.1 0-2.2-.1-3.1-.2-1.1-.2-1.7-.5-1.8-.9 0-.4.4-.7 1.5-.9.7-.1 1.4-.2 2.9-.3l.5.5c-.9 0-1.2.1-1.7.1-.8.1-1.2.3-1.2.6 0 .4 1.2.7 2.9.7.7 0 1.4-.1 1.7-.2.4-.1.6-.3 1-.6.6-.6 1-.8 1.7-.9.8-.2 2-.3 3.3-.3 3.2 0 5.2.5 5.3 1.3.1.5-.8.9-2.4 1.1-.7.1-1.2.1-2.5.2l-.4-.6z"/></g><path class="st2" d="m189.1 246.7 1.8.1M170.7 246.7l1.8.1"/></g><g><path class="st0" d="M205.8 241.3h-38.6v3.7h.1c.1 1.4 8.7 2.6 19.2 2.6s19.1-1.1 19.2-2.6h.1v-3.7h0z"/><ellipse class="st1" cx="186.5" cy="240.9" rx="19.2" ry="2.6"/><path class="st2" d="M172 242.9v2M175.1 243.4v1.9M178 243.7v1.9M181 243.7v2M184.2 243.9v1.9M187.4 244v1.9M190.3 243.9v1.9M193.6 243.8v1.9M197.1 243.6v1.9M200.5 243.1v1.9M203.7 242.5v2M168.8 242.5v1.9"/><g><path d="M190.2 241.6c1.2 0 1.8-.1 2.3-.2.7-.1 1.1-.4 1.1-.7-.1-.5-1.3-.8-3.1-.8-.9 0-1.6.1-2 .2-.5.1-.6.3-1.1.7-.5.5-.9.7-1.6.9-.8.2-1.9.3-3.3.3-1.1 0-2.2-.1-3.1-.2-1.1-.2-1.7-.5-1.8-.9 0-.4.4-.7 1.5-.9.7-.1 1.4-.2 2.9-.3l.5.5c-.9 0-1.2.1-1.7.1-.8.1-1.2.3-1.2.6 0 .4 1.2.7 2.9.7.7 0 1.4-.1 1.7-.2.4-.1.6-.3 1-.6.6-.6 1-.8 1.7-.9.8-.2 2-.3 3.3-.3 3.2 0 5.2.5 5.3 1.3.1.5-.8.9-2.4 1.1-.7.1-1.2.1-2.5.2l-.4-.6z"/></g><path class="st2" d="M194.7 240.7h1.9M176.3 240.7h1.9"/></g><g><path class="st0" d="M203.7 235.1h-38.6v3.7h.1c.1 1.4 8.7 2.6 19.2 2.6s19.1-1.1 19.2-2.6h.1v-3.7h0z"/><ellipse class="st1" cx="184.4" cy="234.7" rx="19.2" ry="2.6"/><path class="st2" d="M170 236.7v2M173 237.2v1.9M175.9 237.5v1.9M178.9 237.5v2M182.1 237.7v1.9M185.3 237.8v1.9M188.3 237.7v1.9M191.5 237.6v1.9M195 237.4v1.9M198.4 236.9v1.9M201.7 236.3v2M166.8 236.3v1.9"/><g><path d="M188.1 235.4c1.2 0 1.8-.1 2.3-.2.7-.1 1.1-.4 1.1-.7-.1-.5-1.3-.8-3.1-.8-.9 0-1.6.1-2 .2-.5.1-.6.3-1.1.7-.5.5-.9.7-1.6.9-.8.2-1.9.3-3.3.3-1.1 0-2.2-.1-3.1-.2-1.1-.2-1.7-.5-1.8-.9 0-.4.4-.7 1.5-.9.7-.1 1.4-.2 2.9-.3l.5.5c-.9 0-1.2.1-1.7.1-.8.1-1.2.3-1.2.6 0 .4 1.2.7 2.9.7.7 0 1.4-.1 1.7-.2.4-.1.6-.3 1-.6.6-.6 1-.8 1.7-.9.8-.2 2-.3 3.3-.3 3.2 0 5.2.5 5.3 1.3.1.5-.8.9-2.4 1.1-.7.1-1.2.1-2.5.2l-.4-.6z"/></g><path class="st2" d="M192.7 234.5h1.8M174.3 234.5h1.8"/></g><g><path class="st0" d="M210.3 229.3h-38.6v3.7h.1c.1 1.4 8.7 2.6 19.2 2.6s19.1-1.1 19.2-2.6h.1v-3.7h0z"/><ellipse class="st1" cx="191" cy="228.9" rx="19.2" ry="2.6"/><path class="st2" d="M176.5 230.9v2M179.6 231.4v1.9M182.5 231.7v1.9M185.5 231.7v2M188.7 231.9v1.9M191.9 232v1.9M194.8 231.9v1.9M198.1 231.8v1.9M201.6 231.6v1.9M205 231.1v1.9M208.2 230.5v2M173.3 230.5v1.9"/><g><path d="M194.7 229.6c1.2 0 1.8-.1 2.3-.2.7-.1 1.1-.4 1.1-.7-.1-.5-1.3-.8-3.1-.8-.9 0-1.6.1-2 .2-.5.1-.6.3-1.1.7-.5.5-.9.7-1.6.9-.8.2-1.9.3-3.3.3-1.1 0-2.2-.1-3.1-.2-1.1-.2-1.7-.5-1.8-.9 0-.4.4-.7 1.5-.9.7-.1 1.4-.2 2.9-.3l.5.5c-.9 0-1.2.1-1.7.1-.8.1-1.2.3-1.2.6 0 .4 1.2.7 2.9.7.7 0 1.4-.1 1.7-.2.4-.1.6-.3 1-.6.6-.6 1-.8 1.7-.9.8-.2 2-.3 3.3-.3 3.2 0 5.2.5 5.3 1.3.1.5-.8.9-2.4 1.1-.7.1-1.2.1-2.5.2l-.4-.6z"/></g><path class="st2" d="M199.3 228.7h1.8M180.8 228.7h1.9"/></g><g><path class="st0" d="M206.1 223.6h-38.6v3.7h.1c.1 1.4 8.7 2.6 19.2 2.6s19.1-1.1 19.2-2.6h.1v-3.7h0z"/><ellipse class="st1" cx="186.8" cy="223.3" rx="19.2" ry="2.6"/><path class="st2" d="M172.4 225.3v1.9M175.4 225.8v1.9M178.4 226v2M181.4 226.1v1.9M184.6 226.3v1.9M187.8 226.3v2M190.7 226.3v1.9M193.9 226.2v1.9M197.5 225.9v2M200.9 225.5v1.9M204.1 224.9v1.9M169.2 224.8v2"/><g><path d="M190.6 224c1.2 0 1.8-.1 2.3-.2.7-.1 1.1-.4 1.1-.7-.1-.5-1.3-.8-3.1-.8-.9 0-1.6.1-2 .2-.5.1-.6.3-1.1.7-.5.5-.9.7-1.6.9-.8.2-1.9.3-3.3.3-1.1 0-2.2-.1-3.1-.2-1.1-.2-1.7-.5-1.8-.9 0-.4.4-.7 1.5-.9.7-.1 1.4-.2 2.9-.3l.5.5c-.9 0-1.2.1-1.7.1-.8.1-1.2.3-1.2.6 0 .4 1.2.7 2.9.7.7 0 1.4-.1 1.7-.2.4-.1.6-.3 1-.6.6-.6 1-.8 1.7-.9.8-.2 2-.3 3.3-.3 3.2 0 5.2.5 5.3 1.3.1.5-.8.9-2.4 1.1-.7.1-1.2.1-2.5.2l-.4-.6z"/></g><path class="st2" d="M195.1 223.1h1.9M176.7 223.1h1.9"/></g><g><path class="st0" d="M206.7 217.3h-38.6v3.7h.1c.1 1.4 8.7 2.6 19.2 2.6s19.1-1.1 19.2-2.6h.1v-3.7h0z"/><ellipse class="st1" cx="187.4" cy="216.9" rx="19.2" ry="2.6"/><path class="st2" d="M173 218.9v2M176 219.4v1.9M178.9 219.7v1.9M181.9 219.7v2M185.1 219.9v1.9M188.3 219.9v2M191.3 219.9v1.9M194.5 219.8v1.9M198 219.5v2M201.4 219.1v1.9M204.7 218.5v2M169.8 218.5v1.9"/><g><path d="M191.1 217.6c1.2 0 1.8-.1 2.3-.2.7-.1 1.1-.4 1.1-.7-.1-.5-1.3-.8-3.1-.8-.9 0-1.6.1-2 .2-.5.1-.6.3-1.1.7-.5.5-.9.7-1.6.9-.8.2-1.9.3-3.3.3-1.1 0-2.2-.1-3.1-.2-1.1-.2-1.7-.5-1.8-.9 0-.4.4-.7 1.5-.9.7-.1 1.4-.2 2.9-.3l.5.5c-.9 0-1.2.1-1.7.1-.8.1-1.2.3-1.2.6 0 .4 1.2.7 2.9.7.7 0 1.4-.1 1.7-.2.4-.1.6-.3 1-.6.6-.6 1-.8 1.7-.9.8-.2 2-.3 3.3-.3 3.2 0 5.2.5 5.3 1.3.1.5-.8.9-2.4 1.1-.7.1-1.2.1-2.5.2l-.4-.6z"/></g><path class="st2" d="M195.7 216.7h1.8M177.3 216.7h1.8"/></g><g><path class="st0" d="M209.6 211.8H171v3.7h.1c.1 1.4 8.7 2.6 19.2 2.6s19.1-1.1 19.2-2.6h.1v-3.7h0z"/><ellipse class="st1" cx="190.3" cy="211.4" rx="19.2" ry="2.6"/><path class="st2" d="M175.8 213.4v2M178.8 213.9v1.9M181.8 214.2v1.9M184.8 214.2v2M188 214.4v1.9M191.2 214.5v1.9M194.1 214.4v1.9M197.4 214.3v1.9M200.9 214.1v1.9M204.3 213.6v1.9M207.5 213v2M172.6 213v1.9"/><g><path d="M194 212.1c1.2 0 1.8-.1 2.3-.2.7-.1 1.1-.4 1.1-.7-.1-.5-1.3-.8-3.1-.8-.9 0-1.6.1-2 .2-.5.1-.6.3-1.1.7-.5.5-.9.7-1.6.9-.8.2-1.9.3-3.3.3-1.1 0-2.2-.1-3.1-.2-1.1-.2-1.7-.5-1.8-.9 0-.4.4-.7 1.5-.9.7-.1 1.4-.2 2.9-.3l.5.5c-.9 0-1.2.1-1.7.1-.8.1-1.2.3-1.2.6 0 .4 1.2.7 2.9.7.7 0 1.4-.1 1.7-.2.4-.1.6-.3 1-.6.6-.6 1-.8 1.7-.9.8-.2 2-.3 3.3-.3 3.2 0 5.2.5 5.3 1.3.1.5-.8.9-2.4 1.1-.7.1-1.2.1-2.5.2l-.4-.6z"/></g><path class="st2" d="M198.5 211.2h1.9M180.1 211.2h1.9"/></g><g><path class="st0" d="M207.6 205.7H169v3.7h.1c.1 1.4 8.7 2.6 19.2 2.6s19.1-1.1 19.2-2.6h.1v-3.7h0z"/><ellipse class="st1" cx="188.3" cy="205.3" rx="19.2" ry="2.6"/><path class="st2" d="M173.9 207.3v2M176.9 207.8v1.9M179.8 208.1v1.9M182.8 208.1v2M186 208.3v2M189.2 208.4v1.9M192.1 208.3v2M195.4 208.2v1.9M198.9 208v1.9M202.3 207.5v2M205.6 206.9v2M170.7 206.9v1.9"/><g><path d="M192 206c1.2 0 1.8-.1 2.3-.2.7-.1 1.1-.4 1.1-.7-.1-.5-1.3-.8-3.1-.8-.9 0-1.6.1-2 .2-.5.1-.6.3-1.1.7-.5.5-.9.7-1.6.9-.8.2-1.9.3-3.3.3-1.1 0-2.2-.1-3.1-.2-1.1-.2-1.7-.5-1.8-.9 0-.4.4-.7 1.5-.9.7-.1 1.4-.2 2.9-.3l.5.5c-.9 0-1.2.1-1.7.1-.8.1-1.2.3-1.2.6 0 .4 1.2.7 2.9.7.7 0 1.4-.1 1.7-.2.4-.1.6-.3 1-.6.6-.6 1-.8 1.7-.9.8-.2 2-.3 3.3-.3 3.2 0 5.2.5 5.3 1.3.1.5-.8.9-2.4 1.1-.7.1-1.2.1-2.5.2l-.4-.6z"/></g><path class="st2" d="M196.6 205.1h1.8M178.2 205.1h1.8"/></g><g><path class="st0" d="M211 200.2h-38.6v3.7h.1c.1 1.4 8.7 2.6 19.2 2.6s19.1-1.1 19.2-2.6h.1v-3.7h0z"/><ellipse class="st1" cx="191.7" cy="199.9" rx="19.2" ry="2.6"/><path class="st2" d="M177.3 201.9v1.9M180.3 202.4v1.9M183.2 202.6v2M186.2 202.7v1.9M189.4 202.9v1.9M192.6 202.9v2M195.5 202.9v1.9M198.8 202.8v1.9M202.3 202.5v2M205.7 202.1v1.9M208.9 201.5v1.9M174.1 201.4v2"/><g><path d="M195.4 200.6c1.2 0 1.8-.1 2.3-.2.7-.1 1.1-.4 1.1-.7-.1-.5-1.3-.8-3.1-.8-.9 0-1.6.1-2 .2-.5.1-.6.3-1.1.7-.5.5-.9.7-1.6.9-.8.2-1.9.3-3.3.3-1.1 0-2.2-.1-3.1-.2-1.1-.2-1.7-.5-1.8-.9 0-.4.4-.7 1.5-.9.7-.1 1.4-.2 2.9-.3l.5.5c-.9 0-1.2.1-1.7.1-.8.1-1.2.3-1.2.6 0 .4 1.2.7 2.9.7.7 0 1.4-.1 1.7-.2.4-.1.6-.3 1-.6.6-.6 1-.8 1.7-.9.8-.2 2-.3 3.3-.3 3.2 0 5.2.5 5.3 1.3.1.5-.8.9-2.4 1.1-.7.1-1.2.1-2.5.2l-.4-.6z"/></g><path class="st2" d="M200 199.7h1.8M181.6 199.7h1.8"/></g><g><path class="st0" d="M208 194.4h-38.6v3.7h.1c.1 1.4 8.7 2.6 19.2 2.6s19.1-1.1 19.2-2.6h.1v-3.7h0z"/><ellipse class="st1" cx="188.7" cy="194.1" rx="19.2" ry="2.6"/><path class="st2" d="M174.2 196.1v1.9M177.3 196.5v2M180.2 196.8v2M183.2 196.9v1.9M186.4 197.1v1.9M189.6 197.1v2M192.5 197.1v1.9M195.8 196.9v2M199.3 196.7v2M202.7 196.3v1.9M205.9 195.7v1.9M171 195.6v2"/><g><path d="M192.4 194.8c1.2 0 1.8-.1 2.3-.2.7-.1 1.1-.4 1.1-.7-.1-.5-1.3-.8-3.1-.8-.9 0-1.6.1-2 .2-.5.1-.6.3-1.1.7-.5.5-.9.7-1.6.9-.8.2-1.9.3-3.3.3-1.1 0-2.2-.1-3.1-.2-1.1-.2-1.7-.5-1.8-.9 0-.4.4-.7 1.5-.9.7-.1 1.4-.2 2.9-.3l.5.5c-.9 0-1.2.1-1.7.1-.8.1-1.2.3-1.2.6 0 .4 1.2.7 2.9.7.7 0 1.4-.1 1.7-.2.4-.1.6-.3 1-.6.6-.6 1-.8 1.7-.9.8-.2 2-.3 3.3-.3 3.2 0 5.2.5 5.3 1.3.1.5-.8.9-2.4 1.1-.7.1-1.2.1-2.5.2l-.4-.6z"/></g><path class="st2" d="m196.9 193.8 1.9.1M178.5 193.8l1.9.1"/></g><g><path class="st0" d="M211.9 188h-38.6v3.7h.1c.1 1.4 8.7 2.6 19.2 2.6s19.1-1.1 19.2-2.6h.1V188h0z"/><ellipse class="st1" cx="192.6" cy="187.6" rx="19.2" ry="2.6"/><path class="st2" d="M178.2 189.6v2M181.2 190.1v1.9M184.1 190.4v1.9M187.1 190.4v2M190.4 190.6v2M193.5 190.7v1.9M196.5 190.6v2M199.7 190.5v1.9M203.3 190.3v1.9M206.6 189.8v2M209.9 189.2v2M175 189.2v1.9"/><g><path d="M196.4 188.3c1.2 0 1.8-.1 2.3-.2.7-.1 1.1-.4 1.1-.7-.1-.5-1.3-.8-3.1-.8-.9 0-1.6.1-2 .2-.5.1-.6.3-1.1.7-.5.5-.9.7-1.6.9-.8.2-1.9.3-3.3.3-1.1 0-2.2-.1-3.1-.2-1.1-.2-1.7-.5-1.8-.9 0-.4.4-.7 1.5-.9.7-.1 1.4-.2 2.9-.3l.5.5c-.9 0-1.2.1-1.7.1-.8.1-1.2.3-1.2.6 0 .4 1.2.7 2.9.7.7 0 1.4-.1 1.7-.2.4-.1.6-.3 1-.6.6-.6 1-.8 1.7-.9.8-.2 2-.3 3.3-.3 3.2 0 5.2.5 5.3 1.3.1.5-.8.9-2.4 1.1-.7.1-1.2.1-2.5.2l-.4-.6z"/></g><path class="st2" d="M200.9 187.4h1.8M182.5 187.4h1.8"/></g><g><path class="st0" d="M210.4 181.8h-38.6v3.7h.1c.1 1.4 8.7 2.6 19.2 2.6s19.1-1.1 19.2-2.6h.1v-3.7h0z"/><ellipse class="st1" cx="191.1" cy="181.4" rx="19.2" ry="2.6"/><path class="st2" d="M176.7 183.5v1.9M179.7 183.9v2M182.6 184.2v1.9M185.6 184.3v1.9M188.8 184.4v2M192 184.5v1.9M195 184.4v2M198.2 184.3v2M201.7 184.1v1.9M205.1 183.6v2M208.4 183.1v1.9M173.5 183v1.9"/><g><path d="M194.9 182.2c1.2 0 1.8-.1 2.3-.2.7-.1 1.1-.4 1.1-.7-.1-.5-1.3-.8-3.1-.8-.9 0-1.6.1-2 .2-.5.1-.6.3-1.1.7-.5.5-.9.7-1.6.9-.8.2-1.9.3-3.3.3-1.1 0-2.2-.1-3.1-.2-1.1-.2-1.7-.5-1.8-.9 0-.4.4-.7 1.5-.9.7-.1 1.4-.2 2.9-.3l.5.5c-.9 0-1.2.1-1.7.1-.8.1-1.2.3-1.2.6 0 .4 1.2.7 2.9.7.7 0 1.4-.1 1.7-.2.4-.1.6-.3 1-.6.6-.6 1-.8 1.7-.9.8-.2 2-.3 3.3-.3 3.2 0 5.2.5 5.3 1.3.1.5-.8.9-2.4 1.1-.7.1-1.2.1-2.5.2l-.4-.6z"/></g><path class="st2" d="M199.4 181.2h1.9M181 181.2h1.8"/></g><g><path class="st0" d="M212 176.4h-38.6v3.7h.1c.1 1.4 8.7 2.6 19.2 2.6s19.1-1.1 19.2-2.6h.1v-3.7h0z"/><ellipse class="st1" cx="192.7" cy="176" rx="19.2" ry="2.6"/><path class="st2" d="M178.3 178v2M181.3 178.5v1.9M184.2 178.8v1.9M187.3 178.8v2M190.4 179v1.9M193.6 179.1v1.9M196.6 179v1.9M199.8 178.9v1.9M203.4 178.7v1.9M206.7 178.2v1.9M210 177.6v2M175.1 177.6v1.9"/><path d="M196.4 176.7c1.2 0 1.8-.1 2.3-.2.7-.1 1.1-.4 1.1-.7-.1-.5-1.3-.8-3.1-.8-.9 0-1.6.1-2 .2-.5.1-.6.3-1.1.7-.5.5-.9.7-1.6.9-.8.2-1.9.3-3.3.3-1.1 0-2.2-.1-3.1-.2-1.1-.2-1.7-.5-1.8-.9 0-.4.4-.7 1.5-.9.7-.1 1.4-.2 2.9-.3l.5.5c-.9 0-1.2.1-1.7.1-.8.1-1.2.3-1.2.6 0 .4 1.2.7 2.9.7.7 0 1.4-.1 1.7-.2.4-.1.6-.3 1-.6.6-.6 1-.8 1.7-.9.8-.2 2-.3 3.3-.3 3.2 0 5.2.5 5.3 1.3.1.5-.8.9-2.4 1.1-.7.1-1.2.1-2.5.2l-.4-.6z"/><path class="st2" d="M201 175.8h1.9M182.6 175.8h1.8"/><g><path class="st0" d="M210 172.3h-38.6v3.7h.1c.1 1.4 8.7 2.6 19.2 2.6s19.1-1.1 19.2-2.6h.1v-3.7h0z"/><ellipse class="st1" cx="190.7" cy="171.9" rx="19.2" ry="2.6"/><path class="st2" d="M176.2 173.9v2M179.3 174.4v1.9M182.2 174.7v1.9M185.2 174.7v2M188.4 174.9v2M191.6 175v1.9M194.5 174.9v2M197.8 174.8v1.9M201.3 174.6v1.9M204.7 174.1v2M207.9 173.5v2M173 173.5v1.9"/><g><path d="M194.4 172.6c1.2 0 1.8-.1 2.3-.2.7-.1 1.1-.4 1.1-.7-.1-.5-1.3-.8-3.1-.8-.9 0-1.6.1-2 .2-.5.1-.6.3-1.1.7-.5.5-.9.7-1.6.9-.8.2-1.9.3-3.3.3-1.1 0-2.2-.1-3.1-.2-1.1-.2-1.7-.5-1.8-.9 0-.4.4-.7 1.5-.9.7-.1 1.4-.2 2.9-.3l.5.5c-.9 0-1.2.1-1.7.1-.8.1-1.2.3-1.2.6 0 .4 1.2.7 2.9.7.7 0 1.4-.1 1.7-.2.4-.1.6-.3 1-.6.6-.6 1-.8 1.7-.9.8-.2 2-.3 3.3-.3 3.2 0 5.2.5 5.3 1.3.1.5-.8.9-2.4 1.1-.7.1-1.2.1-2.5.2l-.4-.6z"/></g><path class="st2" d="M199 171.7h1.8M180.6 171.7h1.8"/></g><g><path class="st0" d="M210.8 168.4h-38.6v3.7h.1c.1 1.4 8.7 2.6 19.2 2.6s19.1-1.1 19.2-2.6h.1v-3.7h0z"/><ellipse class="st1" cx="191.5" cy="168" rx="19.2" ry="2.6"/><path class="st2" d="M177.1 170v2M180.1 170.5v1.9M183 170.8v1.9M186 170.8v2M189.2 171v2M192.4 171.1v1.9M195.4 171v2M198.6 170.9v1.9M202.1 170.7v1.9M205.5 170.2v2M208.8 169.6v2M173.9 169.6v1.9"/><g><path d="M195.2 168.7c1.2 0 1.8-.1 2.3-.2.7-.1 1.1-.4 1.1-.7-.1-.5-1.3-.8-3.1-.8-.9 0-1.6.1-2 .2-.5.1-.6.3-1.1.7-.5.5-.9.7-1.6.9-.8.2-1.9.3-3.3.3-1.1 0-2.2-.1-3.1-.2-1.1-.2-1.7-.5-1.8-.9 0-.4.4-.7 1.5-.9.7-.1 1.4-.2 2.9-.3l.5.5c-.9 0-1.2.1-1.7.1-.8.1-1.2.3-1.2.6 0 .4 1.2.7 2.9.7.7 0 1.4-.1 1.7-.2.4-.1.6-.3 1-.6.6-.6 1-.8 1.7-.9.8-.2 2-.3 3.3-.3 3.2 0 5.2.5 5.3 1.3.1.5-.8.9-2.4 1.1-.7.1-1.2.1-2.5.2l-.4-.6z"/></g><path class="st2" d="M199.8 167.8h1.8M181.4 167.8h1.8"/></g><g><path class="st0" d="M208.6 164.5H170v3.7h.1c.1 1.4 8.7 2.6 19.2 2.6s19.1-1.1 19.2-2.6h.1v-3.7h0z"/><ellipse class="st1" cx="189.4" cy="164.2" rx="19.2" ry="2.6"/><path class="st2" d="M174.9 166.2v1.9M177.9 166.6v2M180.9 166.9v2M183.9 167v1.9M187.1 167.2v1.9M190.3 167.2v2M193.2 167.2v1.9M196.4 167v2M200 166.8v2M203.4 166.4v1.9M206.6 165.8v1.9M171.7 165.7v2"/><g><path d="M193.1 164.9c1.2 0 1.8-.1 2.3-.2.7-.1 1.1-.4 1.1-.7-.1-.5-1.3-.8-3.1-.8-.9 0-1.6.1-2 .2-.5.1-.6.3-1.1.7-.5.5-.9.7-1.6.9-.8.2-1.9.3-3.3.3-1.1 0-2.2-.1-3.1-.2-1.1-.2-1.7-.5-1.8-.9 0-.4.4-.7 1.5-.9.7-.1 1.4-.2 2.9-.3l.5.5c-.9 0-1.2.1-1.7.1-.8.1-1.2.3-1.2.6 0 .4 1.2.7 2.9.7.7 0 1.4-.1 1.7-.2.4-.1.6-.3 1-.6.6-.6 1-.8 1.7-.9.8-.2 2-.3 3.3-.3 3.2 0 5.2.5 5.3 1.3.1.5-.8.9-2.4 1.1-.7.1-1.2.1-2.5.2l-.4-.6z"/></g><path class="st2" d="m197.6 163.9 1.9.1M179.2 163.9l1.9.1"/></g><g><path class="st0" d="M212.2 160.4h-38.6v3.7h.1c.1 1.4 8.7 2.6 19.2 2.6s19.1-1.1 19.2-2.6h.1v-3.7h0z"/><ellipse class="st1" cx="192.9" cy="160" rx="19.2" ry="2.6"/><path class="st2" d="M178.5 162.1v1.9M181.5 162.5v2M184.4 162.8v1.9M187.4 162.9v1.9M190.6 163v2M193.8 163.1v1.9M196.7 163v2M200 162.9v2M203.6 162.7v1.9M206.9 162.2v2M210.2 161.7v1.9M175.3 161.6v1.9"/><g><path d="M196.6 160.8c1.2 0 1.8-.1 2.3-.2.7-.1 1.1-.4 1.1-.7-.1-.5-1.3-.8-3.1-.8-.9 0-1.6.1-2 .2-.5.1-.6.3-1.1.7-.5.5-.9.7-1.6.9-.8.2-1.9.3-3.3.3-1.1 0-2.2-.1-3.1-.2-1.1-.2-1.7-.5-1.8-.9 0-.4.4-.7 1.5-.9.7-.1 1.4-.2 2.9-.3l.5.5c-.9 0-1.2.1-1.7.1-.8.1-1.2.3-1.2.6 0 .4 1.2.7 2.9.7.7 0 1.4-.1 1.7-.2.4-.1.6-.3 1-.6.6-.6 1-.8 1.7-.9.8-.2 2-.3 3.3-.3 3.2 0 5.2.5 5.3 1.3.1.5-.8.9-2.4 1.1-.7.1-1.2.1-2.5.2l-.4-.6z"/></g><path class="st2" d="m201.2 159.8 1.9.1M182.8 159.8l1.8.1"/></g><g><path class="st0" d="M208.8 154.2h-38.6v3.7h.1c.1 1.4 8.7 2.6 19.2 2.6s19.1-1.1 19.2-2.6h.1v-3.7h0z"/><ellipse class="st1" cx="189.5" cy="153.8" rx="19.2" ry="2.6"/><path class="st2" d="M175.1 155.9v1.9M178.1 156.3v2M181 156.6v2M184.1 156.7v1.9M187.3 156.8v2M190.5 156.9v1.9M193.4 156.8v2M196.6 156.7v2M200.2 156.5v1.9M203.5 156v2M206.8 155.5v1.9M171.9 155.4v2"/><g><path d="M193.3 154.6c1.2 0 1.8-.1 2.3-.2.7-.1 1.1-.4 1.1-.7-.1-.5-1.3-.8-3.1-.8-.9 0-1.6.1-2 .2-.5.1-.6.3-1.1.7-.5.5-.9.7-1.6.9-.8.2-1.9.3-3.3.3-1.1 0-2.2-.1-3.1-.2-1.1-.2-1.7-.5-1.8-.9 0-.4.4-.7 1.5-.9.7-.1 1.4-.2 2.9-.3l.5.5c-.9 0-1.2.1-1.7.1-.8.1-1.2.3-1.2.6 0 .4 1.2.7 2.9.7.7 0 1.4-.1 1.7-.2.4-.1.6-.3 1-.6.6-.6 1-.8 1.7-.9.8-.2 2-.3 3.3-.3 3.2 0 5.2.5 5.3 1.3.1.5-.8.9-2.4 1.1-.7.1-1.2.1-2.5.2l-.4-.6z"/></g><path class="st2" d="m197.8 153.6 1.9.1M179.4 153.6l1.9.1"/></g><g><path class="st0" d="M214.5 148.2h-38.6v3.7h.1c.1 1.4 8.7 2.6 19.2 2.6s19.1-1.1 19.2-2.6h.1v-3.7h0z"/><ellipse class="st1" cx="195.2" cy="147.8" rx="19.2" ry="2.6"/><path class="st2" d="M180.8 149.8v2M183.8 150.3v1.9M186.7 150.6v1.9M189.7 150.6v2M192.9 150.8v1.9M196.1 150.9v1.9M199.1 150.8v1.9M202.3 150.7v1.9M205.9 150.5v1.9M209.2 150v1.9M212.5 149.4v2M177.6 149.4v1.9"/><g><path d="M198.9 148.5c1.2 0 1.8-.1 2.3-.2.7-.1 1.1-.4 1.1-.7-.1-.5-1.3-.8-3.1-.8-.9 0-1.6.1-2 .2-.5.1-.6.3-1.1.7-.5.5-.9.7-1.6.9-.8.2-1.9.3-3.3.3-1.1 0-2.2-.1-3.1-.2-1.1-.2-1.7-.5-1.8-.9 0-.4.4-.7 1.5-.9.7-.1 1.4-.2 2.9-.3l.5.5c-.9 0-1.2.1-1.7.1-.8.1-1.2.3-1.2.6 0 .4 1.2.7 2.9.7.7 0 1.4-.1 1.7-.2.4-.1.6-.3 1-.6.6-.6 1-.8 1.7-.9.8-.2 2-.3 3.3-.3 3.2 0 5.2.5 5.3 1.3.1.5-.8.9-2.4 1.1-.7.1-1.2.1-2.5.2l-.4-.6z"/></g><path class="st2" d="M203.5 147.6h1.9M185.1 147.6h1.8"/></g><g><path class="st0" d="M212.4 142h-38.6v3.7h.1c.1 1.4 8.7 2.6 19.2 2.6s19.1-1.1 19.2-2.6h.1V142h0z"/><ellipse class="st1" cx="193.1" cy="141.6" rx="19.2" ry="2.6"/><path class="st2" d="M178.7 143.6v2M181.7 144.1v1.9M184.6 144.4v1.9M187.7 144.4v2M190.9 144.6v2M194.1 144.7v1.9M197 144.6v2M200.3 144.5v1.9M203.8 144.3v1.9M207.2 143.8v2M210.4 143.2v2M175.5 143.2v1.9"/><g><path d="M196.9 142.3c1.2 0 1.8-.1 2.3-.2.7-.1 1.1-.4 1.1-.7-.1-.5-1.3-.8-3.1-.8-.9 0-1.6.1-2 .2-.5.1-.6.3-1.1.7-.5.5-.9.7-1.6.9-.8.2-1.9.3-3.3.3-1.1 0-2.2-.1-3.1-.2-1.1-.2-1.7-.5-1.8-.9 0-.4.4-.7 1.5-.9.7-.1 1.4-.2 2.9-.3l.5.5c-.9 0-1.2.1-1.7.1-.8.1-1.2.3-1.2.6 0 .4 1.2.7 2.9.7.7 0 1.4-.1 1.7-.2.4-.1.6-.3 1-.6.6-.6 1-.8 1.7-.9.8-.2 2-.3 3.3-.3 3.2 0 5.2.5 5.3 1.3.1.5-.8.9-2.4 1.1-.7.1-1.2.1-2.5.2l-.4-.6z"/></g><path class="st2" d="M201.4 141.4h1.9M183 141.4h1.9"/></g><g><path class="st0" d="M219 136.2h-38.6v3.7h.1c.1 1.4 8.7 2.6 19.2 2.6s19.1-1.1 19.2-2.6h.1v-3.7h0z"/><ellipse class="st1" cx="199.7" cy="135.8" rx="19.2" ry="2.6"/><path class="st2" d="M185.3 137.8v2M188.3 138.3v1.9M191.2 138.6v1.9M194.2 138.6v2M197.4 138.8v1.9M200.6 138.9v1.9M203.6 138.8v1.9M206.8 138.7v1.9M210.4 138.5v1.9M213.7 138v1.9M217 137.4v2M182.1 137.4v1.9"/><g><path d="M203.4 136.5c1.2 0 1.8-.1 2.3-.2.7-.1 1.1-.4 1.1-.7-.1-.5-1.3-.8-3.1-.8-.9 0-1.6.1-2 .2-.5.1-.6.3-1.1.7-.5.5-.9.7-1.6.9-.8.2-1.9.3-3.3.3-1.1 0-2.2-.1-3.1-.2-1.1-.2-1.7-.5-1.8-.9 0-.4.4-.7 1.5-.9.7-.1 1.4-.2 2.9-.3l.5.5c-.9 0-1.2.1-1.7.1-.8.1-1.2.3-1.2.6 0 .4 1.2.7 2.9.7.7 0 1.4-.1 1.7-.2.4-.1.6-.3 1-.6.6-.6 1-.8 1.7-.9.8-.2 2-.3 3.3-.3 3.2 0 5.2.5 5.3 1.3.1.5-.8.9-2.4 1.1-.7.1-1.2.1-2.5.2l-.4-.6z"/></g><path class="st2" d="M208 135.6h1.9M189.6 135.6h1.8"/></g><g><path class="st0" d="M214.9 130.5h-38.6v3.7h.1c.1 1.4 8.7 2.6 19.2 2.6s19.1-1.1 19.2-2.6h.1v-3.7h0z"/><ellipse class="st1" cx="195.6" cy="130.2" rx="19.2" ry="2.6"/><path class="st2" d="M181.1 132.2v1.9M184.2 132.7v1.9M187.1 132.9v2M190.1 133v1.9M193.3 133.2v1.9M196.5 133.2v2M199.4 133.2v1.9M202.7 133.1v1.9M206.2 132.8v2M209.6 132.4v1.9M212.9 131.8v1.9M177.9 131.7v2"/><g><path d="M199.3 130.9c1.2 0 1.8-.1 2.3-.2.7-.1 1.1-.4 1.1-.7-.1-.5-1.3-.8-3.1-.8-.9 0-1.6.1-2 .2-.5.1-.6.3-1.1.7-.5.5-.9.7-1.6.9-.8.2-1.9.3-3.3.3-1.1 0-2.2-.1-3.1-.2-1.1-.2-1.7-.5-1.8-.9 0-.4.4-.7 1.5-.9.7-.1 1.4-.2 2.9-.3l.5.5c-.9 0-1.2.1-1.7.1-.8.1-1.2.3-1.2.6 0 .4 1.2.7 2.9.7.7 0 1.4-.1 1.7-.2.4-.1.6-.3 1-.6.6-.6 1-.8 1.7-.9.8-.2 2-.3 3.3-.3 3.2 0 5.2.5 5.3 1.3.1.5-.8.9-2.4 1.1-.7.1-1.2.1-2.5.2l-.4-.6z"/></g><path class="st2" d="M203.9 130h1.8M185.4 130h1.9"/></g><g><path class="st0" d="M215.4 124.2h-38.6v3.7h.1c.1 1.4 8.7 2.6 19.2 2.6s19.1-1.1 19.2-2.6h.1v-3.7h0z"/><ellipse class="st1" cx="196.1" cy="123.8" rx="19.2" ry="2.6"/><path class="st2" d="M181.7 125.8v2M184.7 126.3v1.9M187.6 126.6v1.9M190.7 126.6v2M193.9 126.8v1.9M197.1 126.9v1.9M200 126.8v1.9M203.3 126.7v1.9M206.8 126.5v1.9M210.2 126v1.9M213.4 125.4v2M178.5 125.4v1.9"/><g><path d="M199.9 124.5c1.2 0 1.8-.1 2.3-.2.7-.1 1.1-.4 1.1-.7-.1-.5-1.3-.8-3.1-.8-.9 0-1.6.1-2 .2-.5.1-.6.3-1.1.7-.5.5-.9.7-1.6.9-.8.2-1.9.3-3.3.3-1.1 0-2.2-.1-3.1-.2-1.1-.2-1.7-.5-1.8-.9 0-.4.4-.7 1.5-.9.7-.1 1.4-.2 2.9-.3l.5.5c-.9 0-1.2.1-1.7.1-.8.1-1.2.3-1.2.6 0 .4 1.2.7 2.9.7.7 0 1.4-.1 1.7-.2.4-.1.6-.3 1-.6.6-.6 1-.8 1.7-.9.8-.2 2-.3 3.3-.3 3.2 0 5.2.5 5.3 1.3.1.5-.8.9-2.4 1.1-.7.1-1.2.1-2.5.2l-.4-.6z"/></g><path class="st2" d="M204.4 123.6h1.9M186 123.6h1.9"/></g><g><path class="st0" d="M218.3 118.7h-38.6v3.7h.1c.1 1.4 8.7 2.6 19.2 2.6s19.1-1.1 19.2-2.6h.1v-3.7h0z"/><ellipse class="st1" cx="199" cy="118.3" rx="19.2" ry="2.6"/><path class="st2" d="M184.6 120.3v2M187.6 120.8v1.9M190.5 121.1v1.9M193.5 121.1v2M196.7 121.3v2M199.9 121.4v1.9M202.8 121.3v2M206.1 121.2v1.9M209.6 121v1.9M213 120.5v2M216.3 119.9v2M181.4 119.9v1.9"/><g><path d="M202.7 119c1.2 0 1.8-.1 2.3-.2.7-.1 1.1-.4 1.1-.7-.1-.5-1.3-.8-3.1-.8-.9 0-1.6.1-2 .2-.5.1-.6.3-1.1.7-.5.5-.9.7-1.6.9-.8.2-1.9.3-3.3.3-1.1 0-2.2-.1-3.1-.2-1.1-.2-1.7-.5-1.8-.9 0-.4.4-.7 1.5-.9.7-.1 1.4-.2 2.9-.3l.5.4c-.9 0-1.2.1-1.7.1-.8.1-1.2.3-1.2.6 0 .4 1.2.7 2.9.7.7 0 1.4-.1 1.7-.2.4-.1.6-.3 1-.6.6-.6 1-.8 1.7-.9.8-.2 2-.3 3.3-.3 3.2 0 5.2.5 5.3 1.3.1.5-.8.9-2.4 1.1-.7.1-1.2.1-2.5.2l-.4-.5z"/></g><path class="st2" d="M207.3 118.1h1.8M188.9 118.1h1.8"/></g><g><path class="st0" d="M216.4 112.6h-38.6v3.7h.1c.1 1.4 8.7 2.6 19.2 2.6s19.1-1.1 19.2-2.6h.1v-3.7h0z"/><ellipse class="st1" cx="197.1" cy="112.2" rx="19.2" ry="2.6"/><path class="st2" d="M182.6 114.2v2M185.6 114.7v1.9M188.6 115v1.9M191.6 115v2M194.8 115.2v2M198 115.3v1.9M200.9 115.2v2M204.1 115.1v1.9M207.7 114.9v1.9M211.1 114.4v2M214.3 113.8v2M179.4 113.8v1.9"/><g><path d="M200.8 113c1.2 0 1.8-.1 2.3-.2.7-.1 1.1-.4 1.1-.7-.1-.5-1.3-.8-3.1-.8-.9 0-1.6.1-2 .2-.5.1-.6.3-1.1.7-.5.5-.9.7-1.6.9-.8.2-1.9.3-3.3.3-1.1 0-2.2-.1-3.1-.2-1.1-.2-1.7-.5-1.8-.9 0-.4.4-.7 1.5-.9.7-.1 1.4-.2 2.9-.3l.5.4c-.9 0-1.2.1-1.7.1-.8.1-1.2.3-1.2.6 0 .4 1.2.7 2.9.7.7 0 1.4-.1 1.7-.2.4-.1.6-.3 1-.6.6-.6 1-.8 1.7-.9.8-.2 2-.3 3.3-.3 3.2 0 5.2.5 5.3 1.3.1.5-.8.9-2.4 1.1-.7.1-1.2.1-2.5.2l-.4-.5z"/></g><path class="st2" d="M205.3 112h1.9M186.9 112h1.9"/></g><g><path class="st0" d="M219.7 107.1h-38.6v3.7h.1c.1 1.4 8.7 2.6 19.2 2.6s19.1-1.1 19.2-2.6h.1v-3.7h0z"/><ellipse class="st1" cx="200.4" cy="106.8" rx="19.2" ry="2.6"/><path class="st2" d="M186 108.8v2M189 109.3v1.9M191.9 109.6v1.9M195 109.6v2M198.2 109.8v1.9M201.4 109.8v2M204.3 109.8v1.9M207.5 109.7v1.9M211.1 109.4v2M214.4 109v1.9M217.7 108.4v2M182.8 108.4v1.9"/><g><path d="M204.2 107.5c1.2 0 1.8-.1 2.3-.2.7-.1 1.1-.4 1.1-.7-.1-.5-1.3-.8-3.1-.8-.9 0-1.6.1-2 .2-.5.1-.6.3-1.1.7-.5.5-.9.7-1.6.9-.8.2-1.9.3-3.3.3-1.1 0-2.2-.1-3.1-.2-1.1-.2-1.7-.5-1.8-.9 0-.4.4-.7 1.5-.9.7-.1 1.4-.2 2.9-.3l.5.4c-.9 0-1.2.1-1.7.1-.8.1-1.2.3-1.2.6 0 .4 1.2.7 2.9.7.7 0 1.4-.1 1.7-.2.4-.1.6-.3 1-.6.6-.6 1-.8 1.7-.9.8-.2 2-.3 3.3-.3 3.2 0 5.2.5 5.3 1.3.1.5-.8.9-2.4 1.1-.7.1-1.2.1-2.5.2l-.4-.5z"/></g><path class="st2" d="M208.7 106.6h1.9M190.3 106.6h1.8"/></g><g><path class="st0" d="M216.7 101.3h-38.6v3.7h.1c.1 1.4 8.7 2.6 19.2 2.6s19.1-1.1 19.2-2.6h.1v-3.7h0z"/><ellipse class="st1" cx="197.4" cy="101" rx="19.2" ry="2.6"/><path class="st2" d="M183 103v1.9M186 103.5v1.9M188.9 103.7v2M191.9 103.8v1.9M195.1 104v1.9M198.3 104v2M201.3 104v1.9M204.5 103.9v1.9M208.1 103.6v2M211.4 103.2v1.9M214.7 102.6v1.9M179.8 102.5v2"/><g><path d="M201.1 101.7c1.2 0 1.8-.1 2.3-.2.7-.1 1.1-.4 1.1-.7-.1-.5-1.3-.8-3.1-.8-.9 0-1.6.1-2 .2-.5.1-.6.3-1.1.7-.5.5-.9.7-1.6.9-.8.2-1.9.3-3.3.3-1.1 0-2.2-.1-3.1-.2-1.1-.2-1.7-.5-1.8-.9 0-.4.4-.7 1.5-.9.7-.1 1.4-.2 2.9-.3l.5.4c-.9 0-1.2.1-1.7.1-.8.1-1.2.3-1.2.6 0 .4 1.2.7 2.9.7.7 0 1.4-.1 1.7-.2.4-.1.6-.3 1-.6.6-.6 1-.8 1.7-.9.8-.2 2-.3 3.3-.3 3.2 0 5.2.5 5.3 1.3.1.5-.8.9-2.4 1.1-.7.1-1.2.1-2.5.2l-.4-.5z"/></g><path class="st2" d="M205.7 100.8h1.9M187.3 100.8h1.8"/></g><g><path class="st0" d="M220.7 94.9h-38.6v3.7h.1c.1 1.4 8.7 2.6 19.2 2.6s19.1-1.1 19.2-2.6h.1v-3.7h0z"/><ellipse class="st1" cx="201.4" cy="94.5" rx="19.2" ry="2.6"/><path class="st2" d="M186.9 96.5v2M189.9 97v1.9M192.9 97.3v1.9M195.9 97.3v2M199.1 97.5v2M202.3 97.6v1.9M205.2 97.5v2M208.5 97.4v1.9M212 97.2v1.9M215.4 96.7v2M218.6 96.1v2M183.7 96.1V98"/><g><path d="M205.1 95.3c1.2 0 1.8-.1 2.3-.2.7-.1 1.1-.4 1.1-.7-.1-.5-1.3-.8-3.1-.8-.9 0-1.6.1-2 .2-.5.1-.6.3-1.1.7-.5.5-.9.7-1.6.9-.8.2-1.9.3-3.3.3-1.1 0-2.2-.1-3.1-.2-1.1-.2-1.7-.5-1.8-.9 0-.4.4-.7 1.5-.9.7-.1 1.4-.2 2.9-.3l.5.5c-.9 0-1.2.1-1.7.1-.8.1-1.2.3-1.2.6 0 .4 1.2.7 2.9.7.7 0 1.4-.1 1.7-.2.4-.1.6-.3 1-.6.6-.6 1-.8 1.7-.9.8-.2 2-.3 3.3-.3 3.2 0 5.2.5 5.3 1.3.1.5-.8.9-2.4 1.1-.7.1-1.2.1-2.5.2l-.4-.6z"/></g><path class="st2" d="M209.6 94.3h1.9M191.2 94.3h1.9"/></g><g><path class="st0" d="M219.2 88.7h-38.6v3.7h.1c.1 1.4 8.7 2.6 19.2 2.6s19.1-1.1 19.2-2.6h.1v-3.7h0z"/><ellipse class="st1" cx="199.9" cy="88.3" rx="19.2" ry="2.6"/><path class="st2" d="M185.4 90.4v1.9M188.4 90.8v2M191.4 91.1V93M194.4 91.2v1.9M197.6 91.3v2M200.8 91.4v1.9M203.7 91.3v2M207 91.2v2M210.5 91v1.9M213.9 90.5v2M217.1 90v1.9M182.2 89.9v1.9"/><g><path d="M203.6 89.1c1.2 0 1.8-.1 2.3-.2.7-.1 1.1-.4 1.1-.7-.1-.5-1.3-.8-3.1-.8-.9 0-1.6.1-2 .2-.5.1-.6.3-1.1.7-.5.5-.9.7-1.6.9-.8.2-1.9.3-3.3.3-1.1 0-2.2-.1-3.1-.2-1.1-.2-1.7-.5-1.8-.9 0-.4.4-.7 1.5-.9.7-.1 1.4-.2 2.9-.3l.5.5c-.9 0-1.2.1-1.7.1-.8.1-1.2.3-1.2.6 0 .4 1.2.7 2.9.7.7 0 1.4-.1 1.7-.2.4-.1.6-.3 1-.6.6-.6 1-.8 1.7-.9.8-.2 2-.3 3.3-.3 3.2 0 5.2.5 5.3 1.3.1.5-.8.9-2.4 1.1-.7.1-1.2.1-2.5.2l-.4-.6z"/></g><path class="st2" d="m208.1 88.1 1.9.1M189.7 88.1l1.9.1"/></g></g></g><g><path class="st0" d="M331.5 229.9h-38.6v3.7h.1c.1 1.4 8.7 2.6 19.2 2.6s19-1.1 19.2-2.6h.1v-3.7h0z"/><ellipse class="st1" cx="312.2" cy="229.5" rx="19.2" ry="2.6"/><path class="st2" d="M297.8 231.5v2M300.8 232v1.9M303.7 232.3v1.9M306.7 232.3v2M309.9 232.5v1.9M313.1 232.6v1.9M316 232.5v1.9M319.3 232.4v1.9M322.9 232.2v1.9M326.2 231.7v1.9M329.5 231.1v2M294.6 231.1v1.9"/><path d="M315.9 230.2c1.2 0 1.8-.1 2.3-.2.7-.1 1.1-.4 1.1-.7 0-.5-1.3-.8-3.1-.8-.9 0-1.6.1-2 .2-.5.1-.6.3-1.1.7-.5.5-.9.7-1.6.9-.8.2-1.9.3-3.3.3-1.1 0-2.2-.1-3.1-.2-1.1-.2-1.7-.5-1.8-.9 0-.4.5-.7 1.5-.9.7-.1 1.4-.2 2.9-.3l.5.5c-.9 0-1.2.1-1.7.1-.8.1-1.2.3-1.2.6 0 .4 1.2.7 3 .7.7 0 1.4-.1 1.7-.2.4-.1.6-.3 1-.6.6-.6 1-.8 1.7-.9.8-.2 2-.3 3.3-.3 3.2 0 5.2.5 5.3 1.3 0 .5-.8.9-2.4 1.1-.7.1-1.2.1-2.5.2l-.5-.6z"/><path class="st2" d="M320.5 229.3h1.8M302.1 229.3h1.8"/><g><path class="st0" d="M329.5 225.8h-38.6v3.7h.1c.1 1.4 8.7 2.6 19.2 2.6s19-1.1 19.2-2.6h.1v-3.7h0z"/><ellipse class="st1" cx="310.2" cy="225.4" rx="19.2" ry="2.6"/><path class="st2" d="M295.7 227.4v2M298.8 227.9v1.9M301.7 228.2v1.9M304.7 228.2v2M307.9 228.4v1.9M311.1 228.5v1.9M314 228.4v1.9M317.3 228.3v1.9M320.8 228.1v1.9M324.2 227.6v1.9M327.4 227v2M292.5 227v1.9"/><g><path d="M313.9 226.1c1.2 0 1.8-.1 2.3-.2.7-.1 1.1-.4 1.1-.7 0-.5-1.3-.8-3.1-.8-.9 0-1.6.1-2 .2-.5.1-.6.3-1.1.7-.5.5-.9.7-1.6.9-.8.2-1.9.3-3.3.3-1.1 0-2.2-.1-3.1-.2-1.1-.2-1.7-.5-1.8-.9 0-.4.5-.7 1.5-.9.7-.1 1.4-.2 2.9-.3l.5.5c-.9 0-1.2.1-1.7.1-.8.1-1.2.3-1.2.6 0 .4 1.2.7 3 .7.7 0 1.4-.1 1.7-.2.4-.1.6-.3 1-.6.6-.6 1-.8 1.7-.9.8-.2 2-.3 3.3-.3 3.2 0 5.2.5 5.3 1.3 0 .5-.8.9-2.4 1.1-.7.1-1.2.1-2.5.2l-.5-.6z"/></g><path class="st2" d="M318.5 225.2h1.8M300 225.2h1.9"/></g><g><path class="st0" d="M330.3 221.9h-38.6v3.7h.1c.1 1.4 8.7 2.6 19.2 2.6s19-1.1 19.2-2.6h.1v-3.7h0z"/><ellipse class="st1" cx="311" cy="221.5" rx="19.2" ry="2.6"/><path class="st2" d="M296.6 223.5v2M299.6 224v1.9M302.5 224.3v1.9M305.5 224.3v2M308.7 224.5v1.9M311.9 224.6v1.9M314.8 224.5v1.9M318.1 224.4v1.9M321.6 224.2v1.9M325 223.7v1.9M328.3 223.1v2M293.4 223.1v1.9"/><g><path d="M314.7 222.2c1.2 0 1.8-.1 2.3-.2.7-.1 1.1-.4 1.1-.7 0-.5-1.3-.8-3.1-.8-.9 0-1.6.1-2 .2-.5.1-.6.3-1.1.7-.5.5-.9.7-1.6.9-.8.2-1.9.3-3.3.3-1.1 0-2.2-.1-3.1-.2-1.1-.2-1.7-.5-1.8-.9 0-.4.5-.7 1.5-.9.7-.1 1.4-.2 2.9-.3l.5.5c-.9 0-1.2.1-1.7.1-.8.1-1.2.3-1.2.6 0 .4 1.2.7 3 .7.7 0 1.4-.1 1.7-.2.4-.1.6-.3 1-.6.6-.6 1-.8 1.7-.9.8-.2 2-.3 3.3-.3 3.2 0 5.2.5 5.3 1.3 0 .5-.8.9-2.4 1.1-.7.1-1.2.1-2.5.2l-.5-.6z"/></g><path class="st2" d="M319.3 221.3h1.8M300.9 221.3h1.8"/></g><g><path class="st0" d="M328.1 218h-38.6v3.7h.1c.1 1.4 8.7 2.6 19.2 2.6s19-1.1 19.2-2.6h.1V218h0z"/><ellipse class="st1" cx="308.8" cy="217.6" rx="19.2" ry="2.6"/><path class="st2" d="M294.4 219.7v1.9M297.4 220.1v2M300.3 220.4v2M303.4 220.5v1.9M306.6 220.6v2M309.8 220.7v1.9M312.7 220.6v2M315.9 220.5v2M319.5 220.3v1.9M322.9 219.8v2M326.1 219.3v1.9M291.2 219.2v2"/><g><path d="M312.6 218.4c1.2 0 1.8-.1 2.3-.2.7-.1 1.1-.4 1.1-.7 0-.5-1.3-.8-3.1-.8-.9 0-1.6.1-2 .2-.5.1-.6.3-1.1.7-.5.5-.9.7-1.6.9-.8.2-1.9.3-3.3.3-1.1 0-2.2-.1-3.1-.2-1.1-.2-1.7-.5-1.8-.9 0-.4.5-.7 1.5-.9.7-.1 1.4-.2 2.9-.3l.5.5c-.9 0-1.2.1-1.7.1-.8.1-1.2.3-1.2.6 0 .4 1.2.7 3 .7.7 0 1.4-.1 1.7-.2.4-.1.6-.3 1-.6.6-.6 1-.8 1.7-.9.8-.2 2-.3 3.3-.3 3.2 0 5.2.5 5.3 1.3 0 .5-.8.9-2.4 1.1-.7.1-1.2.1-2.5.2l-.5-.6z"/></g><path class="st2" d="m317.1 217.4 1.9.1M298.7 217.4l1.9.1"/></g><g><path class="st0" d="M331.7 213.9h-38.6v3.7h.1c.1 1.4 8.7 2.6 19.2 2.6s19-1.1 19.2-2.6h.1v-3.7h0z"/><ellipse class="st1" cx="312.4" cy="213.5" rx="19.2" ry="2.6"/><path class="st2" d="M298 215.5v2M301 216v1.9M303.9 216.3v1.9M306.9 216.3v2M310.1 216.5v2M313.3 216.6v1.9M316.2 216.5v2M319.5 216.4v1.9M323 216.2v1.9M326.4 215.7v2M329.7 215.1v2M294.8 215.1v1.9"/><g><path d="M316.1 214.2c1.2 0 1.8-.1 2.3-.2.7-.1 1.1-.4 1.1-.7 0-.5-1.3-.8-3.1-.8-.9 0-1.6.1-2 .2-.5.1-.6.3-1.1.7-.5.5-.9.7-1.6.9-.8.2-1.9.3-3.3.3-1.1 0-2.2-.1-3.1-.2-1.1-.2-1.7-.5-1.8-.9 0-.4.5-.7 1.5-.9.7-.1 1.4-.2 2.9-.3l.5.5c-.9 0-1.2.1-1.7.1-.8.1-1.2.3-1.2.6 0 .4 1.2.7 3 .7.7 0 1.4-.1 1.7-.2.4-.1.6-.3 1-.6.6-.6 1-.8 1.7-.9.8-.2 2-.3 3.3-.3 3.2 0 5.2.5 5.3 1.3 0 .5-.8.9-2.4 1.1-.7.1-1.2.1-2.5.2l-.5-.6z"/></g><path class="st2" d="M320.7 213.3h1.8M302.3 213.3h1.8"/></g><g><path class="st0" d="M328.3 207.7h-38.6v3.7h.1c.1 1.4 8.7 2.6 19.2 2.6s19-1.1 19.2-2.6h.1v-3.7h0z"/><ellipse class="st1" cx="309" cy="207.3" rx="19.2" ry="2.6"/><path class="st2" d="M294.6 209.4v1.9M297.6 209.8v2M300.5 210.1v1.9M303.6 210.2v1.9M306.7 210.3v2M310 210.4v1.9M312.9 210.3v2M316.1 210.2v2M319.7 210v1.9M323 209.5v2M326.3 209v1.9M291.4 208.9v1.9"/><g><path d="M312.8 208.1c1.2 0 1.8-.1 2.3-.2.7-.1 1.1-.4 1.1-.7 0-.5-1.3-.8-3.1-.8-.9 0-1.6.1-2 .2-.5.1-.6.3-1.1.7-.5.5-.9.7-1.6.9-.8.2-1.9.3-3.3.3-1.1 0-2.2-.1-3.1-.2-1.1-.2-1.7-.5-1.8-.9 0-.4.5-.7 1.5-.9.7-.1 1.4-.2 2.9-.3l.5.5c-.9 0-1.2.1-1.7.1-.8.1-1.2.3-1.2.6 0 .4 1.2.7 3 .7.7 0 1.4-.1 1.7-.2.4-.1.6-.3 1-.6.6-.6 1-.8 1.7-.9.8-.2 2-.3 3.3-.3 3.2 0 5.2.5 5.3 1.3 0 .5-.8.9-2.4 1.1-.7.1-1.2.1-2.5.2l-.5-.6z"/></g><path class="st2" d="m317.3 207.1 1.9.1M298.9 207.1l1.8.1"/></g><g><path class="st0" d="M334 201.7h-38.6v3.7h.1c.1 1.4 8.7 2.6 19.2 2.6s19-1.1 19.2-2.6h.1v-3.7h0z"/><ellipse class="st1" cx="314.7" cy="201.3" rx="19.2" ry="2.6"/><path class="st2" d="M300.3 203.3v2M303.3 203.8v1.9M306.2 204.1v1.9M309.2 204.1v2M312.4 204.3v1.9M315.6 204.3v2M318.5 204.3v1.9M321.8 204.2v1.9M325.3 203.9v2M328.7 203.5v1.9M332 202.9v2M297.1 202.9v1.9"/><g><path d="M318.4 202c1.2 0 1.8-.1 2.3-.2.7-.1 1.1-.4 1.1-.7 0-.5-1.3-.8-3.1-.8-.9 0-1.6.1-2 .2-.5.1-.6.3-1.1.7-.5.5-.9.7-1.6.9-.8.2-1.9.3-3.3.3-1.1 0-2.2-.1-3.1-.2-1.1-.2-1.7-.5-1.8-.9 0-.4.5-.7 1.5-.9.7-.1 1.4-.2 2.9-.3l.5.5c-.9 0-1.2.1-1.7.1-.8.1-1.2.3-1.2.6 0 .4 1.2.7 3 .7.7 0 1.4-.1 1.7-.2.4-.1.6-.3 1-.6.6-.6 1-.8 1.7-.9.8-.2 2-.3 3.3-.3 3.2 0 5.2.5 5.3 1.3 0 .5-.8.9-2.4 1.1-.7.1-1.2.1-2.5.2l-.5-.6z"/></g><path class="st2" d="M323 201.1h1.8M304.6 201.1h1.8"/></g><g><path class="st0" d="M331.9 195.5h-38.6v3.7h.1c.1 1.4 8.7 2.6 19.2 2.6s19-1.1 19.2-2.6h.1v-3.7h0z"/><ellipse class="st1" cx="312.6" cy="195.1" rx="19.2" ry="2.6"/><path class="st2" d="M298.2 197.1v2M301.2 197.6v1.9M304.1 197.9v1.9M307.2 197.9v2M310.4 198.1v1.9M313.6 198.2v1.9M316.5 198.1v1.9M319.7 198v1.9M323.3 197.8v1.9M326.6 197.3v1.9M329.9 196.7v2M295 196.7v1.9"/><g><path d="M316.4 195.8c1.2 0 1.8-.1 2.3-.2.7-.1 1.1-.4 1.1-.7 0-.5-1.3-.8-3.1-.8-.9 0-1.6.1-2 .2-.5.1-.6.3-1.1.7-.5.5-.9.7-1.6.9-.8.2-1.9.3-3.3.3-1.1 0-2.2-.1-3.1-.2-1.1-.2-1.7-.5-1.8-.9 0-.4.5-.7 1.5-.9.7-.1 1.4-.2 2.9-.3l.5.5c-.9 0-1.2.1-1.7.1-.8.1-1.2.3-1.2.6 0 .4 1.2.7 3 .7.7 0 1.4-.1 1.7-.2.4-.1.6-.3 1-.6.6-.6 1-.8 1.7-.9.8-.2 2-.3 3.3-.3 3.2 0 5.2.5 5.3 1.3 0 .5-.8.9-2.4 1.1-.7.1-1.2.1-2.5.2l-.5-.6z"/></g><path class="st2" d="M320.9 194.9h1.9M302.5 194.9h1.9"/></g><g><path class="st0" d="M338.5 189.6h-38.6v3.7h.1c.1 1.4 8.7 2.6 19.2 2.6s19-1.1 19.2-2.6h.1v-3.7h0z"/><ellipse class="st1" cx="319.2" cy="189.3" rx="19.2" ry="2.6"/><path class="st2" d="M304.8 191.3v2M307.8 191.8v1.9M310.7 192.1v1.9M313.7 192.1v2M316.9 192.3v1.9M320.1 192.3v2M323 192.3v1.9M326.3 192.2v1.9M329.8 191.9v2M333.2 191.5v1.9M336.5 190.9v2M301.6 190.9v1.9"/><g><path d="M322.9 190c1.2 0 1.8-.1 2.3-.2.7-.1 1.1-.4 1.1-.7 0-.5-1.3-.8-3.1-.8-.9 0-1.6.1-2 .2-.5.1-.6.3-1.1.7-.5.5-.9.7-1.6.9-.8.2-1.9.3-3.3.3-1.1 0-2.2-.1-3.1-.2-1.1-.2-1.7-.5-1.8-.9 0-.4.5-.7 1.5-.9.7-.1 1.4-.2 2.9-.3l.5.5c-.9 0-1.2.1-1.7.1-.8.1-1.2.3-1.2.6 0 .4 1.2.7 3 .7.7 0 1.4-.1 1.7-.2.4-.1.6-.3 1-.6.6-.6 1-.8 1.7-.9.8-.2 2-.3 3.3-.3 3.2 0 5.2.5 5.3 1.3 0 .5-.8.9-2.4 1.1-.7.1-1.2.1-2.5.2l-.5-.6z"/></g><path class="st2" d="M327.5 189.1h1.8M309.1 189.1h1.8"/></g><g><path class="st0" d="M334.4 184h-38.6v3.7h.1c.1 1.4 8.7 2.6 19.2 2.6s19-1.1 19.2-2.6h.1V184h0z"/><ellipse class="st1" cx="315.1" cy="183.7" rx="19.2" ry="2.6"/><path class="st2" d="M300.6 185.7v1.9M303.7 186.1v2M306.6 186.4v2M309.6 186.5v1.9M312.8 186.7v1.9M316 186.7v2M318.9 186.7v1.9M322.2 186.5v2M325.7 186.3v2M329.1 185.9v1.9M332.3 185.3v1.9M297.4 185.2v2"/><g><path d="M318.8 184.4c1.2 0 1.8-.1 2.3-.2.7-.1 1.1-.4 1.1-.7 0-.5-1.3-.8-3.1-.8-.9 0-1.6.1-2 .2-.5.1-.6.3-1.1.7-.5.5-.9.7-1.6.9-.8.2-1.9.3-3.3.3-1.1 0-2.2-.1-3.1-.2-1.1-.2-1.7-.5-1.8-.9 0-.4.5-.7 1.5-.9.7-.1 1.4-.2 2.9-.3l.5.5c-.9 0-1.2.1-1.7.1-.8.1-1.2.3-1.2.6 0 .4 1.2.7 3 .7.7 0 1.4-.1 1.7-.2.4-.1.6-.3 1-.6.6-.6 1-.8 1.7-.9.8-.2 2-.3 3.3-.3 3.2 0 5.2.5 5.3 1.3 0 .5-.8.9-2.4 1.1-.7.1-1.2.1-2.5.2l-.5-.6z"/></g><path class="st2" d="m323.4 183.4 1.8.1M304.9 183.4l1.9.1"/></g><g><path class="st0" d="M334.9 177.6h-38.6v3.7h.1c.1 1.4 8.7 2.6 19.2 2.6s19-1.1 19.2-2.6h.1v-3.7h0z"/><ellipse class="st1" cx="315.6" cy="177.3" rx="19.2" ry="2.6"/><path class="st2" d="M301.2 179.3v2M304.2 179.8v1.9M307.1 180.1v1.9M310.2 180.1v2M313.4 180.3v1.9M316.6 180.3v2M319.5 180.3v1.9M322.7 180.2v1.9M326.3 179.9v2M329.6 179.5v1.9M332.9 178.9v2M298 178.9v1.9"/><g><path d="M319.4 178c1.2 0 1.8-.1 2.3-.2.7-.1 1.1-.4 1.1-.7 0-.5-1.3-.8-3.1-.8-.9 0-1.6.1-2 .2-.5.1-.6.3-1.1.7-.5.5-.9.7-1.6.9-.8.2-1.9.3-3.3.3-1.1 0-2.2-.1-3.1-.2-1.1-.2-1.7-.5-1.8-.9 0-.4.5-.7 1.5-.9.7-.1 1.4-.2 2.9-.3l.5.5c-.9 0-1.2.1-1.7.1-.8.1-1.2.3-1.2.6 0 .4 1.2.7 3 .7.7 0 1.4-.1 1.7-.2.4-.1.6-.3 1-.6.6-.6 1-.8 1.7-.9.8-.2 2-.3 3.3-.3 3.2 0 5.2.5 5.3 1.3 0 .5-.8.9-2.4 1.1-.7.1-1.2.1-2.5.2l-.5-.6z"/></g><path class="st2" d="M323.9 177.1h1.9M305.5 177.1h1.9"/></g><g><path class="st0" d="M337.8 172.2h-38.6v3.7h.1c.1 1.4 8.7 2.6 19.2 2.6s19-1.1 19.2-2.6h.1v-3.7h0z"/><ellipse class="st1" cx="318.5" cy="171.8" rx="19.2" ry="2.6"/><path class="st2" d="M304 173.8v2M307.1 174.3v1.9M310 174.6v1.9M313 174.6v2M316.2 174.8v1.9M319.4 174.9v1.9M322.3 174.8v1.9M325.6 174.7v1.9M329.1 174.5v1.9M332.5 174v1.9M335.7 173.4v2M300.9 173.4v1.9"/><g><path d="M322.2 172.5c1.2 0 1.8-.1 2.3-.2.7-.1 1.1-.4 1.1-.7 0-.5-1.3-.8-3.1-.8-.9 0-1.6.1-2 .2-.5.1-.6.3-1.1.7-.5.5-.9.7-1.6.9-.8.2-1.9.3-3.3.3-1.1 0-2.2-.1-3.1-.2-1.1-.2-1.7-.5-1.8-.9 0-.4.5-.7 1.5-.9.7-.1 1.4-.2 2.9-.3l.5.5c-.9 0-1.2.1-1.7.1-.8.1-1.2.3-1.2.6 0 .4 1.2.7 3 .7.7 0 1.4-.1 1.7-.2.4-.1.6-.3 1-.6.6-.6 1-.8 1.7-.9.8-.2 2-.3 3.3-.3 3.2 0 5.2.5 5.3 1.3 0 .5-.8.9-2.4 1.1-.7.1-1.2.1-2.5.2l-.5-.6z"/></g><path class="st2" d="M326.8 171.6h1.8M308.4 171.6h1.8"/></g><g><path class="st0" d="M335.8 166.1h-38.6v3.7h.1c.1 1.4 8.7 2.6 19.2 2.6s19-1.1 19.2-2.6h.1v-3.7h0z"/><ellipse class="st1" cx="316.5" cy="165.7" rx="19.2" ry="2.6"/><path class="st2" d="M302.1 167.7v2M305.1 168.2v1.9M308 168.5v1.9M311.1 168.5v2M314.3 168.7v1.9M317.5 168.8v1.9M320.4 168.7v1.9M323.6 168.6v1.9M327.2 168.4v1.9M330.5 167.9v1.9M333.8 167.3v2M298.9 167.3v1.9"/><g><path d="M320.3 166.4c1.2 0 1.8-.1 2.3-.2.7-.1 1.1-.4 1.1-.7 0-.5-1.3-.8-3.1-.8-.9 0-1.6.1-2 .2-.5.1-.6.3-1.1.7-.5.5-.9.7-1.6.9-.8.2-1.9.3-3.3.3-1.1 0-2.2-.1-3.1-.2-1.1-.2-1.7-.5-1.8-.9 0-.4.5-.7 1.5-.9.7-.1 1.4-.2 2.9-.3l.5.5c-.9 0-1.2.1-1.7.1-.8.1-1.2.3-1.2.6 0 .4 1.2.7 3 .7.7 0 1.4-.1 1.7-.2.4-.1.6-.3 1-.6.6-.6 1-.8 1.7-.9.8-.2 2-.3 3.3-.3 3.2 0 5.2.5 5.3 1.3 0 .5-.8.9-2.4 1.1-.7.1-1.2.1-2.5.2l-.5-.6z"/></g><path class="st2" d="M324.8 165.5h1.9M306.4 165.5h1.9"/></g><g><path class="st0" d="M339.2 160.6h-38.6v3.7h.1c.1 1.4 8.7 2.6 19.2 2.6s19-1.1 19.2-2.6h.1v-3.7h0z"/><ellipse class="st1" cx="319.9" cy="160.3" rx="19.2" ry="2.6"/><path class="st2" d="M305.5 162.3v1.9M308.5 162.8v1.9M311.4 163v2M314.5 163.1v1.9M317.6 163.3v1.9M320.9 163.3v2M323.8 163.3v1.9M327 163.2v1.9M330.6 162.9v2M333.9 162.5v1.9M337.2 161.9v1.9M302.3 161.8v2"/><g><path d="M323.6 161c1.2 0 1.8-.1 2.3-.2.7-.1 1.1-.4 1.1-.7 0-.5-1.3-.8-3.1-.8-.9 0-1.6.1-2 .2-.5.1-.6.3-1.1.7-.5.5-.9.7-1.6.9-.8.2-1.9.3-3.3.3-1.1 0-2.2-.1-3.1-.2-1.1-.2-1.7-.5-1.8-.9 0-.4.5-.7 1.5-.9.7-.1 1.4-.2 2.9-.3l.5.5c-.9 0-1.2.1-1.7.1-.8.1-1.2.3-1.2.6 0 .4 1.2.7 3 .7.7 0 1.4-.1 1.7-.2.4-.1.6-.3 1-.6.6-.6 1-.8 1.7-.9.8-.2 2-.3 3.3-.3 3.2 0 5.2.5 5.3 1.3 0 .5-.8.9-2.4 1.1-.7.1-1.2.1-2.5.2l-.5-.6z"/></g><path class="st2" d="M328.2 160.1h1.8M309.8 160.1h1.8"/></g><g><path class="st0" d="M336.2 154.8h-38.6v3.7h.1c.1 1.4 8.7 2.6 19.2 2.6s19-1.1 19.2-2.6h.1v-3.7h0z"/><ellipse class="st1" cx="316.9" cy="154.5" rx="19.2" ry="2.6"/><path class="st2" d="M302.5 156.5v1.9M305.5 156.9v2M308.4 157.2v2M311.4 157.3v1.9M314.6 157.5v1.9M317.8 157.5v2M320.7 157.5v1.9M324 157.3v2M327.5 157.1v2M330.9 156.7v1.9M334.2 156.1v1.9M299.3 156v2"/><g><path d="M320.6 155.2c1.2 0 1.8-.1 2.3-.2.7-.1 1.1-.4 1.1-.7 0-.5-1.3-.8-3.1-.8-.9 0-1.6.1-2 .2-.5.1-.6.3-1.1.7-.5.5-.9.7-1.6.9-.8.2-1.9.3-3.3.3-1.1 0-2.2-.1-3.1-.2-1.1-.2-1.7-.5-1.8-.9 0-.4.5-.7 1.5-.9.7-.1 1.4-.2 2.9-.3l.5.5c-.9 0-1.2.1-1.7.1-.8.1-1.2.3-1.2.6 0 .4 1.2.7 3 .7.7 0 1.4-.1 1.7-.2.4-.1.6-.3 1-.6.6-.6 1-.8 1.7-.9.8-.2 2-.3 3.3-.3 3.2 0 5.2.5 5.3 1.3 0 .5-.8.9-2.4 1.1-.7.1-1.2.1-2.5.2l-.5-.6z"/></g><path class="st2" d="m325.2 154.2 1.8.1M306.8 154.2l1.8.1"/></g><g><path class="st0" d="M340.1 148.4h-38.6v3.7h.1c.1 1.4 8.7 2.6 19.2 2.6s19-1.1 19.2-2.6h.1v-3.7h0z"/><ellipse class="st1" cx="320.9" cy="148" rx="19.2" ry="2.6"/><path class="st2" d="M306.4 150v2M309.4 150.5v1.9M312.4 150.8v1.9M315.4 150.8v2M318.6 151v1.9M321.8 151.1v1.9M324.7 151v1.9M328 150.9v1.9M331.5 150.7v1.9M334.9 150.2v1.9M338.1 149.6v2M303.2 149.6v1.9"/><g><path d="M324.6 148.7c1.2 0 1.8-.1 2.3-.2.7-.1 1.1-.4 1.1-.7 0-.5-1.3-.8-3.1-.8-.9 0-1.6.1-2 .2-.5.1-.6.3-1.1.7-.5.5-.9.7-1.6.9-.8.2-1.9.3-3.3.3-1.1 0-2.2-.1-3.1-.2-1.1-.2-1.7-.5-1.8-.9 0-.4.5-.7 1.5-.9.7-.1 1.4-.2 2.9-.3l.5.5c-.9 0-1.2.1-1.7.1-.8.1-1.2.3-1.2.6 0 .4 1.2.7 3 .7.7 0 1.4-.1 1.7-.2.4-.1.6-.3 1-.6.6-.6 1-.8 1.7-.9.8-.2 2-.3 3.3-.3 3.2 0 5.2.5 5.3 1.3 0 .5-.8.9-2.4 1.1-.7.1-1.2.1-2.5.2l-.5-.6z"/></g><path class="st2" d="M329.1 147.8h1.9M310.7 147.8h1.9"/></g><g><path class="st0" d="M338.6 142.2H300v3.7h.1c.1 1.4 8.7 2.6 19.2 2.6s19-1.1 19.2-2.6h.1v-3.7h0z"/><ellipse class="st1" cx="319.4" cy="141.8" rx="19.2" ry="2.6"/><path class="st2" d="M304.9 143.8v2M307.9 144.3v1.9M310.9 144.6v1.9M313.9 144.6v2M317.1 144.8v2M320.3 144.9v1.9M323.2 144.8v2M326.5 144.7v1.9M330 144.5v1.9M333.4 144v2M336.6 143.4v2M301.7 143.4v1.9"/><g><path d="M323.1 142.5c1.2 0 1.8-.1 2.3-.2.7-.1 1.1-.4 1.1-.7 0-.5-1.3-.8-3.1-.8-.9 0-1.6.1-2 .2-.5.1-.6.3-1.1.7-.5.5-.9.7-1.6.9-.8.2-1.9.3-3.3.3-1.1 0-2.2-.1-3.1-.2-1.1-.2-1.7-.5-1.8-.9 0-.4.5-.7 1.5-.9.7-.1 1.4-.2 2.9-.3l.5.5c-.9 0-1.2.1-1.7.1-.8.1-1.2.3-1.2.6 0 .4 1.2.7 3 .7.7 0 1.4-.1 1.7-.2.4-.1.6-.3 1-.6.6-.6 1-.8 1.7-.9.8-.2 2-.3 3.3-.3 3.2 0 5.2.5 5.3 1.3 0 .5-.8.9-2.4 1.1-.7.1-1.2.1-2.5.2l-.5-.6z"/></g><path class="st2" d="M327.6 141.6h1.9M309.2 141.6h1.9"/></g><g><path class="st0" d="M340.3 136.8h-38.6v3.7h.1c.1 1.4 8.7 2.6 19.2 2.6s19-1.1 19.2-2.6h.1v-3.7h0z"/><ellipse class="st1" cx="321" cy="136.4" rx="19.2" ry="2.6"/><path class="st2" d="M306.5 138.4v2M309.5 138.9v1.9M312.5 139.2v1.9M315.5 139.2v2M318.7 139.4v1.9M321.9 139.5v1.9M324.8 139.4v1.9M328 139.3v1.9M331.6 139.1v1.9M335 138.6v1.9M338.2 138v2M303.3 138v1.9"/><path d="M324.7 137.1c1.2 0 1.8-.1 2.3-.2.7-.1 1.1-.4 1.1-.7 0-.5-1.3-.8-3.1-.8-.9 0-1.6.1-2 .2-.5.1-.6.3-1.1.7-.5.5-.9.7-1.6.9-.8.2-1.9.3-3.3.3-1.1 0-2.2-.1-3.1-.2-1.1-.2-1.7-.5-1.8-.9 0-.4.5-.7 1.5-.9.7-.1 1.4-.2 2.9-.3l.5.5c-.9 0-1.2.1-1.7.1-.8.1-1.2.3-1.2.6 0 .4 1.2.7 3 .7.7 0 1.4-.1 1.7-.2.4-.1.6-.3 1-.6.6-.6 1-.8 1.7-.9.8-.2 2-.3 3.3-.3 3.2 0 5.2.5 5.3 1.3 0 .5-.8.9-2.4 1.1-.7.1-1.2.1-2.5.2l-.5-.6z"/><path class="st2" d="M329.2 136.2h1.9M310.8 136.2h1.9"/><g><path class="st0" d="M338.2 132.7h-38.6v3.7h.1c.1 1.4 8.7 2.6 19.2 2.6s19-1.1 19.2-2.6h.1v-3.7h0z"/><ellipse class="st1" cx="318.9" cy="132.3" rx="19.2" ry="2.6"/><path class="st2" d="M304.5 134.3v2M307.5 134.8v1.9M310.4 135.1v1.9M313.4 135.1v2M316.6 135.3v2M319.8 135.4v1.9M322.8 135.3v2M326 135.2v1.9M329.5 135v1.9M332.9 134.5v2M336.2 133.9v2M301.3 133.9v1.9"/><g><path d="M322.6 133c1.2 0 1.8-.1 2.3-.2.7-.1 1.1-.4 1.1-.7 0-.5-1.3-.8-3.1-.8-.9 0-1.6.1-2 .2-.5.1-.6.3-1.1.7-.5.5-.9.7-1.6.9-.8.2-1.9.3-3.3.3-1.1 0-2.2-.1-3.1-.2-1.1-.2-1.7-.5-1.8-.9 0-.4.5-.7 1.5-.9.7-.1 1.4-.2 2.9-.3l.5.5c-.9 0-1.2.1-1.7.1-.8.1-1.2.3-1.2.6 0 .4 1.2.7 3 .7.7 0 1.4-.1 1.7-.2.4-.1.6-.3 1-.6.6-.6 1-.8 1.7-.9.8-.2 2-.3 3.3-.3 3.2 0 5.2.5 5.3 1.3 0 .5-.8.9-2.4 1.1-.7.1-1.2.1-2.5.2l-.5-.6z"/></g><path class="st2" d="M327.2 132.1h1.8M308.8 132.1h1.8"/></g><g><path class="st0" d="M339 128.8h-38.5v3.7h.1c.1 1.4 8.7 2.6 19.2 2.6s19-1.1 19.2-2.6h.1l-.1-3.7h0z"/><ellipse class="st1" cx="319.7" cy="128.4" rx="19.2" ry="2.6"/><path class="st2" d="M305.3 130.4v2M308.3 130.9v1.9M311.2 131.2v1.9M314.3 131.2v2M317.5 131.4v2M320.7 131.5v1.9M323.6 131.4v2M326.8 131.3v1.9M330.4 131.1v1.9M333.7 130.6v2M337 130v2M302.1 130v1.9"/><g><path d="M323.5 129.1c1.2 0 1.8-.1 2.3-.2.7-.1 1.1-.4 1.1-.7 0-.5-1.3-.8-3.1-.8-.9 0-1.6.1-2 .2-.5.1-.6.3-1.1.7-.5.5-.9.7-1.6.9-.8.2-1.9.3-3.3.3-1.1 0-2.2-.1-3.1-.2-1.1-.2-1.7-.5-1.8-.9 0-.4.5-.7 1.5-.9.7-.1 1.4-.2 2.9-.3l.5.5c-.9 0-1.2.1-1.7.1-.8.1-1.2.3-1.2.6 0 .4 1.2.7 3 .7.7 0 1.4-.1 1.7-.2.4-.1.6-.3 1-.6.6-.6 1-.8 1.7-.9.8-.2 2-.3 3.3-.3 3.2 0 5.2.5 5.3 1.3 0 .5-.8.9-2.4 1.1-.7.1-1.2.1-2.5.2l-.5-.6z"/></g><path class="st2" d="M328 128.2h1.9M309.6 128.2h1.9"/></g><g><path class="st0" d="M336.9 124.9h-38.6v3.7h.1c.1 1.4 8.7 2.6 19.2 2.6s19-1.1 19.2-2.6h.1v-3.7h0z"/><ellipse class="st1" cx="317.6" cy="124.6" rx="19.2" ry="2.6"/><path class="st2" d="M303.1 126.6v1.9M306.2 127v2M309.1 127.3v2M312.1 127.4v1.9M315.3 127.5v2M318.5 127.6v1.9M321.4 127.5v2M324.7 127.4v2M328.2 127.2v1.9M331.6 126.7v2M334.9 126.2v1.9M299.9 126.1v2"/><g><path d="M321.3 125.3c1.2 0 1.8-.1 2.3-.2.7-.1 1.1-.4 1.1-.7 0-.5-1.3-.8-3.1-.8-.9 0-1.6.1-2 .2-.5.1-.6.3-1.1.7-.5.5-.9.7-1.6.9-.8.2-1.9.3-3.3.3-1.1 0-2.2-.1-3.1-.2-1.1-.2-1.7-.5-1.8-.9 0-.4.5-.7 1.5-.9.7-.1 1.4-.2 2.9-.3l.5.5c-.9 0-1.2.1-1.7.1-.8.1-1.2.3-1.2.6 0 .4 1.2.7 3 .7.7 0 1.4-.1 1.7-.2.4-.1.6-.3 1-.6.6-.6 1-.8 1.7-.9.8-.2 2-.3 3.3-.3 3.2 0 5.2.5 5.3 1.3 0 .5-.8.9-2.4 1.1-.7.1-1.2.1-2.5.2l-.5-.6z"/></g><path class="st2" d="m325.9 124.3 1.8.1M307.5 124.3l1.8.1"/></g><g><path class="st0" d="M340.5 120.8h-38.6v3.7h.1c.1 1.4 8.7 2.6 19.2 2.6s19-1.1 19.2-2.6h.1v-3.7h0z"/><ellipse class="st1" cx="321.1" cy="120.4" rx="19.2" ry="2.6"/><path class="st2" d="M306.7 122.4v2M309.7 122.9v1.9M312.6 123.2v1.9M315.7 123.2v2M318.9 123.4v2M322.1 123.5v1.9M325 123.4v2M328.2 123.3v1.9M331.8 123.1v1.9M335.1 122.6v2M338.4 122v2M303.5 122v1.9"/><g><path d="M324.9 121.2c1.2 0 1.8-.1 2.3-.2.7-.1 1.1-.4 1.1-.7 0-.5-1.3-.8-3.1-.8-.9 0-1.6.1-2 .2-.5.1-.6.3-1.1.7-.5.5-.9.7-1.6.9-.8.2-1.9.3-3.3.3-1.1 0-2.2-.1-3.1-.2-1.1-.2-1.7-.5-1.8-.9 0-.4.5-.7 1.5-.9.7-.1 1.4-.2 2.9-.3l.5.5c-.9 0-1.2.1-1.7.1-.8.1-1.2.3-1.2.6 0 .4 1.2.7 3 .7.7 0 1.4-.1 1.7-.2.4-.1.6-.3 1-.6.6-.6 1-.8 1.7-.9.8-.2 2-.3 3.3-.3 3.2 0 5.2.5 5.3 1.3 0 .5-.8.9-2.4 1.1-.7.1-1.2.1-2.5.2l-.5-.6z"/></g><path class="st2" d="M329.4 120.2h1.9M311 120.2h1.9"/></g><g><path class="st0" d="M337.1 114.6h-38.6v3.7h.1c.1 1.4 8.7 2.6 19.2 2.6s19-1.1 19.2-2.6h.1v-3.7h0z"/><ellipse class="st1" cx="317.8" cy="114.2" rx="19.2" ry="2.6"/><path class="st2" d="M303.3 116.3v1.9M306.4 116.7v2M309.3 117v1.9M312.3 117.1v1.9M315.5 117.2v2M318.7 117.3v1.9M321.6 117.2v2M324.9 117.1v2M328.4 116.9v1.9M331.8 116.4v2M335 115.9v1.9M300.1 115.8v1.9"/><g><path d="M321.5 115c1.2 0 1.8-.1 2.3-.2.7-.1 1.1-.4 1.1-.7 0-.5-1.3-.8-3.1-.8-.9 0-1.6.1-2 .2-.5.1-.6.3-1.1.7-.5.5-.9.7-1.6.9-.8.2-1.9.3-3.3.3-1.1 0-2.2-.1-3.1-.2-1.1-.2-1.7-.5-1.8-.9 0-.4.5-.7 1.5-.9.7-.1 1.4-.2 2.9-.3l.5.4c-.9 0-1.2.1-1.7.1-.8.1-1.2.3-1.2.6 0 .4 1.2.7 3 .7.7 0 1.4-.1 1.7-.2.4-.1.6-.3 1-.6.6-.6 1-.8 1.7-.9.8-.2 2-.3 3.3-.3 3.2 0 5.2.5 5.3 1.3 0 .5-.8.9-2.4 1.1-.7.1-1.2.1-2.5.2l-.5-.5z"/></g><path class="st2" d="m326 114 1.9.1M307.6 114l1.9.1"/></g><g><path class="st0" d="M342.7 108.6h-38.6v3.7h.1c.1 1.4 8.7 2.6 19.2 2.6s19-1.1 19.2-2.6h.1v-3.7h0z"/><ellipse class="st1" cx="323.4" cy="108.2" rx="19.2" ry="2.6"/><path class="st2" d="M309 110.2v2M312 110.7v1.9M315 111v1.9M318 111v2M321.2 111.2v1.9M324.4 111.3v1.9M327.3 111.2v1.9M330.5 111.1v1.9M334.1 110.9v1.9M337.5 110.4v1.9M340.7 109.8v2M305.8 109.8v1.9"/><g><path d="M327.2 108.9c1.2 0 1.8-.1 2.3-.2.7-.1 1.1-.4 1.1-.7 0-.5-1.3-.8-3.1-.8-.9 0-1.6.1-2 .2-.5.1-.6.3-1.1.7-.5.5-.9.7-1.6.9-.8.2-1.9.3-3.3.3-1.1 0-2.2-.1-3.1-.2-1.1-.2-1.7-.5-1.8-.9 0-.4.5-.7 1.5-.9.7-.1 1.4-.2 2.9-.3l.5.4c-.9 0-1.2.1-1.7.1-.8.1-1.2.3-1.2.6 0 .4 1.2.7 3 .7.7 0 1.4-.1 1.7-.2.4-.1.6-.3 1-.6.6-.6 1-.8 1.7-.9.8-.2 2-.3 3.3-.3 3.2 0 5.2.5 5.3 1.3 0 .5-.8.9-2.4 1.1-.7.1-1.2.1-2.5.2l-.5-.5z"/></g><path class="st2" d="M331.7 108h1.9M313.3 108h1.9"/></g><g><path class="st0" d="M340.7 102.4h-38.6v3.7h.1c.1 1.4 8.7 2.6 19.2 2.6s19-1.1 19.2-2.6h.1v-3.7h0z"/><ellipse class="st1" cx="321.4" cy="102" rx="19.2" ry="2.6"/><path class="st2" d="M306.9 104v2M310 104.5v1.9M312.9 104.8v1.9M315.9 104.8v2M319.1 105v1.9M322.3 105.1v1.9M325.2 105v1.9M328.5 104.9v1.9M332 104.7v1.9M335.4 104.2v1.9M338.6 103.6v2M303.7 103.6v1.9"/><g><path d="M325.1 102.7c1.2 0 1.8-.1 2.3-.2.7-.1 1.1-.4 1.1-.7 0-.5-1.3-.8-3.1-.8-.9 0-1.6.1-2 .2-.5.1-.6.3-1.1.7-.5.5-.9.7-1.6.9-.8.2-1.9.3-3.3.3-1.1 0-2.2-.1-3.1-.2-1.1-.2-1.7-.5-1.8-.9 0-.4.5-.7 1.5-.9.7-.1 1.4-.2 2.9-.3l.5.4c-.9 0-1.2.1-1.7.1-.8.1-1.2.3-1.2.6 0 .4 1.2.7 3 .7.7 0 1.4-.1 1.7-.2.4-.1.6-.3 1-.6.6-.6 1-.8 1.7-.9.8-.2 2-.3 3.3-.3 3.2 0 5.2.5 5.3 1.3 0 .5-.8.9-2.4 1.1-.7.1-1.2.1-2.5.2l-.5-.5z"/></g><path class="st2" d="M329.7 101.8h1.8M311.3 101.8h1.8"/></g><g><path class="st0" d="M347.3 96.6h-38.6v3.7h.1c.1 1.4 8.7 2.6 19.2 2.6s19-1.1 19.2-2.6h.1v-3.7h0z"/><ellipse class="st1" cx="327.9" cy="96.2" rx="19.2" ry="2.6"/><path class="st2" d="M313.5 98.2v2M316.5 98.7v1.9M319.5 99v1.9M322.5 99v2M325.7 99.2v1.9M328.9 99.3v1.9M331.8 99.2v1.9M335 99.1v1.9M338.6 98.9v1.9M342 98.4v1.9M345.2 97.8v2M310.3 97.8v1.9"/><g><path d="M331.7 96.9c1.2 0 1.8-.1 2.3-.2.7-.1 1.1-.4 1.1-.7 0-.5-1.3-.8-3.1-.8-.9 0-1.6.1-2 .2-.5.1-.6.3-1.1.7-.5.5-.9.7-1.6.9-.8.2-1.9.3-3.3.3-1.1 0-2.2-.1-3.1-.2-1.1-.2-1.7-.5-1.8-.9 0-.4.5-.7 1.5-.9.7-.1 1.4-.2 2.9-.3l.5.4c-.9 0-1.2.1-1.7.1-.8.1-1.2.3-1.2.6 0 .4 1.2.7 3 .7.7 0 1.4-.1 1.7-.2.4-.1.6-.3 1-.6.6-.6 1-.8 1.7-.9.8-.2 2-.3 3.3-.3 3.2 0 5.2.5 5.3 1.3 0 .5-.8.9-2.4 1.1-.7.1-1.2.1-2.5.2l-.5-.5z"/></g><path class="st2" d="M336.2 96h1.9M317.8 96h1.9"/></g><g><path class="st0" d="M343.1 90.9h-38.6v3.7h.1c.1 1.4 8.7 2.6 19.2 2.6s19-1.1 19.2-2.6h.1v-3.7h0z"/><ellipse class="st1" cx="323.8" cy="90.6" rx="19.2" ry="2.6"/><path class="st2" d="M309.4 92.6v1.9M312.4 93.1V95M315.3 93.3v2M318.4 93.4v1.9M321.5 93.6v1.9M324.7 93.6v2M327.7 93.6v1.9M330.9 93.5v1.9M334.5 93.2v2M337.8 92.8v1.9M341.1 92.2v1.9M306.2 92.1v2"/><g><path d="M327.5 91.3c1.2 0 1.8-.1 2.3-.2.7-.1 1.1-.4 1.1-.7 0-.5-1.3-.8-3.1-.8-.9 0-1.6.1-2 .2-.5.1-.6.3-1.1.7-.5.5-.9.7-1.6.9-.8.2-1.9.3-3.3.3-1.1 0-2.2-.1-3.1-.2-1.1-.2-1.7-.5-1.8-.9 0-.4.5-.7 1.5-.9.7-.1 1.4-.2 2.9-.3l.5.4c-.9 0-1.2.1-1.7.1-.8.1-1.2.3-1.2.6 0 .4 1.2.7 3 .7.7 0 1.4-.1 1.7-.2.4-.1.6-.3 1-.6.6-.6 1-.8 1.7-.9.8-.2 2-.3 3.3-.3 3.2 0 5.2.5 5.3 1.3 0 .5-.8.9-2.4 1.1-.7.1-1.2.1-2.5.2l-.5-.5z"/></g><path class="st2" d="M332.1 90.4h1.9M313.7 90.4h1.8"/></g><g><path class="st0" d="M343.7 84.6h-38.6v3.7h.1c.1 1.4 8.7 2.6 19.2 2.6s19-1.1 19.2-2.6h.1v-3.7h0z"/><ellipse class="st1" cx="324.4" cy="84.2" rx="19.2" ry="2.6"/><path class="st2" d="M309.9 86.2v2M313 86.7v1.9M315.9 87v1.9M318.9 87v2M322.1 87.2v1.9M325.3 87.2v2M328.2 87.2v1.9M331.5 87.1V89M335 86.8v2M338.4 86.4v1.9M341.6 85.8v2M306.7 85.8v1.9"/><g><path d="M328.1 84.9c1.2 0 1.8-.1 2.3-.2.7-.1 1.1-.4 1.1-.7 0-.5-1.3-.8-3.1-.8-.9 0-1.6.1-2 .2-.5.1-.6.3-1.1.7-.5.5-.9.7-1.6.9-.8.2-1.9.3-3.3.3-1.1 0-2.2-.1-3.1-.2-1.1-.2-1.7-.5-1.8-.9 0-.4.5-.7 1.5-.9.7-.1 1.4-.2 2.9-.3l.5.4c-.9 0-1.2.1-1.7.1-.8.1-1.2.3-1.2.6 0 .4 1.2.7 3 .7.7 0 1.4-.1 1.7-.2.4-.1.6-.3 1-.6.6-.6 1-.8 1.7-.9.8-.2 2-.3 3.3-.3 3.2 0 5.2.5 5.3 1.3 0 .5-.8.9-2.4 1.1-.7.1-1.2.1-2.5.2l-.5-.5z"/></g><path class="st2" d="M332.7 84h1.8M314.3 84h1.8"/></g><g><path class="st0" d="M346.5 79.1h-38.6v3.7h.1c.1 1.4 8.7 2.6 19.2 2.6s19-1.1 19.2-2.6h.1v-3.7h0z"/><ellipse class="st1" cx="327.2" cy="78.7" rx="19.2" ry="2.6"/><path class="st2" d="M312.8 80.7v2M315.8 81.2v1.9M318.7 81.5v1.9M321.8 81.5v2M325 81.7v1.9M328.2 81.8v1.9M331.1 81.7v1.9M334.3 81.6v1.9M337.9 81.4v1.9M341.2 80.9v1.9M344.5 80.3v2M309.6 80.3v1.9"/><g><path d="M331 79.4c1.2 0 1.8-.1 2.3-.2.7-.1 1.1-.4 1.1-.7 0-.5-1.3-.8-3.1-.8-.9 0-1.6.1-2 .2-.5.1-.6.3-1.1.7-.5.5-.9.7-1.6.9-.8.2-1.9.3-3.3.3-1.1 0-2.2-.1-3.1-.2-1.1-.2-1.7-.5-1.8-.9 0-.4.5-.7 1.5-.9.7-.1 1.4-.2 2.9-.3l.5.4c-.9 0-1.2.1-1.7.1-.8.1-1.2.3-1.2.6 0 .4 1.2.7 3 .7.7 0 1.4-.1 1.7-.2.4-.1.6-.3 1-.6.6-.6 1-.8 1.7-.9.8-.2 2-.3 3.3-.3 3.2 0 5.2.5 5.3 1.3 0 .5-.8.9-2.4 1.1-.7.1-1.2.1-2.5.2l-.5-.5z"/></g><path class="st2" d="M335.5 78.5h1.9M317.1 78.5h1.9"/></g><g><path class="st0" d="M344.6 73H306v3.7h.1c.1 1.4 8.7 2.6 19.2 2.6s19-1.1 19.2-2.6h.1V73h0z"/><ellipse class="st1" cx="325.3" cy="72.6" rx="19.2" ry="2.6"/><path class="st2" d="M310.9 74.6v2M313.9 75.1V77M316.8 75.4v1.9M319.8 75.4v2M323 75.6v2M326.2 75.7v1.9M329.1 75.6v2M332.4 75.5v1.9M335.9 75.3v1.9M339.3 74.8v2M342.5 74.2v2M307.6 74.2v1.9"/><g><path d="M329 73.3c1.2 0 1.8-.1 2.3-.2.7-.1 1.1-.4 1.1-.7 0-.5-1.3-.8-3.1-.8-.9 0-1.6.1-2 .2-.5.1-.6.3-1.1.7-.5.5-.9.7-1.6.9-.8.2-1.9.3-3.3.3-1.1 0-2.2-.1-3.1-.2-1.1-.2-1.7-.5-1.8-.9 0-.4.5-.7 1.5-.9.7-.1 1.4-.2 2.9-.3l.5.5c-.9 0-1.2.1-1.7.1-.8.1-1.2.3-1.2.6 0 .4 1.2.7 3 .7.7 0 1.4-.1 1.7-.2.4-.1.6-.3 1-.6.6-.6 1-.8 1.7-.9.8-.2 2-.3 3.3-.3 3.2 0 5.2.5 5.3 1.3 0 .5-.8.9-2.4 1.1-.7.1-1.2.1-2.5.2l-.5-.6z"/></g><path class="st2" d="M333.6 72.4h1.8M315.1 72.4h1.9"/></g><g><path class="st0" d="M348 67.5h-38.6v3.7h.1c.1 1.4 8.7 2.6 19.2 2.6s19-1.1 19.2-2.6h.1v-3.7h0z"/><ellipse class="st1" cx="328.7" cy="67.2" rx="19.2" ry="2.6"/><path class="st2" d="M314.2 69.2v1.9M317.3 69.7v1.9M320.2 69.9v2M323.2 70v1.9M326.4 70.2v1.9M329.6 70.2v2M332.5 70.2v1.9M335.8 70.1V72M339.3 69.8v2M342.7 69.4v1.9M345.9 68.8v1.9M311 68.7v2"/><g><path d="M332.4 67.9c1.2 0 1.8-.1 2.3-.2.7-.1 1.1-.4 1.1-.7 0-.5-1.3-.8-3.1-.8-.9 0-1.6.1-2 .2-.5.1-.6.3-1.1.7-.5.5-.9.7-1.6.9-.8.2-1.9.3-3.3.3-1.1 0-2.2-.1-3.1-.2-1.1-.2-1.7-.5-1.8-.9 0-.4.5-.7 1.5-.9.7-.1 1.4-.2 2.9-.3l.5.5c-.9 0-1.2.1-1.7.1-.8.1-1.2.3-1.2.6 0 .4 1.2.7 3 .7.7 0 1.4-.1 1.7-.2.4-.1.6-.3 1-.6.6-.6 1-.8 1.7-.9.8-.2 2-.3 3.3-.3 3.2 0 5.2.5 5.3 1.3 0 .5-.8.9-2.4 1.1-.7.1-1.2.1-2.5.2l-.5-.6z"/></g><path class="st2" d="M336.9 67h1.9M318.5 67h1.9"/></g><g><path class="st0" d="M345 61.7h-38.6v3.7h.1c.1 1.4 8.7 2.6 19.2 2.6s19-1.1 19.2-2.6h.1v-3.7h0z"/><ellipse class="st1" cx="325.6" cy="61.4" rx="19.2" ry="2.6"/><path class="st2" d="M311.2 63.4v1.9M314.2 63.8v2M317.1 64.1v2M320.2 64.2v1.9M323.4 64.4v1.9M326.6 64.4v2M329.5 64.4v1.9M332.7 64.2v2M336.3 64v2M339.6 63.6v1.9M342.9 63v1.9M308 62.9v2"/><g><path d="M329.4 62.1c1.2 0 1.8-.1 2.3-.2.7-.1 1.1-.4 1.1-.7 0-.5-1.3-.8-3.1-.8-.9 0-1.6.1-2 .2-.5.1-.6.3-1.1.7-.5.5-.9.7-1.6.9-.8.2-1.9.3-3.3.3-1.1 0-2.2-.1-3.1-.2-1.1-.2-1.7-.5-1.8-.9 0-.4.5-.7 1.5-.9.7-.1 1.4-.2 2.9-.3l.5.5c-.9 0-1.2.1-1.7.1-.8.1-1.2.3-1.2.6 0 .4 1.2.7 3 .7.7 0 1.4-.1 1.7-.2.4-.1.6-.3 1-.6.6-.6 1-.8 1.7-.9.8-.2 2-.3 3.3-.3 3.2 0 5.2.5 5.3 1.3 0 .5-.8.9-2.4 1.1-.7.1-1.2.1-2.5.2l-.5-.6z"/></g><path class="st2" d="m333.9 61.1 1.9.1M315.5 61.1l1.9.1"/></g><g><path class="st0" d="M348.9 55.3h-38.6V59h.1c.1 1.4 8.7 2.6 19.2 2.6s19-1.1 19.2-2.6h.1v-3.7h0z"/><ellipse class="st1" cx="329.6" cy="54.9" rx="19.2" ry="2.6"/><path class="st2" d="M315.1 56.9v2M318.2 57.4v1.9M321.1 57.7v1.9M324.1 57.7v2M327.3 57.9v2M330.5 58v1.9M333.4 57.9v2M336.7 57.8v1.9M340.2 57.6v1.9M343.6 57.1v2M346.9 56.5v2M312 56.5v1.9"/><g><path d="M333.3 55.6c1.2 0 1.8-.1 2.3-.2.7-.1 1.1-.4 1.1-.7 0-.5-1.3-.8-3.1-.8-.9 0-1.6.1-2 .2-.5.1-.6.3-1.1.7-.5.5-.9.7-1.6.9-.8.2-1.9.3-3.3.3-1.1 0-2.2-.1-3.1-.2-1.1-.2-1.7-.5-1.8-.9 0-.4.5-.7 1.5-.9.7-.1 1.4-.2 2.9-.3l.5.4c-.9 0-1.2.1-1.7.1-.8.1-1.2.3-1.2.6 0 .4 1.2.7 3 .7.7 0 1.4-.1 1.7-.2.4-.1.6-.3 1-.6.6-.6 1-.8 1.7-.9.8-.2 2-.3 3.3-.3 3.2 0 5.2.5 5.3 1.3 0 .5-.8.9-2.4 1.1-.7.1-1.2.1-2.5.2l-.5-.5z"/></g><path class="st2" d="M337.9 54.7h1.8M319.5 54.7h1.8"/></g><g><path class="st0" d="M347.4 49.1h-38.6v3.7h.1c.1 1.4 8.7 2.6 19.2 2.6s19-1.1 19.2-2.6h.1v-3.7h0z"/><ellipse class="st1" cx="328.1" cy="48.7" rx="19.2" ry="2.6"/><path class="st2" d="M313.6 50.8v1.9M316.7 51.2v1.9M319.6 51.5v1.9M322.6 51.6v1.9M325.8 51.7v2M329 51.8v1.9M331.9 51.7v2M335.2 51.6v1.9M338.7 51.4v1.9M342.1 50.9v2M345.4 50.4v1.9M310.5 50.3v1.9"/><g><path d="M331.8 49.5c1.2 0 1.8-.1 2.3-.2.7-.1 1.1-.4 1.1-.7 0-.5-1.3-.8-3.1-.8-.9 0-1.6.1-2 .2-.5.1-.6.3-1.1.7-.5.5-.9.7-1.6.9-.8.2-1.9.3-3.3.3-1.1 0-2.2-.1-3.1-.2-1.1-.2-1.7-.5-1.8-.9 0-.4.5-.7 1.5-.9.7-.1 1.4-.2 2.9-.3l.5.4c-.9 0-1.2.1-1.7.1-.8.1-1.2.3-1.2.6 0 .4 1.2.7 3 .7.7 0 1.4-.1 1.7-.2.4-.1.6-.3 1-.6.6-.6 1-.8 1.7-.9.8-.2 2-.3 3.3-.3 3.2 0 5.2.5 5.3 1.3 0 .5-.8.9-2.4 1.1-.7.1-1.2.1-2.5.2l-.5-.5z"/></g><path class="st2" d="M336.4 48.5h1.8M318 48.5h1.8"/></g></g></g></g><g class="st3"><path class="st4" d="M179 46.7v10.1h-4.4v-6.1h-1v-2.4l1.7-1.6h3.7zM189 51.4v4.4l-1.2 1.2h-6.1l-1.2-1.2v-7.5l1.5-1.5h6.8v3H184v.9h4.1l.9.7zm-3.4 1.6H184v1h1.6v-1zM198.8 47.9v7.5l-1.5 1.4h-6.8v-3.2h4.8V53H191l-1-.9v-4.4l1.2-1.2h6.1l1.5 1.4zm-3.6 2.7v-1h-1.6v1h1.6zM208.1 50.1l-3.3 6.9h-4v-.5l2.8-6v-.2h-3.9v-3.5h8.3v3.4h.1v-.1zM210.5 46.3h2.1v11h-2.9V53h-.7v-4.1l1.5-2.6zm2.3 7.8h1.9v3h-1.9v-3zm7.3-.2h-7.3v-3.4h7.3v3.4zm.1-3.6h-7.4v-1.6h.5v-.3h-.4v-1.7h2v-.4h3v.4h2.2v1.7h-.5v.3h.8l-.2 1.6zm-3.4 5h1.3v2h-3.3v-3.2h2v1.2zm-1.3-3.7v.2h2v-.2h-2zm2 1.2v-.2h-2v.2h2zm-1.4-4.1h.8v-.3h-.9l.1.3zm.9 5.4h.8l.3.3v.6H217v-.9zm3.2 0v3h-1.9v-3h1.9z"/></g><g class="st3"><path class="st4" d="M247.7 49.5v3.6l-2.4 2.2v.1h2.5v3.2h-8.2v-2.3l3.9-3.9V52h-3.8v-3.6h7l1 1.1zM257.7 54.3v3.2l-1.3 1.2h-6.2l-1.3-1.2v-3.2l.9-.9-.5-.5v-3.3l1.3-1.2h5.7l1.3 1.2v3.3l-.5.5.6.9zm-3.5.6h-1.9V56h1.9v-1.1zm-1.7-2.7h1.6v-1.1h-1.6v1.1zM258.8 55.5h4.4v-.8H259v-2.5h4.1v-.8h-4.2v-3.2h7.9v4.1l-.7.8.9.8v3.5l-1.1 1.1h-7.1v-3zM276.9 54.3v3.2l-1.3 1.2h-6.2l-1.3-1.2v-3.2l.9-.9-.5-.5v-3.3l1.3-1.2h5.7l1.3 1.2v3.3l-.5.5.6.9zm-3.4.6h-1.9V56h1.9v-1.1zm-1.8-2.7h1.6v-1.1h-1.6v1.1zM279.4 48h2.1v11h-2.9v-4.2h-.7v-4.1l1.5-2.7zm2.3 8h1.9v3h-1.9v-3zm7.2-.4h-7.3v-3.4h7.3v3.4zm.2-3.6h-7.4v-1.6h.5v-.3h-.4v-1.7h2V48h3v.4h2.2v1.7h-.5v.3h.8l-.2 1.6zm-3.4 5h1.3v2h-3.3v-3.2h2V57zm-1.3-3.7v.2h2v-.2h-2zm1.9 1.2v-.2h-2v.2h2zm-1.4-4.1h.8v-.3h-.9l.1.3zM286 56h.8l.3.3v.5H286V56zm3.1 0v3h-1.9v-3h1.9z"/></g><g class="st3"><path class="st4" d="M312.4 15.8v3.6l-2.4 2.2v.1h2.5v3.2h-8.2v-2.3l3.9-3.9v-.4h-3.8v-3.6h7.1l.9 1.1zM322.3 20.6v3.2L321 25h-6.2l-1.3-1.2v-3.2l.9-.9-.5-.5v-3.3l1.3-1.2h5.7l1.3 1.2v3.3l-.5.5.6.9zm-3.3.6h-1.9v1.1h1.9v-1.1zm-1.8-2.7h1.6v-1.1h-1.6v1.1zM323.5 21.8h4.4V21h-4.1v-2.5h4.1v-.8h-4.2v-3h7.9v4.1l-.7.8.9.8v3.5l-1.1 1.1h-7.1l-.1-3.2zM341.6 20.6v3.2l-1.3 1.2h-6.2l-1.2-1.2v-3.2l.9-.9-.5-.5v-3.3l1.3-1.2h5.7l1.3 1.2v3.3l-.5.5.5.9zm-3.5.6h-1.9v1.1h1.9v-1.1zm-1.7-2.7h1.6v-1.1h-1.6v1.1zM348.8 21h-2v2.2h-2.2V21h-2v-2h2v-2h2.2v2h2v2z"/></g><g class="st3"><path class="st4" d="M313.2 35v3.2l-1.3 1.2h-6.2l-1.3-1.2V35l.9-.9-.5-.5v-3.3l1.3-1.2h5.7l1.3 1.2v3.3l-.5.5.6.9zm-3.5.5h-1.9v1.1h1.9v-1.1zm-1.7-2.6h1.6v-1.1H308v1.1zM314.3 30.5l1.4-1.4h5.8l1.4 1.4V38l-1.4 1.3h-5.8l-1.4-1.3v-7.5zm3.6 5.6h1.4v-3.6h-1.4v3.6zM324.1 30.5l1.4-1.4h5.8l1.4 1.4V38l-1.4 1.3h-5.8l-1.4-1.3v-7.5zm3.6 5.6h1.4v-3.6h-1.4v3.6zM335.2 28.8h2.1v11h-2.9v-4.2h-.7v-4.1l1.5-2.7zm2.3 7.8h1.9v3h-1.9v-3zm7.3-.3h-7.3v-3.4h7.3v3.4zm.1-3.5h-7.4v-1.7h.5v-.3h-.4V29h2v-.4h3v.4h2.2v1.7h-.7v.3h.8v1.8zm-3.4 4.9h1.3v2h-3.3v-3.2h2v1.2zm-1.3-3.7v.2h2V34h-2zm1.8 1.2V35h-2v.2h2zm-1.3-4.1h.8v-.3h-.9l.1.3zm1 5.5h.8l.3.3v.5h-1.1v-.8zm3.2 0v3H343v-3h1.9z"/></g></svg>