<svg xmlns="http://www.w3.org/2000/svg" viewBox="0 0 360 309.8" style="enable-background:new 0 0 360 309.8" xml:space="preserve"><path d="m67.6 83.9 22.3-3.8-2.1-72.2s4.8-4.4 9.6 0l6.6 70 13.9 4-.4-14.7 52.7-4.2 15.4 2.8-.1 9.5 4.8 1.1-.2 10.3 3.9-.9.2-3.7L249 72l29.9 5.3V90l5.8 2.1.2 16.8 5.4-2.1.4 5.2 5.6-3.7 8.2 2.8.4 3 5.4.2.1 8.5-9.5 4.2-41.4 21.3-5.8 3.2-5.8 3.5-23.3-8.6v2.8l-3.9 2.4-.4 4.7-14 7.8-1.9-.9-2.1 1.5-3.9-1.7-.2-2.1-5.4-2.8-.2 11s-3.9 3.2-6-.2l-7.8-3 .2 3.9-4.7 1.5-6.7-3.7.2-3 4.5-2.4 3.9 1.7-.4-5.6-9.3-3.9-32.7-12.5-26.5-9.9.7 7.3s-10.8 4.3-16.4-.4l-.7-24.1-8.6 1.9-4.7-2.4-15.9 3.9-4.1-1.9-.4-5.6 2.8-.9.4-2.1 6.5-1.5-.4-2.1 2.2-.6-1.1-19.6z" style="fill:none;stroke:#c81d1d;stroke-width:3;stroke-linecap:round;stroke-linejoin:round;stroke-miterlimit:10"/></svg>