<svg width="102" height="102" viewBox="0 0 102 102" fill="none" xmlns="http://www.w3.org/2000/svg">
<path d="M47.883 38.316L44.9207 70.3808L70.5128 72.7451L73.475 40.6803L47.883 38.316Z" fill="white" stroke="#040000" stroke-miterlimit="10" stroke-linecap="round" stroke-linejoin="round"/>
<path d="M63.0631 36.4917L37.435 38.3987L39.8244 70.5086L65.4524 68.6016L63.0631 36.4917Z" fill="white" stroke="#040000" stroke-miterlimit="10" stroke-linecap="round" stroke-linejoin="round"/>
<path d="M70.3 24C70.3 21.6 68.4 19.7 66 19.7C65.1 19.7 64.3 20 63.6 20.5C62.9 19.3 61.7 18.6 60.3 18.6C58.6 18.6 57.2 19.7 56.7 21.1C56.4 21 56 20.9 55.6 20.9C53.3 20.9 51.4 22.8 51.4 25.1C51.4 27.4 53.3 29.3 55.6 29.3C56.3 29.3 56.9 29.1 57.5 28.8C58.2 30.7 60 32.1 62.2 32.1C64.6 32.1 66.6 30.4 67.1 28.1C68.9 27.6 70.3 26 70.3 24Z" fill="white" stroke="#040000" stroke-miterlimit="10" stroke-linecap="round" stroke-linejoin="round"/>
<path d="M61.5 28.3L59.2 25.9H60.5V22.7H62.6V25.9H63.9L61.5 28.3Z" fill="#221714"/>
<path d="M43.9 48.5L60.4 46.2" stroke="#040000" stroke-miterlimit="10" stroke-linecap="round" stroke-linejoin="round"/>
<path d="M44.4 51.9L60.9 49.6" stroke="#040000" stroke-miterlimit="10" stroke-linecap="round" stroke-linejoin="round"/>
<path d="M44.9 55.7L61.4 53.4" stroke="#040000" stroke-miterlimit="10" stroke-linecap="round" stroke-linejoin="round"/>
<path d="M45.4 59L61.9 56.6" stroke="#040000" stroke-miterlimit="10" stroke-linecap="round" stroke-linejoin="round"/>
<path d="M45.8 62.2L62.3 59.9" stroke="#040000" stroke-miterlimit="10" stroke-linecap="round" stroke-linejoin="round"/>
<path d="M50.7815 33.8219L26.035 40.7532L34.7193 71.7586L59.4659 64.8273L50.7815 33.8219Z" fill="white" stroke="#040000" stroke-miterlimit="10" stroke-linecap="round" stroke-linejoin="round"/>
<path d="M33.1 51.6L49.2 47.1" stroke="#040000" stroke-miterlimit="10" stroke-linecap="round" stroke-linejoin="round"/>
<path d="M34.1 54.9L50.1 50.4" stroke="#040000" stroke-miterlimit="10" stroke-linecap="round" stroke-linejoin="round"/>
<path d="M35.1 58.6L51.1 54.1" stroke="#040000" stroke-miterlimit="10" stroke-linecap="round" stroke-linejoin="round"/>
<path d="M36 61.8L52 57.3" stroke="#040000" stroke-miterlimit="10" stroke-linecap="round" stroke-linejoin="round"/>
<path d="M36.9 64.9L52.9 60.4" stroke="#040000" stroke-miterlimit="10" stroke-linecap="round" stroke-linejoin="round"/>
<path d="M45.6 44.2C47.3673 44.2 48.8 42.7673 48.8 41C48.8 39.2327 47.3673 37.8 45.6 37.8C43.8327 37.8 42.4 39.2327 42.4 41C42.4 42.7673 43.8327 44.2 45.6 44.2Z" fill="#FFE500" stroke="#040000" stroke-miterlimit="10"/>
<path d="M45.8 37.7V41L43.4 42.4" stroke="#040000" stroke-miterlimit="10" stroke-linecap="round" stroke-linejoin="round"/>
<path d="M45.8 41H48.4" stroke="#040000" stroke-width="0.9272" stroke-miterlimit="10" stroke-linecap="round" stroke-linejoin="round"/>
</svg>
