<svg width="64" height="39" viewBox="0 0 64 39" fill="none" xmlns="http://www.w3.org/2000/svg">
<path d="M1.24 21.17L5.09 20.24C5.09 20.24 9.47 26.61 6.68 37.89H1.9L1.24 21.17Z" fill="white" stroke="#040000" stroke-miterlimit="10" stroke-linecap="round" stroke-linejoin="round"/>
<path d="M5.75 20.91L21.14 21.04C21.14 21.04 29.9 18.25 31.89 18.39C33.88 18.52 37.06 18.92 36.67 23.03C36.27 27.14 31.89 23.83 31.5 21.84" stroke="#040000" stroke-miterlimit="10" stroke-linecap="round" stroke-linejoin="round"/>
<path d="M32.81 18.12C32.81 18.12 34.8 16.53 39.97 18.12" stroke="#040000" stroke-miterlimit="10" stroke-linecap="round" stroke-linejoin="round"/>
<path d="M7.21 36.43L23 33.51C23 33.51 29.1 35.63 32.15 32.98" stroke="#040000" stroke-miterlimit="10" stroke-linecap="round" stroke-linejoin="round"/>
<path d="M31.75 22.5L28.43 27.01C28.43 27.01 27.5 30.59 31.08 30.46C31.08 30.46 33.2 29 33.6 28.2" stroke="#040000" stroke-miterlimit="10" stroke-linecap="round" stroke-linejoin="round"/>
<path d="M36.53 19.45C36.53 19.45 40.91 17.59 45.02 17.19L53.51 14.01L58.02 24.62C58.02 24.62 52.71 26.74 50.32 26.34L43.55 31.25C43.55 31.25 39.3 34.43 37.71 34.3C37.71 34.3 35.06 35.1 34.79 32.71L37.71 30.06" stroke="#040000" stroke-miterlimit="10" stroke-linecap="round" stroke-linejoin="round"/>
<path d="M31.09 30.46C31.09 30.46 31.09 34.57 34.81 32.72" stroke="#040000" stroke-miterlimit="10" stroke-linecap="round" stroke-linejoin="round"/>
<path d="M36.87 29.23L39.15 29.95" stroke="#040000" stroke-miterlimit="10" stroke-linecap="round" stroke-linejoin="round"/>
<path d="M20.01 26.16C20.01 26.16 19.72 29.56 21.66 31.02" stroke="#040000" stroke-miterlimit="10" stroke-linecap="round" stroke-linejoin="round"/>
<path d="M21.18 5.28L26.42 11.5" stroke="#040000" stroke-miterlimit="10" stroke-linecap="round" stroke-linejoin="round"/>
<path d="M32.35 1.2L34 9.75" stroke="#040000" stroke-miterlimit="10" stroke-linecap="round" stroke-linejoin="round"/>
<path d="M43.32 2.27L40.02 9.94" stroke="#040000" stroke-miterlimit="10" stroke-linecap="round" stroke-linejoin="round"/>
<path d="M45.94 11.01L51.68 6.16" stroke="#040000" stroke-miterlimit="10" stroke-linecap="round" stroke-linejoin="round"/>
<path d="M63.26 25.12L60.06 27.44C60.06 27.44 53.59 23.22 51.87 11.73L56.29 9.91L63.26 25.12Z" fill="white" stroke="#040000" stroke-miterlimit="10" stroke-linecap="round" stroke-linejoin="round"/>
<path d="M32.38 27.08L34.22 28.01" stroke="#040000" stroke-miterlimit="10" stroke-linecap="round" stroke-linejoin="round"/>
</svg>
