<svg width="102" height="102" viewBox="0 0 102 102" fill="none" xmlns="http://www.w3.org/2000/svg">
<path d="M72.3 32H46.1V49.8H72.3V32Z" fill="white" stroke="black" stroke-width="0.2805" stroke-miterlimit="10" stroke-linecap="round" stroke-linejoin="round"/>
<path d="M60.7 51H55.6L56.8 44H61.8L60.7 51Z" fill="white" stroke="black" stroke-width="0.2805" stroke-miterlimit="10" stroke-linecap="round" stroke-linejoin="round"/>
<path d="M62.2 64.9C62.2 64.9 58.9 66.1 58.2 68C57.5 69.7 57.7 70.3 57.6 70.8C57.5 71.2 71.5 70.8 71.5 70.8C71.5 70.8 71.6 68.6 70.5 67.3C69.5 66.1 67 65 67 65L62.2 64.9Z" fill="white" stroke="black" stroke-width="0.2805" stroke-miterlimit="10" stroke-linecap="round" stroke-linejoin="round"/>
<path d="M62.3 63.8L62.2 64.9C62.2 64.9 65.1 66.5 67 65V63.9L62.3 63.8Z" fill="white" stroke="black" stroke-width="0.2805" stroke-miterlimit="10" stroke-linecap="round" stroke-linejoin="round"/>
<path d="M59.1 62.5C58.9 62.2 59 61.8 59.3 61.6C59.8 61.2 60.5 60.4 60.7 59.1C61 57.1 62.7 55.7 63.8 55.7C65 55.6 66 55.5 67.4 57C67.5 57.1 67.5 57.1 67.5 57.2C67.6 57.5 68.1 58.6 68.3 59.7C68.5 60.7 69.2 61.3 69.7 61.7C70.1 62 70.1 62.5 69.8 62.8C69.4 63.2 68.8 63.6 67.9 63.7C67.8 63.7 67.6 63.8 67.5 63.8C66.9 64.2 64.4 65.7 62 63.8C61.9 63.7 61.7 63.6 61.5 63.6C61 63.7 59.6 63.7 59.1 62.5Z" fill="black"/>
<path d="M31.8 60.7C31.8 60.7 30.7 60.3 30.6 61.5C30.6 61.8 30.6 62.5 31.7 62.5" fill="white"/>
<path d="M31.8 60.7C31.8 60.7 30.7 60.3 30.6 61.5C30.6 61.8 30.6 62.5 31.7 62.5" stroke="black" stroke-width="0.2805" stroke-miterlimit="10" stroke-linecap="round" stroke-linejoin="round"/>
<path d="M38.9 61.3C38.9 61.3 40 60.9 40.1 62.1C40.1 62.4 40.1 63.1 39 63.1" fill="white"/>
<path d="M38.9 61.3C38.9 61.3 40 60.9 40.1 62.1C40.1 62.4 40.1 63.1 39 63.1" stroke="black" stroke-width="0.2805" stroke-miterlimit="10" stroke-linecap="round" stroke-linejoin="round"/>
<path d="M33.1 66.8C33.1 66.8 29.8 67.7 29.1 69.1C28.4 70.3 28.6 70.8 28.5 71.2C28.4 71.5 42.4 71.2 42.4 71.2C42.4 71.2 42.5 69.6 41.4 68.6C40.4 67.7 37.8 66.9 37.8 66.9L33.1 66.8Z" fill="white" stroke="black" stroke-width="0.2805" stroke-miterlimit="10" stroke-linecap="round" stroke-linejoin="round"/>
<path d="M33.7 65.4L33 67.2C33 67.2 35.4 68 37.9 67.2L37.2 65.5L33.7 65.4Z" fill="white" stroke="black" stroke-width="0.2805" stroke-miterlimit="10" stroke-linecap="round" stroke-linejoin="round"/>
<path d="M39.5 57.4C39.4 58 38.3 58.1 37.6 58.1C37.5 58 37.5 58 37.4 57.9C36.8 57.5 36.2 57.3 35.5 57.3C33.4 57.3 31.7 59.2 31.7 61.6C31.7 64 33.4 65.9 35.5 65.9C37.6 65.9 39.3 64 39.3 61.6C39.3 60.7 39 59.9 38.6 59.2C40 58.6 39.5 57.4 39.5 57.4Z" fill="black" stroke="black" stroke-width="0.2749" stroke-miterlimit="10" stroke-linecap="round" stroke-linejoin="round"/>
<path d="M32.8 66.3H38L38.4 67.4C38.4 67.4 36.2 68.4 32.4 67.3L32.8 66.3Z" fill="white" stroke="black" stroke-width="0.2805" stroke-miterlimit="10" stroke-linecap="round" stroke-linejoin="round"/>
<path d="M44.9 55.4L47.1 67.8L50.2 67.3L50.6 54.7C50.5 54.7 46.6 55.4 44.9 55.4Z" fill="black"/>
<path d="M50.8 40.4L50.7 39.3L48.8 38.6L46.6 40.1L45.7 42.3L46.6 43.8L46.8 44.1L46.1 45.4H48.8L49.2 44.1H49.4C49.4 44.1 50.5 44.2 50.7 43L50.3 42.5C50.6 42.6 50.9 42.4 50.9 42.4L51 41.4L51.6 40.7L50.8 40.4Z" fill="white" stroke="black" stroke-width="0.2805" stroke-miterlimit="10" stroke-linecap="round" stroke-linejoin="round"/>
<path d="M46.8 44.2C46.8 44.2 44.1 43.1 45 40C45.9 37 49.1 37.6 49.1 37.6C49.1 37.6 50.8 38 51.1 39.5C51.1 39.5 48.5 39.6 47.5 39.7L48 41.7L47.4 41.8C47.4 41.8 46.8 40.8 46.3 41.6C46.3 41.6 45.9 42.9 47 42.5L46.8 44.2Z" fill="black"/>
<path d="M49.8 41.4C49.9657 41.4 50.1 41.2657 50.1 41.1C50.1 40.9343 49.9657 40.8 49.8 40.8C49.6343 40.8 49.5 40.9343 49.5 41.1C49.5 41.2657 49.6343 41.4 49.8 41.4Z" fill="#231815"/>
<path d="M46.6 41.8C46.6 41.8 46.9 41.6 47.1 42.1Z" fill="white"/>
<path d="M46.6 41.8C46.6 41.8 46.9 41.6 47.1 42.1" stroke="black" stroke-width="0.2805" stroke-miterlimit="10" stroke-linecap="round" stroke-linejoin="round"/>
<path d="M45.4 45.8C45.4 45.8 44.8 46.1 44.4 49.6V55.5C44.4 55.5 47.3 56.8 50.6 55.5L50.7 50.1C50.7 50.1 50.1 47 49.8 46.5" fill="white"/>
<path d="M45.4 45.8C45.4 45.8 44.8 46.1 44.4 49.6V55.5C44.4 55.5 47.3 56.8 50.6 55.5L50.7 50.1C50.7 50.1 50.1 47 49.8 46.5" stroke="black" stroke-width="0.2805" stroke-miterlimit="10"/>
<path d="M49.2 48.1C49.2 48.1 51.7 49 52.4 49.3C52.5 49.2 54.1 48.4 55 48.1C55 48.1 55.9 46 56.3 46.6C56.4 46.7 55.9 47.2 56 47.2C56.2 47.2 56.7 46.6 57.1 46.6C57.5 46.6 57.8 46.8 57.9 47.2C58 47.6 57.8 48 57.5 48.2C57.2 48.5 56.7 48.6 56.1 48.7C56.1 48.7 55 50.3 53.2 50.7C53.2 50.7 50.3 51.3 47.3 49.7C47.4 49.7 49.2 48.1 49.2 48.1Z" fill="white" stroke="black" stroke-width="0.2805" stroke-miterlimit="10" stroke-linecap="round" stroke-linejoin="round"/>
<path d="M47.3 46.2L49.8 47.6L49.2 48.1" stroke="black" stroke-width="0.2805" stroke-miterlimit="10" stroke-linecap="round" stroke-linejoin="round"/>
<path d="M46 44.7L49.6 45.4L49.9 46.5L45.3 45.8C45.3 45.8 45.4 45 46 44.7Z" fill="white" stroke="black" stroke-width="0.2805" stroke-miterlimit="10" stroke-linecap="round" stroke-linejoin="round"/>
<path d="M53.1 58.4C53.1 58.4 54.1 59.5 53.9 61.3C53.6 63.4 52.1 64 52.1 64L52.3 66.8C52.3 66.8 49.2 67.8 48.1 65.8C48.1 65.8 49.1 64.5 49.1 64L51.2 58.3L53.1 58.4Z" fill="white" stroke="black" stroke-width="0.2805" stroke-miterlimit="10" stroke-linecap="round" stroke-linejoin="round"/>
<path d="M52.1 61.4C52.1 61.4 52.7 61.2 52.7 61.7Z" fill="white"/>
<path d="M52.1 61.4C52.1 61.4 52.7 61.2 52.7 61.7" stroke="black" stroke-width="0.2805" stroke-miterlimit="10" stroke-linecap="round" stroke-linejoin="round"/>
<path d="M44.3 71C44.3 71 44 66.4 48.1 65.8L52.3 65.9C52.3 65.9 53.9 66.3 55 67.3C56.4 68.6 56.3 71 56.3 71H44.3Z" fill="black" stroke="black" stroke-width="0.2805" stroke-miterlimit="10" stroke-linecap="round" stroke-linejoin="round"/>
<path d="M46.1 60.2C46.1 60.2 46.3 57.6 48.6 56.7C48.6 56.7 51.7 55.5 53.4 58.2L52 59.5C52 59.5 52.8 60.5 52.7 60.9C52.7 60.9 51.9 60.6 51.6 61.2C51.6 61.2 51.2 62 51.9 62.3L52.6 62.5C52.6 62.5 52.3 63.6 51.1 64.1C51.1 64.1 50.8 64.3 50.5 64.7C50.6 64.6 45.8 64.1 46.1 60.2Z" fill="white" stroke="black" stroke-width="0.2805" stroke-miterlimit="10" stroke-linecap="round" stroke-linejoin="round"/>
<path d="M43.8 63C43.8 63 44.7 62.8 45 61.9C45 61.9 45.3 61.1 45.9 60.6C46.7 60 47.9 60.9 47.3 61.8C47.3 61.8 47.3 61.8 47.3 61.9C46.6 62.9 45.8 63.2 43.8 63Z" fill="white" stroke="black" stroke-width="0.2805" stroke-miterlimit="10" stroke-linecap="round" stroke-linejoin="round"/>
<path d="M54.9 35.1L57.8 39.8V35.1H59.2V42.1H57.7L54.8 37.4V42.1H53.4V35.1H54.9Z" fill="black"/>
<path d="M64.6 42.4C66.6435 42.4 68.3 40.7435 68.3 38.7C68.3 36.6565 66.6435 35 64.6 35C62.5565 35 60.9 36.6565 60.9 38.7C60.9 40.7435 62.5565 42.4 64.6 42.4Z" fill="#FFDD00" stroke="black" stroke-width="0.2888" stroke-miterlimit="10"/>
<path d="M64.6 38.9L62.3 42.9H66.9L64.6 38.9Z" fill="black" stroke="black" stroke-width="0.271" stroke-miterlimit="10"/>
<path d="M66.9 34.7L64.6 38.8H69.2L66.9 34.7Z" fill="black" stroke="black" stroke-width="0.271" stroke-miterlimit="10"/>
<path d="M62.1 34.7L59.8 38.8H64.5L62.1 34.7Z" fill="black" stroke="black" stroke-width="0.271" stroke-miterlimit="10"/>
<path d="M64.6 41.8C66.3121 41.8 67.7 40.4121 67.7 38.7C67.7 36.9879 66.3121 35.6 64.6 35.6C62.8879 35.6 61.5 36.9879 61.5 38.7C61.5 40.4121 62.8879 41.8 64.6 41.8Z" stroke="black" stroke-width="0.2888" stroke-miterlimit="10"/>
</svg>
