<svg width="50" height="39" viewBox="0 0 50 39" fill="none" xmlns="http://www.w3.org/2000/svg">
<path d="M48.39 16.38L24.66 0.799999C24.26 0.539999 23.75 0.56 23.37 0.84L1.17999 17.49C0.299987 18.15 0.789986 19.54 1.87999 19.52L6.35999 19.42V38.39H43.33V18.55L47.81 18.45C48.9 18.42 49.31 16.99 48.39 16.38Z" fill="white" stroke="#040000" stroke-miterlimit="10" stroke-linecap="round" stroke-linejoin="round"/>
<path d="M25.12 33.56C31.2724 33.56 36.26 28.5725 36.26 22.42C36.26 16.2675 31.2724 11.28 25.12 11.28C18.9675 11.28 13.98 16.2675 13.98 22.42C13.98 28.5725 18.9675 33.56 25.12 33.56Z" fill="#FFE500" stroke="#040000" stroke-width="0.8082" stroke-miterlimit="10"/>
<path d="M25.15 22.95L18.24 34.92H32.07L25.15 22.95Z" fill="#040000" stroke="#040000" stroke-width="0.8082" stroke-miterlimit="10"/>
<path d="M32.02 10.62L25.11 22.59H38.93L32.02 10.62Z" fill="#040000" stroke="#040000" stroke-width="0.8082" stroke-miterlimit="10"/>
<path d="M17.78 10.62L10.87 22.59H24.69L17.78 10.62Z" fill="#040000" stroke="#040000" stroke-width="0.8082" stroke-miterlimit="10"/>
<path d="M25.15 31.69C30.2034 31.69 34.3 27.5934 34.3 22.54C34.3 17.4866 30.2034 13.39 25.15 13.39C20.0966 13.39 16 17.4866 16 22.54C16 27.5934 20.0966 31.69 25.15 31.69Z" stroke="#040000" stroke-width="0.8082" stroke-miterlimit="10"/>
<path d="M25.15 35.01C32.1088 35.01 37.75 29.3688 37.75 22.41C37.75 15.4512 32.1088 9.81 25.15 9.81C18.1912 9.81 12.55 15.4512 12.55 22.41C12.55 29.3688 18.1912 35.01 25.15 35.01Z" stroke="#DD3328" stroke-width="2" stroke-miterlimit="10"/>
<path d="M34.46 13.64L16.93 32.05" stroke="#DD3328" stroke-width="2.3152" stroke-miterlimit="10"/>
</svg>
