<svg width="158" height="142" viewBox="0 0 158 142" fill="none" xmlns="http://www.w3.org/2000/svg">
<path d="M156.8 0.5H63.5V63.8H156.8V0.5Z" fill="white" stroke="black" stroke-miterlimit="10" stroke-linecap="round" stroke-linejoin="round"/>
<path d="M115.6 68.3H97.6L101.7 43.1H119.6L115.6 68.3Z" fill="white" stroke="black" stroke-miterlimit="10" stroke-linecap="round" stroke-linejoin="round"/>
<path d="M121 117.9C121 117.9 109.4 122.2 106.6 129.1C104.1 135 104.9 137.3 104.6 139.2C104.4 140.6 154.3 139.1 154.3 139.1C154.3 139.1 154.5 131.3 150.8 126.6C147.2 122.1 138 118.2 138 118.2L121 117.9Z" fill="white" stroke="black" stroke-miterlimit="10" stroke-linecap="round" stroke-linejoin="round"/>
<path d="M121.4 113.9L121 117.9C121 117.9 131.5 123.5 138 118.1L137.9 114.1L121.4 113.9Z" fill="white" stroke="black" stroke-miterlimit="10" stroke-linecap="round" stroke-linejoin="round"/>
<path d="M109.8 109.3C109.2 108.2 109.5 106.8 110.5 106C112.2 104.6 114.9 101.8 115.6 97.2C116.7 90.1 122.8 85.1 126.5 84.9C130.7 84.6 134.5 84.1 139.5 89.7C139.7 89.9 139.8 90.1 139.9 90.3C140.4 91.4 142.1 95.2 142.8 99.3C143.4 102.7 146 105.1 147.9 106.5C149.2 107.5 149.4 109.4 148.3 110.5C146.9 111.8 144.7 113.3 141.4 113.7C140.9 113.8 140.5 113.9 140.1 114.2C137.9 115.7 129.2 120.9 120.5 114.1C120 113.7 119.4 113.5 118.8 113.5C116.8 113.6 111.9 113.3 109.8 109.3Z" fill="black"/>
<path d="M12.5 102.6C12.5 102.6 8.7 101.2 8.1 105.6C8.1 106.7 8 109.3 11.9 109" fill="white"/>
<path d="M12.5 102.6C12.5 102.6 8.7 101.2 8.1 105.6C8.1 106.7 8 109.3 11.9 109" stroke="black" stroke-miterlimit="10" stroke-linecap="round" stroke-linejoin="round"/>
<path d="M37.9 104.9C37.9 104.9 41.7 103.5 42.3 107.9C42.3 109 42.4 111.6 38.5 111.3" fill="white"/>
<path d="M37.9 104.9C37.9 104.9 41.7 103.5 42.3 107.9C42.3 109 42.4 111.6 38.5 111.3" stroke="black" stroke-miterlimit="10" stroke-linecap="round" stroke-linejoin="round"/>
<path d="M17.2 124.5C17.2 124.5 5.60001 127.6 2.80001 132.8C0.300008 137.2 1.10001 138.8 0.800008 140.2C0.600008 141.2 50.5 140.1 50.5 140.1C50.5 140.1 50.7 134.3 47 130.9C43.4 127.6 34.2 124.7 34.2 124.7L17.2 124.5Z" fill="white" stroke="black" stroke-miterlimit="10" stroke-linecap="round" stroke-linejoin="round"/>
<path d="M19.3 119.6L17 126C17 126 25.7 128.8 34.5 126.1L32.1 120L19.3 119.6Z" fill="white" stroke="black" stroke-miterlimit="10" stroke-linecap="round" stroke-linejoin="round"/>
<path d="M40.2 90.9C40 92.9 36 93.4 33.5 93.5C33.2 93.3 33 93.1 32.7 92.9C30.7 91.6 28.3 90.8 25.8 90.8C18.3 90.8 12.2 97.6 12.2 106.1C12.2 114.5 18.3 121.4 25.8 121.4C33.3 121.4 39.4 114.6 39.4 106.1C39.4 102.9 38.5 99.9 37 97.4C41.7 95.3 40.2 90.9 40.2 90.9Z" fill="black" stroke="black" stroke-width="0.9802" stroke-miterlimit="10" stroke-linecap="round" stroke-linejoin="round"/>
<path d="M16 122.7L34.6 122.8L36.1 126.7C36.1 126.7 28.2 130.4 14.6 126.5L16 122.7Z" fill="white" stroke="black" stroke-miterlimit="10" stroke-linecap="round" stroke-linejoin="round"/>
<path d="M59.2 83.8L67 128.1L78 126.2L79.3 81.3C79.3 81.3 65.4 83.9 59.2 83.8Z" fill="black"/>
<path d="M80.3 30.5L80.1 26.5L73.2 24.1L65.5 29.6L62.2 37.3L65.5 42.5L66.3 43.5L63.9 48.2H73.7L75.3 43.5H76C76 43.5 80 43.9 80.8 39.5L79.3 37.8C80.5 38 81.5 37.6 81.5 37.6L81.8 34.2L83.8 31.7L80.3 30.5Z" fill="white" stroke="black" stroke-miterlimit="10" stroke-linecap="round" stroke-linejoin="round"/>
<path d="M66 43.9C66 43.9 56.4 39.9 59.6 29C62.8 18.2 74.3 20.6 74.3 20.6C74.3 20.6 80.5 22 81.4 27.3C81.4 27.3 72 27.6 68.6 28L70.3 35.1L68.3 35.3C68.3 35.3 66.3 31.9 64.4 34.5C64.4 34.5 63 39.1 66.9 37.7L66 43.9Z" fill="black"/>
<path d="M76.7 33.6C77.1971 33.6 77.6 33.1971 77.6 32.7C77.6 32.2029 77.1971 31.8 76.7 31.8C76.203 31.8 75.8 32.2029 75.8 32.7C75.8 33.1971 76.203 33.6 76.7 33.6Z" fill="#231815"/>
<path d="M65.5 35.4C65.5 35.4 66.7 34.7 67.3 36.3Z" fill="white"/>
<path d="M65.5 35.4C65.5 35.4 66.7 34.7 67.3 36.3" stroke="black" stroke-miterlimit="10" stroke-linecap="round" stroke-linejoin="round"/>
<path d="M61.2 49.6C61.2 49.6 59.1 50.5 57.8 63.2V84.3C57.8 84.3 68 88.9 80 84.2L80.4 64.9C80.4 64.9 78.4 53.8 77.1 52.1" fill="white"/>
<path d="M61.2 49.6C61.2 49.6 59.1 50.5 57.8 63.2V84.3C57.8 84.3 68 88.9 80 84.2L80.4 64.9C80.4 64.9 78.4 53.8 77.1 52.1" stroke="black" stroke-miterlimit="10"/>
<path d="M74.6 58C74.6 58 83.5 61.3 86.1 62.4C86.3 62.1 92.3 59.3 95.2 58.1C95.2 58.1 98.3 50.6 100 52.8C100.2 53.1 98.5 54.9 98.9 54.9C99.6 54.9 101.3 52.8 102.9 52.7C104.4 52.6 105.5 53.3 105.9 54.9C106.2 56.4 105.4 57.7 104.3 58.5C103.3 59.4 101.6 60 99.3 60.2C99.3 60.2 95.5 65.9 88.9 67.4C88.9 67.4 78.4 69.5 68 63.7C68.1 63.6 74.6 58 74.6 58Z" fill="white" stroke="black" stroke-miterlimit="10" stroke-linecap="round" stroke-linejoin="round"/>
<path d="M67.7 50.9L76.9 55.9L74.6 58" stroke="black" stroke-miterlimit="10" stroke-linecap="round" stroke-linejoin="round"/>
<path d="M63.1 45.6L76 48.1L77.1 52.2L60.8 49.6C60.7 49.6 61.2 46.8 63.1 45.6Z" fill="white" stroke="black" stroke-miterlimit="10" stroke-linecap="round" stroke-linejoin="round"/>
<path d="M88.7 94.6C88.7 94.6 92.4 98.5 91.5 104.9C90.6 112.3 85 114.5 85 114.5L85.7 124.4C85.7 124.4 74.8 128.1 70.6 120.8C70.6 120.8 74.3 116.3 74 114.4L81.5 93.9L88.7 94.6Z" fill="white" stroke="black" stroke-miterlimit="10" stroke-linecap="round" stroke-linejoin="round"/>
<path d="M85.1 105.3C85.1 105.3 87.1 104.7 87.4 106.3Z" fill="white"/>
<path d="M85.1 105.3C85.1 105.3 87.1 104.7 87.4 106.3" stroke="black" stroke-miterlimit="10" stroke-linecap="round" stroke-linejoin="round"/>
<path d="M57 139.5C57 139.5 56.1 123.2 70.6 120.9L85.6 121.1C85.6 121.1 91.4 122.7 95.2 126.2C100.2 130.9 99.7 139.3 99.7 139.3L57 139.5Z" fill="black" stroke="black" stroke-miterlimit="10" stroke-linecap="round" stroke-linejoin="round"/>
<path d="M63.7 100.8C63.7 100.8 64.3 91.5 72.6 88.4C72.6 88.4 83.7 84.1 89.8 93.6L84.8 98.3C84.8 98.3 87.7 102 87.4 103.3C87.4 103.3 84.5 102.3 83.5 104.2C83.5 104.2 82.1 106.9 84.5 108.2L87 108.8C87 108.8 86.1 112.8 81.5 114.4C81.5 114.4 80.4 115 79.5 116.6C79.5 116.6 62.4 115 63.7 100.8Z" fill="white" stroke="black" stroke-miterlimit="10" stroke-linecap="round" stroke-linejoin="round"/>
<path d="M55.3 110.9C55.3 110.9 58.6 110.1 59.5 107.1C59.5 107.1 60.5 104.1 62.7 102.4C65.7 100.1 69.7 103.6 67.8 106.8C67.8 106.9 67.7 106.9 67.7 107C65.4 110.6 62.4 111.6 55.3 110.9Z" fill="white" stroke="black" stroke-miterlimit="10" stroke-linecap="round" stroke-linejoin="round"/>
<path d="M94.9 11.6L105.3 28.3H105.4V11.6H110.5V36.5H105L94.7 19.9H94.6V36.5H89.5V11.6H94.9Z" fill="black"/>
<path d="M129.6 37.6C136.945 37.6 142.9 31.6454 142.9 24.3C142.9 16.9546 136.945 11 129.6 11C122.255 11 116.3 16.9546 116.3 24.3C116.3 31.6454 122.255 37.6 129.6 37.6Z" fill="#FFDD00" stroke="black" stroke-width="1.0296" stroke-miterlimit="10"/>
<path d="M129.6 24.9L121.4 39.2H137.9L129.6 24.9Z" fill="black" stroke="black" stroke-width="0.9661" stroke-miterlimit="10"/>
<path d="M137.8 10.1L129.6 24.5H146.1L137.8 10.1Z" fill="black" stroke="black" stroke-width="0.9661" stroke-miterlimit="10"/>
<path d="M120.8 10.1L112.6 24.5H129.1L120.8 10.1Z" fill="black" stroke="black" stroke-width="0.9661" stroke-miterlimit="10"/>
<path d="M129.6 35.3C135.62 35.3 140.5 30.4199 140.5 24.4C140.5 18.3801 135.62 13.5 129.6 13.5C123.58 13.5 118.7 18.3801 118.7 24.4C118.7 30.4199 123.58 35.3 129.6 35.3Z" stroke="black" stroke-width="1.0296" stroke-miterlimit="10"/>
</svg>
