<svg width="102" height="102" fill="none" xmlns="http://www.w3.org/2000/svg"><path d="M68.2 68.5H26.4c-1.9 0-3.4-1.5-3.4-3.4V35.9c0-1.9 1.5-3.4 3.4-3.4h41.8c1.9 0 3.4 1.5 3.4 3.4v29.3c0 1.8-1.5 3.3-3.4 3.3z" fill="#fff" stroke="#000" stroke-miterlimit="10" stroke-linecap="round" stroke-linejoin="round"/><path d="m23 35.9 21.8 17.5c1.4 1.1 3.3 1.1 4.7 0l22.1-17.5" fill="#fff"/><path d="m23 35.9 21.8 17.5c1.4 1.1 3.3 1.1 4.7 0l22.1-17.5M39.3 49.1 23 64.3M71.5 64.2 56.1 48.3M74.6 45.5H90M74.6 50.1H86M74.6 54.7h7.9" stroke="#000" stroke-miterlimit="10" stroke-linecap="round" stroke-linejoin="round"/><path d="M41.4 57.3v1.5h-4.2v1.7H41v1.3h-3.8v1.9h4.2v1.5h-5.9v-7.8h5.9v-.1zM46.1 57.3c.5 0 1 .1 1.4.2.4.2.8.4 1.1.7.3.3.6.7.8 1.2.2.5.3 1 .3 1.7 0 .6-.1 1.1-.2 1.6s-.5 1-.8 1.3c-.3.3-.7.6-1.1.8-.4.2-1 .3-1.6.3h-3.4v-7.9h3.5v.1zm-.2 6.4c.2 0 .5 0 .7-.1.2-.1.4-.2.6-.4.2-.2.3-.4.4-.7.1-.3.2-.7.2-1.1 0-.4 0-.8-.1-1.1-.1-.3-.2-.6-.4-.8-.2-.2-.4-.4-.7-.5-.3-.1-.7-.2-1.1-.2h-1.2v5l1.6-.1zM53.2 57.3l1.8 5.4 1.7-5.4h2.4v7.9h-1.6v-5.6l-1.9 5.6h-1.3l-1.9-5.5v5.5h-1.6v-7.9h2.4z" fill="#000"/></svg>