<svg width="102" height="102" viewBox="0 0 102 102" fill="none" xmlns="http://www.w3.org/2000/svg">
<path d="M19.2 48.5L23.1 47.6C23.1 47.6 27.5 54 24.7 65.3H19.9L19.2 48.5Z" fill="white" stroke="#040000" stroke-miterlimit="10" stroke-linecap="round" stroke-linejoin="round"/>
<path d="M23.7 48.3L39.1 48.4C39.1 48.4 47.9 45.6 49.9 45.8C51.9 45.9 55.1 46.3 54.7 50.4C54.3 54.5 49.9 51.2 49.5 49.2" stroke="#040000" stroke-miterlimit="10" stroke-linecap="round" stroke-linejoin="round"/>
<path d="M50.8 45.5C50.8 45.5 52.8 43.9 58 45.5" stroke="#040000" stroke-miterlimit="10" stroke-linecap="round" stroke-linejoin="round"/>
<path d="M25.2 63.8L41 60.9C41 60.9 47.1 63 50.2 60.4" stroke="#040000" stroke-miterlimit="10" stroke-linecap="round" stroke-linejoin="round"/>
<path d="M49.7 49.9L46.4 54.4C46.4 54.4 45.5 58 49.1 57.9C49.1 57.9 51.2 56.4 51.6 55.6" stroke="#040000" stroke-miterlimit="10" stroke-linecap="round" stroke-linejoin="round"/>
<path d="M54.5 46.8C54.5 46.8 58.9 44.9 63 44.5L71.5 41.3L76 52C76 52 70.7 54.1 68.3 53.7L61.5 58.6C61.5 58.6 57.3 61.8 55.7 61.6C55.7 61.6 53 62.4 52.8 60L55.7 57.3" stroke="#040000" stroke-miterlimit="10" stroke-linecap="round" stroke-linejoin="round"/>
<path d="M49.1 57.8C49.1 57.8 49.1 61.9 52.8 60.1" stroke="#040000" stroke-miterlimit="10" stroke-linecap="round" stroke-linejoin="round"/>
<path d="M54.8 56.6L57.1 57.3" stroke="#040000" stroke-miterlimit="10" stroke-linecap="round" stroke-linejoin="round"/>
<path d="M38 53.5C38 53.5 37.7 56.9 39.7 58.4" stroke="#040000" stroke-miterlimit="10" stroke-linecap="round" stroke-linejoin="round"/>
<path d="M39.1 32.7L44.4 38.9" stroke="#040000" stroke-miterlimit="10" stroke-linecap="round" stroke-linejoin="round"/>
<path d="M50.3 28.6L52 37.1" stroke="#040000" stroke-miterlimit="10" stroke-linecap="round" stroke-linejoin="round"/>
<path d="M61.3 29.6L58 37.3" stroke="#040000" stroke-miterlimit="10" stroke-linecap="round" stroke-linejoin="round"/>
<path d="M63.9 38.4L69.6 33.5" stroke="#040000" stroke-miterlimit="10" stroke-linecap="round" stroke-linejoin="round"/>
<path d="M81.2 52.5L78 54.8C78 54.8 71.5 50.6 69.8 39.1L74.2 37.3L81.2 52.5Z" fill="white" stroke="#040000" stroke-miterlimit="10" stroke-linecap="round" stroke-linejoin="round"/>
<path d="M50.3 54.5L52.2 55.4" stroke="#040000" stroke-miterlimit="10" stroke-linecap="round" stroke-linejoin="round"/>
</svg>
