<svg width="102" height="102" fill="none" xmlns="http://www.w3.org/2000/svg"><path d="M72.3 32H46.1v17.8h26.2V32z" fill="#fff" stroke="#000" stroke-width=".281" stroke-miterlimit="10" stroke-linecap="round" stroke-linejoin="round"/><path d="M60.7 51h-5.1l1.2-7h5l-1.1 7zM62.2 64.9s-3.3 1.2-4 3.1c-.7 1.7-.5 2.3-.6 2.8-.1.4 13.9 0 13.9 0s.1-2.2-1-3.5C69.5 66.1 67 65 67 65l-4.8-.1z" fill="#fff" stroke="#000" stroke-width=".281" stroke-miterlimit="10" stroke-linecap="round" stroke-linejoin="round"/><path d="m62.3 63.8-.1 1.1s2.9 1.6 4.8.1v-1.1l-4.7-.1z" fill="#fff" stroke="#000" stroke-width=".281" stroke-miterlimit="10" stroke-linecap="round" stroke-linejoin="round"/><path d="M59.1 62.5c-.2-.3-.1-.7.2-.9.5-.4 1.2-1.2 1.4-2.5.3-2 2-3.4 3.1-3.4 1.2-.1 2.2-.2 3.6 1.3.1.1.1.1.1.2.1.3.6 1.4.8 2.5.2 1 .9 1.6 1.4 2 .4.3.4.8.1 1.1-.4.4-1 .8-1.9.9-.1 0-.3.1-.4.1-.6.4-3.1 1.9-5.5 0-.1-.1-.3-.2-.5-.2-.5.1-1.9.1-2.4-1.1z" fill="#000"/><path d="M31.8 60.7s-1.1-.4-1.2.8c0 .3 0 1 1.1 1" fill="#fff"/><path d="M31.8 60.7s-1.1-.4-1.2.8c0 .3 0 1 1.1 1" stroke="#000" stroke-width=".281" stroke-miterlimit="10" stroke-linecap="round" stroke-linejoin="round"/><path d="M38.9 61.3s1.1-.4 1.2.8c0 .3 0 1-1.1 1" fill="#fff"/><path d="M38.9 61.3s1.1-.4 1.2.8c0 .3 0 1-1.1 1" stroke="#000" stroke-width=".281" stroke-miterlimit="10" stroke-linecap="round" stroke-linejoin="round"/><path d="M33.1 66.8s-3.3.9-4 2.3c-.7 1.2-.5 1.7-.6 2.1-.1.3 13.9 0 13.9 0s.1-1.6-1-2.6c-1-.9-3.6-1.7-3.6-1.7l-4.7-.1z" fill="#fff" stroke="#000" stroke-width=".281" stroke-miterlimit="10" stroke-linecap="round" stroke-linejoin="round"/><path d="m33.7 65.4-.7 1.8s2.4.8 4.9 0l-.7-1.7-3.5-.1z" fill="#fff" stroke="#000" stroke-width=".281" stroke-miterlimit="10" stroke-linecap="round" stroke-linejoin="round"/><path d="M39.5 57.4c-.1.6-1.2.7-1.9.7l-.2-.2c-.6-.4-1.2-.6-1.9-.6-2.1 0-3.8 1.9-3.8 4.3s1.7 4.3 3.8 4.3c2.1 0 3.8-1.9 3.8-4.3 0-.9-.3-1.7-.7-2.4 1.4-.6.9-1.8.9-1.8z" fill="#000" stroke="#000" stroke-width=".275" stroke-miterlimit="10" stroke-linecap="round" stroke-linejoin="round"/><path d="M32.8 66.3H38l.4 1.1s-2.2 1-6-.1l.4-1z" fill="#fff" stroke="#000" stroke-width=".281" stroke-miterlimit="10" stroke-linecap="round" stroke-linejoin="round"/><path d="m44.9 55.4 2.2 12.4 3.1-.5.4-12.6c-.1 0-4 .7-5.7.7z" fill="#000"/><path d="m50.8 40.4-.1-1.1-1.9-.7-2.2 1.5-.9 2.2.9 1.5.2.3-.7 1.3h2.7l.4-1.3h.2s1.1.1 1.3-1.1l-.4-.5c.3.1.6-.1.6-.1l.1-1 .6-.7-.8-.3z" fill="#fff" stroke="#000" stroke-width=".281" stroke-miterlimit="10" stroke-linecap="round" stroke-linejoin="round"/><path d="M46.8 44.2S44.1 43.1 45 40c.9-3 4.1-2.4 4.1-2.4s1.7.4 2 1.9c0 0-2.6.1-3.6.2l.5 2-.6.1s-.6-1-1.1-.2c0 0-.4 1.3.7.9l-.2 1.7z" fill="#000"/><path d="M49.8 41.4a.3.3 0 1 0 0-.6.3.3 0 0 0 0 .6z" fill="#231815"/><path d="M46.6 41.8s.3-.2.5.3z" fill="#fff"/><path d="M46.6 41.8s.3-.2.5.3" stroke="#000" stroke-width=".281" stroke-miterlimit="10" stroke-linecap="round" stroke-linejoin="round"/><path d="M45.4 45.8s-.6.3-1 3.8v5.9s2.9 1.3 6.2 0l.1-5.4s-.6-3.1-.9-3.6" fill="#fff"/><path d="M45.4 45.8s-.6.3-1 3.8v5.9s2.9 1.3 6.2 0l.1-5.4s-.6-3.1-.9-3.6" stroke="#000" stroke-width=".281" stroke-miterlimit="10"/><path d="M49.2 48.1s2.5.9 3.2 1.2c.1-.1 1.7-.9 2.6-1.2 0 0 .9-2.1 1.3-1.5.1.1-.4.6-.3.6.2 0 .7-.6 1.1-.6.4 0 .7.2.8.6.1.4-.1.8-.4 1-.3.3-.8.4-1.4.5 0 0-1.1 1.6-2.9 2 0 0-2.9.6-5.9-1 .1 0 1.9-1.6 1.9-1.6z" fill="#fff" stroke="#000" stroke-width=".281" stroke-miterlimit="10" stroke-linecap="round" stroke-linejoin="round"/><path d="m47.3 46.2 2.5 1.4-.6.5" stroke="#000" stroke-width=".281" stroke-miterlimit="10" stroke-linecap="round" stroke-linejoin="round"/><path d="m46 44.7 3.6.7.3 1.1-4.6-.7s.1-.8.7-1.1zM53.1 58.4s1 1.1.8 2.9c-.3 2.1-1.8 2.7-1.8 2.7l.2 2.8s-3.1 1-4.2-1c0 0 1-1.3 1-1.8l2.1-5.7 1.9.1z" fill="#fff" stroke="#000" stroke-width=".281" stroke-miterlimit="10" stroke-linecap="round" stroke-linejoin="round"/><path d="M52.1 61.4s.6-.2.6.3z" fill="#fff"/><path d="M52.1 61.4s.6-.2.6.3" stroke="#000" stroke-width=".281" stroke-miterlimit="10" stroke-linecap="round" stroke-linejoin="round"/><path d="M44.3 71s-.3-4.6 3.8-5.2l4.2.1s1.6.4 2.7 1.4c1.4 1.3 1.3 3.7 1.3 3.7h-12z" fill="#000" stroke="#000" stroke-width=".281" stroke-miterlimit="10" stroke-linecap="round" stroke-linejoin="round"/><path d="M46.1 60.2s.2-2.6 2.5-3.5c0 0 3.1-1.2 4.8 1.5L52 59.5s.8 1 .7 1.4c0 0-.8-.3-1.1.3 0 0-.4.8.3 1.1l.7.2s-.3 1.1-1.5 1.6c0 0-.3.2-.6.6.1-.1-4.7-.6-4.4-4.5z" fill="#fff" stroke="#000" stroke-width=".281" stroke-miterlimit="10" stroke-linecap="round" stroke-linejoin="round"/><path d="M43.8 63s.9-.2 1.2-1.1c0 0 .3-.8.9-1.3.8-.6 2 .3 1.4 1.2v.1c-.7 1-1.5 1.3-3.5 1.1z" fill="#fff" stroke="#000" stroke-width=".281" stroke-miterlimit="10" stroke-linecap="round" stroke-linejoin="round"/><path d="m54.9 35.1 2.9 4.7v-4.7h1.4v7h-1.5l-2.9-4.7v4.7h-1.4v-7h1.5z" fill="#000"/><path d="M64.6 42.4a3.7 3.7 0 1 0 0-7.4 3.7 3.7 0 0 0 0 7.4z" fill="#FD0" stroke="#000" stroke-width=".289" stroke-miterlimit="10"/><path d="m64.6 38.9-2.3 4h4.6l-2.3-4zM66.9 34.7l-2.3 4.1h4.6l-2.3-4.1zM62.1 34.7l-2.3 4.1h4.7l-2.4-4.1z" fill="#000" stroke="#000" stroke-width=".271" stroke-miterlimit="10"/><path d="M64.6 41.8a3.1 3.1 0 1 0 0-6.2 3.1 3.1 0 0 0 0 6.2z" stroke="#000" stroke-width=".289" stroke-miterlimit="10"/></svg>