<svg width="102" height="102" fill="none" xmlns="http://www.w3.org/2000/svg"><path d="m19.2 48.5 3.9-.9s4.4 6.4 1.6 17.7h-4.8l-.7-16.8z" fill="#fff" stroke="#040000" stroke-miterlimit="10" stroke-linecap="round" stroke-linejoin="round"/><path d="m23.7 48.3 15.4.1s8.8-2.8 10.8-2.6c2 .1 5.2.5 4.8 4.6-.4 4.1-4.8.8-5.2-1.2M50.8 45.5s2-1.6 7.2 0M25.2 63.8 41 60.9s6.1 2.1 9.2-.5" stroke="#040000" stroke-miterlimit="10" stroke-linecap="round" stroke-linejoin="round"/><path d="m49.7 49.9-3.3 4.5s-.9 3.6 2.7 3.5c0 0 2.1-1.5 2.5-2.3M54.5 46.8s4.4-1.9 8.5-2.3l8.5-3.2L76 52s-5.3 2.1-7.7 1.7l-6.8 4.9s-4.2 3.2-5.8 3c0 0-2.7.8-2.9-1.6l2.9-2.7" stroke="#040000" stroke-miterlimit="10" stroke-linecap="round" stroke-linejoin="round"/><path d="M49.1 57.8s0 4.1 3.7 2.3M54.8 56.6l2.3.7M38 53.5s-.3 3.4 1.7 4.9M39.1 32.7l5.3 6.2M50.3 28.6l1.7 8.5M61.3 29.6 58 37.3M63.9 38.4l5.7-4.9" stroke="#040000" stroke-miterlimit="10" stroke-linecap="round" stroke-linejoin="round"/><path d="M81.2 52.5 78 54.8s-6.5-4.2-8.2-15.7l4.4-1.8 7 15.2z" fill="#fff" stroke="#040000" stroke-miterlimit="10" stroke-linecap="round" stroke-linejoin="round"/><path d="m50.3 54.5 1.9.9" stroke="#040000" stroke-miterlimit="10" stroke-linecap="round" stroke-linejoin="round"/></svg>